<svg width="23" height="23" viewBox="0 0 23 23" fill="none" xmlns="http://www.w3.org/2000/svg">
<path fill-rule="evenodd" clip-rule="evenodd" d="M21.3881 22.9993H17.4187C17.1899 23.0085 16.9671 22.9244 16.8014 22.7663C16.6357 22.6083 16.5412 22.3898 16.5396 22.1608V8.53478C16.5376 8.30286 16.6303 8.08017 16.7962 7.91811C16.9621 7.75604 17.1869 7.6686 17.4187 7.67597H21.3949C21.622 7.67596 21.8398 7.76666 21.9998 7.92791C22.1598 8.08917 22.2487 8.30763 22.2469 8.53478V22.1472C22.2469 22.3744 22.1563 22.5921 21.995 22.7521C21.8337 22.9121 21.6153 23.0011 21.3881 22.9993ZM20.536 9.37327H18.2774V21.3019H20.536V9.37327Z" fill="black"/>
<path fill-rule="evenodd" clip-rule="evenodd" d="M1.34301 12.062C1.5032 11.9018 1.72098 11.8127 1.94751 11.8145L5.92372 11.8212C6.15025 11.8194 6.36803 11.9086 6.52822 12.0688C6.68841 12.229 6.77759 12.4468 6.77577 12.6733V22.1405C6.77757 22.3676 6.6886 22.5861 6.52862 22.7473C6.36863 22.9086 6.15088 22.9993 5.92372 22.9993H1.94751C1.71859 23.0012 1.4987 22.9102 1.33811 22.747C1.17751 22.5839 1.08996 22.3626 1.09546 22.1337V12.6665C1.09364 12.44 1.18282 12.2222 1.34301 12.062ZM2.80603 21.2817H5.06463L5.04434 13.5321H2.80603V21.2817Z" fill="black"/>
<path fill-rule="evenodd" clip-rule="evenodd" d="M9.08246 15.6412C9.24225 15.484 9.45797 15.3966 9.68215 15.3984L13.6584 15.3849C13.8849 15.3831 14.1027 15.4723 14.2629 15.6325C14.4231 15.7927 14.5122 16.0104 14.5104 16.237V22.154C14.5067 22.6219 14.1263 22.9993 13.6584 22.9992H9.68215C9.45562 23.0011 9.23784 22.9119 9.07766 22.7517C8.91747 22.5915 8.82829 22.3737 8.83011 22.1472V16.237C8.83189 16.0128 8.92267 15.7985 9.08246 15.6412ZM10.5406 21.3019H12.7992V17.1093H10.5406V21.3019Z" fill="black"/>
<path d="M20.5434 4.34896C20.5947 4.77697 20.9576 5.09922 21.3887 5.09958H21.5036C21.7292 5.07098 21.9339 4.95344 22.0724 4.77311C22.2108 4.59277 22.2714 4.36459 22.2407 4.13933L21.8079 0.758194C21.7827 0.530203 21.6665 0.32203 21.4858 0.18076C21.3051 0.03949 21.075 -0.0229433 20.8477 0.00758117L17.5274 0.433605C17.0704 0.490075 16.7426 0.902 16.7903 1.36004C16.8501 1.82766 17.2757 2.15966 17.7438 2.10389L19.0084 1.94159L11.0424 9.74526L4.4086 5.4174C4.09406 5.21179 3.68196 5.23652 3.39426 5.47826L0.310662 8.0344C0.0751088 8.22889 -0.0387962 8.53426 0.0118539 8.8355C0.0625039 9.13673 0.270014 9.38807 0.556217 9.49482C0.84242 9.60157 1.16384 9.54753 1.39939 9.35305L3.98258 7.21617L10.6637 11.5576C10.9998 11.7724 11.4396 11.7276 11.7254 11.4494L20.3743 3.01679L20.5434 4.34896Z" fill="black"/>
</svg>
