<svg width="25" height="24" viewBox="0 0 25 24" fill="none" xmlns="http://www.w3.org/2000/svg">
<path fill-rule="evenodd" clip-rule="evenodd" d="M23.4593 18.8068C23.8136 19.1586 24.0108 19.6386 24.0064 20.1378C24.0048 20.6355 23.8031 21.1115 23.4467 21.4589L21.4526 23.453C21.1027 23.8032 20.6279 24 20.1328 24C19.6378 24 19.163 23.8032 18.8131 23.453L14.9458 19.5857C14.2179 18.8565 14.2179 17.6755 14.9458 16.9462L15.4979 16.3941L14.2753 15.1714L12.1979 17.2715C11.4107 18.0568 10.1364 18.0568 9.34919 17.2715L8.49204 16.4143L7.108 17.7983C6.94723 17.9591 6.7129 18.0219 6.49329 17.9631C6.27367 17.9042 6.10213 17.7327 6.04329 17.5131C5.98444 17.2934 6.04723 17.0591 6.208 16.8983L7.60212 15.5269L6.74498 14.6698C5.95966 13.8825 5.95966 12.6082 6.74498 11.821L8.8349 9.73108L7.61221 8.49579L7.0601 9.04789C6.33084 9.77585 5.14985 9.77585 4.4206 9.04789L0.553354 5.19325C0.199249 4.84285 0 4.36537 0 3.8672C0 3.36902 0.199249 2.89155 0.553354 2.54114L2.56008 0.547016C2.90999 0.196785 3.38476 0 3.87984 0C4.37491 0 4.84968 0.196785 5.19959 0.547016L9.05423 4.41426C9.78219 5.14352 9.78219 6.3245 9.05423 7.05376L8.50212 7.60587L9.73742 8.82856L12.9744 5.57897C13.6735 4.8818 14.7746 4.79325 15.5761 5.36972L16.7459 4.20249C17.427 3.52227 18.5303 3.52227 19.2114 4.20249L19.8064 4.79745C20.1337 5.12422 20.3176 5.56774 20.3176 6.03023C20.3176 6.49272 20.1337 6.93624 19.8064 7.26301L18.6391 8.43024C19.2156 9.23178 19.1271 10.3328 18.4299 11.0319L16.2744 13.1874C16.028 13.4338 15.6284 13.4338 15.382 13.1874C15.1355 12.941 15.1355 12.5414 15.382 12.295L17.5375 10.1395C17.8307 9.8445 17.8307 9.36809 17.5375 9.0731L14.9332 6.46889C14.635 6.18365 14.1651 6.18365 13.8669 6.46889L10.171 10.1647L7.63742 12.6983C7.34418 12.9933 7.34418 13.4697 7.63742 13.7647L10.2391 16.3588C10.5341 16.6521 11.0105 16.6521 11.3055 16.3588L13.3954 14.2689L12.4929 13.3815C12.2465 13.1351 12.2465 12.7355 12.4929 12.4891C12.7393 12.2426 13.1389 12.2426 13.3853 12.4891L14.7341 13.8378L16.4005 15.5042L16.9526 14.9521C17.6818 14.2242 18.8628 14.2242 19.5921 14.9521L23.4593 18.8068ZM18.3164 5.09239C18.1233 4.91459 17.8262 4.91459 17.6332 5.09239L16.4836 6.25205L17.7617 7.53021L18.9113 6.38063C19.0995 6.19175 19.0995 5.88631 18.9113 5.69743L18.3164 5.09239ZM2.88504 5.73015L5.73631 2.87888L6.71194 3.86712L3.87327 6.70579L2.88504 5.73015ZM1.4444 3.4336C1.33079 3.54721 1.26726 3.7015 1.26793 3.86217C1.26792 4.02321 1.33238 4.17755 1.44692 4.29074L1.99398 4.8378L4.84021 1.98653L4.29315 1.43947C4.17962 1.32555 4.02541 1.26152 3.86458 1.26152C3.70375 1.26152 3.54953 1.32555 3.436 1.43947L1.4444 3.4336ZM6.16506 8.14785C5.92804 8.38373 5.54495 8.38373 5.30792 8.14785L4.76086 7.60079L7.61213 4.75708L8.15919 5.30414C8.39507 5.54117 8.39507 5.92426 8.15919 6.16128L6.16506 8.14785ZM20.1391 17.2941L17.3004 20.1328L18.2761 21.121L21.1274 18.2824L20.1391 17.2941ZM15.8582 17.8361L17.8523 15.8419C18.0894 15.6061 18.4725 15.6061 18.7095 15.8419L19.2565 16.389L16.3952 19.2428L15.8481 18.6957C15.6116 18.4594 15.6104 18.0763 15.8456 17.8386L15.8582 17.8361ZM20.578 22.5606L22.5671 20.5715V20.5665C22.681 20.4529 22.745 20.2987 22.745 20.1379C22.745 19.9771 22.681 19.8228 22.5671 19.7093L22.02 19.1623L19.1738 22.0135L19.7209 22.5606C19.9606 22.7898 20.3383 22.7898 20.578 22.5606Z" fill="black"/>
<path d="M6.6025 19.79C5.28455 19.7886 4.21649 18.7205 4.2151 17.4026C4.2151 17.0545 3.93292 16.7723 3.58484 16.7723C3.23676 16.7723 2.95459 17.0545 2.95459 17.4026C2.95737 19.4161 4.58897 21.0477 6.6025 21.0505C6.95058 21.0505 7.23276 20.7683 7.23276 20.4203C7.23276 20.0722 6.95058 19.79 6.6025 19.79V19.79Z" fill="black"/>
<path d="M1.32692 17.7051C1.32692 17.3571 1.04474 17.0749 0.696661 17.0749C0.348581 17.0749 0.0664062 17.3571 0.0664062 17.7051C0.0705735 21.1466 2.8594 23.9355 6.30088 23.9396C6.64896 23.9396 6.93114 23.6574 6.93114 23.3094C6.93114 22.9613 6.64896 22.6791 6.30088 22.6791C3.55499 22.6763 1.32969 20.451 1.32692 17.7051Z" fill="black"/>
</svg>
