<svg width="20" height="23" viewBox="0 0 20 23" fill="none" xmlns="http://www.w3.org/2000/svg">
<path fill-rule="evenodd" clip-rule="evenodd" d="M8.43333 0C7.1724 0 6.13333 1.03906 6.13333 2.3V3.84382C5.43651 4.13633 4.76993 4.50627 4.15078 4.95339C3.92869 5.11384 3.80909 5.38062 3.83705 5.65318C3.86501 5.92575 4.03629 6.16268 4.28634 6.2747C4.53639 6.38672 4.82721 6.3568 5.04922 6.19622C6.48196 5.16159 8.20158 4.60104 9.96667 4.6C14.6328 4.59731 18.4 8.36666 18.4 13.0333C18.4 17.7 14.6333 21.4667 9.96667 21.4667C5.29998 21.4667 1.53148 17.6997 1.53333 13.0333C1.53392 11.5535 1.92807 10.0999 2.67136 8.81816C2.88262 8.45192 2.75761 7.98379 2.39189 7.77162C2.02617 7.55946 1.55773 7.68331 1.34466 8.0485C0.46688 9.5622 0.000698469 11.2817 8.0283e-07 13.0333C-0.00218795 18.5291 4.47131 23 9.96667 23C15.462 23 19.9333 18.5287 19.9333 13.0333C19.9333 8.89611 17.3977 5.33973 13.8 3.83483V2.3C13.8 1.03906 12.7609 0 11.5 0H8.43333ZM8.43828 1.53312H11.5049C11.9429 1.53312 12.2716 1.86181 12.2716 2.29978V3.34347C11.532 3.16803 10.7642 3.06599 9.97161 3.06645C9.19232 3.0669 8.42078 3.1596 7.67161 3.33898V2.29978C7.67161 1.86181 8.00029 1.53312 8.43828 1.53312ZM9.94734 7.65458C9.744 7.65814 9.55041 7.74234 9.40916 7.88865C9.2679 8.03496 9.19056 8.23139 9.19415 8.43472V13.0302C9.19419 13.2343 9.27556 13.4299 9.42025 13.5738L12.4884 16.642C12.6758 16.8607 12.97 16.956 13.2501 16.8886C13.5301 16.8212 13.7488 16.6026 13.8162 16.3225C13.8836 16.0424 13.7883 15.7482 13.5695 15.5608L10.7275 12.7143V8.43472C10.7311 8.22671 10.6501 8.02614 10.503 7.87903C10.3559 7.73193 10.1553 7.65091 9.94734 7.65458Z" fill="black"/>
</svg>
