<svg width="312" height="75" viewBox="0 0 312 75" fill="none" xmlns="http://www.w3.org/2000/svg">
<ellipse cx="139.402" cy="37.5" rx="37.5697" ry="37.5" fill="#2D2C31"/>
<path fill-rule="evenodd" clip-rule="evenodd" d="M7.80381 66.2436V35.1365L13.0903 66.2436H20.8437L25.8281 35.1365V66.2436H33.7326V23.0756H20.441L16.816 49.4086L13.191 23.0756H0V66.2436H7.80381ZM43.2359 66.2436L43.7394 59.2584H48.9755L49.5797 66.2436H57.7863L53.6578 23.0756H39.0068L34.8279 66.2436H43.2359ZM44.3939 52.3736H48.3209L46.4078 30.4127H46.005L44.3939 52.3736ZM67.4399 66.2436V45.3381L72.1726 66.2436H81.0213V65.7901L81.1344 66.2436H98.8945V57.8513H89.832V47.9513H97.9883V39.8101H89.832V31.4178H98.3407V23.0756H81.0213V65.7901L75.2941 42.8254L80.1274 23.0756H71.4174L67.3896 40.3629V23.0756H58.8306V66.2436H67.4399Z" fill="#2D2C31"/>
<path fill-rule="evenodd" clip-rule="evenodd" d="M189.402 54.8223V35.2233H193.48V54.8223H202.089V11.6543H193.48V27.0822H189.402V11.6543H180.792V54.8223H189.402ZM211.592 54.8223L212.096 47.837H217.332L217.936 54.8223H226.142L222.014 11.6543H207.363L203.184 54.8223H211.592ZM212.75 40.9523H216.677L214.764 18.9914H214.361L212.75 40.9523ZM235.696 54.8223V37.736H239.22C242.61 37.736 244.96 36.6472 246.269 34.4695C247.578 32.2919 248.232 29.0589 248.232 24.7705C248.232 20.4822 247.494 17.2241 246.017 14.9962C244.54 12.7683 242.073 11.6543 238.616 11.6543H227.187V54.8223H235.696ZM235.696 29.9467H236.199C237.24 29.9467 238.003 29.754 238.49 29.3688C238.977 28.9835 239.295 28.4307 239.447 27.7104C239.598 26.9901 239.673 25.9599 239.673 24.6198C239.673 22.8106 239.472 21.504 239.069 20.7C238.666 19.8959 237.861 19.4939 236.652 19.4939H235.696V29.9467ZM257.886 54.8223V37.736H261.41C264.8 37.736 267.15 36.6472 268.459 34.4695C269.768 32.2919 270.423 29.0589 270.423 24.7705C270.423 20.4822 269.684 17.2241 268.207 14.9962C266.73 12.7683 264.263 11.6543 260.806 11.6543H249.377V54.8223H257.886ZM257.886 29.9467H258.39C259.43 29.9467 260.194 29.754 260.681 29.3688C261.167 28.9835 261.486 28.4307 261.637 27.7104C261.788 26.9901 261.864 25.9599 261.864 24.6198C261.864 22.8106 261.662 21.504 261.26 20.7C260.857 19.8959 260.051 19.4939 258.843 19.4939H257.886V29.9467ZM289.441 54.8223V46.4299H280.379V36.5299H288.535V28.3888H280.379V19.9964H288.888V11.6543H271.568V54.8223H289.441ZM299.196 33.2132V54.8223H290.738V11.6543H299.649L303.627 32.3086V11.6543H311.984V54.8223H303.526L299.196 33.2132Z" fill="#2D2C31"/>
<path fill-rule="evenodd" clip-rule="evenodd" d="M131.583 18.1501V28.834L142.263 26.9503V60.533L159.045 57.5731V23.9904L169.725 22.1052V11.4213L131.583 18.1501Z" fill="#F5ECE1"/>
<path fill-rule="evenodd" clip-rule="evenodd" d="M112.131 21.9956V66.2436L128.913 63.2821V19.0355L112.131 21.9956Z" fill="#F5ECE1"/>
</svg>
