<svg width="261" height="97" viewBox="0 0 261 97" fill="none" xmlns="http://www.w3.org/2000/svg">
    <path fill-rule="evenodd" clip-rule="evenodd"
        d="M84.5325 65.5635C84.534 65.3898 84.4993 65.2491 84.4733 65.146C84.4676 65.1242 84.4615 65.1013 84.4574 65.0785L84.3282 64.4181H78.3798V65.2344C78.3798 65.4914 78.3819 65.7444 78.3839 65.9948C78.3875 66.5332 78.3916 67.0421 78.3763 67.5511C78.3645 67.9722 78.363 68.3968 78.3615 68.8077C78.3579 69.8327 78.3548 70.8019 78.1985 71.7467C77.5897 75.4277 73.8821 78.2035 69.5748 78.2035C68.3015 78.2035 67.0603 77.9613 65.8866 77.4838C62.5247 76.1149 60.8024 73.7505 60.7682 70.455C60.7013 64.0783 60.7192 57.5915 60.7366 51.318C60.7417 49.499 60.7468 47.6806 60.7498 45.8617C60.7503 45.4046 60.8162 44.886 60.9511 44.2774C61.5088 41.756 63.4656 39.6649 66.1844 38.6835L66.7253 38.4885V33.1328L65.7431 33.3289C62.5901 33.9592 59.9627 35.3764 57.933 37.5417C55.7091 39.9143 54.5829 42.8237 54.5859 46.1903C54.59 50.0882 54.59 53.9861 54.59 57.8835C54.5895 61.851 54.5895 65.819 54.5936 69.7865C54.5941 70.4479 54.6094 71.2286 54.7182 72.0037C55.2571 75.8371 57.2491 78.8466 60.6395 80.95C63.1933 82.5347 66.1374 83.3383 69.3904 83.3383C70.3644 83.3383 71.387 83.2666 72.4295 83.1249C75.6125 82.6927 78.5765 81.2847 80.7753 79.161C83.0023 77.0089 84.3098 74.2528 84.4579 71.3997C84.5294 70.0253 84.5289 68.636 84.5279 67.292C84.5279 66.7247 84.5274 66.1385 84.5325 65.5635"
        fill="#5E5E82" />
    <path fill-rule="evenodd" clip-rule="evenodd"
        d="M73.9064 39.1051C76.5164 40.3933 78.1652 42.6841 78.3158 45.2324C78.3863 46.4159 78.3822 47.6354 78.3781 48.8149C78.3766 49.3553 78.3746 49.9135 78.3802 50.4651C78.3812 50.5891 78.3812 50.713 78.3807 50.841L78.3802 51.8513H84.4664V51.0351C84.4664 50.3879 84.4813 49.7302 84.4956 49.0932C84.5277 47.67 84.5604 46.1985 84.4307 44.7458C84.0522 40.5081 81.8503 37.2273 77.8848 34.9949C77.329 34.682 76.7493 34.4006 76.163 34.1599C75.8289 34.0222 75.4791 33.9526 75.1236 33.9526C73.6183 33.9526 72.394 35.1737 72.394 36.6747C72.394 37.7134 72.9738 38.645 73.9064 39.1051"
        fill="#5E5E82" />
    <path fill-rule="evenodd" clip-rule="evenodd"
        d="M217.846 65.5635C217.848 65.3898 217.813 65.2491 217.787 65.146C217.781 65.1242 217.775 65.1013 217.771 65.0785L217.642 64.4181H211.694V65.2344C211.694 65.4914 211.696 65.7444 211.698 65.9948C211.701 66.5332 211.705 67.0421 211.69 67.5511C211.678 67.9722 211.677 68.3968 211.675 68.8077C211.672 69.8327 211.669 70.8019 211.512 71.7467C210.903 75.4277 207.196 78.2035 202.889 78.2035C201.615 78.2035 200.374 77.9613 199.2 77.4838C195.838 76.1149 194.116 73.7505 194.082 70.455C194.015 64.0783 194.033 57.5915 194.05 51.318C194.055 49.499 194.06 47.6806 194.064 45.8617C194.064 45.4046 194.13 44.886 194.265 44.2774C194.823 41.756 196.779 39.6649 199.498 38.6835L200.039 38.4885V33.1328L199.057 33.3289C195.904 33.9592 193.276 35.3764 191.247 37.5417C189.023 39.9143 187.897 42.8237 187.9 46.1903C187.904 50.0882 187.904 53.9861 187.904 57.8835C187.903 61.851 187.903 65.819 187.907 69.7865C187.908 70.4479 187.923 71.2286 188.032 72.0037C188.571 75.8371 190.563 78.8466 193.953 80.95C196.507 82.5347 199.451 83.3383 202.704 83.3383C203.678 83.3383 204.701 83.2666 205.743 83.1249C208.926 82.6927 211.89 81.2847 214.089 79.161C216.316 77.0089 217.624 74.2528 217.772 71.3997C217.843 70.0253 217.843 68.636 217.842 67.292C217.841 66.7247 217.841 66.1385 217.846 65.5635"
        fill="#5E5E82" />
    <path fill-rule="evenodd" clip-rule="evenodd"
        d="M207.219 39.1051C209.829 40.3933 211.478 42.6841 211.629 45.2324C211.699 46.4159 211.695 47.6354 211.691 48.8149C211.69 49.3553 211.688 49.9135 211.693 50.4651C211.694 50.5891 211.694 50.713 211.694 50.841L211.693 51.8513H217.779V51.0351C217.779 50.3879 217.794 49.7302 217.809 49.0932C217.841 47.67 217.873 46.1985 217.744 44.7458C217.365 40.5081 215.163 37.2273 211.198 34.9949C210.642 34.682 210.062 34.4006 209.476 34.1599C209.142 34.0222 208.792 33.9526 208.437 33.9526C206.931 33.9526 205.707 35.1737 205.707 36.6747C205.707 37.7134 206.287 38.645 207.219 39.1051"
        fill="#5E5E82" />
    <path fill-rule="evenodd" clip-rule="evenodd"
        d="M117.736 48.5768C119.435 48.5768 120.816 47.2029 120.816 45.514V39.4721H140.04V34.3013H114.656V45.514C114.656 47.2029 116.038 48.5768 117.736 48.5768"
        fill="#5E5E82" />
    <path fill-rule="evenodd" clip-rule="evenodd"
        d="M120.83 76.969V58.5385H137.079V53.3286H114.656V82.1698H140.043V76.969H120.83Z" fill="#5E5E82" />
    <path fill-rule="evenodd" clip-rule="evenodd"
        d="M230.851 48.5768C232.55 48.5768 233.931 47.2029 233.931 45.514V39.4721H253.155V34.3013H227.771V45.514C227.771 47.2029 229.153 48.5768 230.851 48.5768"
        fill="#5E5E82" />
    <path fill-rule="evenodd" clip-rule="evenodd"
        d="M233.945 76.969V58.5385H245.086L250.194 53.3286H227.771V82.1698H253.159V76.969H233.945Z" fill="#5E5E82" />
    <path fill-rule="evenodd" clip-rule="evenodd"
        d="M99.4816 48.0654C97.8068 48.0654 96.4441 49.4206 96.4441 51.0861V82.1764H102.52V51.0861C102.52 49.4206 101.157 48.0654 99.4816 48.0654"
        fill="#5E5E82" />
    <mask id="m_xdfsd9" mask-type="alpha" maskUnits="userSpaceOnUse" x="15" y="33" width="239" height="51">
        <path fill-rule="evenodd" clip-rule="evenodd" d="M15.323 83.4552H253.159V33.0156H15.323V83.4552Z"
            fill="white" />
    </mask>
    <g mask="url(#m_xdfsd9)">
        <path fill-rule="evenodd" clip-rule="evenodd" d="M96.4438 43.3134H102.52V34.2939H96.4438V43.3134Z"
            fill="#5E5E82" />
        <path fill-rule="evenodd" clip-rule="evenodd"
            d="M152.522 71.2144C150.829 71.2144 149.455 72.5797 149.455 74.265C149.454 76.6767 149.454 79.8904 149.454 81.4615V82.8029H155.591L155.59 74.265C155.59 72.5797 154.216 71.2144 152.522 71.2144"
            fill="#5E5E82" />
        <path fill-rule="evenodd" clip-rule="evenodd"
            d="M178.464 45.5722C178.193 41.7733 176.486 38.71 173.392 36.4669C171.027 34.7531 168.162 33.816 164.876 33.6819C164.561 33.6687 164.247 33.6626 163.94 33.6626C159.588 33.6626 155.98 34.9766 153.215 37.5676C150.714 39.9117 149.447 42.9309 149.45 46.5403C149.456 52.7077 149.456 58.7963 149.456 63.4119C149.456 64.2272 149.775 64.9931 150.355 65.5691C150.934 66.1456 151.704 66.4631 152.524 66.4631C154.214 66.4631 155.591 65.0947 155.591 63.4124C155.592 56.858 155.596 51.5638 155.605 46.7516C155.607 45.8013 155.703 45.0241 155.897 44.3755C156.799 41.371 158.938 39.5582 162.256 38.9888C162.925 38.8735 163.581 38.8156 164.206 38.8156C166.773 38.8156 168.934 39.7863 170.626 41.7007C171.801 43.03 172.348 44.6239 172.346 46.7171C172.34 55.3322 172.341 64.0916 172.342 72.5624L172.343 82.809H178.484V75.7076C178.484 66.0791 178.484 56.4512 178.483 46.8232C178.483 46.7384 178.484 46.6531 178.484 46.5677C178.486 46.2457 178.488 45.9135 178.464 45.5722"
            fill="#5E5E82" />
        <path fill-rule="evenodd" clip-rule="evenodd"
            d="M22.6012 56.3421C23.2907 56.6672 24.0313 56.9678 24.8664 57.2625L25.371 57.4407L29.5619 53.0161L28.3646 52.6032C27.149 52.1836 26.1995 51.7635 25.3762 51.2815C23.6697 50.2824 22.6701 48.9907 22.3213 47.3323C22.0838 46.2057 22.1042 45.0679 22.3805 43.9505C23.211 40.5991 26.6541 38.1671 30.567 38.1671C32.3241 38.1671 34.0065 38.6618 35.4321 39.599C37.7034 41.0923 38.8245 43.122 38.8588 45.8049C38.8639 46.2047 38.8629 46.6141 38.8613 47.0093C38.8603 47.1967 38.8598 47.3836 38.8598 47.5705V48.3868H44.8791V47.5705C44.8791 47.2566 44.8878 46.9366 44.896 46.6273C44.9154 45.9345 44.9348 45.2178 44.8592 44.5C44.421 40.3131 42.2656 37.1055 38.4537 34.9651C36.1502 33.6719 33.5417 33.0161 30.7009 33.0161C29.9572 33.0161 29.1859 33.0608 28.4065 33.1502C23.6227 33.6957 20.0494 35.7971 17.7842 39.3958C16.3152 41.7287 15.7656 44.3797 16.1027 47.4999C16.5399 51.5416 18.726 54.5165 22.6012 56.3421"
            fill="#5E5E82" />
        <path fill-rule="evenodd" clip-rule="evenodd"
            d="M45.7245 65.7349C45.5988 63.4111 44.8986 61.3854 43.6431 59.7133C42.3693 58.0163 40.5188 56.6814 38.1427 55.7453C37.7499 55.5904 37.3301 55.4339 36.8959 55.28C36.6017 55.1759 36.2942 55.1226 35.9822 55.1226C35.2293 55.1226 34.501 55.4365 33.9835 55.9825C33.3732 56.6266 33.1153 57.5292 33.2925 58.3962C33.4702 59.2658 34.0653 59.9977 34.883 60.3553C35.2068 60.4965 35.5199 60.6454 35.8146 60.7982C37.9195 61.8893 39.1423 63.3841 39.4492 65.2412C39.8226 67.5045 39.8246 69.681 39.4554 71.7092C38.7602 75.5182 34.9984 78.2829 30.5098 78.2829C29.4137 78.2829 28.3284 78.1123 27.2839 77.776C23.9225 76.6936 21.5071 73.7669 21.4096 70.6593C21.38 69.7115 21.3769 68.7469 21.38 67.7976H15.3243C15.3162 69.2132 15.3289 70.6614 15.4965 72.0947C15.9281 75.7849 17.9747 78.8615 21.4147 80.9928C24.0528 82.6268 27.0392 83.4553 30.2912 83.4558H30.2918C31.5237 83.4558 32.817 83.3359 34.1352 83.1002C40.4411 81.9736 45.063 77.4514 45.6361 71.8489C45.8205 70.0432 45.8496 68.0434 45.7245 65.7349"
            fill="#5E5E82" />
    </g>
    <ellipse cx="2.04305" cy="68.5713" rx="2.04305" ry="2.03175" fill="#2D2C31" />
    <ellipse cx="72.5284" cy="45.7139" rx="2.04305" ry="2.03175" fill="#2D2C31" />
    <ellipse cx="258.756" cy="44.6982" rx="2.04305" ry="2.03174" fill="#2D2C31" />
    <ellipse cx="203.284" cy="70.603" rx="2.04305" ry="2.03175" fill="#2D2C31" />
    <path d="M178.256 31.4918V52.3172" stroke="#2D2C31" stroke-linecap="square" />
    <path d="M178.256 84.8253L178.512 95.7459" stroke="#2D2C31" stroke-linecap="square" />
    <path d="M66.6546 25.1427L66.5269 47.6189" stroke="#2D2C31" stroke-linecap="square" />
    <path d="M6.38453 68.3174H20.6859" stroke="#2D2C31" stroke-linecap="square" />
    <path d="M200.73 64.5079L220.394 64.7618" stroke="#2D2C31" stroke-linecap="square" />
    <path d="M241.846 61.7142L255.64 47.797" stroke="#2D2C31" stroke-linecap="square" />
    <path d="M135.863 34.5396H150.164" stroke="#2D2C31" stroke-linecap="square" />
    <path d="M108.792 81.7774H123.094" stroke="#2D2C31" stroke-linecap="square" />
    <path fill-rule="evenodd" clip-rule="evenodd"
        d="M33.1935 6.58961H33.2048C34.047 6.58961 34.729 5.90766 34.7318 5.06545C34.729 4.22324 34.047 3.54199 33.2048 3.54199H33.1935C32.3521 3.54199 31.6694 4.22324 31.6672 5.06545C31.6694 5.90766 32.3521 6.58961 33.1935 6.58961"
        fill="#9DA09D" />
    <path fill-rule="evenodd" clip-rule="evenodd"
        d="M35.0486 13.6693C34.6434 12.9559 34.1027 12.3656 33.4285 11.8956C32.7529 11.4269 31.9902 11.0544 31.1382 10.7795C30.2863 10.5047 29.4186 10.2648 28.536 10.0614C27.6534 9.85732 26.7858 9.66902 25.9346 9.49516C25.0826 9.32267 24.3192 9.10276 23.6443 8.83819C22.9694 8.57292 22.4294 8.23138 22.0242 7.81356C21.619 7.39574 21.4167 6.85009 21.4167 6.17732C21.4167 5.46399 21.5563 4.8675 21.8376 4.38782C22.1181 3.90953 22.492 3.52744 22.9592 3.24156C23.4271 2.95637 23.961 2.75227 24.5637 2.62995C25.1657 2.50762 25.7793 2.44646 26.4024 2.44646C26.8451 2.44646 27.9858 2.44028 27.9858 1.2088C27.9858 0.144314 26.8975 0.0171802 26.602 0.00206162C26.5768 0.00206162 26.5522 0 26.5264 0C25.5089 0 24.5167 0.127821 23.551 0.382088C22.5853 0.637042 21.7231 1.02463 20.9645 1.54416C20.2065 2.06369 19.5984 2.72684 19.1428 3.53156C18.6851 4.33766 18.457 5.29082 18.457 6.39104C18.457 7.39024 18.6592 8.22107 19.0638 8.88354C19.469 9.5467 20.009 10.0868 20.6839 10.5047C21.3588 10.9225 22.1229 11.2585 22.9749 11.5135C23.8261 11.7684 24.6931 11.9932 25.5763 12.187C26.4589 12.3801 27.3259 12.5684 28.1785 12.7518C29.0298 12.936 29.7925 13.1752 30.4681 13.4707C31.143 13.7668 31.6837 14.1489 32.0882 14.6176C32.4934 15.087 32.6957 15.6986 32.6957 16.4525C32.6957 17.2476 32.5302 17.8997 32.1972 18.4089C31.8649 18.9195 31.429 19.3229 30.889 19.617C30.3489 19.9132 29.7408 20.1221 29.0666 20.2445C28.391 20.3668 27.7209 20.428 27.0569 20.428C26.2254 20.428 25.4149 20.3262 24.6256 20.1221C23.8363 19.9187 23.1458 19.6026 22.554 19.1738C21.9622 18.7464 21.4834 18.2014 21.1211 17.5382C20.9127 17.1596 20.7643 16.7397 20.6757 16.2779C20.5532 15.6422 20.0288 15.1681 19.3879 15.1681H19.1809C18.3671 15.1681 17.7576 15.9137 17.8965 16.7232C18.015 17.4132 18.2173 18.0413 18.5033 18.6082C18.9916 19.5772 19.6563 20.3723 20.4973 20.9935C21.3384 21.6154 22.315 22.0786 23.4271 22.3851C24.5371 22.6909 25.7166 22.8442 26.9629 22.8442C27.9803 22.8442 29.0039 22.7267 30.0322 22.4923C31.0606 22.258 31.9902 21.88 32.821 21.3605C33.6512 20.841 34.3322 20.1682 34.862 19.3422C35.3912 18.5168 35.6561 17.5224 35.6561 16.3604C35.6561 15.2801 35.4538 14.3833 35.0486 13.6693"
        fill="#9DA09D" />
    <path fill-rule="evenodd" clip-rule="evenodd"
        d="M62.13 7.94579H62.1184C61.3046 7.94579 60.644 8.60785 60.644 9.42417V9.48969C60.644 10.003 59.9841 10.4951 59.1696 10.4951H50.4029C49.589 10.4951 48.9285 9.83437 48.9285 9.01737V2.6486C48.9285 1.83296 48.2685 1.1709 47.4534 1.1709H47.4432C46.6287 1.1709 45.9688 1.83296 45.9688 2.6486V21.3795C45.9688 22.1959 46.6287 22.8579 47.4432 22.8579H47.4534C48.2685 22.8579 48.9285 22.1959 48.9285 21.3795V14.4033C48.9285 13.5877 49.589 12.9256 50.4029 12.9256H59.1696C59.9841 12.9256 60.644 13.5877 60.644 14.4033V21.3795C60.644 22.1959 61.3046 22.8579 62.1184 22.8579H62.13C62.9438 22.8579 63.6044 22.1959 63.6044 21.3795V9.42417C63.6044 8.60785 62.9438 7.94579 62.13 7.94579"
        fill="#9DA09D" />
    <path fill-rule="evenodd" clip-rule="evenodd"
        d="M62.2284 4.06373H62.2397C63.0811 4.06373 63.7639 3.38178 63.766 2.54028C63.7639 1.69736 63.0811 1.01611 62.2397 1.01611H62.2284C61.3863 1.01611 60.7042 1.69736 60.7014 2.54028C60.7042 3.38178 61.3863 4.06373 62.2284 4.06373"
        fill="#9DA09D" />
    <path fill-rule="evenodd" clip-rule="evenodd"
        d="M92.861 20.9814L85.4396 2.41088C85.1039 1.57017 84.2745 1.01611 83.3507 1.01611H83.1319C82.2068 1.01611 81.3768 1.57155 81.041 2.41363L73.6469 20.9828C73.288 21.8847 73.9683 22.8574 74.9577 22.8574C75.5457 22.8574 76.0708 22.5006 76.276 21.9617L82.4632 5.50494C82.7019 4.87114 83.6188 4.87183 83.856 5.507L89.99 21.9514C90.1917 22.4951 90.7202 22.8574 91.3117 22.8574H91.551C92.5411 22.8574 93.2214 21.8833 92.861 20.9814"
        fill="#9DA09D" />
    <path fill-rule="evenodd" clip-rule="evenodd"
        d="M83.5145 13.7144H83.5047C82.8034 13.7144 82.2355 14.2821 82.2327 14.9842C82.2355 15.6855 82.8034 16.254 83.5047 16.254H83.5145C84.2158 16.254 84.7844 15.6855 84.7865 14.9842C84.7844 14.2821 84.2158 13.7144 83.5145 13.7144"
        fill="#9DA09D" />
    <path fill-rule="evenodd" clip-rule="evenodd"
        d="M104.712 19.7026H104.7C103.859 19.7026 103.176 20.3846 103.174 21.2268C103.176 22.069 103.859 22.7503 104.7 22.7503H104.712C105.554 22.7503 106.236 22.069 106.239 21.2268C106.236 20.3846 105.554 19.7026 104.712 19.7026"
        fill="#9DA09D" />
    <path fill-rule="evenodd" clip-rule="evenodd"
        d="M106.239 9.92667V4.92434C106.239 4.1087 106.905 3.44664 107.727 3.44664H112.09C113.788 3.44664 115.031 3.78586 115.818 4.4643C116.604 5.14275 116.997 6.13038 116.997 7.42516C116.997 8.7213 116.604 9.71372 115.818 10.4017C115.031 11.0904 113.788 11.4242 112.09 11.4044H107.727C106.905 11.4044 106.239 10.7423 106.239 9.92667M120.037 20.3204L115.017 13.684C116.353 13.4527 117.432 12.9503 118.239 12.1634C119.403 11.0297 119.986 9.45094 119.986 7.42516C119.986 5.40075 119.403 3.82613 118.239 2.70199C117.076 1.57921 115.362 1.01611 113.096 1.01611H104.738C103.917 1.01611 103.25 1.67818 103.25 2.49449V14.5447C103.25 15.361 103.917 16.0231 104.738 16.0231H104.749C105.572 16.0231 106.239 15.372 106.239 14.5447C106.239 14.0362 106.525 13.8342 107.348 13.8342H111.393C111.443 13.9659 111.505 14.0949 111.595 14.213L117.602 22.1503C118.109 22.8157 119.072 22.9475 119.742 22.4444C120.412 21.9414 120.545 20.9845 120.037 20.3204"
        fill="#9DA09D" />
    <path fill-rule="evenodd" clip-rule="evenodd"
        d="M146.115 20.4274H135.855C135.237 20.4274 134.737 19.9264 134.737 19.3073V14.045C134.737 13.4266 135.237 12.9256 135.855 12.9256H145.18C145.797 12.9256 146.298 12.4239 146.298 11.8055V11.6151C146.298 10.9967 145.797 10.4951 145.18 10.4951H135.855C135.237 10.4951 134.737 9.99409 134.737 9.37639V4.72011C134.737 4.10241 135.237 3.60142 135.855 3.60142H140.244C140.861 3.60142 141.362 3.09976 141.362 2.48137V2.29095C141.362 1.67188 140.861 1.1709 140.244 1.1709H132.894C132.277 1.1709 131.777 1.67188 131.777 2.29095V21.7379C131.777 22.3556 132.277 22.8579 132.894 22.8579H146.115C146.732 22.8579 147.233 22.3556 147.233 21.7379V21.5474C147.233 20.9284 146.732 20.4274 146.115 20.4274"
        fill="#9DA09D" />
    <path fill-rule="evenodd" clip-rule="evenodd"
        d="M145.597 3.5558H145.606C146.308 3.5558 146.876 2.988 146.878 2.28595C146.876 1.5846 146.308 1.01611 145.606 1.01611H145.597C144.895 1.01611 144.326 1.5846 144.324 2.28595C144.326 2.988 144.895 3.5558 145.597 3.5558"
        fill="#9DA09D" />
    <path fill-rule="evenodd" clip-rule="evenodd"
        d="M175.605 20.9814L168.183 2.41088C167.847 1.57017 167.018 1.01611 166.094 1.01611H165.876C164.951 1.01611 164.12 1.57155 163.785 2.41363L156.391 20.9828C156.032 21.8847 156.712 22.8574 157.701 22.8574C158.289 22.8574 158.815 22.5006 159.02 21.9617L165.207 5.50494C165.446 4.87114 166.363 4.87183 166.599 5.507L172.733 21.9514C172.936 22.4951 173.463 22.8574 174.056 22.8574H174.295C175.285 22.8574 175.965 21.8833 175.605 20.9814"
        fill="#9DA09D" />
    <path fill-rule="evenodd" clip-rule="evenodd"
        d="M165.747 13.7144H165.738C165.036 13.7144 164.468 14.2821 164.466 14.9842C164.468 15.6855 165.036 16.254 165.738 16.254H165.747C166.449 16.254 167.017 15.6855 167.019 14.9842C167.017 14.2821 166.449 13.7144 165.747 13.7144"
        fill="#9DA09D" />
    <path fill-rule="evenodd" clip-rule="evenodd"
        d="M192.015 10.5117H192.006C191.303 10.5117 190.735 11.0794 190.733 11.7812C190.735 12.4831 191.303 13.0514 192.006 13.0514H192.015C192.716 13.0514 193.285 12.4831 193.287 11.7812C193.285 11.0794 192.716 10.5117 192.015 10.5117"
        fill="#9DA09D" />
    <path fill-rule="evenodd" clip-rule="evenodd"
        d="M199.363 19.2399C198.626 19.9286 197.603 20.2726 196.294 20.2726H189.995C189.378 20.2726 188.878 19.7709 188.878 19.1526V13.8902V9.22092V4.56532C188.878 3.94762 189.378 3.44595 189.995 3.44595H194.798C195.442 3.44595 196.049 3.48145 196.621 3.55243C197.192 3.62341 197.696 3.7804 198.132 4.0227C198.568 4.26637 198.911 4.61037 199.16 5.05607C199.409 5.50108 199.535 6.10854 199.535 6.87845C199.535 8.03194 199.166 8.89808 198.428 9.47483C197.691 10.0523 196.779 10.3403 195.777 10.3403H195.639C194.993 10.3403 194.469 10.8652 194.469 11.5136V11.5982C194.469 12.2453 194.993 12.7701 195.639 12.7701C196.262 12.7701 196.865 12.8268 197.447 12.938C198.028 13.0493 198.542 13.2411 198.989 13.5141C199.435 13.7878 199.794 14.1577 200.064 14.6225C200.334 15.0887 200.469 15.6757 200.469 16.3849C200.469 17.5998 200.1 18.5519 199.363 19.2399M202.338 13.0739C201.611 12.1436 200.563 11.5354 199.191 11.2522V11.1907C200.251 10.786 201.066 10.1635 201.638 9.3233C202.208 8.4831 202.494 7.48522 202.494 6.33173C202.494 5.23762 202.24 4.31688 201.732 3.56745C201.222 2.81802 200.604 2.23103 199.877 1.80581C199.545 1.60378 199.145 1.45157 198.677 1.35056C198.21 1.24954 197.706 1.1731 197.166 1.12191C196.625 1.07208 196.081 1.04137 195.53 1.03113C194.979 1.02157 194.466 1.01611 193.988 1.01611H187.035C186.418 1.01611 185.918 1.5171 185.918 2.13548V21.5831C185.918 22.2008 186.418 22.7024 187.035 22.7024H196.668C197.768 22.7024 198.74 22.525 199.581 22.1707C200.423 21.8165 201.128 21.351 201.7 20.7736C202.271 20.1962 202.701 19.5341 202.993 18.784C203.284 18.0352 203.429 17.2653 203.429 16.4756C203.429 15.1392 203.066 14.0062 202.338 13.0739"
        fill="#9DA09D" />
    <path fill-rule="evenodd" clip-rule="evenodd"
        d="M228.011 20.3915H218.445C217.761 20.3915 217.206 19.8395 217.206 19.1586V9.22545C217.206 8.40952 216.541 7.74805 215.721 7.74805H215.663C214.843 7.74805 214.179 8.40952 214.179 9.22545V21.6244C214.179 22.3053 214.734 22.858 215.418 22.858H228.011C228.696 22.858 229.251 22.3053 229.251 21.6244C229.251 20.9435 228.696 20.3915 228.011 20.3915"
        fill="#9DA09D" />
    <path fill-rule="evenodd" clip-rule="evenodd"
        d="M215.536 4.06373H215.548C216.389 4.06373 217.072 3.38178 217.074 2.54028C217.072 1.69736 216.389 1.01611 215.548 1.01611H215.536C214.695 1.01611 214.012 1.69736 214.01 2.54028C214.012 3.38178 214.695 4.06373 215.536 4.06373"
        fill="#9DA09D" />
    <path fill-rule="evenodd" clip-rule="evenodd"
        d="M253.375 20.4274H243.115C242.497 20.4274 241.997 19.9264 241.997 19.3073V14.045C241.997 13.4266 242.497 12.9256 243.115 12.9256H252.44C253.057 12.9256 253.558 12.4239 253.558 11.8055V11.6151C253.558 10.9967 253.057 10.4951 252.44 10.4951H243.115C242.497 10.4951 241.997 9.99409 241.997 9.37639V4.72011C241.997 4.10241 242.497 3.60142 243.115 3.60142H247.504C248.121 3.60142 248.622 3.09976 248.622 2.48137V2.29095C248.622 1.67188 248.121 1.1709 247.504 1.1709H240.155C239.538 1.1709 239.037 1.67188 239.037 2.29095V21.7379C239.037 22.3556 239.538 22.8579 240.155 22.8579H253.375C253.992 22.8579 254.493 22.3556 254.493 21.7379V21.5474C254.493 20.9284 253.992 20.4274 253.375 20.4274"
        fill="#9DA09D" />
    <path fill-rule="evenodd" clip-rule="evenodd"
        d="M253.316 3.5558H253.325C254.027 3.5558 254.595 2.988 254.598 2.28595C254.595 1.5846 254.027 1.01611 253.325 1.01611H253.316C252.615 1.01611 252.046 1.5846 252.044 2.28595C252.046 2.988 252.615 3.5558 253.316 3.5558"
        fill="#9DA09D" />
</svg>