<svg width="253" height="69" viewBox="0 0 253 69" fill="none" xmlns="http://www.w3.org/2000/svg">
<path fill-rule="evenodd" clip-rule="evenodd" d="M161.584 45.5555V56.0257H160.288V41.782H161.584V43.9694C161.888 43.7068 162.227 43.4269 162.6 43.1297C162.973 42.8325 163.384 42.5595 163.833 42.3107C164.283 42.0619 164.77 41.8546 165.295 41.6887C165.82 41.5229 166.384 41.4399 166.985 41.4399C167.946 41.4399 168.796 41.6559 169.535 42.0879C170.275 42.5198 170.872 43.1884 171.329 44.0938C171.771 43.686 172.227 43.318 172.697 42.9897C173.167 42.6615 173.649 42.3833 174.143 42.1552C174.637 41.9272 175.147 41.7509 175.672 41.6265C176.197 41.5021 176.74 41.4399 177.3 41.4399C178.012 41.4399 178.659 41.5609 179.243 41.8028C179.827 42.0447 180.323 42.3764 180.731 42.798C181.139 43.2195 181.455 43.7154 181.68 44.2856C181.904 44.8557 182.016 45.4656 182.016 46.1153V56.0257H180.721V46.447C180.721 45.8527 180.65 45.3222 180.508 44.8557C180.366 44.3892 180.145 43.9936 179.845 43.6688C179.544 43.3439 179.16 43.0969 178.694 42.9275C178.227 42.7582 177.669 42.6736 177.02 42.6736C176.501 42.6736 175.988 42.7479 175.48 42.8964C174.972 43.045 174.487 43.242 174.024 43.4873C173.561 43.7327 173.129 44.0109 172.728 44.3219C172.327 44.6329 171.975 44.9542 171.671 45.2859C171.705 45.4795 171.724 45.6453 171.728 45.7835C171.731 45.9218 171.733 46.0876 171.733 46.2811V56.0257H170.437V46.447C170.437 45.7421 170.344 45.1495 170.157 44.6691C169.97 44.1888 169.711 43.8001 169.38 43.5029C169.048 43.2057 168.656 42.9932 168.203 42.8653C167.75 42.7375 167.258 42.6736 166.726 42.6736C166.221 42.6736 165.722 42.76 165.228 42.9327C164.734 43.1055 164.262 43.3301 163.813 43.6066C163.364 43.883 162.949 44.1923 162.569 44.5344C162.189 44.8765 161.86 45.2168 161.584 45.5555ZM127.73 55.8702C126.631 56.1605 125.446 56.3056 124.174 56.3056C122.896 56.3056 121.704 56.1605 120.598 55.8702C119.492 55.58 118.531 55.1325 117.716 54.5278C116.9 53.923 116.261 53.1559 115.798 52.2264C115.335 51.2968 115.104 50.1928 115.104 48.9142C115.104 48.0642 115.211 47.2919 115.425 46.5973C115.639 45.9028 115.94 45.2808 116.327 44.7313C116.714 44.1819 117.182 43.7068 117.732 43.3059C118.281 42.9051 118.893 42.5716 119.566 42.3056C120.24 42.0395 120.964 41.8425 121.738 41.7147C122.512 41.5868 123.324 41.5229 124.174 41.5229C125.446 41.5229 126.631 41.668 127.73 41.9583C128.829 42.2485 129.783 42.696 130.591 43.3007C131.4 43.9055 132.036 44.6726 132.499 45.6021C132.962 46.5317 133.193 47.6357 133.193 48.9142C133.193 50.1928 132.962 51.2968 132.499 52.2264C132.036 53.1559 131.4 53.923 130.591 54.5278C129.783 55.1325 128.829 55.58 127.73 55.8702ZM108.425 42.9638V56.0257H107.14V42.9638H100.661V41.782H114.904V42.9638H108.425ZM124.174 55.1549C122.91 55.1549 121.795 55.0184 120.831 54.7455C119.867 54.4725 119.06 54.0716 118.411 53.5429C117.761 53.0142 117.27 52.3629 116.938 51.5888C116.607 50.8148 116.441 49.9233 116.441 48.9142C116.441 47.9191 116.607 47.0327 116.938 46.2552C117.27 45.4777 117.761 44.8246 118.411 44.2959C119.06 43.7672 119.867 43.3647 120.831 43.0882C121.795 42.8118 122.91 42.6736 124.174 42.6736C125.439 42.6736 126.55 42.8101 127.507 43.083C128.464 43.356 129.264 43.7569 129.907 44.2856C130.55 44.8143 131.035 45.4656 131.364 46.2397C131.692 47.0137 131.856 47.9052 131.856 48.9142C131.856 49.9233 131.692 50.8148 131.364 51.5888C131.035 52.3629 130.55 53.0142 129.907 53.5429C129.264 54.0716 128.464 54.4725 127.507 54.7455C126.55 55.0184 125.439 55.1549 124.174 55.1549ZM149.65 56.1709C148.91 56.2607 148.185 56.3056 147.473 56.3056C146.547 56.3056 145.716 56.2227 144.98 56.0568C144.244 55.891 143.62 55.6439 143.108 55.3156C142.597 54.9873 142.203 54.5796 141.927 54.0924C141.65 53.6051 141.512 53.0402 141.512 52.3974C141.512 51.7616 141.673 51.2001 141.994 50.7129C142.315 50.2256 142.773 49.8006 143.368 49.4378C143.962 49.0749 144.679 48.7674 145.519 48.5151C146.358 48.2629 147.296 48.0486 148.333 47.8724C149.37 47.6962 150.491 47.551 151.697 47.437C152.903 47.323 154.173 47.228 155.507 47.1519V46.0634C155.507 45.6211 155.424 45.2307 155.258 44.892C155.092 44.5534 154.861 44.2579 154.563 44.0057C154.266 43.7534 153.917 43.5426 153.516 43.3733C153.116 43.204 152.682 43.0675 152.215 42.9638C151.749 42.8602 151.258 42.7859 150.743 42.7409C150.228 42.696 149.712 42.6736 149.194 42.6736C148.496 42.6736 147.86 42.7081 147.286 42.7772C146.712 42.8463 146.177 42.9414 145.679 43.0623C145.182 43.1833 144.705 43.3232 144.249 43.4822C143.793 43.6411 143.333 43.8104 142.87 43.9901V42.4766C143.831 42.2209 144.855 41.998 145.944 41.808C147.032 41.6179 148.188 41.5229 149.411 41.5229C150.448 41.5229 151.415 41.611 152.314 41.7872C153.212 41.9635 153.993 42.2451 154.657 42.6321C155.32 43.0191 155.842 43.5184 156.222 44.1301C156.602 44.7417 156.792 45.4864 156.792 46.3641V56.0257H155.507V54.45C155.009 54.7195 154.444 54.9683 153.812 55.1964C153.18 55.4245 152.513 55.6214 151.811 55.7873C151.11 55.9532 150.389 56.081 149.65 56.1709ZM147.877 55.1549C147.103 55.1549 146.405 55.0945 145.783 54.9735C145.161 54.8526 144.632 54.6729 144.197 54.4345C143.761 54.196 143.428 53.9006 143.196 53.5481C142.965 53.1956 142.849 52.7914 142.849 52.3352C142.849 51.7754 143.086 51.2744 143.559 50.8321C144.033 50.3898 144.777 50.0027 145.793 49.671C146.809 49.3393 148.117 49.0594 149.717 48.8313C151.317 48.6033 153.247 48.427 155.507 48.3026V53.092C155.272 53.2717 154.983 53.4479 154.641 53.6207C154.299 53.7935 153.921 53.9559 153.506 54.1079C153.091 54.26 152.649 54.3999 152.179 54.5278C151.709 54.6556 151.232 54.7662 150.749 54.8595C150.265 54.9528 149.779 55.0254 149.292 55.0772C148.805 55.129 148.333 55.1549 147.877 55.1549ZM186.86 56.0257V50.5522H193.256C194.362 50.5522 195.307 50.4571 196.091 50.2671C196.876 50.077 197.517 49.7954 198.014 49.4222C198.512 49.049 198.877 48.5894 199.108 48.0435C199.34 47.4975 199.455 46.8686 199.455 46.1567C199.455 45.4449 199.34 44.816 199.108 44.27C198.877 43.724 198.512 43.2679 198.014 42.9016C197.517 42.5353 196.876 42.2572 196.091 42.0671C195.307 41.8771 194.362 41.782 193.256 41.782H185.564V56.0257H186.86ZM192.427 49.3393C192.807 49.3393 193.213 49.341 193.645 49.3445C194.077 49.3479 194.504 49.3272 194.925 49.2823C195.347 49.2373 195.749 49.1579 196.133 49.0438C196.516 48.9298 196.855 48.7553 197.149 48.5203C197.443 48.2853 197.677 47.9778 197.854 47.5977C198.03 47.2176 198.118 46.7373 198.118 46.1567C198.118 45.4795 198.006 44.9335 197.781 44.5188C197.557 44.1042 197.211 43.7845 196.744 43.5599C196.278 43.3353 195.687 43.185 194.972 43.109C194.257 43.0329 193.408 42.9949 192.427 42.9949H186.86V49.3393H192.427ZM214.24 56.0257V54.7714H207.803C206.766 54.7714 205.935 54.7005 205.31 54.5589C204.684 54.4172 204.206 54.1978 203.874 53.9006C203.542 53.6034 203.324 53.2233 203.221 52.7603C203.117 52.2972 203.065 51.7443 203.065 51.1016V41.782H201.769V51.3504C201.769 52.159 201.856 52.857 202.029 53.4445C202.201 54.0319 202.507 54.5174 202.946 54.901C203.385 55.2845 203.976 55.5679 204.719 55.751C205.462 55.9342 206.403 56.0257 207.544 56.0257H214.24ZM216.959 41.782V56.0257H215.663V41.782H216.959ZM221.875 56.0257V49.4637H234.045V48.2508H221.875V46.6647C221.875 46.022 221.992 45.4691 222.227 45.006C222.462 44.543 222.823 44.1629 223.311 43.8657C223.798 43.5685 224.418 43.3491 225.171 43.2074C225.925 43.0658 226.823 42.9949 227.867 42.9949H234.253V41.782H227.608C226.35 41.782 225.277 41.8874 224.389 42.0982C223.501 42.309 222.773 42.6131 222.207 43.0105C221.64 43.4079 221.227 43.8968 220.968 44.4774C220.709 45.0579 220.579 45.7144 220.579 46.447V56.0257H221.875ZM246.15 55.9376C245.11 56.1553 243.986 56.2642 242.776 56.2642C241.463 56.2642 240.257 56.1795 239.158 56.0102C238.059 55.8409 237.099 55.6042 236.276 55.3001V53.7969C236.719 53.9835 237.175 54.1563 237.645 54.3152C238.115 54.4742 238.616 54.6141 239.148 54.7351C239.68 54.856 240.248 54.9493 240.853 55.015C241.458 55.0806 242.113 55.1135 242.818 55.1135C243.813 55.1135 244.746 55.0184 245.617 54.8284C246.487 54.6383 247.246 54.3619 247.892 53.9991C248.538 53.6362 249.05 53.1887 249.426 52.6566C249.803 52.1244 249.991 51.5128 249.991 50.8217V48.1264C249.66 48.5756 249.254 49.0058 248.773 49.417C248.293 49.8282 247.757 50.1911 247.166 50.5055C246.576 50.82 245.935 51.0722 245.243 51.2623C244.552 51.4523 243.823 51.5474 243.056 51.5474C242.185 51.5474 241.413 51.4662 240.739 51.3037C240.065 51.1413 239.478 50.9185 238.977 50.6351C238.476 50.3518 238.052 50.0148 237.707 49.6244C237.361 49.2339 237.083 48.8089 236.872 48.3493C236.662 47.8897 236.51 47.4076 236.416 46.9031C236.323 46.3986 236.276 45.8872 236.276 45.3689V41.782H237.593V45.089C237.593 45.8838 237.688 46.606 237.878 47.2556C238.068 47.9052 238.381 48.4616 238.816 48.9246C239.252 49.3877 239.823 49.7453 240.532 49.9976C241.24 50.2498 242.116 50.3759 243.16 50.3759C243.968 50.3759 244.711 50.2671 245.389 50.0494C246.066 49.8317 246.684 49.538 247.244 49.1682C247.804 48.7985 248.312 48.3717 248.768 47.888C249.224 47.4042 249.632 46.8962 249.991 46.3641V41.782H251.308V50.8217C251.308 51.7547 251.09 52.5616 250.655 53.2423C250.219 53.923 249.62 54.488 248.856 54.9372C248.093 55.3865 247.191 55.7199 246.15 55.9376Z" fill="#2D2C31"/>
<path fill-rule="evenodd" clip-rule="evenodd" d="M149.015 32.878C147.227 33.3601 145.219 33.6011 142.99 33.6011C140.761 33.6011 138.747 33.3601 136.949 32.878C135.15 32.396 133.618 31.6833 132.354 30.7399C131.089 29.7966 130.114 28.6225 129.43 27.2179C128.746 25.8132 128.404 24.1934 128.404 22.3585C128.404 20.5236 128.746 18.9039 129.43 17.4992C130.114 16.0945 131.089 14.9205 132.354 13.9771C133.618 13.0338 135.15 12.3211 136.949 11.839C138.747 11.357 140.761 11.116 142.99 11.116C145.219 11.116 147.227 11.357 149.015 11.839C150.804 12.3211 152.325 13.0338 153.579 13.9771C154.834 14.9205 155.798 16.0945 156.472 17.4992C157.145 18.9039 157.482 20.5236 157.482 22.3585C157.482 24.1934 157.145 25.8132 156.472 27.2179C155.798 28.6225 154.834 29.7966 153.579 30.7399C152.325 31.6833 150.804 32.396 149.015 32.878ZM127.642 11.6602L116.757 33.0257H110.04L99.2324 11.6602H105.67L113.445 27.7388L121.204 11.6602H127.642ZM142.99 29.0139C141.829 29.0139 140.808 28.9232 139.926 28.7418C139.045 28.5603 138.283 28.3115 137.641 27.9954C136.998 27.6792 136.459 27.3086 136.023 26.8835C135.588 26.4585 135.241 25.9998 134.982 25.5074C134.722 25.015 134.538 24.4992 134.43 23.9602C134.321 23.4211 134.266 22.8872 134.266 22.3585C134.266 21.8402 134.321 21.3141 134.43 20.7802C134.538 20.2463 134.722 19.7332 134.982 19.2408C135.241 18.7484 135.588 18.2871 136.023 17.8568C136.459 17.4266 136.998 17.0508 137.641 16.7295C138.283 16.4081 139.045 16.1567 139.926 15.9753C140.808 15.7939 141.829 15.7032 142.99 15.7032C144.721 15.7032 146.146 15.9001 147.266 16.2941C148.386 16.688 149.269 17.2012 149.917 17.8335C150.565 18.4659 151.016 19.1786 151.27 19.9716C151.524 20.7647 151.651 21.5603 151.651 22.3585C151.651 23.1568 151.524 23.9524 151.27 24.7454C151.016 25.5385 150.565 26.2512 149.917 26.8835C149.269 27.5159 148.386 28.0291 147.266 28.423C146.146 28.8169 144.721 29.0139 142.99 29.0139ZM167.512 11.6602V33.0257H161.743V11.6602H167.512ZM186.7 33.6011C187.727 33.6011 188.688 33.5544 189.585 33.4611C190.482 33.3678 191.334 33.2305 192.143 33.0491C192.952 32.8677 193.734 32.6526 194.491 32.4038C195.248 32.155 195.999 31.8751 196.746 31.5641V26.3704C196.155 26.7021 195.533 27.0261 194.88 27.3423C194.227 27.6584 193.506 27.9409 192.718 28.1897C191.93 28.4385 191.065 28.6381 190.121 28.7884C189.178 28.9387 188.116 29.0139 186.934 29.0139C185.721 29.0139 184.651 28.9284 183.723 28.7573C182.795 28.5863 181.984 28.3504 181.289 28.0498C180.595 27.7492 180.014 27.3915 179.548 26.9768C179.081 26.5622 178.703 26.1086 178.412 25.6162C178.122 25.1238 177.915 24.6003 177.79 24.0457C177.666 23.4911 177.604 22.9287 177.604 22.3585C177.604 21.4981 177.749 20.6662 178.039 19.8628C178.329 19.0594 178.832 18.3467 179.548 17.7247C180.263 17.1027 181.219 16.6051 182.416 16.2319C183.614 15.8587 185.12 15.6721 186.934 15.6721C188.116 15.6721 189.178 15.7524 190.121 15.9131C191.065 16.0738 191.93 16.2811 192.718 16.5351C193.506 16.7891 194.227 17.0742 194.88 17.3903C195.533 17.7065 196.155 18.0253 196.746 18.3467V13.153C195.999 12.842 195.248 12.5621 194.491 12.3133C193.734 12.0645 192.952 11.8494 192.143 11.668C191.334 11.4866 190.482 11.3492 189.585 11.2559C188.688 11.1626 187.727 11.116 186.7 11.116C184.524 11.116 182.52 11.3492 180.69 11.8157C178.861 12.2822 177.285 12.9845 175.963 13.9227C174.642 14.8609 173.613 16.0323 172.877 17.437C172.141 18.8417 171.773 20.4822 171.773 22.3585C171.773 24.2349 172.141 25.8754 172.877 27.2801C173.613 28.6847 174.642 29.8562 175.963 30.7943C177.285 31.7325 178.861 32.4349 180.69 32.9014C182.52 33.3678 184.524 33.6011 186.7 33.6011ZM219.705 33.2201C217.958 33.4741 216.173 33.6011 214.348 33.6011C212.016 33.6011 209.94 33.3497 208.12 32.8469C206.301 32.3441 204.769 31.6159 203.525 30.6622C202.281 29.7084 201.333 28.5422 200.68 27.1634C200.027 25.7847 199.7 24.2245 199.7 22.4829C199.7 20.8657 200.029 19.3652 200.688 17.9812C201.346 16.5973 202.279 15.3948 203.487 14.3737C204.694 13.3526 206.153 12.5543 207.864 11.979C209.574 11.4036 211.482 11.116 213.586 11.116C215.525 11.116 217.3 11.3777 218.912 11.9012C220.524 12.4247 221.908 13.1997 223.064 14.2259C224.22 15.2522 225.116 16.517 225.754 18.0201C226.392 19.5233 226.71 21.2545 226.71 23.2138V24.6444H205.656C205.842 25.3182 206.151 25.935 206.581 26.4948C207.011 27.0546 207.594 27.5315 208.33 27.9254C209.066 28.3193 209.971 28.6251 211.044 28.8428C212.117 29.0605 213.4 29.1694 214.892 29.1694C215.95 29.1694 216.986 29.1046 218.002 28.975C219.018 28.8454 219.967 28.6744 220.848 28.4619C221.729 28.2493 222.525 28.0135 223.235 27.7543C223.945 27.4952 224.518 27.236 224.953 26.9768V31.9684C223.201 32.5489 221.452 32.9661 219.705 33.2201ZM220.972 20.4148H205.656C205.759 19.9483 205.988 19.4403 206.34 18.8909C206.692 18.3415 207.187 17.8283 207.825 17.3515C208.463 16.8746 209.253 16.4755 210.196 16.1541C211.14 15.8328 212.259 15.6721 213.555 15.6721C214.934 15.6721 216.085 15.8198 217.007 16.1153C217.93 16.4107 218.676 16.7865 219.246 17.2426C219.817 17.6987 220.234 18.2093 220.498 18.7743C220.763 19.3393 220.921 19.8861 220.972 20.4148ZM243.139 33.5233C242.242 33.5752 241.389 33.6011 240.581 33.6011C238.466 33.6011 236.509 33.4275 234.711 33.0802C232.912 32.7329 231.323 32.3001 229.945 31.7818V26.6814C231.365 27.4693 232.985 28.0861 234.804 28.5318C236.623 28.9776 238.57 29.2005 240.643 29.2005C241.866 29.2005 242.864 29.1357 243.636 29.0061C244.409 28.8765 245.013 28.7107 245.448 28.5085C245.883 28.3064 246.179 28.0861 246.334 27.8476C246.49 27.6092 246.568 27.3811 246.568 27.1634C246.568 26.8213 246.412 26.5233 246.101 26.2693C245.79 26.0153 245.365 25.7925 244.826 25.6007C244.287 25.4089 243.66 25.2327 242.944 25.072C242.229 24.9113 241.47 24.7506 240.666 24.5899C239.863 24.4293 239.036 24.2556 238.186 24.069C237.336 23.8824 236.509 23.6621 235.706 23.4081C234.903 23.1542 234.143 22.8587 233.428 22.5218C232.713 22.1849 232.085 21.7858 231.546 21.3245C231.007 20.8632 230.582 20.3293 230.271 19.7228C229.96 19.1164 229.805 18.414 229.805 17.6158C229.805 16.6725 229.971 15.8587 230.302 15.1745C230.634 14.4903 231.082 13.9072 231.647 13.4251C232.212 12.9431 232.865 12.5517 233.607 12.2511C234.348 11.9505 235.128 11.7172 235.947 11.5514C236.766 11.3855 237.595 11.2715 238.435 11.2093C239.275 11.1471 240.073 11.116 240.83 11.116C241.659 11.116 242.512 11.1574 243.388 11.2404C244.264 11.3233 245.127 11.4399 245.977 11.5902C246.827 11.7406 247.648 11.9142 248.441 12.1112C249.234 12.3081 249.968 12.5155 250.642 12.7332V17.678C250.237 17.4811 249.703 17.2582 249.04 17.0094C248.377 16.7606 247.625 16.5247 246.785 16.3019C245.946 16.079 245.033 15.8924 244.048 15.7421C243.064 15.5917 242.053 15.5166 241.016 15.5166C240.187 15.5166 239.479 15.5425 238.894 15.5943C238.308 15.6462 237.816 15.7135 237.416 15.7965C237.017 15.8794 236.701 15.9753 236.468 16.0842C236.235 16.193 236.056 16.3044 235.931 16.4185C235.807 16.5325 235.727 16.6465 235.69 16.7606C235.654 16.8746 235.636 16.9783 235.636 17.0716C235.636 17.3826 235.791 17.6547 236.102 17.8879C236.413 18.1212 236.839 18.3285 237.378 18.5099C237.917 18.6914 238.544 18.8624 239.259 19.0231C239.974 19.1838 240.734 19.3496 241.537 19.5207C242.341 19.6917 243.17 19.8783 244.025 20.0805C244.88 20.2826 245.71 20.5185 246.513 20.788C247.317 21.0575 248.076 21.3711 248.791 21.7288C249.506 22.0864 250.134 22.5037 250.673 22.9805C251.212 23.4574 251.637 24.0068 251.948 24.6288C252.259 25.2508 252.414 25.9609 252.414 26.7591C252.414 27.7854 252.233 28.6666 251.87 29.4026C251.507 30.1387 251.023 30.7606 250.416 31.2686C249.81 31.7766 249.107 32.1835 248.309 32.4893C247.511 32.7951 246.674 33.0309 245.798 33.1968C244.922 33.3627 244.035 33.4715 243.139 33.5233Z" fill="#2D2C31"/>
<path fill-rule="evenodd" clip-rule="evenodd" d="M63.6924 20.6411C67.034 21.2013 69.5898 24.0237 69.5898 27.4232C69.5898 30.8191 67.034 33.645 63.6924 34.2052V20.6411" fill="#F2F2F2"/>
<path fill-rule="evenodd" clip-rule="evenodd" d="M31.8461 14.7437C30.9071 18.9028 30.4308 23.2558 30.4308 27.7164C30.4308 32.1698 30.9071 36.5228 31.8461 40.6924C25.5474 39.283 19.1114 38.5695 12.5883 38.5695C6.947 38.5695 2.35889 33.8323 2.35889 28.0038V27.429C2.35889 21.6041 6.947 16.8629 12.5883 16.8629C19.1114 16.8629 25.5474 16.1498 31.8461 14.7437" fill="#F2F2F2"/>
<path fill-rule="evenodd" clip-rule="evenodd" d="M28.2411 64.6558C28.3818 65.1264 28.298 65.6212 28.0099 66.0168C27.7222 66.4127 27.2766 66.6411 26.7944 66.6411H23.4825C21.1284 66.6411 19.0386 65.0243 18.409 62.7146L12.3848 40.6924C12.6795 40.7162 12.9777 40.7301 13.279 40.7301C15.9512 40.7301 18.6067 40.8564 21.2422 41.0951L28.2411 64.6558" fill="#F3F149"/>
<path fill-rule="evenodd" clip-rule="evenodd" d="M61.3336 9.57914V45.2667C61.3336 46.5102 60.745 47.6197 59.7208 48.315C58.6934 49.0103 57.4514 49.1403 56.3051 48.6711L47.3534 45.0064C43.2094 43.3111 38.9802 41.9277 34.683 40.8588C33.5875 36.571 33.0259 32.057 33.0259 27.4231C33.0259 22.7824 33.5875 18.2685 34.683 13.987C38.9802 12.9185 43.2094 11.5351 47.3534 9.83948L56.3051 6.17512C57.4514 5.70588 58.6934 5.83587 59.7208 6.53117C60.745 7.22647 61.3336 8.33603 61.3336 9.57914" fill="#F3F149"/>
<path fill-rule="evenodd" clip-rule="evenodd" d="M63.791 34.6907V20.9714C67.0668 21.538 69.5723 24.3927 69.5723 27.831C69.5723 31.2658 67.0668 34.1241 63.791 34.6907ZM63.791 18.5647V10.1468C63.791 8.14111 62.7959 6.27418 61.1325 5.15403C59.4656 4.03388 57.3608 3.81657 55.5037 4.5736L46.5718 8.20198C36.4842 12.3018 25.8861 14.5085 15.0313 14.782C14.3976 14.798 13.8996 15.3235 13.9251 15.9567C13.9268 15.9935 13.9283 16.0303 13.9297 16.0671C13.9544 16.6833 14.4663 17.171 15.083 17.1558C20.8813 17.0103 26.6075 16.3301 32.2246 15.1161C31.2741 19.1926 30.792 23.4591 30.792 27.831C30.792 32.1959 31.2741 36.4624 32.2246 40.5491C25.8489 39.1678 19.334 38.4684 12.7311 38.4684C7.02073 38.4684 2.37644 33.8254 2.37644 28.1128V27.5493C2.37644 22.7672 5.63592 18.7332 10.0502 17.5486C10.5692 17.4092 10.9338 16.9438 10.9126 16.4069C10.9112 16.368 10.9094 16.3294 10.908 16.2904C10.8793 15.5709 10.1941 15.0517 9.49735 15.2347C4.03801 16.6695 0 21.6467 0 27.5493V28.1128C0 33.9202 3.90756 38.8248 9.23083 40.3523L12.5813 52.376C12.7176 52.8655 13.1633 53.2039 13.6713 53.2039H13.7902C14.5389 53.2039 15.0812 52.49 14.8801 51.7687L11.8245 40.8071C12.1233 40.8308 12.4256 40.8446 12.7311 40.8446C15.4401 40.8446 18.1322 40.9703 20.8042 41.2078L27.8995 64.6485C28.0546 65.1575 27.941 65.6947 27.5845 66.1031C27.2829 66.4486 26.8298 66.6238 26.371 66.6238H23.0754C20.6888 66.6238 18.5701 65.0152 17.9319 62.7172L16.3556 57.0616C16.2193 56.5725 15.7736 56.2341 15.2656 56.2341H15.146C14.3973 56.2341 13.855 56.948 14.056 57.6693L15.6405 63.3553C16.5673 66.6783 19.6225 69 23.0754 69H26.2896C27.5484 69 28.7757 68.4627 29.5396 67.4625C30.3102 66.4546 30.5428 65.172 30.1743 63.9595L23.3674 41.4725C26.7962 41.8799 30.1945 42.4872 33.5489 43.2885C33.5861 43.2987 33.6268 43.3086 33.6675 43.3157C37.1596 44.1517 40.6057 45.2 43.9966 46.4592C44.5261 46.656 45.1201 46.4383 45.3884 45.9411C45.4069 45.9071 45.4249 45.8731 45.4433 45.8392C45.7686 45.2361 45.4911 44.4797 44.849 44.2409C41.5547 43.0159 38.2095 41.9832 34.8218 41.1465C33.7287 36.897 33.1683 32.4235 33.1683 27.831C33.1683 23.2319 33.7287 18.7583 34.8218 14.5152C39.1097 13.4563 43.3296 12.0852 47.4646 10.4048L56.3969 6.77321C57.5406 6.30816 58.7799 6.43699 59.8051 7.12607C60.827 7.81515 61.4143 8.91477 61.4143 10.1468V45.515C61.4143 46.7473 60.827 47.8469 59.8051 48.536C58.7799 49.2251 57.5406 49.3539 56.3969 48.8889L49.8229 46.2161C49.2866 45.9981 48.6742 46.221 48.4016 46.7317C48.3836 46.7654 48.3659 46.799 48.3478 46.8322C48.031 47.4247 48.2944 48.1598 48.917 48.4125L55.5037 51.0885C56.2337 51.3872 57.0043 51.533 57.7717 51.533C58.9498 51.533 60.1208 51.1869 61.1325 50.5081C62.7959 49.3879 63.791 47.521 63.791 45.515V37.0974C68.3844 36.5102 71.9487 32.5796 71.9487 27.831C71.9487 23.079 68.3844 19.1483 63.791 18.5647V18.5647Z" fill="black"/>
<path fill-rule="evenodd" clip-rule="evenodd" d="M76.1651 22.2216C76.3509 22.7069 76.7863 23.0001 77.2454 23.0001C77.3932 23.0001 77.5434 22.9694 77.6888 22.9055L90.6867 17.1624C90.7566 17.1317 90.8206 17.0921 90.8822 17.0487C90.8933 17.0405 90.9038 17.0319 90.9149 17.0237C90.9622 16.9874 91.0067 16.9482 91.0484 16.9052C91.0585 16.8947 91.069 16.8846 91.079 16.8737C91.1747 16.7672 91.2522 16.6442 91.3082 16.5088C91.3166 16.4883 91.3232 16.4673 91.3308 16.4464C91.3486 16.3967 91.3632 16.3458 91.375 16.2935C91.3802 16.2707 91.3854 16.2482 91.3896 16.225C91.4021 16.151 91.4105 16.0758 91.4105 15.9988C91.4105 15.3056 90.8878 14.7437 90.2433 14.7437C90.156 14.7437 90.0718 14.756 89.9898 14.7754C89.9811 14.7773 89.9734 14.7814 89.9647 14.7837C89.8941 14.8024 89.826 14.827 89.7609 14.8588C89.7574 14.8607 89.7533 14.8611 89.7498 14.8629L76.8012 20.5839C76.2048 20.8472 75.9199 21.5807 76.1651 22.2216" fill="black"/>
<path fill-rule="evenodd" clip-rule="evenodd" d="M73.1305 14.1538C73.4329 14.1538 73.7353 14.0384 73.9659 13.8078L85.7565 2.01718C86.218 1.5556 86.218 0.807517 85.7565 0.345943C85.295 -0.115314 84.5469 -0.115314 84.0854 0.345943L72.2949 12.1364C71.8334 12.5983 71.8334 13.3463 72.2949 13.8078C72.5258 14.0384 72.8282 14.1538 73.1305 14.1538" fill="black"/>
<path fill-rule="evenodd" clip-rule="evenodd" d="M74.5718 40.451C74.1066 39.9866 73.3526 39.9862 72.8874 40.451C72.4223 40.9162 72.4223 41.6701 72.8874 42.1353L84.6595 53.9076C84.8919 54.14 85.1967 54.2564 85.5015 54.2564C85.8063 54.2564 86.1111 54.14 86.3438 53.9076C86.8086 53.4424 86.8086 52.6885 86.3438 52.2233L74.5718 40.451" fill="black"/>
<path fill-rule="evenodd" clip-rule="evenodd" d="M91.2741 37.0915L78.2821 31.351C77.6839 31.0872 77.0002 31.3937 76.7548 32.0359C76.509 32.6785 76.7942 33.4133 77.3921 33.6774L90.384 39.4183C90.5298 39.4824 90.6807 39.5128 90.8289 39.5128C91.2891 39.5128 91.7256 39.219 91.9118 38.733C92.1572 38.0908 91.872 37.3557 91.2741 37.0915" fill="black"/>
</svg>
