<svg xmlns="http://www.w3.org/2000/svg" viewBox="0 0 28 28">
    <title>xs-instagram</title>
    <path d="M14,16.7A2.69,2.69,0,1,0,11.32,14,2.69,2.69,0,0,0,14,16.7Z" fill="#444" fill-rule="evenodd" />
    <path
        d="M17.12,11.26H19a.38.38,0,0,0,.39-.39V9A.38.38,0,0,0,19,8.6H17.12a.39.39,0,0,0-.4.39v1.88A.39.39,0,0,0,17.12,11.26Z"
        fill="#444" fill-rule="evenodd" />
    <path
        d="M21,19.34A1.66,1.66,0,0,1,19.34,21H8.66A1.66,1.66,0,0,1,7,19.34V8.66A1.66,1.66,0,0,1,8.66,7H19.34A1.66,1.66,0,0,1,21,8.66ZM14,0A14,14,0,1,0,28,14,14,14,0,0,0,14,0Z"
        fill="#444" fill-rule="evenodd" />
    <path
        d="M18.28,14a4.26,4.26,0,1,1-8.37-1.13H8.6V19a.38.38,0,0,0,.39.39H19a.38.38,0,0,0,.39-.39V12.89H18.12A4.23,4.23,0,0,1,18.28,14Z"
        fill="#444" fill-rule="evenodd" />
</svg>