<svg xmlns="http://www.w3.org/2000/svg" viewBox="0 0 28 28">
    <title>xs-link</title>
    <path
        d="M14,0A14,14,0,1,1,0,14,14,14,0,0,1,14,0Zm0,12.07h-.09a3,3,0,0,0-2.32,2.16,3.42,3.42,0,0,0,.72,3.26h0l2.78,3.07.14.14a2.68,2.68,0,0,0,2.65.68,3,3,0,0,0,2-2.25,3.41,3.41,0,0,0-.75-3.08h0l-1.47-1.63-.07-.06a.49.49,0,0,0-.66.07.63.63,0,0,0,0,.81h0l1.48,1.63.11.13a2.23,2.23,0,0,1,.37,1.83,2,2,0,0,1-1.3,1.43,1.74,1.74,0,0,1-1.77-.53h0L13,16.67l-.11-.13a2.23,2.23,0,0,1-.34-1.93,1.91,1.91,0,0,1,1.47-1.37.52.52,0,0,0,.41-.37.63.63,0,0,0-.08-.58.51.51,0,0,0-.49-.21ZM12.79,7.72A2.68,2.68,0,0,0,10.14,7a3,3,0,0,0-2,2.25,3.41,3.41,0,0,0,.75,3.08h0L10.32,14l.06.06a.48.48,0,0,0,.46.1.56.56,0,0,0,.38-.41.64.64,0,0,0-.15-.57h0L9.59,11.55l-.11-.13a2.22,2.22,0,0,1-.37-1.83,2,2,0,0,1,1.3-1.43,1.7,1.7,0,0,1,1.77.53h0L15,11.76l.11.13a2.23,2.23,0,0,1,.34,1.93A1.9,1.9,0,0,1,14,15.19a.57.57,0,0,0-.48.63.56.56,0,0,0,.48.54h.16l.19,0a3,3,0,0,0,2.13-2.13,3.4,3.4,0,0,0-.72-3.25h0L12.93,7.86Z"
        fill-rule="evenodd" />
</svg>