<svg xmlns="http://www.w3.org/2000/svg" viewBox="0 0 28 28">
    <title>xs-pinterest</title>
    <path
        d="M15.08,17.12a2.27,2.27,0,0,1-2-1s-.47,1.86-.57,2.22A8.74,8.74,0,0,1,11.1,21a.11.11,0,0,1-.19-.05,8.93,8.93,0,0,1,0-3.05c.16-.66,1-4.39,1-4.39a3,3,0,0,1-.26-1.27c0-1.19.69-2.08,1.55-2.08a1.08,1.08,0,0,1,1.08,1.21,16.58,16.58,0,0,1-.71,2.85,1.25,1.25,0,0,0,1.27,1.55c1.53,0,2.55-2,2.55-4.28a3,3,0,0,0-3.34-3.08,3.81,3.81,0,0,0-4,3.85,2.29,2.29,0,0,0,.53,1.58.38.38,0,0,1,.11.45c0,.15-.12.5-.16.64a.28.28,0,0,1-.4.21A3.1,3.1,0,0,1,8.58,12c0-2.28,1.93-5,5.75-5a4.81,4.81,0,0,1,5.09,4.61C19.42,14.76,17.66,17.12,15.08,17.12ZM14,0A14,14,0,1,0,28,14,14,14,0,0,0,14,0Z"
        fill="#444" fill-rule="evenodd" />
</svg>