<svg xmlns="http://www.w3.org/2000/svg" viewBox="0 0 28 28">
    <title>xs-twitter</title>
    <path
        d="M19.57,11.14c0,.13,0,.25,0,.38A8.17,8.17,0,0,1,7,18.4c.22,0,.45,0,.69,0a5.75,5.75,0,0,0,3.56-1.23,2.86,2.86,0,0,1-2.68-2,2.35,2.35,0,0,0,.54.06,2.79,2.79,0,0,0,.76-.11,2.86,2.86,0,0,1-2.31-2.81v0a2.75,2.75,0,0,0,1.3.36,2.85,2.85,0,0,1-1.27-2.39A2.89,2.89,0,0,1,8,8.84a8.2,8.2,0,0,0,5.93,3,2.84,2.84,0,0,1-.08-.66,2.87,2.87,0,0,1,5-2,5.74,5.74,0,0,0,1.82-.7,2.89,2.89,0,0,1-1.26,1.59A5.76,5.76,0,0,0,21,9.66,5.92,5.92,0,0,1,19.57,11.14ZM14,0A14,14,0,1,0,28,14,14,14,0,0,0,14,0Z"
        fill="#444" fill-rule="evenodd" />
</svg>