<svg xmlns="http://www.w3.org/2000/svg" viewBox="0 0 28 28">
    <title>xs-youtube</title>
    <path
        d="M21,14.53a21.07,21.07,0,0,1-.14,2.26,3,3,0,0,1-.56,1.39,2,2,0,0,1-1.4.6c-2,.14-4.9.14-4.9.14s-3.64,0-4.76-.14a2.36,2.36,0,0,1-1.54-.6,3,3,0,0,1-.56-1.39A21.07,21.07,0,0,1,7,14.53V13.47a21.13,21.13,0,0,1,.14-2.27A3.07,3.07,0,0,1,7.7,9.81a2,2,0,0,1,1.4-.59c2-.14,4.9-.14,4.9-.14h0s2.94,0,4.9.14a2,2,0,0,1,1.4.59,3.07,3.07,0,0,1,.56,1.39A21.13,21.13,0,0,1,21,13.47ZM14,0A14,14,0,1,0,28,14,14,14,0,0,0,14,0Z"
        fill="#444" fill-rule="evenodd" />
    <path d="M12.55,15.82l3.79-2-3.79-2Z" fill="#444" fill-rule="evenodd" />
</svg>