<svg width="16" height="17" viewBox="0 0 16 17" fill="none" xmlns="http://www.w3.org/2000/svg">
<path opacity="0.8" fill-rule="evenodd" clip-rule="evenodd" d="M3.69231 3.125H0.615385C0.246154 3.125 0 2.875 0 2.5C0 2.125 0.246154 1.875 0.615385 1.875H3.69231H3.75385C4.06154 0.8125 4.98462 0 6.15385 0C7.32308 0 8.30769 0.8125 8.55385 1.875H8.61539H15.3846C15.7538 1.875 16 2.125 16 2.5C16 2.875 15.7538 3.125 15.3846 3.125H8.61539H8.55385C8.24615 4.1875 7.32308 5 6.15385 5C4.98462 5 4 4.1875 3.75385 3.125H3.69231ZM7.38462 2.5C7.38462 1.8125 6.83077 1.25 6.15385 1.25C5.47692 1.25 4.92308 1.8125 4.92308 2.5C4.92308 3.1875 5.47692 3.75 6.15385 3.75C6.83077 3.75 7.38462 3.1875 7.38462 2.5Z" fill="white"/>
<path opacity="0.8" fill-rule="evenodd" clip-rule="evenodd" d="M8 9.125H0.615385C0.246154 9.125 0 8.875 0 8.5C0 8.125 0.246154 7.875 0.615385 7.875H8H8.06154C8.36923 6.8125 9.29231 6 10.4615 6C11.6308 6 12.6154 6.8125 12.8615 7.875H12.9231H15.3846C15.7538 7.875 16 8.125 16 8.5C16 8.875 15.7538 9.125 15.3846 9.125H12.9231H12.8615C12.5538 10.1875 11.6308 11 10.4615 11C9.29231 11 8.30769 10.1875 8.06154 9.125H8ZM11.6923 8.5C11.6923 7.8125 11.1385 7.25 10.4615 7.25C9.78462 7.25 9.23077 7.8125 9.23077 8.5C9.23077 9.1875 9.78462 9.75 10.4615 9.75C11.1385 9.75 11.6923 9.1875 11.6923 8.5Z" fill="white"/>
<path opacity="0.8" fill-rule="evenodd" clip-rule="evenodd" d="M3.69231 15.125H0.615385C0.246154 15.125 0 14.875 0 14.5C0 14.125 0.246154 13.875 0.615385 13.875H3.69231H3.75385C4.06154 12.8125 4.98462 12 6.15385 12C7.32308 12 8.30769 12.8125 8.55385 13.875H8.61539H15.3846C15.7538 13.875 16 14.125 16 14.5C16 14.875 15.7538 15.125 15.3846 15.125H8.61539H8.55385C8.24615 16.1875 7.32308 17 6.15385 17C4.98462 17 4 16.1875 3.75385 15.125H3.69231ZM7.38462 14.5C7.38462 13.8125 6.83077 13.25 6.15385 13.25C5.47692 13.25 4.92308 13.8125 4.92308 14.5C4.92308 15.1875 5.47692 15.75 6.15385 15.75C6.83077 15.75 7.38462 15.1875 7.38462 14.5Z" fill="white"/>
</svg>
