<svg width="143" height="89" viewBox="0 0 143 89" fill="none" xmlns="http://www.w3.org/2000/svg">
<path fill-rule="evenodd" clip-rule="evenodd" d="M8.74206 9.66131C8.15198 9.9178 7.52227 10.046 6.85293 10.046C6.18359 10.046 5.55388 9.9178 4.9638 9.66131C4.37373 9.40483 3.86291 9.05991 3.43136 8.62654C2.99982 8.19318 2.65634 7.68464 2.40093 7.10092C2.14553 6.51721 2.01782 5.88927 2.01782 5.21711C2.01782 4.56264 2.14553 3.93913 2.40093 3.34656C2.65634 2.754 2.99982 2.24104 3.43136 1.80768C3.86291 1.37431 4.37373 1.02939 4.9638 0.772906C5.55388 0.516424 6.18359 0.388184 6.85293 0.388184C7.52227 0.388184 8.15198 0.516424 8.74206 0.772906C9.33213 1.02939 9.84735 1.37431 10.2877 1.80768C10.7281 2.24104 11.0759 2.754 11.3313 3.34656C11.5868 3.93913 11.7145 4.56264 11.7145 5.21711C11.7145 5.88927 11.5868 6.51721 11.3313 7.10092C11.0759 7.68464 10.7281 8.19318 10.2877 8.62654C9.84735 9.05991 9.33213 9.40483 8.74206 9.66131ZM10.4726 12.9381V41.3545H3.20674V12.9381H10.4726ZM22.1793 41.3545V25.1165C22.1793 24.3736 22.3202 23.6705 22.602 23.0072C22.8839 22.3439 23.2714 21.7646 23.7646 21.2693C24.2578 20.774 24.839 20.3849 25.5084 20.1019C26.1777 19.8189 26.8911 19.6774 27.6485 19.6774C28.3883 19.6774 29.0841 19.8189 29.7358 20.1019C30.3875 20.3849 30.96 20.774 31.4532 21.2693C31.9464 21.7646 32.3339 22.3439 32.6157 23.0072C32.8976 23.6705 33.0385 24.3736 33.0385 25.1165V41.3545H40.2515V25.1165C40.2515 23.3654 39.9212 21.7159 39.2607 20.1682C38.6002 18.6205 37.6974 17.2673 36.5525 16.1087C35.4076 14.9501 34.0689 14.0392 32.5365 13.3759C31.004 12.7126 29.3747 12.3809 27.6485 12.3809C26.0456 12.3809 24.5088 12.6683 23.038 13.2432C21.5672 13.8181 20.2505 14.6362 19.088 15.6975L16.7101 12.9381H14.9663V41.3545H22.1793ZM63.3986 40.6513C62.3065 41.1201 61.1439 41.3545 59.9109 41.3545H43.424V34.1376H59.9109C60.4041 34.1376 60.8269 33.9607 61.1792 33.607C61.5314 33.2532 61.7076 32.8287 61.7076 32.3334C61.7076 31.8204 61.5314 31.4843 61.1792 31.3252C60.8269 31.166 60.4041 31.0864 59.9109 31.0864H52.4073C51.1567 31.0864 49.9853 30.8476 48.8932 30.37C47.8011 29.8924 46.85 29.2423 46.0397 28.4198C45.2295 27.5973 44.591 26.6377 44.1242 25.5411C43.6574 24.4444 43.424 23.2681 43.424 22.0122C43.424 20.7563 43.6574 19.5801 44.1242 18.4834C44.591 17.3867 45.2295 16.4315 46.0397 15.6179C46.85 14.8042 47.8011 14.163 48.8932 13.6943C49.9853 13.2255 51.1567 12.9912 52.4073 12.9912H67.0183V20.208H52.4073C51.9141 20.208 51.4913 20.3849 51.139 20.7387C50.7868 21.0924 50.6106 21.5169 50.6106 22.0122C50.6106 22.5252 50.7868 22.963 51.139 23.3256C51.4913 23.6882 51.9141 23.8695 52.4073 23.8695H59.9109C61.1439 23.8695 62.3065 24.0773 63.3986 24.493C64.4906 24.9087 65.4418 25.488 66.2521 26.2309C67.0623 26.9738 67.7052 27.8671 68.1808 28.9107C68.6564 29.9543 68.8942 31.0952 68.8942 32.3334C68.8942 33.5893 68.6564 34.7611 68.1808 35.849C67.7052 36.9368 67.0623 37.892 66.2521 38.7145C65.4418 39.537 64.4906 40.1826 63.3986 40.6513ZM75.3693 10.046C76.0387 10.046 76.6684 9.9178 77.2585 9.66131C77.8485 9.40483 78.3638 9.05991 78.8041 8.62654C79.2445 8.19318 79.5923 7.68464 79.8478 7.10092C80.1032 6.51721 80.2309 5.88927 80.2309 5.21711C80.2309 4.56264 80.1032 3.93913 79.8478 3.34656C79.5923 2.754 79.2445 2.24104 78.8041 1.80768C78.3638 1.37431 77.8485 1.02939 77.2585 0.772906C76.6684 0.516424 76.0387 0.388184 75.3693 0.388184C74.7 0.388184 74.0703 0.516424 73.4802 0.772906C72.8901 1.02939 72.3793 1.37431 71.9478 1.80768C71.5162 2.24104 71.1728 2.754 70.9173 3.34656C70.6619 3.93913 70.5342 4.56264 70.5342 5.21711C70.5342 5.88927 70.6619 6.51721 70.9173 7.10092C71.1728 7.68464 71.5162 8.19318 71.9478 8.62654C72.3793 9.05991 72.8901 9.40483 73.4802 9.66131C74.0703 9.9178 74.7 10.046 75.3693 10.046ZM78.9891 12.9381V41.3545H71.7233V12.9381H78.9891ZM96.3764 41.8851C97.2923 41.8851 98.195 41.7701 99.0845 41.5402C99.9741 41.3102 100.842 40.9963 101.687 40.5983C102.533 40.2003 103.338 39.7316 104.105 39.1921C104.871 38.6526 105.597 38.0733 106.284 37.4542L109.085 41.3545H110.829V1.63521H103.563V14.9015C103.175 14.3355 102.7 13.8579 102.136 13.4687C101.573 13.0796 100.969 12.7656 100.326 12.5268C99.6834 12.288 99.0229 12.1156 98.3447 12.0094C97.6666 11.9033 97.0105 11.8503 96.3764 11.8503C94.3859 11.8503 92.5144 12.2306 90.7618 12.9912C89.0092 13.7518 87.4768 14.8042 86.1645 16.1485C84.8522 17.4928 83.8174 19.0848 83.06 20.9244C82.3026 22.764 81.9239 24.7539 81.9239 26.8942C81.9239 29.0522 82.3026 31.0466 83.06 32.8773C83.8174 34.7081 84.8522 36.2912 86.1645 37.6266C87.4768 38.9621 89.0092 40.0057 90.7618 40.7575C92.5144 41.5092 94.3859 41.8851 96.3764 41.8851ZM93.5889 34.0049C94.4608 34.4118 95.3899 34.6152 96.3763 34.6152C97.3627 34.6152 98.2919 34.3985 99.1638 33.9651C100.036 33.5318 100.797 32.9569 101.449 32.2405C102.101 31.5242 102.616 30.7016 102.995 29.773C103.374 28.8444 103.563 27.8848 103.563 26.8942C103.563 25.9037 103.374 24.9441 102.995 24.0154C102.616 23.0868 102.101 22.2643 101.449 21.5479C100.797 20.8315 100.036 20.2567 99.1638 19.8233C98.2919 19.3899 97.3627 19.1732 96.3763 19.1732C95.3899 19.1732 94.4608 19.3501 93.5889 19.7039C92.717 20.0577 91.9596 20.5662 91.3166 21.2295C90.6737 21.8928 90.1673 22.7021 89.7974 23.6572C89.4275 24.6124 89.2426 25.6914 89.2426 26.8942C89.2426 27.9378 89.4275 28.9284 89.7974 29.8659C90.1673 30.8034 90.6737 31.6259 91.3166 32.3334C91.9596 33.0409 92.717 33.5981 93.5889 34.0049ZM128.269 41.8851C129.449 41.8851 130.598 41.748 131.717 41.4739C132.835 41.1997 133.901 40.7973 134.914 40.2666C135.927 39.736 136.869 39.0903 137.741 38.3297C138.613 37.5691 139.383 36.7113 140.053 35.7561L134.768 30.423C134.487 31.0598 134.121 31.6391 133.672 32.1609C133.223 32.6827 132.712 33.1249 132.14 33.4876C131.567 33.8502 130.955 34.1288 130.303 34.3233C129.652 34.5179 128.973 34.6152 128.269 34.6152C127.987 34.6152 127.705 34.6019 127.423 34.5754C127.142 34.5489 126.86 34.4914 126.578 34.4029L140.106 18.0323C139.436 17.0772 138.661 16.2149 137.781 15.4454C136.9 14.676 135.953 14.0259 134.94 13.4953C133.927 12.9646 132.857 12.5578 131.73 12.2748C130.603 11.9918 129.449 11.8503 128.269 11.8503C126.278 11.8503 124.407 12.2129 122.654 12.9381C120.902 13.6633 119.369 14.6804 118.057 15.9893C116.745 17.2983 115.71 18.8814 114.952 20.7387C114.195 22.5959 113.816 24.6478 113.816 26.8942C113.816 29.0876 114.195 31.0996 114.952 32.9304C115.71 34.7611 116.745 36.3398 118.057 37.6664C119.369 38.9931 120.902 40.0278 122.654 40.7707C124.407 41.5137 126.278 41.8851 128.269 41.8851ZM121.531 29.8128C121.62 30.1312 121.734 30.4142 121.875 30.6618L130.277 19.4651C129.942 19.3413 129.612 19.2617 129.286 19.2263C128.96 19.1909 128.621 19.1732 128.269 19.1732C127.282 19.1732 126.353 19.3545 125.481 19.7172C124.61 20.0798 123.852 20.5972 123.209 21.2693C122.566 21.9415 122.06 22.7507 121.69 23.697C121.32 24.6434 121.135 25.7091 121.135 26.8942C121.135 27.1595 121.148 27.4602 121.175 27.7963C121.201 28.1324 121.245 28.4729 121.307 28.8178C121.369 29.1628 121.443 29.4944 121.531 29.8128Z" fill="#EC27A1"/>
<path fill-rule="evenodd" clip-rule="evenodd" d="M44.4795 78.2613C43.3569 78.5323 42.2034 78.6678 41.019 78.6678C39.0213 78.6678 37.143 78.2963 35.384 77.5533C33.625 76.8103 32.087 75.792 30.77 74.4983C29.453 73.2047 28.4144 71.6925 27.6542 69.9618C26.894 68.2311 26.514 66.378 26.514 64.4025C26.514 62.2522 26.894 60.2418 27.6542 58.3712C28.4144 56.5006 29.453 54.8705 30.77 53.4806C32.087 52.0908 33.625 50.9938 35.384 50.1897C37.143 49.3855 39.0213 48.9834 41.019 48.9834C42.2034 48.9834 43.3658 49.132 44.506 49.4292C45.6463 49.7264 46.7335 50.1591 47.7676 50.7272C48.8018 51.2954 49.7565 51.9903 50.6315 52.812C51.5066 53.6336 52.2623 54.5776 52.8988 55.644L47.5953 60.9148C47.3301 60.1806 46.9677 59.5207 46.5081 58.935C46.0484 58.3494 45.5313 57.8555 44.9568 57.4534C44.3823 57.0513 43.7591 56.7454 43.0873 56.5356C42.4156 56.3258 41.7261 56.2209 41.019 56.2209C40.029 56.2209 39.0965 56.422 38.2214 56.8241C37.3463 57.2262 36.5861 57.7899 35.9409 58.5154C35.2956 59.2409 34.7874 60.1019 34.4161 61.0984C34.0449 62.0949 33.8593 63.1962 33.8593 64.4025C33.8593 65.3815 34.0449 66.2993 34.4161 67.1559C34.7874 68.0125 35.2956 68.7643 35.9409 69.4111C36.5861 70.0579 37.3463 70.5649 38.2214 70.932C39.0965 71.2991 40.029 71.4827 41.019 71.4827C41.7261 71.4827 42.4067 71.3866 43.0608 71.1943C43.7149 71.002 44.3292 70.7266 44.9038 70.3682C45.4783 70.0098 45.991 69.5728 46.4418 69.0571C46.8926 68.5414 47.2594 67.9688 47.5422 67.3395L52.8457 72.6103C52.174 73.5543 51.4005 74.4022 50.5255 75.1539C49.6504 75.9056 48.7046 76.5437 47.6881 77.0682C46.6716 77.5927 45.6021 77.9904 44.4795 78.2613ZM20.4275 77.4484C19.3315 77.9117 18.1647 78.1433 16.9272 78.1433H0.380371V71.0107H16.9272C17.4222 71.0107 17.8465 70.8359 18.2001 70.4862C18.5536 70.1366 18.7304 69.717 18.7304 69.2275C18.7304 68.7205 18.5536 68.3884 18.2001 68.2311C17.8465 68.0737 17.4222 67.995 16.9272 67.995H9.39629C8.14113 67.995 6.96552 67.759 5.86947 67.287C4.77342 66.815 3.81879 66.1725 3.00559 65.3596C2.19239 64.5467 1.55156 63.5983 1.08308 62.5144C0.614608 61.4306 0.380371 60.268 0.380371 59.0268C0.380371 57.7856 0.614608 56.623 1.08308 55.5391C1.55156 54.4553 2.19239 53.5112 3.00559 52.7071C3.81879 51.9029 4.77342 51.2692 5.86947 50.8059C6.96552 50.3426 8.14113 50.111 9.39629 50.111H24.0604V57.2436H9.39629C8.90129 57.2436 8.47702 57.4185 8.12345 57.7681C7.76989 58.1177 7.5931 58.5373 7.5931 59.0268C7.5931 59.5338 7.76989 59.9664 8.12345 60.3248C8.47702 60.6832 8.90129 60.8624 9.39629 60.8624H16.9272C18.1647 60.8624 19.3315 61.0678 20.4275 61.4786C21.5236 61.8895 22.4782 62.462 23.2914 63.1962C24.1046 63.9305 24.7499 64.8133 25.2272 65.8448C25.7045 66.8762 25.9431 68.0038 25.9431 69.2275C25.9431 70.4687 25.7045 71.6269 25.2272 72.7021C24.7499 73.7772 24.1046 74.7212 23.2914 75.5341C22.4782 76.3471 21.5236 76.9851 20.4275 77.4484ZM67.2321 78.6678C69.2474 78.6678 71.1346 78.2876 72.8936 77.5271C74.6526 76.7666 76.1861 75.7265 77.4943 74.4066C78.8025 73.0867 79.8367 71.522 80.5969 69.7127C81.357 67.9033 81.7371 65.9497 81.7371 63.8518C81.7371 61.6141 81.357 59.5818 80.5969 57.755C79.8367 55.9281 78.8025 54.3635 77.4943 53.0611C76.1861 51.7587 74.6526 50.7534 72.8936 50.0454C71.1346 49.3374 69.2474 48.9834 67.2321 48.9834C65.2345 48.9834 63.3561 49.3593 61.5972 50.111C59.8382 50.8627 58.3002 51.8985 56.9831 53.2184C55.6661 54.5383 54.6275 56.1073 53.8673 57.9254C53.1072 59.7436 52.7271 61.719 52.7271 63.8518C52.7271 65.9497 53.1072 67.9033 53.8673 69.7127C54.6275 71.522 55.6661 73.0867 56.9831 74.4066C58.3002 75.7265 59.8382 76.7666 61.5972 77.5271C63.3561 78.2876 65.2345 78.6678 67.2321 78.6678ZM64.4346 70.8927C65.3096 71.286 66.2422 71.4827 67.2321 71.4827C68.2221 71.4827 69.1547 71.2991 70.0297 70.932C70.9048 70.5649 71.6694 70.0492 72.3235 69.3849C72.9776 68.7205 73.4947 67.9164 73.8748 66.9723C74.2548 66.0283 74.4449 64.9881 74.4449 63.8518C74.4449 62.698 74.2548 61.6535 73.8748 60.7182C73.4947 59.7829 72.9776 58.9787 72.3235 58.3057C71.6694 57.6326 70.9048 57.1169 70.0297 56.7585C69.1547 56.4001 68.2221 56.2209 67.2321 56.2209C66.2422 56.2209 65.3096 56.4001 64.4346 56.7585C63.5595 57.1169 62.7993 57.6326 62.1541 58.3057C61.5088 58.9787 61.0006 59.7829 60.6293 60.7182C60.2581 61.6535 60.0724 62.698 60.0724 63.8518C60.0724 64.9357 60.2581 65.9409 60.6293 66.8675C61.0006 67.794 61.5088 68.5982 62.1541 69.28C62.7993 69.9618 63.5595 70.4993 64.4346 70.8927ZM96.9721 78.6678C98.9874 78.6678 100.875 78.2876 102.634 77.5271C104.393 76.7666 105.926 75.7265 107.234 74.4066C108.543 73.0867 109.577 71.522 110.337 69.7127C111.097 67.9033 111.477 65.9497 111.477 63.8518C111.477 61.6141 111.097 59.5818 110.337 57.755C109.577 55.9281 108.543 54.3635 107.234 53.0611C105.926 51.7587 104.393 50.7534 102.634 50.0454C100.875 49.3374 98.9874 48.9834 96.9721 48.9834C94.9744 48.9834 93.0961 49.3593 91.3371 50.111C89.5781 50.8627 88.0401 51.8985 86.7231 53.2184C85.4061 54.5383 84.3675 56.1073 83.6073 57.9254C82.8471 59.7436 82.4671 61.719 82.4671 63.8518C82.4671 65.9497 82.8471 67.9033 83.6073 69.7127C84.3675 71.522 85.4061 73.0867 86.7231 74.4066C88.0401 75.7265 89.5781 76.7666 91.3371 77.5271C93.0961 78.2876 94.9744 78.6678 96.9721 78.6678ZM94.1744 70.8927C95.0495 71.286 95.982 71.4827 96.972 71.4827C97.962 71.4827 98.8945 71.2991 99.7696 70.932C100.645 70.5649 101.409 70.0492 102.063 69.3849C102.717 68.7205 103.235 67.9164 103.615 66.9723C103.995 66.0283 104.185 64.9881 104.185 63.8518C104.185 62.698 103.995 61.6535 103.615 60.7182C103.235 59.7829 102.717 58.9787 102.063 58.3057C101.409 57.6326 100.645 57.1169 99.7696 56.7585C98.8945 56.4001 97.962 56.2209 96.972 56.2209C95.982 56.2209 95.0495 56.4001 94.1744 56.7585C93.2993 57.1169 92.5392 57.6326 91.8939 58.3057C91.2487 58.9787 90.7404 59.7829 90.3692 60.7182C89.9979 61.6535 89.8123 62.698 89.8123 63.8518C89.8123 64.9357 89.9979 65.9409 90.3692 66.8675C90.7404 67.794 91.2487 68.5982 91.8939 69.28C92.5392 69.9618 93.2993 70.4993 94.1744 70.8927ZM121.064 88.8423V76.2553C121.612 76.5699 122.182 76.8759 122.774 77.1731C123.366 77.4703 123.967 77.7369 124.577 77.9729C125.187 78.2089 125.806 78.3968 126.434 78.5367C127.061 78.6765 127.693 78.7465 128.33 78.7465C130.327 78.7465 132.206 78.4056 133.965 77.7238C135.724 77.042 137.262 76.0586 138.579 74.7737C139.896 73.4887 140.934 71.9241 141.694 70.0798C142.455 68.2354 142.835 66.1594 142.835 63.8518C142.835 61.6316 142.455 59.6081 141.694 57.7812C140.934 55.9543 139.896 54.3941 138.579 53.1004C137.262 51.8067 135.724 50.8059 133.965 50.0979C132.206 49.3898 130.327 49.0358 128.33 49.0358C127.41 49.0358 126.5 49.1495 125.598 49.3767C124.697 49.604 123.826 49.9143 122.986 50.3077C122.147 50.701 121.338 51.1686 120.56 51.7106C119.782 52.2525 119.066 52.8294 118.412 53.4413L115.522 50.0585H113.772V88.8423H121.064ZM125.532 70.932C126.407 71.2991 127.34 71.4827 128.33 71.4827C129.32 71.4827 130.256 71.2991 131.14 70.932C132.024 70.5649 132.793 70.0492 133.447 69.3849C134.102 68.7205 134.619 67.9164 134.999 66.9723C135.379 66.0283 135.569 64.9881 135.569 63.8518C135.569 62.663 135.379 61.5966 134.999 60.6526C134.619 59.7086 134.102 58.9088 133.447 58.2532C132.793 57.5976 132.024 57.095 131.14 56.7454C130.256 56.3958 129.32 56.2209 128.33 56.2209C127.34 56.2209 126.407 56.3958 125.532 56.7454C124.657 57.095 123.892 57.5976 123.238 58.2532C122.584 58.9088 122.067 59.7086 121.687 60.6526C121.307 61.5966 121.117 62.663 121.117 63.8518C121.117 64.9881 121.307 66.0283 121.687 66.9723C122.067 67.9164 122.584 68.7205 123.238 69.3849C123.892 70.0492 124.657 70.5649 125.532 70.932Z" fill="#F96F3E"/>
</svg>
