<svg width="24" height="30" viewBox="0 0 24 30" fill="none" xmlns="http://www.w3.org/2000/svg">
<path d="M5.89538 25.6675H7.62038V26.5H4.84538V21.265H5.89538V25.6675ZM9.38464 21.265V26.5H8.33464V21.265H9.38464ZM14.9464 26.5H13.8964L11.5189 22.9075V26.5H10.4689V21.2575H11.5189L13.8964 24.8575V21.2575H14.9464V26.5ZM18.9859 26.5L17.0809 24.1675V26.5H16.0309V21.265H17.0809V23.6125L18.9859 21.265H20.2534L18.0934 23.86L20.3134 26.5H18.9859Z" fill="#585858"/>
<path d="M9.57402 8.33548L6.17493 11.7346C5.24412 12.6509 5.21571 14.143 6.11097 15.0941C7.00623 16.0452 8.49727 16.107 9.46819 15.2333L12.9731 11.7346L14.1061 12.8676L10.7071 16.2667C9.17533 17.8637 6.63895 17.9167 5.0419 16.385C3.44485 14.8532 3.3919 12.3169 4.92362 10.7198L8.44099 7.19623L9.57402 8.32926V8.33548Z" fill="#585858" stroke="white" stroke-width="0.5"/>
<rect x="9.00879" y="11.1696" width="6.40597" height="1.59994" transform="rotate(-45 9.00879 11.1696)" fill="#585858" stroke="white" stroke-width="0.5"/>
<path d="M18.6332 2.67656C20.1492 4.19073 20.2041 6.63016 18.7577 8.21097L15.2341 11.7346L14.1073 10.6015L17.5002 7.20245C18.3885 6.27877 18.3957 4.82052 17.5165 3.88815C16.6373 2.95578 15.1811 2.87739 14.2069 3.70998L10.7082 7.20245L9.5752 6.06942L12.9743 2.67656C13.7233 1.92345 14.7416 1.5 15.8037 1.5C16.8659 1.5 17.8842 1.92345 18.6332 2.67656Z" fill="#585858" stroke="white" stroke-width="0.5"/>
</svg>
