<svg width="32" height="30" viewBox="0 0 32 30" fill="none" xmlns="http://www.w3.org/2000/svg">
<path d="M12.0997 9.67668C12.0997 10.8917 11.1147 11.8767 9.89971 11.8767C8.68468 11.8767 7.69971 10.8917 7.69971 9.67668C7.69971 8.46166 8.68468 7.47668 9.89971 7.47668C11.1147 7.47668 12.0997 8.46166 12.0997 9.67668Z" stroke="#585858"/>
<path d="M22.8995 3.82665C22.8995 5.04167 21.9145 6.02665 20.6995 6.02665C19.4845 6.02665 18.4995 5.04167 18.4995 3.82665C18.4995 2.61162 19.4845 1.62665 20.6995 1.62665C21.9145 1.62665 22.8995 2.61162 22.8995 3.82665Z" stroke="#585858"/>
<path d="M22.8995 15.0766C22.8995 16.2917 21.9145 17.2766 20.6995 17.2766C19.4845 17.2766 18.4995 16.2917 18.4995 15.0766C18.4995 13.8616 19.4845 12.8766 20.6995 12.8766C21.9145 12.8766 22.8995 13.8616 22.8995 15.0766Z" stroke="#585858"/>
<path d="M11.9575 8.53264L18.6718 4.91486" stroke="#585858"/>
<path d="M11.9575 10.7648L18.6718 14.3826" stroke="#585858"/>
<path d="M5.71081 26.5525C5.34581 26.5525 5.01581 26.49 4.72081 26.365C4.43081 26.24 4.20081 26.06 4.03081 25.825C3.86081 25.59 3.77331 25.3125 3.76831 24.9925H4.89331C4.90831 25.2075 4.98331 25.3775 5.11831 25.5025C5.25831 25.6275 5.44831 25.69 5.68831 25.69C5.93331 25.69 6.12581 25.6325 6.26581 25.5175C6.40581 25.3975 6.47581 25.2425 6.47581 25.0525C6.47581 24.8975 6.42831 24.77 6.33331 24.67C6.23831 24.57 6.11831 24.4925 5.97331 24.4375C5.83331 24.3775 5.63831 24.3125 5.38831 24.2425C5.04831 24.1425 4.77081 24.045 4.55581 23.95C4.34581 23.85 4.16331 23.7025 4.00831 23.5075C3.85831 23.3075 3.78331 23.0425 3.78331 22.7125C3.78331 22.4025 3.86081 22.1325 4.01581 21.9025C4.17081 21.6725 4.38831 21.4975 4.66831 21.3775C4.94831 21.2525 5.26831 21.19 5.62831 21.19C6.16831 21.19 6.60581 21.3225 6.94081 21.5875C7.28081 21.8475 7.46831 22.2125 7.50331 22.6825H6.34831C6.33831 22.5025 6.26081 22.355 6.11581 22.24C5.97581 22.12 5.78831 22.06 5.55331 22.06C5.34831 22.06 5.18331 22.1125 5.05831 22.2175C4.93831 22.3225 4.87831 22.475 4.87831 22.675C4.87831 22.815 4.92331 22.9325 5.01331 23.0275C5.10831 23.1175 5.22331 23.1925 5.35831 23.2525C5.49831 23.3075 5.69331 23.3725 5.94331 23.4475C6.28331 23.5475 6.56081 23.6475 6.77581 23.7475C6.99081 23.8475 7.17581 23.9975 7.33081 24.1975C7.48581 24.3975 7.56331 24.66 7.56331 24.985C7.56331 25.265 7.49081 25.525 7.34581 25.765C7.20081 26.005 6.98831 26.1975 6.70831 26.3425C6.42831 26.4825 6.09581 26.5525 5.71081 26.5525ZM10.6893 26.5525C10.1993 26.5525 9.74934 26.4375 9.33934 26.2075C8.92934 25.9775 8.60434 25.66 8.36434 25.255C8.12434 24.845 8.00434 24.3825 8.00434 23.8675C8.00434 23.3575 8.12434 22.9 8.36434 22.495C8.60434 22.085 8.92934 21.765 9.33934 21.535C9.74934 21.305 10.1993 21.19 10.6893 21.19C11.1843 21.19 11.6343 21.305 12.0393 21.535C12.4493 21.765 12.7718 22.085 13.0068 22.495C13.2468 22.9 13.3668 23.3575 13.3668 23.8675C13.3668 24.3825 13.2468 24.845 13.0068 25.255C12.7718 25.66 12.4493 25.9775 12.0393 26.2075C11.6293 26.4375 11.1793 26.5525 10.6893 26.5525ZM10.6893 25.615C11.0043 25.615 11.2818 25.545 11.5218 25.405C11.7618 25.26 11.9493 25.055 12.0843 24.79C12.2193 24.525 12.2868 24.2175 12.2868 23.8675C12.2868 23.5175 12.2193 23.2125 12.0843 22.9525C11.9493 22.6875 11.7618 22.485 11.5218 22.345C11.2818 22.205 11.0043 22.135 10.6893 22.135C10.3743 22.135 10.0943 22.205 9.84934 22.345C9.60934 22.485 9.42184 22.6875 9.28684 22.9525C9.15184 23.2125 9.08434 23.5175 9.08434 23.8675C9.08434 24.2175 9.15184 24.525 9.28684 24.79C9.42184 25.055 9.60934 25.26 9.84934 25.405C10.0943 25.545 10.3743 25.615 10.6893 25.615ZM13.6787 23.875C13.6787 23.36 13.7937 22.9 14.0237 22.495C14.2587 22.085 14.5762 21.7675 14.9762 21.5425C15.3812 21.3125 15.8337 21.1975 16.3337 21.1975C16.9187 21.1975 17.4312 21.3475 17.8712 21.6475C18.3112 21.9475 18.6187 22.3625 18.7937 22.8925H17.5862C17.4662 22.6425 17.2962 22.455 17.0762 22.33C16.8612 22.205 16.6112 22.1425 16.3262 22.1425C16.0212 22.1425 15.7487 22.215 15.5087 22.36C15.2737 22.5 15.0887 22.7 14.9537 22.96C14.8237 23.22 14.7587 23.525 14.7587 23.875C14.7587 24.22 14.8237 24.525 14.9537 24.79C15.0887 25.05 15.2737 25.2525 15.5087 25.3975C15.7487 25.5375 16.0212 25.6075 16.3262 25.6075C16.6112 25.6075 16.8612 25.545 17.0762 25.42C17.2962 25.29 17.4662 25.1 17.5862 24.85H18.7937C18.6187 25.385 18.3112 25.8025 17.8712 26.1025C17.4362 26.3975 16.9237 26.545 16.3337 26.545C15.8337 26.545 15.3812 26.4325 14.9762 26.2075C14.5762 25.9775 14.2587 25.66 14.0237 25.255C13.7937 24.85 13.6787 24.39 13.6787 23.875ZM20.5263 21.265V26.5H19.4763V21.265H20.5263ZM24.5594 25.5025H22.4744L22.1294 26.5H21.0269L22.9094 21.2575H24.1319L26.0144 26.5H24.9044L24.5594 25.5025ZM24.2744 24.6625L23.5169 22.4725L22.7594 24.6625H24.2744ZM27.5538 25.6675H29.2788V26.5H26.5038V21.265H27.5538V25.6675Z" fill="#585858"/>
</svg>
