<svg xmlns="http://www.w3.org/2000/svg" viewBox="0 0 22.25 23"><path d="M21.39 23h-4a.89.89 0 01-.62-.23.87.87 0 01-.26-.61V8.53a.85.85 0 01.88-.85h4a.85.85 0 01.86.85v13.62a.86.86 0 01-.25.6.88.88 0 01-.61.25zm-.85-13.63h-2.26V21.3h2.26zM1.34 12.06a.86.86 0 01.66-.25h4a.85.85 0 01.86.85v9.47a.85.85 0 01-.86.86H2a.86.86 0 01-.61-.25.85.85 0 01-.24-.62v-9.45a.81.81 0 01.19-.61zm1.47 9.22h2.25v-7.75H2.81zM9.08 15.64a.85.85 0 01.6-.24h4a.85.85 0 01.85.86v5.91a.85.85 0 01-.85.85h-4a.85.85 0 01-.85-.85v-5.93a.84.84 0 01.25-.6zm1.46 5.66h2.26v-4.19h-2.26z" fill-rule="evenodd"/><path d="M20.54 4.35a.85.85 0 00.85.75h.11a.86.86 0 00.57-.33.85.85 0 00.17-.63L21.81.76a.87.87 0 00-.32-.58.86.86 0 00-.64-.18l-3.32.43a.85.85 0 00-.74.93.85.85 0 00.95.74L19 1.94l-8 7.81-6.59-4.33a.86.86 0 00-1 .06L.31 8a.88.88 0 00-.3.81.83.83 0 00.55.65.83.83 0 00.84-.14L4 7.22l6.68 4.34a.88.88 0 001.07-.11L20.37 3z"/></svg>