<svg xmlns="http://www.w3.org/2000/svg" viewBox="0 0 13.8 14.07"><path d="M4.65 3.5v-3a.49.49 0 00-1 0v3a.49.49 0 001 0zM10.12 3.5v-3a.49.49 0 00-1 0v3a.49.49 0 001 0zM3.72 7a1.69 1.69 0 100 3.37A1.66 1.66 0 005.4 8.68 1.69 1.69 0 003.72 7zm0 2.42A.73.73 0 013 8.67a.74.74 0 01.72-.74.74.74 0 01.71.74.72.72 0 01-.71.73zM4.43 11.08H3a.49.49 0 000 1h1.43a.49.49 0 100-1zM7.87 11.08H6.42a.49.49 0 100 1h1.45a.49.49 0 000-1zM7.87 8.2H6.42a.49.49 0 100 1h1.45a.49.49 0 000-1zM11.3 11.08H9.85a.49.49 0 000 1h1.45a.49.49 0 000-1zM11.3 8.2H9.85a.49.49 0 000 1h1.45a.49.49 0 000-1z" fill="#fff"/><path d="M12 1.87h-.86a.48.48 0 100 1H12a.86.86 0 01.85.85V5.3H1V3.68a.86.86 0 01.85-.85h.86a.48.48 0 100-1h-.89A1.82 1.82 0 000 3.68v8.57a1.83 1.83 0 001.82 1.82H12a1.83 1.83 0 001.82-1.82V3.68A1.82 1.82 0 0012 1.87zm0 11.23H1.82a.85.85 0 01-.82-.85v-6h11.83v6a.85.85 0 01-.83.85z" fill="#fff"/><path d="M8.15 2.83a.48.48 0 100-1h-2.5a.48.48 0 100 1zM11.3 8.2H9.85a.49.49 0 000 1h1.45a.49.49 0 000-1z" fill="#fff"/></svg>