<svg xmlns="http://www.w3.org/2000/svg" viewBox="0 0 83.25 90.29" width="84" height="91"><path d="M75.9 49.87a7.3 7.3 0 00-.52-9.58 7.18 7.18 0 00-3.13-1.77 7.43 7.43 0 00.63-3 7.19 7.19 0 00-11.46-5.84 7.93 7.93 0 00-1.35-2.39 7.21 7.21 0 00-5.21-2.4 6.79 6.79 0 00-5.11 2 3.18 3.18 0 00-.72-.94 7.24 7.24 0 00-5.21-2.39 7 7 0 00-5.32 2.04L28.09 35.91a9.22 9.22 0 00-9.9-6.91A5.29 5.29 0 0015 30.6a9.33 9.33 0 00-7.81-3 5.65 5.65 0 00-5 5.63l.1 15.1A46.57 46.57 0 01.8 59.87V60a20.79 20.79 0 005.31 20.39 29.09 29.09 0 0020.62 8.54 13.07 13.07 0 002-.1 29.93 29.93 0 009.07 1.46 28.73 28.73 0 0020.6-8.54l20.1-20.21a7.25 7.25 0 002.09-5.11 7.06 7.06 0 00-2.09-5.1 7.91 7.91 0 00-2.6-1.46zM41.53 28.62a3 3 0 012.18-.83 3 3 0 012.09.94 2.47 2.47 0 01.52 1.45L29.13 47.79l-.52-6.36zM9.13 77.48a16.61 16.61 0 01-4.27-16.15 49.09 49.09 0 001.67-12.92l-.11-15.1a1.25 1.25 0 011.15-1.25A4.91 4.91 0 0113 36.33l.21 2.5.11 10.94a50.45 50.45 0 01-1.36 11.46c0 .1-.1.1-.1.2a20.8 20.8 0 005.31 20.42c.52.52 1.15 1 1.67 1.56a25.23 25.23 0 01-9.71-5.93zm66.35-18.86l-20.1 20.21a25 25 0 01-35.21 0 16.58 16.58 0 01-4.27-16v-.11a49.19 49.19 0 001.67-12.91V34.66a1.25 1.25 0 011.14-1.25 4.92 4.92 0 015.42 4.27l.73 10.53a4.13 4.13 0 007 2.5l20.6-20.63a2.36 2.36 0 012.19-.83 3 3 0 012.08.93 3.34 3.34 0 01-.31 4.28L41.11 49.87a2.14 2.14 0 000 3 2.12 2.12 0 001.56.63 2.27 2.27 0 001.56-.63l15.42-15.39 4.06-4.07a3 3 0 014.17 0 3 3 0 010 4.17L48.3 57.06a2.12 2.12 0 000 3 2.09 2.09 0 001.56.63 2.12 2.12 0 001.56-.63l10.94-10.92 5.83-5.83a2.95 2.95 0 114.17 4.17l-4 4-2.92 2.82-10 10a2.18 2.18 0 003.13 3l12.85-12.84a3 3 0 014.17 0 2.91 2.91 0 01.83 2.08 2.61 2.61 0 01-.94 2.08zM62.05 14.25l5.31-11.36a2.12 2.12 0 113.85 1.77L66 16.12a2.12 2.12 0 01-2 1.25 2.84 2.84 0 01-.94-.21 2.34 2.34 0 01-1.01-2.91zM50.9 2.68a2.15 2.15 0 011.56-2.6 2.09 2.09 0 012.61 1.46l3.23 12.08a2.16 2.16 0 01-1.57 2.61c-.2 0-.41.1-.52.1a2.21 2.21 0 01-2.08-1.56zm31.15 14.59l-11.36 5.31a3.12 3.12 0 01-.94.21 2.13 2.13 0 01-2-1.25 2.09 2.09 0 011-2.81l11.35-5.32a2.09 2.09 0 012.9 1.05 2 2 0 01-.95 2.81z"/></svg>