<svg xmlns="http://www.w3.org/2000/svg" viewBox="0 0 35.5 43.19" width="36" height="44"><path d="M13.32 33.07l.34.32a7.45 7.45 0 011.75 3.11c.27 1 1 5.21-1.87 5a15.35 15.35 0 00-2.86-6.23 50.3 50.3 0 00-6.06-5.62 10.09 10.09 0 01-3-6.92A9.11 9.11 0 014.32 16c2.79-2.77 6.27-2.77 10-2.77h5.93a1.91 1.91 0 011.33.54 1.87 1.87 0 010 2.65 1.91 1.91 0 01-1.33.54h-1.5a.62.62 0 00-.62.62.61.61 0 00.62.61h3.09a1.92 1.92 0 011.33.55A1.87 1.87 0 0121.83 22h-3.09a.62.62 0 00-.62.62.61.61 0 00.62.61h4.48a1.87 1.87 0 110 3.74h-4.48a.62.62 0 00-.62.62.61.61 0 00.62.62h2.14a1.89 1.89 0 011.33.55 1.86 1.86 0 010 2.64 1.89 1.89 0 01-1.33.55h-7.17a.62.62 0 00-.39 1.1zm3.32 3.25a8.44 8.44 0 00-1.47-3.11h5.71A3.11 3.11 0 0024 30.1a3 3 0 00-.65-1.89 3.19 3.19 0 002.08-.91 3.08 3.08 0 000-4.39 3.15 3.15 0 00-1.25-.76 3.1 3.1 0 00.78-2 3.07 3.07 0 00-.96-2.24 3.12 3.12 0 00-1.41-.81 3.07 3.07 0 00.74-2 3.11 3.11 0 00-.92-2.2 3.15 3.15 0 00-2.17-.9h-5.93c-4 0-7.72 0-10.87 3.13a10.3 10.3 0 00-3.09 7.61 11.28 11.28 0 003.4 7.77 50.06 50.06 0 016 5.53 14.71 14.71 0 013 6.58 2.28 2.28 0 001.47.19A3.3 3.3 0 0015.8 42c1.28-1.18 1.2-4.29.84-5.68z"/><path d="M13.65 43.19a1.77 1.77 0 01-1.2-.32l-.08-.07v-.1a14.58 14.58 0 00-2.9-6.43 50.2 50.2 0 00-5.92-5.48 11.67 11.67 0 01-3.53-8 10.68 10.68 0 013.19-7.87c3.26-3.23 7.06-3.23 11.12-3.23h5.93a3.44 3.44 0 013 5.28 3.52 3.52 0 011.1.73 3.44 3.44 0 01.38 4.3 3.55 3.55 0 01.94.66 3.4 3.4 0 011 2.44 3.44 3.44 0 01-1 2.45 3.53 3.53 0 01-1.73.93 3.38 3.38 0 01.4 1.62 3.47 3.47 0 01-3.47 3.46h-5A9.46 9.46 0 0117 36.23c.38 1.38.51 4.69-.94 6.06a3.66 3.66 0 01-1.83.87 5.49 5.49 0 01-.58.03zm-.65-.78a3.11 3.11 0 001.11.06 3 3 0 001.45-.69c1.16-1.1 1.1-4.08.74-5.37a8 8 0 00-1.4-3l-.47-.57h6.45a2.78 2.78 0 002-.81 2.74 2.74 0 00.23-3.63l-.42-.54h.69a2.83 2.83 0 001.85-.81 2.74 2.74 0 000-3.89 2.82 2.82 0 00-1.12-.68l-.51-.16.36-.4a2.79 2.79 0 00.69-1.82 2.7 2.7 0 00-.82-1.94 2.76 2.76 0 00-1.25-.72L22 17.3l.36-.42a2.77 2.77 0 00.64-1.77 2.71 2.71 0 00-.82-1.95 2.78 2.78 0 00-2-.81h-5.87c-3.9 0-7.57 0-10.63 3a10 10 0 00-3 7.35A11 11 0 004 30.27a48.7 48.7 0 016 5.54 15 15 0 013 6.6zm.75-.57h-.48l-.07-.24a15.2 15.2 0 00-2.78-6.09 51.2 51.2 0 00-6-5.58 10.42 10.42 0 01-3.16-7.19 9.48 9.48 0 012.83-7c2.91-2.86 6.44-2.87 10.21-2.86h5.94a2.21 2.21 0 011.57.65 2.19 2.19 0 010 3.13 2.21 2.21 0 01-1.57.65h-1.5a.27.27 0 00-.27.27.27.27 0 00.27.29h3.09a2.26 2.26 0 011.58.66 2.19 2.19 0 01.65 1.56 2.21 2.21 0 01-.65 1.57 2.25 2.25 0 01-1.58.65h-3.09a.27.27 0 00-.27.27.27.27 0 00.27.29h4.48a2.22 2.22 0 011.58.66 2.2 2.2 0 01.66 1.56 2.24 2.24 0 01-2.24 2.22h-4.48a.27.27 0 00-.27.27.27.27 0 00.27.29h2.14a2.21 2.21 0 011.57.65 2.2 2.2 0 010 3.14 2.21 2.21 0 01-1.57.65h-7.17a.27.27 0 00-.27.27.28.28 0 00.1.21 3.75 3.75 0 01.35.33 7.66 7.66 0 011.84 3.27c.24.81.68 3.43-.37 4.71a2 2 0 01-1.61.74zM14 13.58c-3.52 0-6.83.07-9.45 2.67a8.77 8.77 0 00-2.62 6.46 9.69 9.69 0 002.93 6.68A51.08 51.08 0 0110.94 35a15.32 15.32 0 012.87 6.11 1.27 1.27 0 001-.46c.78-1 .49-3.2.24-4.08a6.87 6.87 0 00-1.66-3c-.1-.1-.2-.2-.32-.3a1 1 0 01-.35-.75 1 1 0 011-1h7.17a1.53 1.53 0 001.11-.35 1.47 1.47 0 00.45-1.07A1.51 1.51 0 0022 29a1.53 1.53 0 00-1.08-.45h-2.18a1 1 0 01-1-1 1 1 0 011-1h4.48a1.55 1.55 0 001.08-.44 1.48 1.48 0 00.46-1.08 1.51 1.51 0 00-.45-1.03 1.55 1.55 0 00-1.09-.45h-4.48a1 1 0 01-1-1 1 1 0 011-1h3.09a1.55 1.55 0 001.08-.44 1.48 1.48 0 00.46-1.08 1.55 1.55 0 00-1.54-1.52h-3.09a1 1 0 01-1-1 1 1 0 011-1h1.5a1.52 1.52 0 100-3H14zM32.55 13.34a.5.5 0 00-.1-.58l-.09-.1a.52.52 0 00-.19-.14l-1.6-.83 4.15-.24c.16 0 .2 0 .55-.21a.44.44 0 00.21-.5l-.07-.3A.64.64 0 0035 10a6.2 6.2 0 00-1.66 0l-5.4.46a1.13 1.13 0 00-.26.07.43.43 0 00-.27.24l-.06.12a.48.48 0 00.08.55h.05a7.64 7.64 0 001.39.79l.67.32-3.45.22c-.61 0-.79.05-.9.35a.52.52 0 00.14.53c.22.24.36.23 1 .21l4.62-.16a11.74 11.74 0 001.34-.07.53.53 0 00.31-.27zM27.31 4.8a.55.55 0 00-.49-.34h-.13a.54.54 0 00-.22 0l-1.58.56 2.33-3.17c.1-.12.11-.17.17-.55a.5.5 0 00-.24-.52l-.26-.13a.59.59 0 00-.6 0 6.07 6.07 0 00-1 1.19l-2.9 4.25a.59.59 0 00-.11.24.48.48 0 000 .37l.06.13a.52.52 0 00.45.33h.06a7 7 0 001.42-.44l.64-.26L23 9.12c-.34.47-.44.61-.29.9a.56.56 0 00.48.29c.3 0 .39-.1.74-.56l2.67-3.46a8.24 8.24 0 00.74-1 .6.6 0 000-.42zM18.2 2.73a.6.6 0 00-.62.13l-.1.1a.52.52 0 00-.14.19l-.76 1.62-.6-4c0-.17 0-.21-.27-.53a.53.53 0 00-.57-.24l-.31.09a.67.67 0 00-.45.46 6.24 6.24 0 00.11 1.64l.95 5.25a1 1 0 00.09.26.49.49 0 00.28.25L16 8a.58.58 0 00.58-.12v-.05a6.81 6.81 0 00.74-1.41l.3-.68.52 3.37c.09.59.12.77.45.85a.62.62 0 00.57-.16c.23-.23.21-.37.14-1l-.54-4.51a6.32 6.32 0 00-.2-1.3.52.52 0 00-.31-.29z"/></svg>