<svg viewBox="0 0 44.3 58.5"><path d="M44.3 24.8c-.1-2.8-1.7-4.6-4.2-4.6a3.34 3.34 0 00-1.5.3 4.3 4.3 0 00-4.2-3.2 4 4 0 00-2.2.6 4.43 4.43 0 00-4.1-2.4h-.4a9.11 9.11 0 003-5.6h5v3.4l8.2-4.7-8.2-4.8v3.4h-5.1a8.86 8.86 0 00-17.4 0h-5V3.8L0 8.5l8.2 4.7V9.8h4.9a9 9 0 004.4 6.7v13.7a9.43 9.43 0 01-1-1l-.6-.4a17 17 0 00-4.2-3.5C8 23.4 5.1 25 4.2 26.4a3.5 3.5 0 00-.6 2.6 4.52 4.52 0 002.3 2.9c2.8 1.8 6.3 6.3 7.7 9.4 1.2 2.6 3.5 4.8 5.5 6.7a20.79 20.79 0 012.7 2.9 1 1 0 01.1.3v5.9a1.3 1.3 0 002.6 0V51a.6.6 0 00-.1-.4 4.13 4.13 0 00-.5-1.1 19.53 19.53 0 00-3.2-3.5c-1.8-1.7-3.9-3.7-4.9-5.9a29.38 29.38 0 00-8.7-10.5c-.9-.6-1.1-1-1.1-1.2s0-.2.2-.6c.4-.6 1.9-1.4 4.1-.2a16 16 0 013.5 3l.5.5a21.9 21.9 0 002.2 2 2 2 0 002.3.3 1.85 1.85 0 001.1-1.7V8.9a2.8 2.8 0 01.7-1.9 1.59 1.59 0 011.2-.4c.5 0 1.6 0 1.6 2.6v17.1a1.3 1.3 0 002.6 0V20c.1-.4.4-1.9 1.8-1.9a2.1 2.1 0 012.1 2.1v5.6a1.3 1.3 0 002.6 0v-4.4a1.69 1.69 0 011.6-1.5c1.4 0 1.7 1.6 1.7 1.7V26a1.3 1.3 0 102.6 0v-1.9c.1-.4.3-1.3 1.3-1.3.4 0 1.4 0 1.5 2 0 .7 0 6.5-.1 17.4v1.2a13.68 13.68 0 01-.7 2.9l.2.5a6.24 6.24 0 00-.3 2v8.4a1.3 1.3 0 102.6 0v-8.4a3.42 3.42 0 01.2-1.1l.1-.3A21.61 21.61 0 0044 44v-.4c.1-.4.3-17.6.3-18.8zM21.9 3.9a4.3 4.3 0 00-3.1 1.2 5.45 5.45 0 00-1.4 3.8v4.3a6.22 6.22 0 01-1.8-4.3 6.2 6.2 0 1112.4 0 6.22 6.22 0 01-1.8 4.3v-4c0-4.8-3-5.3-4.3-5.3z"/></svg>