<svg width="41" height="41" viewBox="0 0 41 41" fill="none" xmlns="http://www.w3.org/2000/svg">
    <path fill-rule="evenodd" clip-rule="evenodd"
        d="M25.8236 13.653L23.894 13.6543C22.3809 13.6543 22.0875 14.3731 22.0875 15.4275V17.7543H25.6968L25.2265 21.3994H22.0875V30.75H18.3244V21.3994H15.1777V17.7543H18.3244V15.0675C18.3244 11.9477 20.2297 10.25 23.0112 10.25C24.3438 10.25 25.4892 10.3487 25.8236 10.3935V13.653ZM20.5 0C9.17887 0 0 9.17759 0 20.5C0 31.8211 9.17887 41 20.5 41C31.8224 41 41 31.8211 41 20.5C41 9.17759 31.8224 0 20.5 0Z" />
</svg>