<svg width="36" height="23" viewBox="0 0 36 23" fill="none" xmlns="http://www.w3.org/2000/svg"><path d="M27.978 2.484l2.067 1.647 4.424 3.517-6.491 5.183V8.92H9.122c-2.078 0-3.84 1.323-4.03 3.447a3.79 3.79 0 003.463 4.126h.015c.162.025.324.025.487 0l.005.024h3.827v2.533H8.893v-.04c-.192.003-.385.02-.576 0-3.479-.316-6.072-3.401-5.76-6.865.31-3.449 3.323-5.758 6.565-5.758h18.856V2.484z" fill="#000"/><path d="M19.56 16.32v-.6h-3.696V21h.64v-2.376h2.384v-.6h-2.384V16.32h3.056zm1.827 4.08v-4.68h-.64V21h3.664v-.6h-3.024zm4.781-4.68h-.64V21h.64v-5.28zm3.591 0h-1.864V21h.64v-2.064h1.224c1.064 0 1.776-.616 1.776-1.608 0-.992-.712-1.608-1.776-1.608zm-.096 2.616h-1.128V16.32h1.128c.832 0 1.2.352 1.2 1.008s-.368 1.008-1.2 1.008z" fill="#000"/></svg>