<svg class="svg-happen-logo" width="312" height="75" viewBox="0 0 312 75" fill="none" xmlns="http://www.w3.org/2000/svg"><ellipse cx="139.402" cy="37.5" rx="37.57" ry="37.5" fill="#2D2C31"/><path fill-rule="evenodd" clip-rule="evenodd" d="M7.804 66.244V35.136l5.286 31.108h7.754l4.984-31.108v31.108h7.905V23.076H20.44l-3.625 26.333-3.625-26.333H0v43.168h7.804zm35.432 0l.503-6.986h5.236l.605 6.986h8.206l-4.128-43.168H39.007l-4.18 43.168h8.409zm1.158-13.87h3.927l-1.913-21.961h-.403l-1.611 21.96zm23.046 13.87V45.338l4.733 20.906h8.848v-.454l.113.454h17.76V57.85h-9.062v-9.9h8.156v-8.14h-8.156v-8.393h8.509v-8.342H81.02V65.79l-5.727-22.965 4.833-19.75h-8.71L67.39 40.364V23.076h-8.56v43.168h8.61zM189.402 54.822V35.223h4.078v19.6h8.609V11.653h-8.609v15.428h-4.078V11.654h-8.61v43.168h8.61zm22.19 0l.504-6.985h5.236l.604 6.985h8.206l-4.128-43.168h-14.651l-4.179 43.168h8.408zm1.158-13.87h3.927l-1.913-21.96h-.403l-1.611 21.96zm22.946 13.87V37.736h3.524c3.39 0 5.74-1.089 7.049-3.267 1.309-2.177 1.963-5.41 1.963-9.699 0-4.288-.738-7.546-2.215-9.774-1.477-2.228-3.944-3.342-7.401-3.342h-11.429v43.168h8.509zm0-24.875h.503c1.041 0 1.804-.193 2.291-.578.487-.386.805-.938.957-1.659.151-.72.226-1.75.226-3.09 0-1.81-.201-3.116-.604-3.92-.403-.804-1.208-1.206-2.417-1.206h-.956v10.453zm22.19 24.875V37.736h3.524c3.39 0 5.74-1.089 7.049-3.267 1.309-2.177 1.964-5.41 1.964-9.699 0-4.288-.739-7.546-2.216-9.774-1.477-2.228-3.944-3.342-7.401-3.342h-11.429v43.168h8.509zm0-24.875h.504c1.04 0 1.804-.193 2.291-.578.486-.386.805-.938.956-1.659.151-.72.227-1.75.227-3.09 0-1.81-.202-3.116-.604-3.92-.403-.804-1.209-1.206-2.417-1.206h-.957v10.453zm31.555 24.875V46.43h-9.062v-9.9h8.156v-8.141h-8.156v-8.393h8.509v-8.342h-17.32v43.168h17.873zm9.755-21.609v21.61h-8.458V11.653h8.911l3.978 20.655V11.654h8.357v43.168h-8.458l-4.33-21.609z" fill="#2D2C31"/><path fill-rule="evenodd" clip-rule="evenodd" d="M131.583 18.15v10.684l10.68-1.884v33.583l16.782-2.96V23.99l10.68-1.885V11.421l-38.142 6.73zM112.131 21.996v44.248l16.782-2.962V19.036l-16.782 2.96z" fill="#F5ECE1"/></svg>