<svg width="143" height="89" viewBox="0 0 143 89" fill="none" xmlns="http://www.w3.org/2000/svg"><path fill-rule="evenodd" clip-rule="evenodd" d="M8.742 9.661c-.59.257-1.22.385-1.89.385-.668 0-1.298-.128-1.888-.385A4.887 4.887 0 013.43 8.627 4.952 4.952 0 012.401 7.1a4.647 4.647 0 01-.383-1.884c0-.654.128-1.278.383-1.87a4.91 4.91 0 011.03-1.54A4.887 4.887 0 014.964.774 4.687 4.687 0 016.853.388c.67 0 1.299.128 1.89.385a5.05 5.05 0 011.545 1.035c.44.433.788.946 1.043 1.539.256.592.383 1.216.383 1.87 0 .672-.127 1.3-.383 1.884a4.838 4.838 0 01-1.043 1.526A5.05 5.05 0 018.742 9.66zm1.73 3.277v28.417H3.208V12.938h7.266zM22.18 41.355V25.117c0-.743.141-1.447.423-2.11a5.467 5.467 0 011.163-1.738 5.4 5.4 0 011.743-1.167 5.438 5.438 0 012.14-.425c.74 0 1.436.142 2.088.425a5.465 5.465 0 013.303 5.015v16.238h7.212V25.117c0-1.752-.33-3.401-.99-4.949a12.941 12.941 0 00-2.709-4.06 12.652 12.652 0 00-4.016-2.732 12.173 12.173 0 00-4.888-.995c-1.602 0-3.14.287-4.61.862a12.626 12.626 0 00-3.95 2.454l-2.378-2.759h-1.744v28.417h7.213zm41.22-.704a8.748 8.748 0 01-3.488.703H43.424v-7.216h16.487c.493 0 .916-.177 1.268-.531.352-.354.529-.778.529-1.274 0-.513-.177-.849-.529-1.008-.352-.159-.775-.239-1.268-.239h-7.504a8.673 8.673 0 01-3.514-.716 9.056 9.056 0 01-2.853-1.95 9.186 9.186 0 01-1.916-2.879 8.916 8.916 0 01-.7-3.529c0-1.256.233-2.432.7-3.529a9.025 9.025 0 011.916-2.865 8.982 8.982 0 012.853-1.924 8.813 8.813 0 013.514-.703h14.611v7.217h-14.61c-.494 0-.917.177-1.269.53a1.74 1.74 0 00-.528 1.274c0 .513.176.951.528 1.314.352.362.775.543 1.268.543h7.504a9.72 9.72 0 013.488.624 8.813 8.813 0 012.853 1.738 8.208 8.208 0 011.929 2.68c.475 1.043.713 2.184.713 3.422a8.68 8.68 0 01-.713 3.516 9.421 9.421 0 01-1.929 2.866A8.876 8.876 0 0163.4 40.65zm11.97-30.605c.67 0 1.3-.128 1.89-.385a5.05 5.05 0 001.545-1.034A4.84 4.84 0 0079.848 7.1a4.647 4.647 0 00.383-1.884c0-.654-.128-1.278-.383-1.87a4.8 4.8 0 00-1.044-1.54A5.05 5.05 0 0077.258.774 4.688 4.688 0 0075.37.388c-.669 0-1.299.128-1.889.385-.59.256-1.1.601-1.532 1.035a4.91 4.91 0 00-1.03 1.539 4.676 4.676 0 00-.384 1.87c0 .672.128 1.3.383 1.884a4.953 4.953 0 001.03 1.526c.432.433.943.778 1.533 1.034.59.257 1.22.385 1.89.385zm3.62 2.892v28.417h-7.266V12.938h7.266zm17.387 28.947c.916 0 1.819-.115 2.709-.345.89-.23 1.757-.544 2.602-.942a16.126 16.126 0 002.418-1.406 23.246 23.246 0 002.179-1.738l2.801 3.9h1.744V1.636h-7.266v13.267a5.51 5.51 0 00-1.427-1.433 8.183 8.183 0 00-1.81-.942 10.207 10.207 0 00-1.981-.518 12.731 12.731 0 00-1.969-.159c-1.99 0-3.862.38-5.614 1.141a14.331 14.331 0 00-4.597 3.157c-1.313 1.345-2.348 2.937-3.105 4.776-.757 1.84-1.136 3.83-1.136 5.97 0 2.158.379 4.153 1.136 5.983.757 1.831 1.792 3.414 3.105 4.75a14.258 14.258 0 004.597 3.13c1.752.752 3.624 1.128 5.614 1.128zm-2.787-7.88a6.51 6.51 0 002.787.61c.987 0 1.916-.217 2.788-.65a7.686 7.686 0 002.285-1.725 8.278 8.278 0 001.546-2.467 7.55 7.55 0 00.568-2.879c0-.99-.189-1.95-.568-2.879a8.28 8.28 0 00-1.546-2.467 7.687 7.687 0 00-2.285-1.725 6.179 6.179 0 00-2.788-.65c-.986 0-1.915.177-2.787.53a6.565 6.565 0 00-2.272 1.527c-.643.663-1.15 1.472-1.52 2.427-.37.955-.554 2.034-.554 3.237 0 1.044.184 2.034.554 2.972.37.937.877 1.76 1.52 2.467a7.09 7.09 0 002.272 1.672zm34.68 7.88c1.18 0 2.329-.137 3.448-.411a14.103 14.103 0 003.197-1.207 14.58 14.58 0 002.827-1.937 14.285 14.285 0 002.312-2.574l-5.285-5.333a6.955 6.955 0 01-2.628 3.065 7.345 7.345 0 01-1.837.835 7.069 7.069 0 01-2.034.292c-.282 0-.564-.013-.846-.04a4.106 4.106 0 01-.845-.172l13.528-16.37a14.624 14.624 0 00-5.166-4.537 14.502 14.502 0 00-3.21-1.221 14.158 14.158 0 00-3.461-.425c-1.991 0-3.862.363-5.615 1.088a14.044 14.044 0 00-4.597 3.051c-1.312 1.31-2.347 2.892-3.105 4.75-.757 1.857-1.136 3.909-1.136 6.155 0 2.194.379 4.206 1.136 6.036.758 1.831 1.793 3.41 3.105 4.736a14.185 14.185 0 004.597 3.105c1.753.743 3.624 1.114 5.615 1.114zm-6.738-12.072c.089.318.203.601.344.849l8.402-11.197a4.146 4.146 0 00-.991-.239 9.422 9.422 0 00-1.017-.053c-.987 0-1.916.182-2.788.544a6.641 6.641 0 00-2.272 1.552c-.643.673-1.149 1.482-1.519 2.428-.37.946-.555 2.012-.555 3.197a11.366 11.366 0 00.396 2.919z" fill="#EC27A1"/><path fill-rule="evenodd" clip-rule="evenodd" d="M44.48 78.261a14.694 14.694 0 01-3.461.407c-1.998 0-3.876-.372-5.635-1.115a14.647 14.647 0 01-4.614-3.055 14.423 14.423 0 01-3.116-4.536c-.76-1.73-1.14-3.584-1.14-5.56 0-2.15.38-4.16 1.14-6.03.76-1.871 1.799-3.502 3.116-4.891a14.734 14.734 0 014.614-3.291c1.759-.804 3.637-1.207 5.635-1.207 1.184 0 2.347.149 3.487.446 1.14.297 2.227.73 3.262 1.298a14.062 14.062 0 012.864 2.085c.875.822 1.63 1.766 2.267 2.832l-5.304 5.27a7.075 7.075 0 00-1.087-1.979 7.274 7.274 0 00-1.551-1.482 6.75 6.75 0 00-1.87-.917 6.898 6.898 0 00-2.068-.315 6.62 6.62 0 00-2.798.603 6.848 6.848 0 00-2.28 1.691c-.645.726-1.154 1.587-1.525 2.583-.371.997-.557 2.098-.557 3.305 0 .978.186 1.896.557 2.753.371.856.88 1.608 1.525 2.255a7.158 7.158 0 005.078 2.072c.707 0 1.388-.096 2.042-.289a7.42 7.42 0 001.843-.826 6.88 6.88 0 002.638-3.029l5.304 5.271a14.174 14.174 0 01-2.32 2.544c-.876.752-1.821 1.39-2.838 1.914a14.272 14.272 0 01-3.209 1.193zm-24.052-.813a8.897 8.897 0 01-3.5.695H.38v-7.132h16.547c.495 0 .92-.175 1.273-.525.354-.35.53-.769.53-1.258 0-.507-.176-.84-.53-.997-.354-.157-.778-.236-1.273-.236h-7.53a8.82 8.82 0 01-3.528-.708 9.094 9.094 0 01-2.863-1.927 9.068 9.068 0 01-1.923-2.846 8.695 8.695 0 01-.703-3.487c0-1.241.235-2.404.703-3.488a8.912 8.912 0 011.923-2.832 9.024 9.024 0 012.863-1.901 8.964 8.964 0 013.527-.695H24.06v7.133H9.396c-.495 0-.919.175-1.273.524-.353.35-.53.77-.53 1.259 0 .507.177.94.53 1.298.354.358.778.537 1.273.537h7.531a9.89 9.89 0 013.5.617 8.87 8.87 0 012.864 1.717 8.117 8.117 0 011.936 2.649c.477 1.031.716 2.159.716 3.383 0 1.24-.239 2.399-.716 3.474a9.303 9.303 0 01-1.936 2.832 8.914 8.914 0 01-2.864 1.914zm46.804 1.22c2.015 0 3.903-.38 5.662-1.14a14.52 14.52 0 004.6-3.121c1.308-1.32 2.343-2.885 3.103-4.694.76-1.81 1.14-3.763 1.14-5.861 0-2.238-.38-4.27-1.14-6.097-.76-1.827-1.794-3.392-3.103-4.694a13.692 13.692 0 00-4.6-3.016c-1.76-.708-3.647-1.062-5.662-1.062-1.998 0-3.876.376-5.635 1.128a14.498 14.498 0 00-4.614 3.107c-1.317 1.32-2.355 2.89-3.116 4.707-.76 1.819-1.14 3.794-1.14 5.927 0 2.098.38 4.051 1.14 5.86.76 1.81 1.8 3.375 3.116 4.695a14.68 14.68 0 004.614 3.12c1.76.76 3.637 1.14 5.635 1.14zm-2.797-7.775c.875.393 1.807.59 2.797.59.99 0 1.923-.184 2.798-.551a6.966 6.966 0 002.293-1.547c.655-.665 1.172-1.469 1.552-2.413.38-.944.57-1.984.57-3.12 0-1.154-.19-2.198-.57-3.134a7.432 7.432 0 00-1.552-2.412 6.709 6.709 0 00-2.293-1.547 7.309 7.309 0 00-2.798-.538c-.99 0-1.922.18-2.797.538a6.572 6.572 0 00-2.28 1.547 7.37 7.37 0 00-1.526 2.412c-.37.935-.557 1.98-.557 3.134 0 1.084.186 2.089.557 3.016.372.926.88 1.73 1.525 2.412a7.131 7.131 0 002.28 1.613zm32.537 7.775c2.015 0 3.903-.38 5.662-1.14 1.759-.761 3.292-1.802 4.6-3.121 1.309-1.32 2.343-2.885 3.103-4.694.76-1.81 1.14-3.763 1.14-5.861 0-2.238-.38-4.27-1.14-6.097-.76-1.827-1.794-3.392-3.103-4.694a13.687 13.687 0 00-4.6-3.016c-1.759-.708-3.647-1.062-5.662-1.062-1.998 0-3.876.376-5.635 1.128a14.497 14.497 0 00-4.614 3.107c-1.317 1.32-2.355 2.89-3.116 4.707-.76 1.819-1.14 3.794-1.14 5.927 0 2.098.38 4.051 1.14 5.86.76 1.81 1.8 3.375 3.116 4.695a14.679 14.679 0 004.614 3.12c1.76.76 3.637 1.14 5.635 1.14zm-2.798-7.775c.875.393 1.808.59 2.798.59s1.922-.184 2.798-.551a6.96 6.96 0 002.293-1.547c.654-.665 1.172-1.469 1.552-2.413.38-.944.57-1.984.57-3.12 0-1.154-.19-2.198-.57-3.134a7.434 7.434 0 00-1.552-2.412 6.704 6.704 0 00-2.293-1.547 7.31 7.31 0 00-2.798-.538c-.99 0-1.922.18-2.798.538a6.573 6.573 0 00-2.28 1.547 7.37 7.37 0 00-1.525 2.412c-.371.935-.557 1.98-.557 3.134 0 1.084.186 2.089.557 3.016.371.926.88 1.73 1.525 2.412a7.132 7.132 0 002.28 1.613zm26.89 17.95V76.254c.548.315 1.118.62 1.71.918.592.297 1.193.564 1.803.8.61.236 1.229.424 1.857.564.627.14 1.259.21 1.896.21 1.997 0 3.876-.341 5.635-1.023a13.537 13.537 0 004.614-2.95c1.317-1.285 2.355-2.85 3.115-4.694.761-1.845 1.141-3.92 1.141-6.228 0-2.22-.38-4.244-1.141-6.07-.76-1.828-1.798-3.388-3.115-4.682a13.936 13.936 0 00-4.614-3.002c-1.759-.708-3.638-1.062-5.635-1.062-.92 0-1.83.114-2.732.34-.901.228-1.772.538-2.612.932-.839.393-1.648.86-2.426 1.403a19.192 19.192 0 00-2.148 1.73l-2.89-3.383h-1.75v38.784h7.292zm4.468-17.911a7.16 7.16 0 002.798.55c.99 0 1.926-.183 2.81-.55a6.93 6.93 0 002.307-1.547c.655-.665 1.172-1.469 1.552-2.413.38-.944.57-1.984.57-3.12 0-1.189-.19-2.255-.57-3.2-.38-.943-.897-1.743-1.552-2.399a6.7 6.7 0 00-2.307-1.508 7.568 7.568 0 00-2.81-.524c-.99 0-1.923.175-2.798.524-.875.35-1.64.853-2.294 1.508-.654.656-1.171 1.456-1.551 2.4-.38.944-.57 2.01-.57 3.199 0 1.136.19 2.176.57 3.12.38.944.897 1.749 1.551 2.413a6.967 6.967 0 002.294 1.547z" fill="#F96F3E"/></svg>