<svg width="20" height="20" viewBox="0 0 20 20" fill="none" xmlns="http://www.w3.org/2000/svg"><path fill-rule="evenodd" clip-rule="evenodd" d="M17.5 18.125h-15a.625.625 0 01-.625-.625V8.125h2.5c-.326.469-.436 1.343-.436 1.898 0 3.347 2.73 6.07 6.084 6.07 3.355 0 6.085-2.723 6.085-6.07 0-.555-.08-1.416-.483-1.898h2.5V17.5c0 .345-.28.625-.625.625M10.023 6.186a3.842 3.842 0 013.846 3.837 3.842 3.842 0 01-3.846 3.838 3.842 3.842 0 01-3.846-3.838 3.842 3.842 0 013.846-3.837M15 2.5h1.875c.345 0 .625.28.625.625V5c0 .345-.28.625-.625.625H15A.625.625 0 0114.375 5V3.125c0-.345.28-.625.625-.625M17.622 0H2.377A2.375 2.375 0 000 2.372v15.256A2.375 2.375 0 002.377 20h15.245A2.375 2.375 0 0020 17.628V2.372A2.375 2.375 0 0017.622 0" fill="#444"/></svg>