<svg xmlns="http://www.w3.org/2000/svg" viewBox="0 0 31.49 32"><g data-name="Warstwa 2"><g data-name="Warstwa 1"><g data-name="Wireframes"><g data-name="Group-27"><g data-name="Group-23"><g data-name="action-items"><path d="M23.33 32H.67a.67.67 0 01-.67-.67V8.11a.66.66 0 01.17-.44L6.84.22A.64.64 0 017.33 0h16a.67.67 0 01.67.67V16a.67.67 0 11-1.33 0V1.33h-15l-6.3 7v22.34h21.3V28A.67.67 0 1124 28v3.33a.67.67 0 01-.67.67z" fill="#fff" data-name="Path"/><path d="M7.36 9H1.64A.63.63 0 011 8.38a.63.63 0 01.64-.61h5.09V1.62A.63.63 0 017.36 1a.63.63 0 01.64.62v6.76a.63.63 0 01-.64.62z" fill="#fff"/><g style="isolation:isolate" fill="#fff" data-name="JSON"><path d="M5.75 24l.85-.12A1.87 1.87 0 006.91 25a.94.94 0 00.76.31 1.12 1.12 0 00.61-.17.83.83 0 00.36-.44 3.17 3.17 0 00.1-.9v-4.96h.94v4.88a3.66 3.66 0 01-.21 1.39 1.57 1.57 0 01-.69.75 2.2 2.2 0 01-1.11.26 1.86 1.86 0 01-1.44-.54A2.22 2.22 0 015.75 24zM11 23.7l.89-.08a2 2 0 00.3.88 1.55 1.55 0 00.72.56 2.73 2.73 0 001.1.21 2.52 2.52 0 00.95-.16 1.29 1.29 0 00.62-.44 1 1 0 00.2-.61.93.93 0 00-.19-.59 1.41 1.41 0 00-.65-.42 9.37 9.37 0 00-1.27-.35 6.44 6.44 0 01-1.38-.45 2 2 0 01-.77-.67 1.68 1.68 0 01-.25-.89 1.85 1.85 0 01.31-1 2 2 0 01.9-.72 3.43 3.43 0 011.31-.24 3.48 3.48 0 011.41.26 2 2 0 01.93.75 2.1 2.1 0 01.35 1.13l-.91.07a1.43 1.43 0 00-.49-1 1.94 1.94 0 00-1.25-.35 2 2 0 00-1.25.32.94.94 0 00-.39.76.8.8 0 00.27.63 3.7 3.7 0 001.43.51 10.22 10.22 0 011.59.46 2.23 2.23 0 01.92.73 1.77 1.77 0 01.3 1 1.9 1.9 0 01-.33 1.07 2.16 2.16 0 01-.94.79 3.24 3.24 0 01-1.38.28 4.11 4.11 0 01-1.63-.28 2.27 2.27 0 01-1-.85A2.39 2.39 0 0111 23.7zM17.73 22.51a3.91 3.91 0 011-2.79 3.26 3.26 0 012.47-1 3.4 3.4 0 011.79.48 3 3 0 011.21 1.32 4.57 4.57 0 010 3.87 3 3 0 01-1.25 1.3 3.56 3.56 0 01-1.73.44 3.34 3.34 0 01-1.81-.49 3.18 3.18 0 01-1.21-1.33 4.08 4.08 0 01-.47-1.8zm1 0a2.86 2.86 0 00.7 2 2.43 2.43 0 003.5 0 3 3 0 00.69-2.13 3.76 3.76 0 00-.29-1.53 2.27 2.27 0 00-.87-1 2.32 2.32 0 00-1.27-.36 2.42 2.42 0 00-1.73.69 3.06 3.06 0 00-.75 2.35zM25.85 26v-7.16h1l3.76 5.62v-5.62h.91V26h-1l-3.76-5.62V26z"/></g></g></g></g></g></g></g></svg>