<svg width="21" height="21" viewBox="0 0 21 21" fill="none" xmlns="http://www.w3.org/2000/svg"><path fill-rule="evenodd" clip-rule="evenodd" d="M17.895 17.894h-3.114v-4.873c0-1.163-.02-2.658-1.619-2.658-1.62 0-1.868 1.267-1.868 2.574v4.957h-3.11V7.872h2.985v1.37h.043c.415-.788 1.431-1.618 2.946-1.618 3.154 0 3.737 2.075 3.737 4.774v5.496zM4.672 6.504a1.805 1.805 0 11-.004-3.612 1.805 1.805 0 01.004 3.611zm1.558 11.39H3.112V7.872H6.23v10.022zM20.125 0H.875A.875.875 0 000 .875v19.25c0 .483.392.875.875.875h19.25a.875.875 0 00.875-.875V.875A.875.875 0 0020.125 0z" fill="#444"/></svg>