<svg xmlns="http://www.w3.org/2000/svg" viewBox="0 0 17.7 27.69"><text transform="translate(.85 25.25)" font-size="7.5" fill="#585858" font-family="ArialMT, Arial" letter-spacing=".01em" style="isolation:isolate">LINK</text><path d="M6 7.09l-3.4 3.39A2.4 2.4 0 005.91 14l3.5-3.5 1.14 1.14L7.15 15a4 4 0 01-5.78-5.53L4.88 6 6 7.08z" fill="#585858" stroke="#fff" stroke-width=".5"/><path fill="#585858" stroke="#fff" stroke-width=".5" d="M5.45 9.92l4.53-4.53 1.13 1.13-4.53 4.53-1.13-1.13z"/><path d="M15.07 1.43A4 4 0 0115.2 7l-3.53 3.52-1.12-1.17L13.94 6a2.4 2.4 0 00-3.29-3.49L7.15 6 6 4.82l3.41-3.39a4 4 0 015.66 0z" fill="#585858" stroke="#fff" stroke-width=".5"/></svg>