<svg xmlns="http://www.w3.org/2000/svg" viewBox="0 0 26.38 32"><g data-name="Warstwa 2"><g data-name="Warstwa 1"><g data-name="Wireframes"><g data-name="Group-27"><g data-name="Group-23"><g data-name="action-items"><path data-name="Path" d="M23.33 32H.67a.67.67 0 01-.67-.67V8.11a.66.66 0 01.17-.44L6.84.22A.64.64 0 017.33 0h16a.67.67 0 01.67.67V16a.67.67 0 11-1.33 0V1.33h-15l-6.3 7v22.34h21.3V28A.67.67 0 1124 28v3.33a.67.67 0 01-.67.67z" fill="#fff"/><path d="M7.36 9H1.64A.63.63 0 011 8.38a.63.63 0 01.64-.61h5.09V1.62A.63.63 0 017.36 1a.63.63 0 01.64.62v6.76a.63.63 0 01-.64.62z" fill="#fff"/><text transform="translate(6.2 26)" font-size="10" fill="#fff" font-family="ArialMT, Arial" letter-spacing=".01em" style="isolation:isolate" data-name="PDF">PDF</text></g></g></g></g></g></g></svg>