<svg width="14" height="20" viewBox="0 0 14 20" fill="none" xmlns="http://www.w3.org/2000/svg"><path fill-rule="evenodd" clip-rule="evenodd" d="M6.9 19.89a.3.3 0 01-.467-.002C6.18 19.582.193 12.273.193 6.473A6.48 6.48 0 016.668 0a6.48 6.48 0 016.472 6.476c0 5.8-5.985 13.106-6.24 13.415zm5.633-13.417A5.873 5.873 0 006.667.606 5.874 5.874 0 00.8 6.476c0 4.948 4.748 11.306 5.867 12.736 1.118-1.43 5.866-7.788 5.866-12.74z" fill="#fff"/><path fill-rule="evenodd" clip-rule="evenodd" d="M6.667 2.203a3.835 3.835 0 013.83 3.83 3.835 3.835 0 01-3.83 3.83 3.835 3.835 0 01-3.83-3.83 3.835 3.835 0 013.83-3.83zm0 .606a3.229 3.229 0 00-3.225 3.224 3.23 3.23 0 003.225 3.225A3.227 3.227 0 009.89 6.033 3.229 3.229 0 006.667 2.81z" fill="#fff"/></svg>