<svg xmlns="http://www.w3.org/2000/svg" viewBox="0 0 14 14"><path d="M7 0a7 7 0 00-2.55 13.52 6.78 6.78 0 010-2L5.29 8a2.53 2.53 0 01-.21-1c0-1 .57-1.7 1.27-1.7a.88.88 0 01.89 1 14.84 14.84 0 01-.58 2.33 1 1 0 001 1.26c1.25 0 2.2-1.31 2.2-3.2A2.76 2.76 0 007 3.82a3 3 0 00-3.16 3 2.75 2.75 0 00.52 1.6.19.19 0 010 .2c0 .22-.17.69-.2.79s-.1.16-.23.09a3.13 3.13 0 01-1.4-2.67c0-2.21 1.6-4.23 4.62-4.23a4.11 4.11 0 014.32 4c0 2.45-1.47 4.4-3.63 4.4a1.9 1.9 0 01-1.61-.8s-.35 1.34-.43 1.66a8.23 8.23 0 01-.87 1.84A7 7 0 107 0" fill="#444" fill-rule="evenodd"/></svg>