<svg width="22" height="22" viewBox="0 0 22 22" fill="none" xmlns="http://www.w3.org/2000/svg"><path fill-rule="evenodd" clip-rule="evenodd" d="M11 0C4.925 0 0 4.925 0 11c0 4.66 2.9 8.64 6.991 10.243-.096-.87-.183-2.205.039-3.156.2-.858 1.29-5.467 1.29-5.467s-.33-.659-.33-1.633c0-1.53.887-2.672 1.99-2.672.939 0 1.393.705 1.393 1.55 0 .944-.601 2.355-.911 3.662-.26 1.095.548 1.989 1.628 1.989 1.956 0 3.459-2.062 3.459-5.038 0-2.634-1.893-4.475-4.596-4.475-3.13 0-4.966 2.347-4.966 4.774 0 .945.363 1.959.818 2.51.09.109.103.204.076.315-.083.348-.269 1.095-.305 1.248-.048.2-.16.244-.368.147-1.374-.64-2.233-2.648-2.233-4.262 0-3.47 2.521-6.656 7.268-6.656 3.816 0 6.782 2.719 6.782 6.353 0 3.791-2.39 6.842-5.708 6.842-1.115 0-2.163-.58-2.521-1.264 0 0-.552 2.1-.686 2.616-.248.955-.918 2.152-1.367 2.883C8.773 21.83 9.866 22 11 22c6.075 0 11-4.925 11-11S17.075 0 11 0z" fill="#444"/></svg>