<svg width="311" height="77" viewBox="0 0 311 77" fill="none" xmlns="http://www.w3.org/2000/svg"><path fill-rule="evenodd" clip-rule="evenodd" d="M246.208 44.98h56.026l2.668 29.352h-58.694V44.981z" fill="#fff"/><path fill-rule="evenodd" clip-rule="evenodd" d="M169.423 42.243c.774 0 1.591-.025 2.449-.074.859-.05 1.707-.154 2.546-.313.839-.159 1.64-.385 2.404-.678a7.025 7.025 0 002.018-1.168 5.451 5.451 0 001.392-1.787c.347-.705.521-1.549.521-2.532 0-.764-.149-1.444-.447-2.04a5.203 5.203 0 00-1.221-1.578 8.3 8.3 0 00-1.801-1.199 16.893 16.893 0 00-2.181-.9 27.01 27.01 0 00-2.382-.678c-.819-.194-1.613-.372-2.382-.536-.769-.164-1.497-.323-2.181-.476a18.233 18.233 0 01-1.802-.492c-.516-.174-.923-.372-1.221-.595-.297-.224-.446-.484-.446-.782 0-.09.017-.189.052-.298a.787.787 0 01.231-.328c.119-.109.29-.215.513-.32a4.27 4.27 0 01.908-.275c.383-.08.854-.144 1.415-.194.561-.05 1.238-.074 2.032-.074.993 0 1.96.072 2.903.216.943.144 1.816.322 2.62.536.804.213 1.524.439 2.159.677.635.238 1.146.452 1.534.64V22.26a32.003 32.003 0 00-2.107-.595 35.198 35.198 0 00-2.36-.499 30.975 30.975 0 00-2.479-.335c-.838-.08-1.655-.12-2.449-.12-.724 0-1.488.03-2.292.09a19.08 19.08 0 00-2.382.328c-.785.159-1.531.382-2.241.67a6.802 6.802 0 00-1.876 1.124 5.105 5.105 0 00-1.288 1.675c-.317.655-.476 1.435-.476 2.338 0 .764.149 1.437.446 2.018a5.03 5.03 0 001.221 1.533 7.982 7.982 0 001.802 1.147c.685.322 1.412.605 2.181.849a27.33 27.33 0 002.374.632c.814.18 1.606.345 2.375.5.769.153 1.496.307 2.181.46a15.65 15.65 0 011.801.507c.517.184.924.397 1.221.64.298.244.447.529.447.857 0 .208-.075.426-.223.655-.149.228-.432.439-.849.633-.417.193-.995.352-1.734.476-.74.124-1.695.186-2.866.186-1.985 0-3.849-.213-5.591-.64-1.742-.427-3.292-1.018-4.652-1.772v4.884c1.32.496 2.841.91 4.563 1.243 1.722.333 3.595.5 5.62.5zm-76.246-.55l5.33-13.76 5.344 13.76h6.134l8.218-20.46h-5.732l-5.657 14.205-5.226-14.205H95.44l-5.345 13.908-5.538-13.908H78.81l8.233 20.46h6.134zm32.348 0v-20.46h-5.523v20.46h5.523zm10.21-14.057v14.056h-5.523V21.233h5.999l13.816 14.116V21.233h5.494v20.46h-5.985l-13.801-14.057zm60.376 4.11v9.946h-1.861V21.233h16.198v1.742h-14.337v7.043h13.607v1.727h-13.607zm28.998 10.348c1.827 0 3.529-.208 5.107-.625 1.578-.417 2.948-1.06 4.109-1.928a9.166 9.166 0 002.739-3.306c.665-1.335.998-2.921.998-4.758 0-1.836-.333-3.422-.998-4.757a9.166 9.166 0 00-2.739-3.305c-1.161-.87-2.531-1.512-4.109-1.929-1.578-.417-3.28-.625-5.107-.625-1.22 0-2.387.092-3.498.275a15.2 15.2 0 00-3.119.849c-.968.382-1.846.861-2.635 1.437a8.784 8.784 0 00-2.018 2.047 9.489 9.489 0 00-1.295 2.68c-.308.998-.461 2.107-.461 3.328 0 1.837.332 3.423.997 4.758a9.105 9.105 0 002.754 3.306c1.171.868 2.551 1.51 4.139 1.928 1.588.417 3.3.625 5.136.625zm-4.801-2.24c1.385.391 2.985.587 4.801.587 1.817 0 3.412-.196 4.787-.588 1.374-.392 2.523-.968 3.446-1.727a7.236 7.236 0 002.092-2.807c.472-1.112.707-2.392.707-3.842 0-1.449-.235-2.73-.707-3.841a7.236 7.236 0 00-2.092-2.807c-.923-.76-2.072-1.335-3.446-1.727-1.375-.392-2.97-.588-4.787-.588-1.816 0-3.416.198-4.801.595-1.384.397-2.543.975-3.476 1.735a7.228 7.228 0 00-2.114 2.814c-.477 1.117-.715 2.39-.715 3.82 0 1.449.238 2.73.715 3.841a7.24 7.24 0 002.114 2.807c.933.76 2.092 1.335 3.476 1.727zm23.349 1.838v-8.755h8.322a25.729 25.729 0 001.742-.06l6.595 8.815h2.337l-6.982-9.023c1.787-.338 3.082-.966 3.886-1.884.804-.918 1.206-2.142 1.206-3.67 0-.983-.164-1.842-.492-2.576-.327-.735-.846-1.348-1.555-1.84-.71-.49-1.621-.858-2.732-1.101-1.112-.243-2.447-.365-4.005-.365h-10.183v20.46h1.861zm0-10.497h6.282c1.638 0 3.022-.048 4.154-.142 1.131-.094 2.05-.288 2.754-.58.705-.293 1.214-.705 1.526-1.236.313-.532.469-1.239.469-2.122 0-.874-.154-1.581-.461-2.122-.308-.541-.809-.96-1.504-1.258-.695-.298-1.605-.5-2.732-.603-1.126-.105-2.509-.157-4.146-.157h-6.342v8.22z" fill="#72CB46"/><path fill-rule="evenodd" clip-rule="evenodd" d="M91.387 69.377V50.615h9.305v-1.698H80.236v1.698h9.305v18.762h1.846zm13.471 0V59.46h18.327v9.917h1.861v-20.46h-1.861v8.816h-18.327v-8.816h-1.861v20.46h1.861zm42.635-1.743v1.743h-17.269v-20.46h17.046v1.743h-15.022v7.043h14.263v1.727h-14.263v8.204h15.245zm19.066 1.743v-6.463h9.171c1.508 0 2.789-.174 3.841-.52 1.052-.348 1.908-.832 2.568-1.453a5.444 5.444 0 001.436-2.218c.298-.859.447-1.8.447-2.822 0-1.023-.149-1.96-.447-2.814a5.452 5.452 0 00-1.436-2.212c-.66-.62-1.516-1.101-2.568-1.444-1.052-.342-2.333-.514-3.841-.514h-14.695v20.46h5.524zm0-10.826h7.98c.724 0 1.335-.042 1.831-.126.496-.084.898-.228 1.206-.432.307-.204.528-.469.662-.797.134-.327.201-.73.201-1.206s-.067-.886-.201-1.228a1.836 1.836 0 00-.662-.841c-.308-.219-.71-.38-1.206-.484-.496-.105-1.107-.157-1.831-.157h-7.98v5.271zm40.774 10.165v-3.821h-14.932V48.918h-5.523v20.459h20.11l.345-.66zm0 0v.66h5.819l1.92-3.87h11.404l1.921 3.87h6.163l-10.704-20.459h-6.164l-10.359 19.8zm17.193-7.201h-7.474l3.752-7.535 3.722 7.535zm17.192-6.195v14.057h-5.523v-20.46h6l13.816 14.116V48.917h5.493v20.46h-5.985L241.718 55.32zm45.39 14.057v-4.363h-15.245v-3.99h14.263V56.66h-14.263v-3.38H286.9v-4.363h-20.709v20.46h20.917zm15.078-16.007v16.007h-5.523V53.37h-8.679v-4.453h22.897v4.453h-8.695z" fill="#6ADEE2"/><path d="M37.813 76.976c5.542 0 10.872-1.176 15.842-3.497l-.686-1.467c-4.754 2.219-9.853 3.344-15.156 3.344v1.62zM56.458 72.023c.678-.39 1.353-.805 2.006-1.237l-.895-1.35c-.624.412-1.27.81-1.92 1.182l.81 1.405zM57.316 7.531c-.654-.4-1.328-.783-2.003-1.14l-.759 1.432c.645.341 1.29.708 1.916 1.09l.846-1.382zM52.918 5.233c-4.755-2.092-9.837-3.152-15.105-3.152v1.62c5.041 0 9.903 1.015 14.451 3.015l.654-1.483zM2.006 41.658a36.34 36.34 0 01-.063-2.126H.322c0 .735.022 1.483.065 2.22l1.619-.094zM.507 43.28A36.986 36.986 0 004.975 57.59l1.42-.784A35.38 35.38 0 012.12 43.119l-1.614.162zM37.895 14.57c.37 1.41-.922 2.518-1.11 3.011-.146.381.086 1.615.77 2.608 1.048 1.52 1.526.819 2.474-.743 1.815-2.985 6.167-2.009 5.034-5.635-1.323-4.24 1.862-2.793-6.368-2.793.085.009-1.581.197-3.761-.808-.896-.413-1.497-.713-1.949-.713-.444 0-.596.292-.534.537.482 1.892 4.848 2.26 5.444 4.536zM6.612 34.57c1.082 0 2.014.808 2.373 2.057.311 1.128-.347 6.243 4.53 8.722.479.242.601.18.602.18.367-.278.2-2.204.301-3.266-6.594 2.226-4.958-6.718.221-6.718 2.168 0 2.605 1.752 2.796 2.09.191-.204.086-.826.047-1.1.052-.305-.73-1.928 1.43-3.185.28-.248.612-.026 2.168-2.236 1.804-2.566 3.233-3.846 8.348-4.633.78-.12 1.957-.301 2.129-.535-.003 0 .037-.218-.335-.863-2.337-4.11-3.636-5.24-3.7-5.325-.51.127-1.095.957-3.064-.17-.94-.536-1.351-.787-1.764 1.405-.233 1.233-.64 2.505-1.982 2.505-.643 0-1.258-.39-1.566-.995-.435-.853-2.41-.865-2.46-2.734-.064-2.376 2.834-1.292 8.058-5.949.204-.184.303-.314.35-.39-.737-.586-4.603-.88-6.361-1.1A33.24 33.24 0 004.844 35.28c.681-.56 1.303-.71 1.768-.71zM24.652 58.02c3.799 1.927 1.351 2.535 5.36 9.078 1.926 3.148 1.463 3.02 2.656 2.777.032-.09-.03-.496-.066-.738-.462-3.055 1.663-3.046 2.035-4.22.248-.777-.564-3.074 2.733-3.227 1.13-.053 1.325-.085.949-1.645-.803-3.313 1.471-4.428 2.069-4.949-2.64-1.095-7.304-.53-8.09-4.034-.3-1.347-1.019.506-7.383-3.742-1.117-.747-2-1.336-2.701-1.336-1.373 0-1.547 1.635-1.571 2.967-.127 6.97 2.166 8.135 4.01 9.07z" fill="#72CB46"/><path fill-rule="evenodd" clip-rule="evenodd" d="M4.564 39.532c0 18.31 14.915 33.206 33.25 33.206 6.494 0 12.739-1.855 18.139-5.376a3.564 3.564 0 01-.879-3.663c.473-1.41.886-2.621 1.243-3.668 2.064-6.056 2.25-6.602 1.193-8.068-1.033-1.435-2.005-1.422-2.991-1.409-1.133.016-2.284.031-3.57-2.146-3.482-5.994-2.888-8.383.663-12.522 1.901-2.2 3.996-4.37 6.858-4.643 2.988-.295 4.12 1.296 4.944 2.454.344.485.635.893.985 1.057.414.193 1.127.106 1.838.019.39-.048.78-.096 1.119-.097.242 0 .325-.212.345-.277.118-.388-.621-.64-1.48-.934-.508-.173-1.058-.361-1.497-.6-.665-.364-1.281-.965-1.933-1.6l-.002-.001c-2.473-2.41-3.116-2.008-3.908-1.512-.366.229-.764.478-1.389.478l-.138-.006c-1.006-.073-2.065-1.126-2.462-2.448-.45-1.497.027-2.922 1.31-3.909.496-.382.794-.914.817-1.46.026-.603-.221-.802-.407-.951-.056-.046-.107-.087-.143-.133a.936.936 0 01-.014-.295c.017-.205.025-.316-.649-.81-3.134-2.295-1.15-6.899 2.399-6.912-10.904-8.492-25.722-9.18-37.208-2.426 3.289.366 5.33.734 5.758 2.05.226.694-.069 1.418-.877 2.15-2.997 2.671-5.31 3.63-6.55 4.142-.515.214-.845.35-.96.501.018.18.079.254.664.565 1.194.634 1.442 1.108 1.57 1.352a.474.474 0 00.104.154c.14-.407.244-.842.345-1.273.332-1.402.653-2.76 2.252-2.98.825-.108 1.491.282 2.023.593.324.19.598.35.827.35.115-.02.25-.08.406-.147.627-.273 1.573-.685 2.744.805a44.355 44.355 0 013.391 5.1c.364.633.803 1.58.388 2.443-.483 1.003-1.867 1.226-3.525 1.493-1.948.314-4.274.689-5.962 2.46-.406.424-.757.922-1.128 1.45-1.433 2.036-2.352 2.544-2.864 2.827-.469.259-.597.33-.466 1.21l.007.049c.106.742.206 1.447-.154 2.164-.591 1.179-2.41 1.636-3.253-.334-.203-.472-.417-.765-1.098-.765-2.92 0-4.081 4.954-1.199 3.589 1.784-.797 2.861-.288 2.65 1.757a5.38 5.38 0 00-.005.442c.013 1.474.05 5.538-3.337 3.834-4.615-2.347-5.007-6.136-5.251-8.49-.13-1.258-.219-2.106-.886-2.106-.59 0-1.168.803-1.641 1.462-.13.181-.253.351-.366.49l-.01.256c-.015.353-.03.705-.03 1.06zm28.42-31.729c.768 0 1.389.289 2.09.614.907.423 1.95.907 3.62.907 1.228 0 2.293-.08 3.207-.147 2.929-.218 4.309-.321 4.53 2.668.032.441.143.902.257 1.373.413 1.713.86 3.568-2.29 5.167l-.617.312c-1.3.657-1.704.86-1.984 1.175-.126.142-.227.306-.374.544-.15.245-.35.568-.673 1.024-2.728 3.854-6.572-1.8-5.55-4.465.167-.436.422-.774.64-1.063.527-.702.834-1.11-.876-1.909-6.513-3.046-4.166-6.2-1.98-6.2zm-7.111 38.118c-1.973-1.298-3.442-2.265-5.251-1.167-1.424.864-1.645 2.59-1.675 4.166-.146 8.031 2.913 9.584 4.937 10.611 1.512.767 1.616 1.17 1.899 2.277.275 1.073.719 2.807 2.782 6.175.272.444.505.853.717 1.224.899 1.578 1.408 2.472 2.85 2.472 1.82 0 2.413-1.038 2.147-2.795-.148-.975-.148-1.037.705-1.793 1.464-1.298 1.434-2.23 1.415-2.835-.017-.542-.026-.823 1.05-.874.651-.03 1.46-.069 2.078-.656.875-.832.687-1.835.5-2.831-.208-1.112-.415-2.214.859-3.059.426-.283 1.559-1.033 1.357-2.075-.234-1.206-2.101-1.573-4.008-1.947-1.97-.387-3.983-.783-4.28-2.12-.226-1.008-.63-1.589-2.21-1.965-2.52-.6-4.347-1.804-5.872-2.808z" fill="#6ADEE2"/><path d="M61.528 16.256c-.665-.344-2.544-1.258-3.309-1.258-1.18 0-2.2.978-2.273 2.18.062.31-.396.752.863 1.674.493.362 1.15.842 1.31 1.718.971 1.192.813 3.334-.882 4.639-1.688 1.3-.283 3.259.245 3.326 1.918-.737 2.807-2.074 6.492 1.516.567.553 1.103 1.075 1.563 1.327 1.208.657 4.557.985 3.786 3.514-.488 1.604-1.872 1.428-2.945 1.57-5.325.703-3.458-3.94-7.745-3.533-2.24.214-3.99 2.044-5.735 4.062-2.983 3.476-3.68 5.063-.485 10.562.695 1.175.886 1.306 2.268 1.306-.085-.02 2.552-.18 4.206 2.113 1.797 2.493.977 3.772-2.204 13.264-.268.8.037 1.66.702 2.125 8.657-6.31 13.67-16.378 13.67-26.829a33.095 33.095 0 00-9.527-23.276zM10.611 3.864h1.622v1.62h-1.622zM7.367 3.864h1.622v1.62H7.367zM4.124 3.864h1.622v1.62H4.124zM67.033 12.97h1.622v1.62h-1.622zM70.277 12.97h1.622v1.62h-1.622zM73.52 12.97h1.622v1.62H73.52zM67.842 65.332h1.622v1.62h-1.622zM71.086 65.332h1.622v1.62h-1.622zM64.599 65.332h1.622v1.62h-1.622zM12.572 73.29h1.622v1.62h-1.622zM19.059 73.29h1.622v1.62h-1.622zM15.816 73.29h1.622v1.62h-1.622zM3.357 14.19h1.517v1.514h1.621V14.19h1.517v-1.62H6.495v-1.515H4.874v1.515H3.357v1.62zM75.068 55.573H73.55V54.06h-1.622v1.514h-1.516v1.62h1.516v1.516h1.622v-1.516h1.517v-1.62zM25.204 4.674V3.159h1.516v-1.62h-1.516V.024h-1.622v1.515h-1.517v1.62h1.517v1.515h1.622zM65.758 5.484h1.516v1.514h1.622V5.484h1.516v-1.62h-1.516V2.348h-1.622v1.514h-1.516v1.62zM5.207 66.375h1.517v1.515h1.622v-1.515h1.516v-1.62H8.346V63.24H6.724v1.515H5.207v1.62z" fill="#72CB46"/></svg>