<svg viewBox="0 0 91 91" xmlns="http://www.w3.org/2000/svg"><path d="M30.161 19.353l16.208 2.354L36.803 35l-2.644-6.23a19.923 19.923 0 00-7.94 11.272 19.94 19.94 0 00-.558 7.458 20.033 20.033 0 002.764 8.071 19.92 19.92 0 0011.936 8.966 19.892 19.892 0 0011.481-.336 20.106 20.106 0 008.448-5.472 19.901 19.901 0 004.565-8.334c.83-3.096.903-6.277.249-9.34a20.1 20.1 0 00-6.034-10.568l3.386-3.679a25.1 25.1 0 017.537 13.203c.819 3.83.727 7.814-.308 11.678a24.9 24.9 0 01-5.71 10.42 25.106 25.106 0 01-10.551 6.836 24.892 24.892 0 01-14.358.422 24.92 24.92 0 01-14.92-11.208 25.032 25.032 0 01-3.452-10.087 24.94 24.94 0 01.695-9.324 24.923 24.923 0 0110.783-14.657l-2.011-4.74z" fill="#FFF"/></svg>