<svg xmlns="http://www.w3.org/2000/svg" viewBox="0 0 24.01 24"><path d="M23.46 18.81a1.88 1.88 0 01.54 1.33 1.91 1.91 0 01-.56 1.32l-2 2a1.86 1.86 0 01-2.64 0L15 19.59A1.86 1.86 0 0115 17l.55-.56-1.22-1.22-2.08 2.1a2 2 0 01-2.85 0l-.86-.86-1.43 1.34A.64.64 0 016 17.51a.63.63 0 01.17-.61l1.43-1.37-.86-.86a2 2 0 010-2.85l2.09-2.09L7.61 8.5l-.55.55a1.86 1.86 0 01-2.64 0L.55 5.19A1.86 1.86 0 010 3.87a1.88 1.88 0 01.55-1.33l2-2A1.86 1.86 0 015.2.55l3.85 3.86a1.86 1.86 0 010 2.64l-.55.56 1.24 1.22L13 5.58a2 2 0 012.61-.21l1.14-1.17a1.74 1.74 0 012.46 0l.6.6a1.74 1.74 0 010 2.46l-1.17 1.17a2 2 0 01-.21 2.6l-2.16 2.16a.63.63 0 11-.89-.89l2.16-2.16a.77.77 0 000-1.07l-2.61-2.6a.75.75 0 00-1.06 0l-3.7 3.69-2.53 2.54a.74.74 0 000 1.06l2.6 2.6a.77.77 0 001.07 0l2.09-2.09-.91-.89a.63.63 0 01.9-.89l1.34 1.35 1.67 1.66.6-.5a1.86 1.86 0 012.64 0zM18.32 5.09a.51.51 0 00-.69 0l-1.15 1.16 1.28 1.28 1.15-1.15a.48.48 0 000-.68zm-15.43.64l2.85-2.85 1 1-2.87 2.83zm-1.45-2.3a.63.63 0 00-.17.43.58.58 0 00.18.43l.55.55L4.84 2l-.55-.55a.59.59 0 00-.85 0zm4.73 4.72a.62.62 0 01-.86 0l-.55-.55 2.85-2.84.55.54a.6.6 0 010 .86zm14 9.14l-2.87 2.84 1 1 2.85-2.84zm-4.28.55l2-2a.62.62 0 01.86 0l.55.55-2.9 2.85-.55-.54a.6.6 0 010-.86zm4.72 4.72l2-2a.64.64 0 00.18-.43.62.62 0 00-.18-.43l-.61-.54L19.17 22l.55.55a.62.62 0 00.86.01z" fill-rule="evenodd"/><path d="M6.6 19.79a2.38 2.38 0 01-2.38-2.39.64.64 0 00-1.22 0 3.66 3.66 0 003.6 3.65.63.63 0 100-1.26z"/><path d="M1.33 17.71a.64.64 0 00-.63-.64.64.64 0 00-.63.64 6.23 6.23 0 006.23 6.23.63.63 0 100-1.26 5 5 0 01-4.97-4.97z"/></svg>