<svg class="svg-science-logo" width="261" height="97" viewBox="0 0 261 97" fill="none" xmlns="http://www.w3.org/2000/svg"><path fill-rule="evenodd" clip-rule="evenodd" d="M84.532 65.564a1.581 1.581 0 00-.059-.418l-.016-.067-.129-.66H78.38v.815c0 .257.002.51.004.76.004.54.008 1.048-.008 1.557-.011.421-.013.846-.014 1.257-.004 1.025-.007 1.994-.163 2.939-.61 3.68-4.317 6.457-8.624 6.457a9.742 9.742 0 01-3.688-.72c-3.362-1.37-5.085-3.733-5.119-7.029-.067-6.377-.049-12.863-.031-19.137.005-1.819.01-3.637.013-5.456 0-.457.066-.976.201-1.585.558-2.521 2.515-4.612 5.233-5.593l.541-.195v-5.356l-.982.196c-3.153.63-5.78 2.047-7.81 4.213-2.224 2.372-3.35 5.282-3.347 8.648.004 3.898.004 7.796.004 11.694 0 3.967 0 7.935.004 11.903 0 .66.015 1.442.124 2.217.54 3.833 2.531 6.843 5.921 8.946 2.554 1.585 5.498 2.388 8.751 2.388.974 0 1.997-.071 3.04-.213 3.182-.432 6.146-1.84 8.345-3.964 2.227-2.152 3.535-4.908 3.683-7.761.071-1.375.07-2.764.07-4.108 0-.567 0-1.154.004-1.728M73.906 39.105c2.61 1.288 4.26 3.58 4.41 6.127.07 1.184.066 2.403.062 3.583-.001.54-.003 1.099.002 1.65.001.124.001.248 0 .376v1.01h6.086v-.816c0-.647.015-1.305.03-1.942.032-1.423.064-2.895-.065-4.347-.379-4.238-2.58-7.519-6.546-9.751a15.609 15.609 0 00-1.722-.835 2.729 2.729 0 00-3.769 2.515c0 1.038.58 1.97 1.512 2.43m143.94 26.459a1.562 1.562 0 00-.059-.418.737.737 0 01-.016-.067l-.129-.66h-5.948v.815c0 .257.002.51.004.76.003.54.007 1.048-.008 1.557-.012.421-.013.846-.015 1.257-.003 1.025-.006 1.994-.163 2.939-.609 3.68-4.316 6.457-8.623 6.457a9.745 9.745 0 01-3.689-.72c-3.362-1.37-5.084-3.733-5.118-7.029-.067-6.377-.049-12.863-.032-19.137l.014-5.456c0-.457.066-.976.201-1.585.558-2.521 2.514-4.612 5.233-5.593l.541-.195v-5.356l-.982.196c-3.153.63-5.781 2.047-7.81 4.213-2.224 2.372-3.35 5.282-3.347 8.648.004 3.898.004 7.796.004 11.694-.001 3.967-.001 7.935.003 11.903.001.66.016 1.442.125 2.217.539 3.833 2.531 6.843 5.921 8.946 2.554 1.585 5.498 2.388 8.751 2.388.974 0 1.997-.071 3.039-.213 3.183-.432 6.147-1.84 8.346-3.964 2.227-2.152 3.535-4.908 3.683-7.761.071-1.375.071-2.764.07-4.108-.001-.567-.001-1.154.004-1.728m-10.627-26.459c2.61 1.288 4.259 3.58 4.41 6.127.07 1.184.066 2.403.062 3.583-.001.54-.003 1.099.002 1.65l.001.376-.001 1.01h6.086v-.816c0-.647.015-1.305.03-1.942.032-1.423.064-2.895-.065-4.347-.379-4.238-2.581-7.519-6.546-9.751a15.655 15.655 0 00-1.722-.835 2.729 2.729 0 00-3.769 2.515c0 1.038.58 1.97 1.512 2.43m-89.483 9.472a3.074 3.074 0 003.08-3.063v-6.042h19.224v-5.17h-25.384v11.212a3.075 3.075 0 003.08 3.063m3.094 28.392v-18.43h16.249v-5.21h-22.423v28.84h25.387v-5.2H120.83zm110.021-28.392a3.074 3.074 0 003.08-3.063v-6.042h19.224v-5.17h-25.384v11.212a3.075 3.075 0 003.08 3.063m3.094 28.392v-18.43h11.141l5.108-5.21h-22.423v28.84h25.388v-5.2h-19.214zM99.482 48.065a3.033 3.033 0 00-3.038 3.021v31.09h6.076v-31.09c0-1.665-1.363-3.02-3.038-3.02" fill="#5E5E82"/><mask id="a" maskUnits="userSpaceOnUse" x="15" y="33" width="239" height="51"><path fill-rule="evenodd" clip-rule="evenodd" d="M15.323 83.455h237.836v-50.44H15.323v50.44z" fill="#fff"/></mask><g mask="url(#a)" fill-rule="evenodd" clip-rule="evenodd" fill="#5E5E82"><path d="M96.444 43.313h6.076v-9.02h-6.076v9.02zm56.078 27.901a3.06 3.06 0 00-3.067 3.051l-.001 7.197v1.34h6.137l-.001-8.537a3.06 3.06 0 00-3.068-3.05m25.942-25.643c-.271-3.799-1.978-6.862-5.072-9.105-2.365-1.714-5.23-2.651-8.516-2.785a22.42 22.42 0 00-.936-.02c-4.352 0-7.96 1.315-10.725 3.906-2.501 2.344-3.768 5.363-3.765 8.972.006 6.168.006 12.256.006 16.872 0 .815.319 1.581.899 2.157a3.053 3.053 0 002.169.894 3.063 3.063 0 003.067-3.05c.001-6.555.005-11.85.014-16.661.002-.95.098-1.728.292-2.377.902-3.004 3.041-4.817 6.359-5.386a11.53 11.53 0 011.95-.173c2.567 0 4.728.97 6.42 2.885 1.175 1.329 1.722 2.923 1.72 5.016a31909.8 31909.8 0 00-.004 25.845l.001 10.247h6.141v-7.101l-.001-28.885.001-.255c.002-.322.004-.654-.02-.996M22.601 56.342c.69.325 1.43.626 2.265.92l.505.179 4.19-4.425-1.196-.413c-1.216-.42-2.165-.84-2.989-1.322-1.706-.999-2.706-2.29-3.055-3.949a7.517 7.517 0 01.06-3.382c.83-3.35 4.273-5.783 8.186-5.783 1.757 0 3.44.495 4.865 1.432 2.271 1.493 3.392 3.523 3.427 6.206.005.4.004.81.002 1.204l-.001.562v.816h6.02v-.816c0-.314.008-.634.016-.944.02-.693.039-1.41-.037-2.127-.438-4.187-2.593-7.395-6.405-9.535-2.304-1.293-4.912-1.949-7.753-1.949-.744 0-1.515.045-2.294.134-4.784.546-8.358 2.647-10.623 6.246-1.469 2.333-2.018 4.984-1.681 8.104.437 4.042 2.623 7.017 6.498 8.842m23.123 9.393c-.125-2.324-.825-4.35-2.08-6.022-1.275-1.697-3.125-3.032-5.501-3.968a38.289 38.289 0 00-1.247-.465 2.733 2.733 0 00-.914-.157c-.753 0-1.481.314-1.998.86a2.72 2.72 0 00.899 4.372c.324.142.637.29.932.443 2.105 1.091 3.327 2.586 3.634 4.443.374 2.263.376 4.44.006 6.468-.695 3.81-4.457 6.574-8.945 6.574a10.51 10.51 0 01-3.226-.507c-3.361-1.082-5.777-4.01-5.874-7.117-.03-.948-.033-1.912-.03-2.861h-6.056c-.008 1.415.005 2.863.172 4.297.432 3.69 2.479 6.767 5.919 8.898 2.638 1.634 5.624 2.462 8.876 2.463 1.233 0 2.526-.12 3.844-.356 6.306-1.126 10.928-5.649 11.501-11.251.184-1.806.214-3.806.088-6.114"/></g><ellipse cx="2.043" cy="68.571" rx="2.043" ry="2.032" fill="#2D2C31"/><ellipse cx="72.528" cy="45.714" rx="2.043" ry="2.032" fill="#2D2C31"/><ellipse cx="258.756" cy="44.698" rx="2.043" ry="2.032" fill="#2D2C31"/><ellipse cx="203.284" cy="70.603" rx="2.043" ry="2.032" fill="#2D2C31"/><path d="M178.256 31.492v20.825m0 32.508l.256 10.92M66.655 25.143l-.128 22.476M6.385 68.317h14.3m180.045-3.809l19.664.254m21.452-3.048l13.794-13.917M135.863 34.54h14.301m-41.372 47.237h14.302" stroke="#2D2C31" stroke-linecap="square"/><path fill-rule="evenodd" clip-rule="evenodd" d="M33.194 6.59h.01c.843 0 1.525-.682 1.528-1.525a1.527 1.527 0 00-1.527-1.523h-.011c-.842 0-1.525.681-1.527 1.523a1.527 1.527 0 001.526 1.525m1.856 7.08a5.37 5.37 0 00-1.62-1.774 8.647 8.647 0 00-2.29-1.117 31.563 31.563 0 00-2.603-.718 103.39 103.39 0 00-2.601-.566 13.776 13.776 0 01-2.29-.657c-.676-.265-1.216-.607-1.62-1.024-.406-.418-.608-.964-.608-1.637 0-.713.14-1.31.42-1.79.281-.477.655-.86 1.122-1.145a4.942 4.942 0 011.605-.612 9.215 9.215 0 011.838-.184c.443 0 1.584-.006 1.584-1.237 0-1.065-1.088-1.192-1.384-1.207L26.526 0c-1.017 0-2.01.128-2.975.382a8.273 8.273 0 00-2.586 1.162 5.907 5.907 0 00-1.822 1.988c-.458.806-.686 1.759-.686 2.859 0 1 .202 1.83.607 2.493a4.877 4.877 0 001.62 1.62 9.512 9.512 0 002.29 1.01c.852.254 1.72.48 2.602.673.883.193 1.75.381 2.602.565.852.184 1.614.423 2.29.719.675.296 1.216.678 1.62 1.147.405.469.608 1.08.608 1.835 0 .795-.166 1.447-.499 1.956a3.58 3.58 0 01-1.308 1.208 5.988 5.988 0 01-1.822.627c-.676.123-1.346.184-2.01.184a9.672 9.672 0 01-2.431-.306 6.075 6.075 0 01-2.072-.948 4.866 4.866 0 01-1.433-1.636 4.258 4.258 0 01-.445-1.26c-.123-.636-.647-1.11-1.288-1.11h-.207c-.814 0-1.423.746-1.285 1.555a6.663 6.663 0 002.601 4.27c.841.622 1.818 1.086 2.93 1.392 1.11.306 2.29.46 3.536.46 1.017 0 2.04-.118 3.07-.353a8.979 8.979 0 002.788-1.132 6.48 6.48 0 002.041-2.018c.53-.825.794-1.82.794-2.982 0-1.08-.202-1.977-.607-2.69M62.13 7.946h-.012c-.813 0-1.474.662-1.474 1.478v.066c0 .513-.66 1.005-1.474 1.005h-8.767c-.814 0-1.474-.66-1.474-1.478V2.65c0-.816-.66-1.478-1.476-1.478h-.01c-.814 0-1.474.662-1.474 1.478v18.73c0 .817.66 1.479 1.474 1.479h.01c.816 0 1.475-.662 1.475-1.479v-6.976c0-.815.661-1.477 1.475-1.477h8.767c.814 0 1.474.662 1.474 1.477v6.976c0 .817.66 1.479 1.474 1.479h.012c.814 0 1.474-.662 1.474-1.479V9.425c0-.816-.66-1.478-1.474-1.478m.098-3.883h.012c.841 0 1.524-.682 1.526-1.524a1.527 1.527 0 00-1.526-1.524h-.012c-.842 0-1.524.681-1.527 1.524a1.528 1.528 0 001.527 1.524m30.633 16.917L85.44 2.411a2.242 2.242 0 00-2.09-1.395h-.218c-.925 0-1.755.556-2.091 1.398l-7.394 18.569c-.359.902.321 1.874 1.31 1.874.589 0 1.114-.356 1.319-.895l6.187-16.457c.239-.634 1.156-.633 1.393.002l6.134 16.444c.202.544.73.906 1.322.906h.239c.99 0 1.67-.974 1.31-1.876" fill="#9DA09D"/><path fill-rule="evenodd" clip-rule="evenodd" d="M83.514 13.714h-.01c-.7 0-1.269.568-1.271 1.27.002.701.57 1.27 1.272 1.27h.01c.7 0 1.27-.569 1.272-1.27a1.273 1.273 0 00-1.273-1.27m21.198 5.989h-.012c-.841 0-1.524.682-1.526 1.524a1.527 1.527 0 001.526 1.523h.012c.842 0 1.524-.681 1.527-1.523a1.528 1.528 0 00-1.527-1.524m1.527-9.776V4.924c0-.815.666-1.477 1.488-1.477h4.363c1.698 0 2.941.339 3.728 1.017.786.679 1.179 1.666 1.179 2.961 0 1.296-.393 2.289-1.179 2.977-.787.688-2.03 1.022-3.728 1.002h-4.363a1.483 1.483 0 01-1.488-1.477m13.798 10.393l-5.02-6.636c1.336-.231 2.415-.734 3.222-1.52 1.164-1.134 1.747-2.713 1.747-4.739 0-2.024-.583-3.599-1.747-4.723-1.163-1.123-2.877-1.686-5.143-1.686h-8.358c-.821 0-1.488.662-1.488 1.478v12.05c0 .817.667 1.48 1.488 1.48h.011c.823 0 1.49-.652 1.49-1.48 0-.508.286-.71 1.109-.71h4.045c.05.132.112.26.202.379l6.007 7.937a1.54 1.54 0 002.14.294c.67-.503.803-1.46.295-2.124m26.078.107h-10.26a1.118 1.118 0 01-1.118-1.12v-5.262c0-.618.5-1.12 1.118-1.12h9.325a1.12 1.12 0 001.118-1.12v-.19a1.12 1.12 0 00-1.118-1.12h-9.325a1.118 1.118 0 01-1.118-1.119V4.72c0-.618.5-1.119 1.118-1.119h4.389a1.12 1.12 0 001.118-1.12v-.19c0-.62-.501-1.12-1.118-1.12h-7.35c-.617 0-1.117.5-1.117 1.12v19.447c0 .618.5 1.12 1.117 1.12h13.221a1.12 1.12 0 001.118-1.12v-.19c0-.62-.501-1.12-1.118-1.12m-.518-16.872h.009c.702 0 1.27-.568 1.272-1.27a1.273 1.273 0 00-1.272-1.27h-.009c-.702 0-1.271.569-1.273 1.27.002.702.571 1.27 1.273 1.27m30.008 17.425l-7.422-18.57a2.243 2.243 0 00-2.089-1.395h-.218c-.925 0-1.756.556-2.091 1.398l-7.394 18.569c-.359.902.321 1.874 1.31 1.874.588 0 1.114-.356 1.319-.895l6.187-16.457c.239-.634 1.156-.633 1.392.002l6.134 16.444c.203.544.73.906 1.323.906h.239c.99 0 1.67-.974 1.31-1.876" fill="#9DA09D"/><path fill-rule="evenodd" clip-rule="evenodd" d="M165.747 13.714h-.009c-.702 0-1.27.568-1.272 1.27.002.701.57 1.27 1.272 1.27h.009c.702 0 1.27-.569 1.272-1.27a1.272 1.272 0 00-1.272-1.27m26.268-3.202h-.009c-.703 0-1.271.567-1.273 1.27.002.701.57 1.27 1.273 1.27h.009c.701 0 1.27-.569 1.272-1.27a1.273 1.273 0 00-1.272-1.27" fill="#9DA09D"/><path fill-rule="evenodd" clip-rule="evenodd" d="M199.363 19.24c-.737.689-1.76 1.033-3.069 1.033h-6.299a1.119 1.119 0 01-1.117-1.12V4.565c0-.617.5-1.12 1.117-1.12h4.803c.644.001 1.251.036 1.823.107a4.13 4.13 0 011.511.47c.436.244.779.588 1.028 1.034.249.445.375 1.053.375 1.822 0 1.154-.369 2.02-1.107 2.597-.737.577-1.649.865-2.651.865h-.138c-.646 0-1.17.525-1.17 1.174v.084c0 .647.524 1.172 1.17 1.172.623 0 1.226.057 1.808.168a4.586 4.586 0 011.542.576c.446.274.805.644 1.075 1.109.27.466.405 1.053.405 1.762 0 1.215-.369 2.167-1.106 2.855m2.975-6.166c-.727-.93-1.775-1.539-3.147-1.822v-.061c1.06-.405 1.875-1.027 2.447-1.868.57-.84.856-1.838.856-2.991 0-1.094-.254-2.015-.762-2.765a5.743 5.743 0 00-1.855-1.761 3.864 3.864 0 00-1.2-.455 12.931 12.931 0 00-1.511-.23 22.667 22.667 0 00-1.636-.09 89.47 89.47 0 00-1.542-.015h-6.953c-.617 0-1.117.501-1.117 1.12v19.447c0 .618.5 1.12 1.117 1.12h9.633c1.1 0 2.072-.178 2.913-.532.842-.354 1.547-.82 2.119-1.397a5.783 5.783 0 001.293-1.99 6.322 6.322 0 00.436-2.308c0-1.337-.363-2.47-1.091-3.402m25.673 7.318h-9.566a1.236 1.236 0 01-1.239-1.233V9.225c0-.815-.665-1.477-1.485-1.477h-.058a1.48 1.48 0 00-1.484 1.477v12.4c0 .68.555 1.233 1.239 1.233h12.593c.685 0 1.24-.553 1.24-1.234 0-.68-.555-1.232-1.24-1.232M215.536 4.064h.012c.841 0 1.524-.682 1.526-1.524a1.527 1.527 0 00-1.526-1.524h-.012c-.841 0-1.524.681-1.526 1.524a1.527 1.527 0 001.526 1.524m37.839 16.363h-10.26a1.118 1.118 0 01-1.118-1.12v-5.262c0-.618.5-1.12 1.118-1.12h9.325a1.12 1.12 0 001.118-1.12v-.19a1.12 1.12 0 00-1.118-1.12h-9.325a1.118 1.118 0 01-1.118-1.119V4.72c0-.618.5-1.119 1.118-1.119h4.389a1.12 1.12 0 001.118-1.12v-.19c0-.62-.501-1.12-1.118-1.12h-7.349c-.617 0-1.118.5-1.118 1.12v19.447c0 .618.501 1.12 1.118 1.12h13.22a1.12 1.12 0 001.118-1.12v-.19c0-.62-.501-1.12-1.118-1.12m-.059-16.872h.009c.702 0 1.27-.568 1.273-1.27a1.274 1.274 0 00-1.273-1.27h-.009c-.701 0-1.27.569-1.272 1.27.002.702.571 1.27 1.272 1.27" fill="#9DA09D"/></svg>