<svg width="281" height="93" viewBox="0 0 281 93" fill="none" xmlns="http://www.w3.org/2000/svg"><path fill-rule="evenodd" clip-rule="evenodd" d="M.744.7H123.05c7.506 0 13.59 6.17 13.59 13.78v10.4c0 7.61-6.084 13.78-13.59 13.78H14.333c-7.505 0-13.59-6.17-13.59-13.78V.7zm11.808 2.664L12.55 3.3H3.308v21.58c0 6.113 4.838 11.08 10.843 11.179l.182.001h108.718c6.09 0 11.026-5.006 11.026-11.18v-10.4c0-6.175-4.936-11.18-11.026-11.18H14.333c-.153 0-.307.003-.46.01l-1.321.054z" fill="#2D2C31"/><path fill-rule="evenodd" clip-rule="evenodd" d="M106.641 45.68V22.8c0-6.892 5.51-12.48 12.308-12.48h149.743C275.49 10.32 281 15.908 281 22.8v10.4c0 6.893-5.51 12.48-12.308 12.48H106.641zM28.616 29.54c-1.493 1.176-3.4 1.764-5.719 1.764-1.835 0-3.61-.511-5.325-1.534-.847-.532-1.543-1.283-2.087-2.255-.545-.971-.817-2.081-.817-3.329l3.812-.184c0 1.105.464 1.964 1.392 2.577.927.614 1.956.92 3.086.92 2.521 0 3.782-.9 3.782-2.699 0-1.473-.857-2.342-2.572-2.608l-3.51-.368c-1.755-.266-3.146-.9-4.175-1.902-1.029-1.002-1.543-2.444-1.543-4.326 0-1.882.736-3.436 2.209-4.663 1.472-1.228 3.333-1.841 5.582-1.841 2.249 0 4.06.578 5.43 1.733 1.372 1.156 2.058 2.644 2.058 4.464l-3.752.184c-.342-1.78-1.522-2.669-3.54-2.669-1.23 0-2.193.266-2.889.798-.696.531-1.044 1.16-1.044 1.887 0 .726.252 1.298.757 1.718.504.419 1.13.68 1.875.782l3.45.368c3.852.532 5.779 2.639 5.779 6.32 0 2.066-.747 3.687-2.24 4.863zm22.689-2.224v3.804H43.68c-2.42 0-4.12-.424-5.098-1.273-.978-.849-1.467-2.347-1.467-4.495V9.276h14.19v3.804H41.32v5.124h6.99l-.303 3.804H41.32v3.037c0 .86.192 1.453.575 1.78.383.327 1.08.49 2.088.49h7.322zm21.207 3.804v-3.804H65.19c-1.008 0-1.704-.164-2.087-.491-.384-.327-.575-.92-.575-1.78v-3.037h6.686l.303-3.804h-6.99V13.08h9.985V9.276h-14.19v16.076c0 2.148.49 3.646 1.467 4.495.979.849 2.678 1.273 5.099 1.273h7.624zm23.204-.476c-.403.481-.877.722-1.422.722-1.392 0-2.531-.819-3.419-2.455L83.432 17.1V31.12h-4.206V9.276h4.055l8.835 14.297V9.276h4.205V28.91c0 .675-.201 1.253-.605 1.733z" fill="#2D2C31"/><path fill-rule="evenodd" clip-rule="evenodd" d="M181.146 39.104c3.005 0 5.189-.828 6.55-2.485 1.362-1.657 2.043-4.316 2.043-7.977v-1.656c0-3.375-.696-5.901-2.088-7.578-1.392-1.678-3.565-2.516-6.52-2.516-2.955 0-5.114.828-6.475 2.485-1.362 1.657-2.042 4.183-2.042 7.578v1.595c0 3.723.67 6.412 2.012 8.07 1.341 1.656 3.514 2.484 6.52 2.484zm-54.638-3.958l-1.18 3.774h-4.387l6.899-20.003c.302-.696.64-1.176 1.013-1.442.373-.266.832-.4 1.377-.4.544 0 .983.124 1.316.37.333.244.63.735.893 1.472l6.898 20.003h-4.387l-1.21-3.774h-7.232zm1.059-3.59h5.204l-2.542-8.65-2.662 8.65zm24.868 7.364v-8.1h3.026l4.206 8.1h4.871l-4.811-8.805c1.11-.41 2.042-1.15 2.799-2.224.756-1.074 1.134-2.347 1.134-3.82 0-2.025-.63-3.697-1.891-5.016-1.26-1.32-2.96-1.98-5.098-1.98h-3.57c-1.755 0-3.005.374-3.752 1.12-.746.747-1.119 1.939-1.119 3.575v17.15h4.205zm0-11.658h3.964c.887 0 1.619-.312 2.193-.936.575-.624.863-1.401.863-2.332 0-.93-.278-1.682-.832-2.255-.555-.572-1.296-.859-2.224-.859h-2.088c-1.25 0-1.876.645-1.876 1.933v4.449zm26.729 7.624c.555.276 1.22.414 1.997.414.777 0 1.437-.133 1.982-.399.544-.266.968-.593 1.271-.982.302-.388.534-.9.695-1.534.283-1.002.424-2.28.424-3.835v-1.135c0-1.963-.242-3.528-.726-4.694-.565-1.35-1.775-2.025-3.631-2.025-1.876 0-3.096.675-3.661 2.025-.464 1.105-.696 2.67-.696 4.694v1.135c0 2.639.363 4.418 1.089 5.339.283.388.701.72 1.256.997zm27.788 4.218c2.319 0 4.271-.685 5.854-2.055 1.584-1.37 2.376-3.242 2.376-5.615V17.076h-4.176V31.28c0 1.35-.373 2.357-1.119 3.022-.747.665-1.725.997-2.935.997s-2.184-.332-2.92-.997c-.736-.665-1.104-1.672-1.104-3.022V17.076h-4.206v14.358c0 2.373.792 4.244 2.375 5.615 1.584 1.37 3.535 2.055 5.855 2.055zm34.732-.66c-.404.481-.878.721-1.422.721-1.392 0-2.532-.818-3.419-2.454L229.4 24.9V38.92h-4.206V17.076h4.054l8.835 14.297V17.076h4.206V36.71c0 .675-.202 1.253-.605 1.733zm18.967.476c2.623 0 4.62-.695 5.991-2.086.827-.839 1.382-1.77 1.664-2.792.283-1.023.464-2.28.545-3.774l-.03-2.362c0-1.943-.071-3.487-.212-4.633-.202-1.616-.857-2.986-1.967-4.11-1.371-1.392-3.268-2.087-5.688-2.087h-8.381v16.107c0 2.168.575 3.666 1.725 4.495 1.149.828 3.267 1.242 6.353 1.242zm-3.055-4.264c.545.306 1.518.46 2.92.46s2.466-.45 3.192-1.35c.383-.47.631-1.12.741-1.948.106-.79.161-2 .166-3.633l.001-.248c0-1.76-.056-3.033-.167-3.82-.11-.788-.358-1.416-.741-1.887-.726-.9-1.775-1.35-3.147-1.35h-3.782v12.088c0 .818.273 1.38.817 1.688z" fill="#fff"/><path fill-rule="evenodd" clip-rule="evenodd" d="M33.733 56.995v-9.37H3.17v9.37h10.23V89.1h10.05l-.001-32.105h10.285zm12.6 7.064V47.625H36.286V89.1h10.049V73.375h11.49V89.1h10.048V47.625H57.824v16.434h-11.49zm52.981-16.434v9.37H81.545v6.518h12.546l-.745 9.37H81.545v4.094l.002.176c.02 1.088.242 1.732.565 2.009.382.325 1.293.55 2.71.566l.18.002h14.312v9.37H84.458l-.29-.001c-4.43-.035-7.633-.86-9.612-2.577-2.028-1.76-3.016-4.69-3.058-8.717l-.002-.27v-29.91h27.818zm-93.58 2.6h25.435v4.17H20.884V86.5h-4.92V54.395H5.734v-4.17zm38.036 0h-4.92V86.5h4.92V70.775h16.618V86.5h4.92V50.224h-4.92V66.66H43.772V50.224zm30.291 0h22.69v4.17H78.98v11.718h12.331l-.331 4.17h-12v6.706l.003.201.005.196c.063 1.682.525 2.956 1.472 3.764l.106.087.114.086c.969.702 2.403 1.007 4.321 1.007l11.749-.001V86.5H84.464l-.28-.001-.269-.003c-3.732-.06-6.297-.74-7.69-1.95l-.1-.089-.1-.095c-1.28-1.263-1.964-3.516-1.964-6.827v-27.31zM181.646 88.385c-2.423 2.948-6.309 4.422-11.658 4.422-5.349 0-9.217-1.474-11.604-4.422-2.387-2.949-3.581-7.735-3.581-14.36v-2.84c0-6.041 1.212-10.537 3.635-13.485 2.423-2.949 6.264-4.423 11.523-4.423 5.259 0 9.127 1.492 11.604 4.477 2.477 2.985 3.715 7.48 3.715 13.486v2.949c0 6.516-1.211 11.248-3.634 14.196zm-51.152-19.492l-7.053 23.587h-6.247l-10.23-38.875h7.807l5.923 24.515 5.87-20.257c.646-3.02 2.01-4.531 4.092-4.531 1.041 0 1.831.391 2.369 1.174.539.782 1.023 1.901 1.454 3.358l5.815 20.256 5.977-24.515h7.808L143.794 92.48h-6.246l-7.054-23.587zm39.52 17.144c-1.382 0-2.566-.246-3.553-.737-.988-.491-1.732-1.083-2.235-1.775-1.292-1.638-1.938-4.804-1.938-9.5v-2.02c0-3.604.412-6.388 1.238-8.354 1.005-2.402 3.177-3.604 6.515-3.604 3.303 0 5.457 1.202 6.462 3.604.861 2.075 1.292 4.86 1.292 8.354v2.02c0 2.766-.251 5.041-.754 6.825-.287 1.129-.7 2.038-1.238 2.73-.539.692-1.292 1.274-2.262 1.747-.969.474-2.144.71-3.527.71zm27.621-7.972V92.48h-7.485V61.958c0-2.911.664-5.032 1.993-6.36 1.328-1.329 3.553-1.993 6.676-1.993h6.354c3.805 0 6.83 1.174 9.073 3.521 2.244 2.348 3.366 5.324 3.366 8.928 0 2.62-.673 4.886-2.019 6.797-1.347 1.911-3.007 3.23-4.981 3.959l8.561 15.67h-8.669l-7.485-14.415h-5.384zm7.054-6.333h-7.053v-7.917c0-2.293 1.112-3.44 3.338-3.44h3.715c1.652 0 2.971.51 3.958 1.529.987 1.02 1.481 2.357 1.481 4.013 0 1.656-.512 3.04-1.535 4.15-1.023 1.11-2.324 1.665-3.904 1.665zm42.616 13.978v6.77H235.89c-4.308 0-7.422-.846-9.343-2.539-1.92-1.693-2.88-4.45-2.88-8.272V53.605h7.484v28.064c0 1.529.341 2.585 1.023 3.167.682.582 1.921.874 3.716.874h11.415zm18.656 6.77c4.667 0 8.22-1.238 10.661-3.713 1.472-1.492 2.459-3.148 2.962-4.968.502-1.82.826-4.06.969-6.716l-.054-4.204c0-3.459-.125-6.207-.377-8.245-.359-2.876-1.525-5.315-3.5-7.316-2.441-2.476-5.815-3.713-10.123-3.713h-14.915V82.27c0 3.858 1.023 6.524 3.069 7.999 2.046 1.474 5.816 2.21 11.308 2.21zm-5.439-7.59c.969.546 2.701.82 5.196.82 2.495 0 4.389-.801 5.681-2.403.682-.837 1.122-1.993 1.319-3.467.191-1.425.29-3.624.296-6.597v-.31c0-3.13-.098-5.396-.296-6.798-.197-1.401-.637-2.52-1.319-3.358-1.292-1.601-3.159-2.402-5.6-2.402h-6.731v21.513c0 1.456.485 2.456 1.454 3.002z" fill="#2D2C31"/></svg>