<svg width="23" height="23" viewBox="0 0 23 23" fill="none" xmlns="http://www.w3.org/2000/svg"><path fill-rule="evenodd" clip-rule="evenodd" d="M18.123 14.456a3.907 3.907 0 00-3.005 1.4l-6.508-3.17a3.578 3.578 0 00-.033-1.964l6.63-3.492c1.29 1.455 3.499 1.73 5.123.636 1.625-1.093 2.143-3.202 1.203-4.893-.94-1.69-3.038-2.42-4.865-1.692-1.827.728-2.798 2.68-2.252 4.528L7.787 9.301C6.721 8.106 5.002 7.687 3.484 8.253 1.966 8.82.974 10.25 1 11.833c.027 1.584 1.067 2.981 2.604 3.498 1.536.517 3.24.043 4.265-1.187l6.508 3.17c-.404 1.56.255 3.197 1.638 4.075a3.95 3.95 0 004.49-.186c1.303-.99 1.816-2.676 1.278-4.197-.538-1.52-2.009-2.541-3.66-2.54v-.01zm0-11.838c1.22 0 2.21.964 2.21 2.153 0 1.188-.99 2.152-2.21 2.152s-2.21-.964-2.21-2.152c0-1.19.99-2.153 2.21-2.153zm-13.258 11.3c-1.22 0-2.21-.964-2.21-2.152 0-1.189.99-2.153 2.21-2.153s2.21.964 2.21 2.153c0 1.188-.99 2.152-2.21 2.152zm13.258 6.457c-1.22 0-2.21-.964-2.21-2.152 0-1.189.99-2.153 2.21-2.153s2.21.964 2.21 2.153c0 1.188-.99 2.152-2.21 2.152z" fill="#fff"/><path d="M18.123 14.456h.5v-.5h-.5v.5zm-3.005 1.4l-.219.449.353.172.25-.303-.384-.319zm-6.508-3.17l-.483-.13-.106.399.37.18.22-.45zm-.033-1.964l-.233-.443-.365.193.12.395.478-.145zm6.63-3.492l.373-.332-.26-.293-.347.182.233.443zm-.79-1.42l.232.442.363-.192-.116-.393-.48.142zM7.786 9.3l-.373.333.26.292.346-.182-.233-.443zm.083 4.843l.219-.45-.352-.171-.251.301.384.32zm6.508 3.17l.484.125.102-.396-.367-.18-.22.45zm3.745-2.847h-.5v.5h.5v-.5zm0-.51c-1.313 0-2.56.578-3.39 1.579l.77.638a3.407 3.407 0 012.62-1.218v-1zm-2.786 1.449l-6.508-3.17-.438.9 6.508 3.169.438-.9zm-6.244-2.591a4.078 4.078 0 00-.037-2.238l-.957.29c.167.55.176 1.134.028 1.69l.966.258zm-.283-1.65l6.63-3.493-.467-.885-6.629 3.492.466.885zm6.022-3.604c1.459 1.645 3.947 1.951 5.777.72l-.558-.83c-1.418.955-3.348.713-4.47-.553l-.749.663zm5.777.72c1.836-1.235 2.43-3.629 1.36-5.55l-.873.485c.811 1.46.368 3.285-1.045 4.235l.559.83zm1.36-5.55C20.905.813 18.539-.003 16.484.816l.37.929c1.6-.638 3.428.005 4.243 1.47l.874-.486zM16.484.816c-2.06.82-3.168 3.03-2.546 5.134l.959-.284c-.47-1.592.362-3.286 1.957-3.921l-.37-.93zm-2.3 4.55L7.554 8.859l.466.885 6.63-3.492-.467-.885zM8.16 8.969C6.955 7.617 5.017 7.148 3.31 7.785l.35.937c1.327-.496 2.828-.127 3.755.912l.746-.665zM3.31 7.785C1.599 8.423.469 10.04.5 11.842l1-.017c-.024-1.365.832-2.608 2.158-3.103l-.35-.937zM.5 11.842c.03 1.801 1.214 3.38 2.944 3.963l.32-.948c-1.343-.451-2.241-1.667-2.265-3.032l-1 .017zm2.944 3.963c1.73.581 3.65.05 4.81-1.341l-.77-.64c-.89 1.068-2.376 1.485-3.72 1.033l-.32.948zm4.206-1.211l6.508 3.169.438-.9-6.508-3.168-.438.899zm6.243 2.594c-.46 1.775.292 3.632 1.854 4.623l.536-.844c-1.205-.765-1.77-2.183-1.422-3.528l-.968-.25zm1.854 4.623a4.45 4.45 0 005.061-.21l-.605-.796a3.45 3.45 0 01-3.92.162l-.535.844zm5.061-.21c1.472-1.119 2.058-3.032 1.446-4.761l-.943.333c.465 1.312.024 2.771-1.108 3.632l.605.796zm1.446-4.761c-.611-1.728-2.275-2.875-4.132-2.873v1c1.447-.002 2.724.891 3.19 2.206l.942-.333zm-3.632-2.373v-.01h-1v.01h1zm-.5-11.349c.957 0 1.71.752 1.71 1.653h1c0-1.478-1.226-2.653-2.71-2.653v1zm1.71 1.653c0 .9-.753 1.652-1.71 1.652v1c1.484 0 2.71-1.175 2.71-2.652h-1zm-1.71 1.652c-.957 0-1.71-.752-1.71-1.652h-1c0 1.477 1.226 2.652 2.71 2.652v-1zm-1.71-1.652c0-.9.753-1.653 1.71-1.653v-1c-1.484 0-2.71 1.175-2.71 2.653h1zM4.865 13.418c-.957 0-1.71-.752-1.71-1.652h-1c0 1.477 1.226 2.652 2.71 2.652v-1zm-1.71-1.652c0-.9.753-1.653 1.71-1.653v-1c-1.484 0-2.71 1.176-2.71 2.653h1zm1.71-1.653c.956 0 1.71.753 1.71 1.653h1c0-1.477-1.226-2.653-2.71-2.653v1zm1.71 1.653c0 .9-.754 1.652-1.71 1.652v1c1.484 0 2.71-1.175 2.71-2.652h-1zm11.548 8.109c-.957 0-1.71-.752-1.71-1.652h-1c0 1.477 1.226 2.652 2.71 2.652v-1zm-1.71-1.652c0-.9.753-1.653 1.71-1.653v-1c-1.484 0-2.71 1.175-2.71 2.653h1zm1.71-1.653c.957 0 1.71.752 1.71 1.653h1c0-1.477-1.226-2.653-2.71-2.653v1zm1.71 1.653c0 .9-.753 1.652-1.71 1.652v1c1.484 0 2.71-1.175 2.71-2.652h-1z" fill="#fff"/></svg>