<svg xmlns="http://www.w3.org/2000/svg" viewBox="0 0 25.51 25.43"><path d="M6.13 11.25a2.7 2.7 0 112.7-2.7 2.7 2.7 0 01-2.7 2.7zm0-4.4a1.7 1.7 0 101.7 1.7 1.7 1.7 0 00-1.7-1.7zM16.93 5.4a2.7 2.7 0 112.7-2.7 2.7 2.7 0 01-2.7 2.7zm0-4.4a1.7 1.7 0 101.7 1.7 1.7 1.7 0 00-1.7-1.7zM16.93 16.65a2.7 2.7 0 112.7-2.7 2.7 2.7 0 01-2.7 2.7zm0-4.4a1.7 1.7 0 101.7 1.7 1.7 1.7 0 00-1.7-1.7z" fill="#585858"/><path fill="#585858" d="M7.955 6.97l6.715-3.623.475.88L8.429 7.85zM7.949 10.072l.474-.88 6.717 3.62-.474.88zM1.94 25.43a2.64 2.64 0 01-1-.19 1.7 1.7 0 01-.69-.54 1.39 1.39 0 01-.25-.83h1.12a.81.81 0 00.23.51.85.85 0 00.57.18.87.87 0 00.58-.17.57.57 0 00.21-.46.56.56 0 00-.14-.39 1.06 1.06 0 00-.37-.23 4.37 4.37 0 00-.58-.19 5.82 5.82 0 01-.83-.3 1.45 1.45 0 01-.55-.44 1.28 1.28 0 01-.24-.79 1.38 1.38 0 01.24-.81 1.43 1.43 0 01.65-.53 2.42 2.42 0 011-.19 2.07 2.07 0 011.31.4 1.48 1.48 0 01.57 1.1H2.58a.62.62 0 00-.23-.45.85.85 0 00-.57-.18.76.76 0 00-.49.16.59.59 0 00-.18.46.48.48 0 00.13.35 1.25 1.25 0 00.35.23c.14.05.33.12.58.19a6.52 6.52 0 01.84.3 1.48 1.48 0 01.55.45 1.22 1.22 0 01.24.79 1.53 1.53 0 01-.22.78 1.64 1.64 0 01-.64.58 2.2 2.2 0 01-1 .21zm5 0a2.72 2.72 0 01-1.35-.35 2.6 2.6 0 01-1-.95 2.69 2.69 0 01-.36-1.39 2.62 2.62 0 01.36-1.37 2.55 2.55 0 011-1 2.72 2.72 0 011.35-.35 2.66 2.66 0 011.35.35 2.55 2.55 0 011 1 2.62 2.62 0 01.36 1.37 2.69 2.69 0 01-.36 1.39 2.6 2.6 0 01-1 .95 2.72 2.72 0 01-1.37.35zm0-.94a1.6 1.6 0 00.83-.21 1.56 1.56 0 00.57-.62 2 2 0 00.2-.92 2 2 0 00-.2-.91 1.47 1.47 0 00-.57-.61 1.6 1.6 0 00-.85-.22 1.69 1.69 0 00-.84.21 1.38 1.38 0 00-.56.61 1.88 1.88 0 00-.2.91 1.92 1.92 0 00.2.92 1.47 1.47 0 00.56.62 1.69 1.69 0 00.84.22zm3-1.74a2.72 2.72 0 01.35-1.38 2.41 2.41 0 011-.95 2.7 2.7 0 011.36-.35 2.65 2.65 0 011.53.45 2.4 2.4 0 01.82 1.25h-1.18a1.29 1.29 0 00-.51-.57 1.54 1.54 0 00-.75-.18 1.59 1.59 0 00-.82.21 1.46 1.46 0 00-.55.6 2.19 2.19 0 000 1.83 1.48 1.48 0 00.55.61 1.59 1.59 0 00.82.21 1.44 1.44 0 00.75-.19 1.29 1.29 0 00.51-.57H15a2.39 2.39 0 01-.9 1.28 2.88 2.88 0 01-2.89.1 2.55 2.55 0 01-1-.95 2.77 2.77 0 01-.3-1.4zm6.85-2.61v5.23h-1.08v-5.23zm4 4.24h-2.08l-.35 1h-1.1l1.88-5.24h1.22l1.89 5.24h-1.11zm-.28-.84l-.76-2.19-.75 2.19zm3.28 1h1.72v.83h-2.77v-5.23h1.05z"/></svg>