<svg xmlns="http://www.w3.org/2000/svg" xmlns:xlink="http://www.w3.org/1999/xlink"><symbol id="sprite-share" preserveAspectRatio="xMidYMid meet"><path fill-rule="evenodd" clip-rule="evenodd" d="M18.123 14.456a3.907 3.907 0 00-3.005 1.4l-6.508-3.17a3.578 3.578 0 00-.033-1.964l6.63-3.492c1.29 1.455 3.499 1.73 5.123.636 1.625-1.093 2.143-3.202 1.203-4.893-.94-1.69-3.038-2.42-4.865-1.692-1.827.728-2.798 2.68-2.252 4.528L7.787 9.301C6.721 8.106 5.002 7.687 3.484 8.253 1.966 8.82.974 10.25 1 11.833c.027 1.584 1.067 2.981 2.604 3.498 1.536.517 3.24.043 4.265-1.187l6.508 3.17c-.404 1.56.255 3.197 1.638 4.075a3.95 3.95 0 004.49-.186c1.303-.99 1.816-2.676 1.278-4.197-.538-1.52-2.009-2.541-3.66-2.54v-.01zm0-11.838c1.22 0 2.21.964 2.21 2.153 0 1.188-.99 2.152-2.21 2.152s-2.21-.964-2.21-2.152c0-1.19.99-2.153 2.21-2.153zm-13.258 11.3c-1.22 0-2.21-.964-2.21-2.152 0-1.189.99-2.153 2.21-2.153s2.21.964 2.21 2.153c0 1.188-.99 2.152-2.21 2.152zm13.258 6.457c-1.22 0-2.21-.964-2.21-2.152 0-1.189.99-2.153 2.21-2.153s2.21.964 2.21 2.153c0 1.188-.99 2.152-2.21 2.152z"/><path d="M18.123 14.456h.5v-.5h-.5v.5zm-3.005 1.4l-.219.449.353.172.25-.303-.384-.319zm-6.508-3.17l-.483-.13-.106.399.37.18.22-.45zm-.033-1.964l-.233-.443-.365.193.12.395.478-.145zm6.63-3.492l.373-.332-.26-.293-.347.182.233.443zm-.79-1.42l.232.442.363-.192-.116-.393-.48.142zM7.786 9.3l-.373.333.26.292.346-.182-.233-.443zm.083 4.843l.219-.45-.352-.171-.251.301.384.32zm6.508 3.17l.484.125.102-.396-.367-.18-.22.45zm3.745-2.847h-.5v.5h.5v-.5zm0-.51c-1.313 0-2.56.578-3.39 1.579l.77.638a3.407 3.407 0 012.62-1.218v-1zm-2.786 1.449l-6.508-3.17-.438.9 6.508 3.169.438-.9zm-6.244-2.591a4.078 4.078 0 00-.037-2.238l-.957.29c.167.55.176 1.134.028 1.69l.966.258zm-.283-1.65l6.63-3.493-.467-.885-6.629 3.492.466.885zm6.022-3.604c1.459 1.645 3.947 1.951 5.777.72l-.558-.83c-1.418.955-3.348.713-4.47-.553l-.749.663zm5.777.72c1.836-1.235 2.43-3.629 1.36-5.55l-.873.485c.811 1.46.368 3.285-1.045 4.235l.559.83zm1.36-5.55C20.905.813 18.539-.003 16.484.816l.37.929c1.6-.638 3.428.005 4.243 1.47l.874-.486zM16.484.816c-2.06.82-3.168 3.03-2.546 5.134l.959-.284c-.47-1.592.362-3.286 1.957-3.921l-.37-.93zm-2.3 4.55L7.554 8.859l.466.885 6.63-3.492-.467-.885zM8.16 8.969C6.955 7.617 5.017 7.148 3.31 7.785l.35.937c1.327-.496 2.828-.127 3.755.912l.746-.665zM3.31 7.785C1.599 8.423.469 10.04.5 11.842l1-.017c-.024-1.365.832-2.608 2.158-3.103l-.35-.937zM.5 11.842c.03 1.801 1.214 3.38 2.944 3.963l.32-.948c-1.343-.451-2.241-1.667-2.265-3.032l-1 .017zm2.944 3.963c1.73.581 3.65.05 4.81-1.341l-.77-.64c-.89 1.068-2.376 1.485-3.72 1.033l-.32.948zm4.206-1.211l6.508 3.169.438-.9-6.508-3.168-.438.899zm6.243 2.594c-.46 1.775.292 3.632 1.854 4.623l.536-.844c-1.205-.765-1.77-2.183-1.422-3.528l-.968-.25zm1.854 4.623a4.45 4.45 0 005.061-.21l-.605-.796a3.45 3.45 0 01-3.92.162l-.535.844zm5.061-.21c1.472-1.119 2.058-3.032 1.446-4.761l-.943.333c.465 1.312.024 2.771-1.108 3.632l.605.796zm1.446-4.761c-.611-1.728-2.275-2.875-4.132-2.873v1c1.447-.002 2.724.891 3.19 2.206l.942-.333zm-3.632-2.373v-.01h-1v.01h1zm-.5-11.349c.957 0 1.71.752 1.71 1.653h1c0-1.478-1.226-2.653-2.71-2.653v1zm1.71 1.653c0 .9-.753 1.652-1.71 1.652v1c1.484 0 2.71-1.175 2.71-2.652h-1zm-1.71 1.652c-.957 0-1.71-.752-1.71-1.652h-1c0 1.477 1.226 2.652 2.71 2.652v-1zm-1.71-1.652c0-.9.753-1.653 1.71-1.653v-1c-1.484 0-2.71 1.175-2.71 2.653h1zM4.865 13.418c-.957 0-1.71-.752-1.71-1.652h-1c0 1.477 1.226 2.652 2.71 2.652v-1zm-1.71-1.652c0-.9.753-1.653 1.71-1.653v-1c-1.484 0-2.71 1.176-2.71 2.653h1zm1.71-1.653c.956 0 1.71.753 1.71 1.653h1c0-1.477-1.226-2.653-2.71-2.653v1zm1.71 1.653c0 .9-.754 1.652-1.71 1.652v1c1.484 0 2.71-1.175 2.71-2.652h-1zm11.548 8.109c-.957 0-1.71-.752-1.71-1.652h-1c0 1.477 1.226 2.652 2.71 2.652v-1zm-1.71-1.652c0-.9.753-1.653 1.71-1.653v-1c-1.484 0-2.71 1.175-2.71 2.653h1zm1.71-1.653c.957 0 1.71.752 1.71 1.653h1c0-1.477-1.226-2.653-2.71-2.653v1zm1.71 1.653c0 .9-.753 1.652-1.71 1.652v1c1.484 0 2.71-1.175 2.71-2.652h-1z"/></symbol><symbol id="sprite-xs-facebook" viewBox="0 0 28 28" preserveAspectRatio="xMidYMid meet"><path d="M17.64 9.32h-1.32c-1 0-1.24.5-1.24 1.22v1.58h2.47l-.32 2.49h-2.15V21h-2.57v-6.39h-2.14v-2.49h2.14v-1.83A3 3 0 0115.72 7a17.74 17.74 0 011.92.1zM14 0a14 14 0 1014 14A14 14 0 0014 0z" fill-rule="evenodd"/></symbol><symbol id="sprite-xs-instagram" viewBox="0 0 28 28" preserveAspectRatio="xMidYMid meet"><path d="M14 16.7a2.69 2.69 0 10-2.68-2.7A2.69 2.69 0 0014 16.7zM17.12 11.26H19a.38.38 0 00.39-.39V9a.38.38 0 00-.39-.4h-1.88a.39.39 0 00-.4.39v1.88a.39.39 0 00.4.39z" fill-rule="evenodd"/><path d="M21 19.34A1.66 1.66 0 0119.34 21H8.66A1.66 1.66 0 017 19.34V8.66A1.66 1.66 0 018.66 7h10.68A1.66 1.66 0 0121 8.66zM14 0a14 14 0 1014 14A14 14 0 0014 0z" fill-rule="evenodd"/><path d="M18.28 14a4.26 4.26 0 11-8.37-1.13H8.6V19a.38.38 0 00.39.39H19a.38.38 0 00.39-.39v-6.11h-1.27a4.23 4.23 0 01.16 1.11z" fill-rule="evenodd"/></symbol><symbol id="sprite-xs-link" viewBox="0 0 28 28" preserveAspectRatio="xMidYMid meet"><path d="M14 0A14 14 0 110 14 14 14 0 0114 0zm0 12.07h-.09a3 3 0 00-2.32 2.16 3.42 3.42 0 00.72 3.26l2.78 3.07.14.14a2.68 2.68 0 002.65.68 3 3 0 002-2.25 3.41 3.41 0 00-.75-3.08l-1.47-1.63-.07-.06a.49.49 0 00-.66.07.63.63 0 000 .81l1.48 1.63.11.13a2.23 2.23 0 01.37 1.83 2 2 0 01-1.3 1.43 1.74 1.74 0 01-1.77-.53L13 16.67l-.11-.13a2.23 2.23 0 01-.34-1.93 1.91 1.91 0 011.47-1.37.52.52 0 00.41-.37.63.63 0 00-.08-.58.51.51 0 00-.49-.21zm-1.21-4.35A2.68 2.68 0 0010.14 7a3 3 0 00-2 2.25 3.41 3.41 0 00.75 3.08L10.32 14l.06.06a.48.48 0 00.46.1.56.56 0 00.38-.41.64.64 0 00-.15-.57l-1.48-1.63-.11-.13a2.22 2.22 0 01-.37-1.83 2 2 0 011.3-1.43 1.7 1.7 0 011.77.53L15 11.76l.11.13a2.23 2.23 0 01.34 1.93A1.9 1.9 0 0114 15.19a.57.57 0 00-.48.63.56.56 0 00.48.54h.35a3 3 0 002.13-2.13 3.4 3.4 0 00-.72-3.25l-2.83-3.12z" fill-rule="evenodd"/></symbol><symbol id="sprite-xs-linkedin" viewBox="0 0 28 28" preserveAspectRatio="xMidYMid meet"><path d="M21 21h-2.9v-4.55c0-1.09 0-2.48-1.51-2.48s-1.74 1.18-1.74 2.4V21H12v-9.35h2.78v1.28a3 3 0 012.74-1.51c2.94 0 3.48 1.93 3.48 4.45zM8.68 10.38a1.69 1.69 0 111.68-1.69 1.69 1.69 0 01-1.68 1.69zM10.13 21h-2.9v-9.35h2.9zM14 0a14 14 0 1014 14A14 14 0 0014 0z" fill-rule="evenodd"/></symbol><symbol id="sprite-xs-mail" viewBox="0 0 28 28" preserveAspectRatio="xMidYMid meet"><path d="M14 0A14 14 0 110 14 14 14 0 0114 0zm7 8.08H8a1 1 0 00-1 1v9.5a1 1 0 001 1h13a1 1 0 001-1V9.1a1 1 0 00-1-1.02zm0 3.26v6.54l-2.71-2.7a.51.51 0 00-.71 0 .5.5 0 000 .7l2.7 2.7H8.75l2.7-2.7a.5.5 0 000-.7.51.51 0 00-.71 0L8 17.88v-6.53L14.16 16a.5.5 0 00.61 0zm0-2.24v1l-6.5 4.84L8 10.07v-1z" fill-rule="evenodd"/></symbol><symbol id="sprite-xs-pinterest" viewBox="0 0 28 28" preserveAspectRatio="xMidYMid meet"><path d="M15.08 17.12a2.27 2.27 0 01-2-1s-.47 1.86-.57 2.22A8.74 8.74 0 0111.1 21a.11.11 0 01-.19-.05 8.93 8.93 0 010-3.05c.16-.66 1-4.39 1-4.39a3 3 0 01-.26-1.27c0-1.19.69-2.08 1.55-2.08a1.08 1.08 0 011.08 1.21 16.58 16.58 0 01-.71 2.85 1.25 1.25 0 001.27 1.55c1.53 0 2.55-2 2.55-4.28a3 3 0 00-3.34-3.08 3.81 3.81 0 00-4 3.85 2.29 2.29 0 00.53 1.58.38.38 0 01.11.45c0 .15-.12.5-.16.64a.28.28 0 01-.4.21A3.1 3.1 0 018.58 12c0-2.28 1.93-5 5.75-5a4.81 4.81 0 015.09 4.61c0 3.15-1.76 5.51-4.34 5.51zM14 0a14 14 0 1014 14A14 14 0 0014 0z" fill-rule="evenodd"/></symbol><symbol id="sprite-xs-twitter" viewBox="0 0 28 28" preserveAspectRatio="xMidYMid meet"><path d="M19.57 11.14v.38A8.17 8.17 0 017 18.4h.69a5.75 5.75 0 003.56-1.23 2.86 2.86 0 01-2.68-2 2.35 2.35 0 00.54.06 2.79 2.79 0 00.76-.11 2.86 2.86 0 01-2.31-2.81 2.75 2.75 0 001.3.36 2.85 2.85 0 01-1.27-2.39A2.89 2.89 0 018 8.84a8.2 8.2 0 005.93 3 2.84 2.84 0 01-.08-.66 2.87 2.87 0 015-2 5.74 5.74 0 001.82-.7 2.89 2.89 0 01-1.26 1.59A5.76 5.76 0 0021 9.66a5.92 5.92 0 01-1.43 1.48zM14 0a14 14 0 1014 14A14 14 0 0014 0z" fill-rule="evenodd"/></symbol><symbol id="sprite-xs-youtube" viewBox="0 0 28 28" preserveAspectRatio="xMidYMid meet"><path d="M21 14.53a21.07 21.07 0 01-.14 2.26 3 3 0 01-.56 1.39 2 2 0 01-1.4.6c-2 .14-4.9.14-4.9.14s-3.64 0-4.76-.14a2.36 2.36 0 01-1.54-.6 3 3 0 01-.56-1.39A21.07 21.07 0 017 14.53v-1.06a21.13 21.13 0 01.14-2.27 3.07 3.07 0 01.56-1.39 2 2 0 011.4-.59c2-.14 4.9-.14 4.9-.14s2.94 0 4.9.14a2 2 0 011.4.59 3.07 3.07 0 01.56 1.39 21.13 21.13 0 01.14 2.27zM14 0a14 14 0 1014 14A14 14 0 0014 0z" fill-rule="evenodd"/><path d="M12.55 15.82l3.79-2-3.79-2z" fill-rule="evenodd"/></symbol></svg>