<svg width="254" height="71" viewBox="0 0 254 71" fill="none" xmlns="http://www.w3.org/2000/svg">
    <path fill-rule="evenodd" clip-rule="evenodd"
        d="M232.203 69.7599H242.09V37.0824H253.851V27.1304H220.506V37.0955H232.203V69.7599Z" fill="#A06AFC" />
    <g style="mix-blend-mode:multiply" opacity="0.9">
        <path fill-rule="evenodd" clip-rule="evenodd"
            d="M220.506 27.1304H226.145C229.491 27.1304 232.204 29.8473 232.204 33.1991V37.0955H220.506V27.1304Z"
            fill="url(#p_2132fsxxf)" />
    </g>
    <path fill-rule="evenodd" clip-rule="evenodd"
        d="M208.217 42.4322C208.107 44.3077 207.039 45.9791 205.362 46.9035C204.315 47.4799 203.125 47.7691 201.724 47.7875V47.7966H200.566C200.236 47.7981 199.888 47.7991 199.506 47.7991C199.077 47.7991 198.648 47.7976 198.218 47.7966H195.443V36.5344H196.418C196.442 36.5339 196.467 36.5315 196.492 36.5315C196.977 36.531 197.462 36.53 197.947 36.529C199.206 36.5271 200.465 36.5242 201.724 36.5344C203.439 36.5484 204.835 36.9587 205.993 37.7895C207.494 38.8656 208.326 40.6016 208.217 42.4322V42.4322ZM212.258 55.4793C211.863 54.6986 211.93 54.3467 212.584 53.7669L212.599 53.7529C216.505 50.2906 218.314 45.9877 217.974 40.9637C217.761 37.8026 216.639 35.0055 214.641 32.6496C211.604 29.068 207.657 27.22 202.911 27.1577C200.805 27.1302 198.539 27.1172 195.78 27.1172C194.013 27.1172 192.245 27.1225 190.478 27.1278C188.839 27.1326 187.199 27.137 185.56 27.1375V69.444H195.443V61.8227V57.5846V57.5802H200.703C200.955 57.5788 201.207 57.5793 201.459 57.5773C202.002 57.5773 202.377 57.8124 202.622 58.2971C203.61 60.2504 204.601 62.2017 205.592 64.153C206.493 65.9262 207.393 67.6993 208.291 69.4739C210.954 69.4662 213.616 69.4657 216.279 69.4657H219.339L212.258 55.4793Z"
        fill="#A06AFC" />
    <g style="mix-blend-mode:multiply" opacity="0.9">
        <path fill-rule="evenodd" clip-rule="evenodd"
            d="M195.455 36.7725H191.209C188.089 36.7725 185.56 39.306 185.56 42.4309V69.6078H195.455V36.7725Z"
            fill="url(#p_443dsf)" />
    </g>
    <g style="mix-blend-mode:multiply" opacity="0.5">
        <path fill-rule="evenodd" clip-rule="evenodd"
            d="M201.333 57.7273C201.876 57.7273 202.251 57.9624 202.496 58.4471C203.484 60.4004 204.475 62.3517 205.466 64.303C206.367 66.0761 207.267 67.8493 208.166 69.6235C210.828 69.6162 213.49 69.6157 216.153 69.6157H219.213L212.132 55.6293C211.737 54.8486 211.804 54.4967 212.458 53.9164L212.474 53.9029C212.519 53.8628 212.563 53.8218 212.607 53.7817C211.84 54.4499 207.606 57.7872 199.648 57.7302H200.577C200.829 57.7288 201.081 57.7293 201.333 57.7273"
            fill="url(#_dsfsd334)" />
    </g>
    <path fill-rule="evenodd" clip-rule="evenodd"
        d="M170.254 55.4407C168.654 57.5151 166.464 58.9045 163.918 59.4587C163.108 59.6349 162.305 59.7237 161.528 59.7237C158.763 59.7237 156.257 58.6216 154.079 56.4477C151.418 53.7921 150.274 50.1376 150.941 46.4208C151.598 42.7577 154 39.6521 157.367 38.114C158.724 37.4941 160.177 37.1799 161.687 37.1799C164.851 37.1799 167.854 38.5649 169.925 40.9801C171.71 43.0599 172.703 45.5451 172.723 47.9768C172.712 50.7811 171.858 53.359 170.254 55.4407M179.367 59.7343C182.342 54.8179 183.279 49.5742 182.153 44.148C181.175 39.4377 178.836 35.4767 175.199 32.3754C171.21 28.9744 166.772 27.2495 162.007 27.2495C160.383 27.2495 158.697 27.4513 156.996 27.8491C146.518 30.2976 139.526 40.6157 141.078 51.3392C141.918 57.1477 144.612 61.8174 149.085 65.218C152.181 67.5714 155.463 68.9912 158.873 69.4614C158.974 69.474 159.074 69.4894 159.176 69.5001C159.235 69.5073 159.293 69.5126 159.352 69.5194C160.046 69.5879 160.751 69.6246 161.463 69.6246C162.121 69.6246 162.771 69.5903 163.414 69.5314C165.307 69.3374 167.249 68.8734 169.212 68.1426C169.279 68.117 169.349 68.0957 169.425 68.0735L169.453 68.0643C172.952 66.6431 175.986 64.3172 178.268 61.3752C178.299 61.3178 178.334 61.2608 178.375 61.2039C178.664 60.8046 179.039 60.277 179.367 59.7343"
        fill="#A06AFC" />
    <g style="mix-blend-mode:multiply" opacity="0.9">
        <path fill-rule="evenodd" clip-rule="evenodd"
            d="M182.153 44.1481L182.153 44.1467C182.144 44.1061 182.134 44.0665 182.125 44.0265C181.33 40.3541 178.704 37.3374 175.193 36.0049C173.033 35.1857 170.781 34.7725 168.451 34.7725C166.828 34.7725 165.142 34.9743 163.44 35.3716C160.278 36.1112 157.435 37.5691 155.047 39.5368C155.103 39.4924 155.161 39.4518 155.218 39.4089C155.34 39.3157 155.461 39.2216 155.587 39.1332C155.655 39.0854 155.728 39.0415 155.798 38.9947C155.916 38.9155 156.033 38.8344 156.155 38.76C156.259 38.6963 156.366 38.6389 156.471 38.5785C156.564 38.5254 156.655 38.4699 156.749 38.4197C156.92 38.328 157.096 38.2435 157.273 38.1609C157.304 38.1455 157.335 38.1286 157.367 38.1141C158.724 37.4943 160.177 37.1795 161.686 37.1795C164.851 37.1795 167.855 38.565 169.926 40.9798C171.152 42.4102 172.005 44.0318 172.425 45.6954C172.428 45.7084 172.431 45.7214 172.434 45.7345C172.525 46.1038 172.593 46.4745 172.642 46.8467C172.664 47.0205 172.683 47.1948 172.696 47.3691C172.711 47.5718 172.722 47.7746 172.723 47.9769C172.712 50.7812 171.858 53.3592 170.253 55.4413C169.354 56.6076 168.267 57.5572 167.036 58.264C166.762 58.4209 166.481 58.5662 166.193 58.6989C165.474 59.0306 164.713 59.2855 163.917 59.4588C163.77 59.4907 163.623 59.5167 163.475 59.5433C162.816 59.6611 162.163 59.7243 161.528 59.7243C158.764 59.7243 156.257 58.6212 154.079 56.4478C153.503 55.8724 153.002 55.2482 152.571 54.5883C152.451 54.4048 152.337 54.218 152.228 54.0292C152.109 53.8212 151.997 53.6107 151.892 53.3963C151.643 52.8899 151.43 52.3685 151.262 51.8322C151.128 51.4045 151.02 50.9685 150.939 50.5263C150.695 49.1997 150.691 47.8147 150.941 46.4214C150.977 46.2172 151.021 46.0159 151.068 45.816C151.081 45.7634 151.094 45.7103 151.107 45.6577C151.152 45.4815 151.199 45.3058 151.252 45.1325C151.259 45.1083 151.265 45.0837 151.273 45.06C151.333 44.8669 151.398 44.6772 151.468 44.4885C151.486 44.4387 151.506 44.389 151.525 44.3388C151.585 44.1829 151.649 44.0279 151.716 43.8749C151.732 43.8382 151.747 43.801 151.763 43.7643C151.844 43.5838 151.93 43.4066 152.02 43.2314C152.044 43.185 152.069 43.1396 152.093 43.0938C152.168 42.9528 152.245 42.8133 152.326 42.6757C152.351 42.6327 152.376 42.5893 152.401 42.5473C152.502 42.3803 152.607 42.2161 152.716 42.0549C152.743 42.0148 152.772 41.9752 152.8 41.9352C152.89 41.8063 152.982 41.6793 153.077 41.5547C153.111 41.5098 153.144 41.4649 153.179 41.4215C153.298 41.2685 153.421 41.1188 153.547 40.9725C153.575 40.9402 153.604 40.9103 153.632 40.8789C153.739 40.7587 153.848 40.6414 153.959 40.526C154 40.4835 154.042 40.4405 154.084 40.3985C154.219 40.2629 154.356 40.1296 154.499 40.0012C149.319 44.5749 146.469 51.6265 147.522 58.8621C147.527 58.8969 147.532 58.9307 147.538 58.9654C148.242 63.6149 151.551 67.4755 156.039 68.8403C156.107 68.8605 156.174 68.8818 156.241 68.9011C156.335 68.9281 156.429 68.9537 156.522 68.9793C156.647 69.0131 156.774 69.0474 156.9 69.0792C156.973 69.0971 157.046 69.114 157.119 69.1314C157.265 69.1656 157.411 69.1999 157.557 69.2308C157.609 69.2419 157.662 69.252 157.714 69.2627C157.881 69.2965 158.047 69.3288 158.214 69.3583C158.244 69.3631 158.274 69.3679 158.304 69.3732C158.492 69.4046 158.68 69.435 158.869 69.4611C158.974 69.4756 159.079 69.4881 159.184 69.5012C159.24 69.5074 159.296 69.5127 159.352 69.5195C160.047 69.5876 160.751 69.6243 161.463 69.6243C162.121 69.6243 162.771 69.59 163.414 69.5316C163.662 69.506 163.911 69.4756 164.161 69.4408C164.297 69.422 164.434 69.3993 164.57 69.3776C164.724 69.3529 164.877 69.3274 165.031 69.2998C165.164 69.2757 165.297 69.2511 165.431 69.224C165.62 69.1864 165.811 69.1449 166 69.1019C166.095 69.0802 166.191 69.0609 166.286 69.0387C166.563 68.9721 166.841 68.8992 167.119 68.8214C167.218 68.7944 167.317 68.7645 167.416 68.7355C167.625 68.6747 167.835 68.6109 168.045 68.5434C168.138 68.5139 168.23 68.484 168.324 68.4536C168.619 68.3551 168.915 68.2527 169.211 68.1422C169.242 68.1311 169.275 68.1219 169.306 68.1123C169.345 68.0992 169.383 68.0862 169.425 68.0736L169.453 68.0645C172.952 66.6432 175.986 64.3168 178.268 61.3754C178.299 61.3174 178.334 61.2609 178.375 61.2045L178.375 61.204C178.664 60.8047 179.039 60.2766 179.367 59.734C181.598 56.0467 182.683 52.1754 182.611 48.1811C182.587 46.8496 182.435 45.5047 182.153 44.1481"
            fill="url(#xcvxc3_linear)" />
    </g>
    <path fill-rule="evenodd" clip-rule="evenodd"
        d="M116.131 36.7647L116.865 36.7101C116.942 36.7034 117.028 36.6951 117.125 36.6947C117.611 36.6947 118.095 36.6942 118.58 36.6932C119.861 36.6898 121.143 36.6874 122.425 36.6985C124.103 36.714 125.478 37.1156 126.63 37.9271C128.145 38.9945 128.988 40.7305 128.888 42.5703C128.784 44.4569 127.718 46.1369 126.036 47.0653C124.98 47.6475 123.773 47.9381 122.345 47.9526C121.705 47.9593 121.019 47.9622 120.185 47.9622H120.182C119.636 47.9622 119.089 47.9608 118.542 47.9598C118.065 47.9584 117.588 47.9579 117.111 47.9574C117.015 47.9574 116.931 47.9482 116.858 47.94C116.832 47.9376 116.805 47.9347 116.778 47.9323L116.131 47.8773V36.7647ZM116.119 57.7478H117.265C117.762 57.7478 118.26 57.7511 118.758 57.754C119.253 57.7565 119.748 57.7594 120.243 57.7594C121.017 57.7594 121.652 57.7526 122.24 57.7362C123.15 57.712 124.341 57.6594 125.487 57.4707C128.868 56.9111 131.751 55.4783 134.055 53.2108C137.984 49.3429 139.43 44.5709 138.35 39.0274C137.709 35.7369 136.036 32.9673 133.376 30.7939C130.597 28.5235 127.32 27.3547 123.633 27.3209C121.401 27.3002 118.967 27.2905 115.974 27.2905C114.323 27.2905 112.671 27.2934 111.02 27.2963C109.425 27.2992 107.83 27.3011 106.236 27.3016V69.6H116.119V57.7478Z"
        fill="#A06AFC" />
    <g style="mix-blend-mode:multiply" opacity="0.9">
        <path fill-rule="evenodd" clip-rule="evenodd"
            d="M116.131 36.7646H111.884C108.765 36.7646 106.236 39.2982 106.236 42.4231V69.6H116.131V36.7646Z"
            fill="url(#xcvxc4_linear)" />
    </g>
    <path fill-rule="evenodd" clip-rule="evenodd"
        d="M80.2676 36.7647L81.0016 36.7101C81.0783 36.7034 81.1641 36.6951 81.2614 36.6947C81.7468 36.6947 82.2316 36.6942 82.7165 36.6932C83.9981 36.6898 85.2796 36.6874 86.5617 36.6985C88.2389 36.714 89.6145 37.1156 90.7659 37.9271C92.2808 38.9945 93.1247 40.7305 93.024 42.5703C92.9204 44.4569 91.8547 46.1369 90.1726 47.0653C89.1166 47.6475 87.9093 47.9381 86.4812 47.9526C85.8411 47.9593 85.1553 47.9622 84.3215 47.9622H84.3186C83.772 47.9622 83.2255 47.9608 82.6784 47.9598C82.2013 47.9584 81.7241 47.9579 81.247 47.9574C81.1515 47.9574 81.0677 47.9482 80.9939 47.94C80.9679 47.9376 80.9414 47.9347 80.9139 47.9323L80.2676 47.8773V36.7647ZM80.2557 57.7478H81.4013C81.8987 57.7478 82.3966 57.7511 82.8945 57.754C83.3895 57.7565 83.8844 57.7594 84.3794 57.7594C85.1535 57.7594 85.7882 57.7526 86.3767 57.7362C87.2867 57.712 88.4776 57.6594 89.6228 57.4707C93.0043 56.9111 95.887 55.4783 98.1909 53.2108C102.12 49.3429 103.566 44.5709 102.486 39.0274C101.846 35.7369 100.172 32.9673 97.5127 30.7939C94.7337 28.5235 91.4558 27.3547 87.7696 27.3209C85.5376 27.3002 83.1036 27.2905 80.1111 27.2905C78.4593 27.2905 76.8076 27.2934 75.1564 27.2963C73.5615 27.2992 71.9667 27.3011 70.3723 27.3016V69.6H80.2557V57.7478Z"
        fill="#A06AFC" />
    <g style="mix-blend-mode:multiply" opacity="0.9">
        <path fill-rule="evenodd" clip-rule="evenodd"
            d="M80.2675 36.7646H76.0208C72.901 36.7646 70.3721 39.2982 70.3721 42.4231V69.6H80.2675V36.7646Z"
            fill="url(#xcvxc5_linear)" />
    </g>
    <path fill-rule="evenodd" clip-rule="evenodd"
        d="M42.3293 33.4235V27.1182H32.3799L32.3794 52.8487C32.3794 54.2362 32.5071 55.4817 32.7698 56.6567C34.4953 64.3794 41.1581 69.7723 48.9728 69.7723C51.0665 69.7723 53.1279 69.3808 55.1001 68.6098C61.4887 66.1101 65.6211 59.9515 65.6278 52.9207C65.6336 46.8287 65.6322 40.7368 65.6307 34.6453C65.6303 32.1393 65.6298 29.6333 65.6298 27.1273H55.678V31.282C55.678 38.38 55.678 45.4775 55.6756 52.5755C55.6751 53.0365 55.6708 53.4884 55.6134 53.9422C55.3074 56.3806 54.1072 58.1286 52.0473 59.1371C50.8409 59.728 49.4644 59.9187 47.9288 59.7039C45.9923 59.434 44.4837 58.5023 43.4455 56.9343C42.6936 55.7979 42.3278 54.4471 42.3283 52.8043C42.3297 46.344 42.3297 39.8838 42.3293 33.4235"
        fill="#A06AFC" />
    <g style="mix-blend-mode:multiply" opacity="0.9">
        <path fill-rule="evenodd" clip-rule="evenodd"
            d="M65.6289 51.5077V51.3344V27.1274H55.6786V31.2825C55.6786 38.3801 55.6786 45.4776 55.6762 52.5756C55.6757 53.0366 55.6709 53.489 55.614 53.9423C55.3075 56.3807 54.1078 58.1287 52.0474 59.1372C50.8415 59.7281 49.4645 59.9188 47.9294 59.7045C46.0743 59.4457 44.6134 58.5782 43.5811 57.128C44.9446 59.7552 47.8658 62.1525 52.8884 62.2781C60.6381 62.4716 65.8969 56.8996 65.6289 51.7713V51.5077Z"
            fill="url(#xcvxc6_linear)" />
    </g>
    <path fill-rule="evenodd" clip-rule="evenodd"
        d="M24.8738 47.114C22.9527 45.646 20.6532 44.6447 17.638 43.9626C16.9603 43.8091 16.2629 43.6715 15.5877 43.5377C14.9143 43.4045 14.2184 43.2669 13.5325 43.1129C12.7633 42.9396 11.7695 42.649 10.9029 41.9355C10.3202 41.4556 10.0021 40.8488 9.95725 40.1324C9.88399 38.9675 10.4455 38.071 11.6263 37.4671C12.4081 37.0668 13.2684 36.8723 14.2569 36.8723C14.6864 36.8723 15.1414 36.9085 15.6469 36.9838C17.1001 37.1991 18.5012 37.7282 19.9307 38.6015C20.1582 38.7406 20.3833 38.8859 20.6036 39.0293L26.3892 31.6252C25.4156 30.8861 23.9846 29.9785 22.8418 29.3886C19.8787 27.8602 17.0307 27.1172 14.136 27.1172C13.5229 27.1172 12.9002 27.1519 12.2861 27.22C9.01644 27.584 6.22292 28.8561 3.98271 31.0005C0.728423 34.1172 -0.541096 37.9807 0.208855 42.4829C0.697576 45.4157 2.23314 47.8275 4.90328 49.8556C6.63693 51.1721 8.67616 52.1226 11.1371 52.7613C12.1319 53.0196 13.1715 53.218 14.1769 53.4092C14.7057 53.5101 15.2527 53.6144 15.7911 53.7268C16.6172 53.8997 17.5695 54.1319 18.4188 54.7136C19.0781 55.165 19.4685 55.7506 19.5794 56.454C19.6975 57.2056 19.5789 58.2831 18.3436 59.1497C17.5633 59.6962 16.6186 59.9762 15.4551 60.0042C13.7957 60.0442 12.1459 59.6411 10.5506 58.805C10.044 58.54 9.55384 58.2387 9.07958 57.9476C9.03861 57.9225 8.99764 57.8969 8.95619 57.8718L3.1836 65.2571C3.37831 65.4029 3.56773 65.5424 3.75907 65.6775C7.17915 68.0909 10.5655 69.4093 14.1128 69.7081C14.6285 69.7515 15.1418 69.7737 15.6373 69.7737C18.1436 69.7737 20.4378 69.2075 22.4563 68.0904C27.3599 65.3777 29.7427 61.2666 29.5384 55.8717C29.4034 52.3225 27.8341 49.3757 24.8738 47.114"
        fill="#A06AFC" />
    <g style="mix-blend-mode:multiply" opacity="0.9">
        <path fill-rule="evenodd" clip-rule="evenodd"
            d="M24.874 47.114C22.9374 45.6658 20.6533 44.6442 17.6381 43.9621C16.9604 43.8091 16.2626 43.6715 15.5878 43.5378C14.9145 43.4045 14.218 43.2674 13.5322 43.1124C12.7634 42.9391 11.7691 42.649 10.9025 41.9355C10.3198 41.4556 10.0017 40.8488 9.95689 40.1324C9.88411 38.968 10.4456 38.0705 11.626 37.4666C12.4077 37.0669 13.268 36.8723 14.2566 36.8723C14.6865 36.8723 15.141 36.9085 15.6471 36.9833C16.5363 37.1156 17.4058 37.3657 18.2743 37.7398C15.5777 36.5102 10.891 35.1561 6.10207 37.4511C1.23173 39.7858 0.540094 46.5004 4.82339 49.7943C4.8499 49.8146 4.87641 49.8349 4.9034 49.8551C6.63706 51.1721 8.67581 52.1227 11.1372 52.7613C12.1316 53.0196 13.1712 53.2175 14.1766 53.4097C14.7058 53.5101 15.2528 53.6139 15.7912 53.7269C16.6173 53.8992 17.5692 54.1319 18.4189 54.7136C19.0778 55.1645 19.4686 55.7501 19.579 56.454C19.6971 57.2056 19.5785 58.2831 18.3437 59.1492C17.5634 59.6962 16.6187 59.9757 15.4552 60.0042C14.0392 60.038 12.6309 59.7483 11.2573 59.1439C13.9838 60.4401 18.7553 62.0593 23.4873 60.541C28.4362 58.9532 30.2138 52.7633 26.7754 48.8602C26.2471 48.2606 25.6191 47.6716 24.874 47.114"
            fill="url(#xcvxc7_linear)" />
    </g>
    <g style="mix-blend-mode:multiply" opacity="0.9">
        <path fill-rule="evenodd" clip-rule="evenodd"
            d="M29.5379 55.8716C29.443 53.3724 28.6332 51.1734 27.1309 49.3003C30.0767 53.2126 28.2544 59.0119 23.4872 60.5413C18.7552 62.0596 13.9837 60.4404 11.2571 59.1442L11.2576 59.1447C11.0205 59.0409 10.7848 58.9279 10.5506 58.8053C10.044 58.5398 9.55336 58.2386 9.07958 57.9479C9.03813 57.9224 8.99716 57.8973 8.95571 57.8722L3.18359 65.2574C3.37831 65.4027 3.56773 65.5422 3.75907 65.6779C7.17915 68.0912 10.5655 69.4091 14.1123 69.7079C14.6285 69.7514 15.1414 69.7736 15.6373 69.7736C18.1436 69.7736 20.4373 69.2073 22.4563 68.0907C27.3599 65.3781 29.7423 61.2669 29.5379 55.8716"
            fill="url(#xcvxc8_linear)" />
    </g>
    <path fill-rule="evenodd" clip-rule="evenodd"
        d="M20.2428 17.4281C18.2121 19.127 15.3857 20.436 11.9008 20.436C5.91865 20.436 1.4458 16.2583 1.4458 10.3538V10.2981C1.4458 4.61639 5.83633 0.160156 11.791 0.160156C15.1662 0.160156 17.5536 1.21851 19.5842 3.001L16.4559 6.81665C15.0839 5.64689 13.7118 4.97846 11.8184 4.97846C9.04691 4.97846 6.90652 7.34583 6.90652 10.3259V10.3816C6.90652 13.5289 9.07435 15.7848 12.1203 15.7848C13.41 15.7848 14.3979 15.5063 15.1937 14.9771V12.6098H11.4068V8.65485H20.2428V17.4281ZM28.5067 14.105V19.9533H23.1346V0.642915H32.3003C35.2633 0.642915 37.3124 1.41533 38.6139 2.73947C39.7492 3.84292 40.3307 5.33257 40.3307 7.23602V7.29119C40.3307 10.2429 38.7523 12.2015 36.3432 13.2222L40.9676 19.9533H34.7648L30.8604 14.105H28.5067ZM31.8932 9.81533H28.4363V4.98774H31.8662C33.6217 4.98774 34.702 5.79234 34.702 7.3728V7.43027C34.702 8.89579 33.6757 9.81533 31.8932 9.81533ZM63.1384 10.2981C63.1384 15.8962 58.6856 20.436 52.7485 20.436C46.8114 20.436 42.4135 15.9519 42.4135 10.3538V10.2981C42.4135 4.69994 46.8664 0.160156 52.8035 0.160156C58.7406 0.160156 63.1384 4.64424 63.1384 10.2424V10.2981ZM52.7902 15.6084C49.7849 15.6084 47.7153 13.1359 47.7153 10.2981V10.2419C47.7153 7.40409 49.7282 4.98774 52.7334 4.98774C55.767 4.98774 57.8367 7.46028 57.8367 10.2981V10.3543C57.8367 13.1921 55.8237 15.6084 52.7902 15.6084ZM84.3452 11.4139C84.3452 17.6877 80.7216 20.436 75.1316 20.436C69.5415 20.436 66.0302 17.6322 66.0302 11.5527V0.642915H71.5641V11.4417C71.5641 14.2455 72.9967 15.578 75.1877 15.578C77.3788 15.578 78.8114 14.301 78.8114 11.5805V0.642915H84.3452V11.4139ZM92.6162 19.9533V14.436H95.2781C100.103 14.436 103.624 12.036 103.624 7.48429V7.42912C103.624 3.15326 100.463 0.642915 95.5554 0.642915H87.2371V19.9533H92.6162ZM92.5388 10.2981H95.16C97.1258 10.2981 98.3225 9.26472 98.3225 7.68597V7.62856C98.3225 5.90629 97.1258 4.98774 95.1315 4.98774H92.5388V10.2981ZM113.644 20.436C118.337 20.436 121.457 18.0556 121.457 14.0508V13.9948C121.457 10.3261 118.696 8.86981 114.251 7.88963C111.573 7.27351 110.911 6.88144 110.911 5.98527V5.92926C110.911 5.22912 111.546 4.66901 112.843 4.66901C114.555 4.66901 116.488 5.34114 118.255 6.60138L120.933 2.76465C118.834 1.05633 116.267 0.160156 112.981 0.160156C108.343 0.160156 105.499 2.79266 105.499 6.43335V6.48936C105.499 10.5221 108.674 11.6984 112.788 12.6505C115.411 13.2667 116.046 13.7147 116.046 14.5269V14.5829C116.046 15.4231 115.273 15.9272 113.837 15.9272C111.601 15.9272 109.475 15.115 107.57 13.5747L104.588 17.1874C106.962 19.3438 110.22 20.436 113.644 20.436ZM141.714 5.33257V19.9533H136.384V5.33257H130.615V0.642915H147.484V5.33257H141.714ZM158.783 20.436C164.72 20.436 169.173 15.8962 169.173 10.2981V10.2424C169.173 4.64424 164.775 0.160156 158.838 0.160156C152.901 0.160156 148.448 4.69994 148.448 10.2981V10.3538C148.448 15.9519 152.846 20.436 158.783 20.436ZM153.749 10.2981C153.749 13.1359 155.819 15.6084 158.824 15.6084C161.858 15.6084 163.871 13.1921 163.871 10.3543V10.2981C163.871 7.46028 161.801 4.98774 158.768 4.98774C155.762 4.98774 153.749 7.40409 153.749 10.2419V10.2981Z"
        fill="#2D2C31" />
    <defs>
        <linearGradient id="p_2132fsxxf" x1="230.114" y1="40.5225" x2="237.757" y2="27.1848"
            gradientUnits="userSpaceOnUse">
            <stop stop-color="white" />
            <stop offset="1" stop-color="#231F1F" />
        </linearGradient>
        <linearGradient id="p_443dsf" x1="194.253" y1="54.8555" x2="194.253" y2="30.0001"
            gradientUnits="userSpaceOnUse">
            <stop stop-color="white" />
            <stop offset="1" stop-color="#231F1F" />
        </linearGradient>
        <linearGradient id="_dsfsd334" x1="221.108" y1="67.157" x2="221.108" y2="48.2465"
            gradientUnits="userSpaceOnUse">
            <stop stop-color="white" />
            <stop offset="1" stop-color="#231F1F" />
        </linearGradient>
        <linearGradient id="xcvxc3_linear" x1="177.483" y1="47.8017" x2="160.916" y2="30.7689"
            gradientUnits="userSpaceOnUse">
            <stop stop-color="white" />
            <stop offset="1" stop-color="#231F1F" />
        </linearGradient>
        <linearGradient id="xcvxc4_linear" x1="114.929" y1="54.8477" x2="114.929" y2="29.9923"
            gradientUnits="userSpaceOnUse">
            <stop stop-color="white" />
            <stop offset="1" stop-color="#231F1F" />
        </linearGradient>
        <linearGradient id="xcvxc5_linear" x1="79.065" y1="54.8477" x2="79.065" y2="29.9923"
            gradientUnits="userSpaceOnUse">
            <stop stop-color="white" />
            <stop offset="1" stop-color="#231F1F" />
        </linearGradient>
        <linearGradient id="xcvxc6_linear" x1="41.8373" y1="37.5622" x2="41.8373" y2="78.2766"
            gradientUnits="userSpaceOnUse">
            <stop stop-color="white" />
            <stop offset="1" stop-color="#231F1F" />
        </linearGradient>
        <linearGradient id="xcvxc7_linear" x1="25.7065" y1="50.7623" x2="23.786" y2="31.7843"
            gradientUnits="userSpaceOnUse">
            <stop stop-color="white" />
            <stop offset="1" stop-color="#231F1F" />
        </linearGradient>
        <linearGradient id="xcvxc8_linear" x1="30.2605" y1="65.8831" x2="27.1443" y2="47.0041"
            gradientUnits="userSpaceOnUse">
            <stop stop-color="white" />
            <stop offset="1" />
        </linearGradient>
    </defs>
</svg>