<svg class="svg-support-logo" width="254" height="71" viewBox="0 0 254 71" fill="none" xmlns="http://www.w3.org/2000/svg"><path fill-rule="evenodd" clip-rule="evenodd" d="M232.203 69.76h9.887V37.082h11.761V27.13h-33.345v9.966h11.697V69.76z" fill="#A06AFC"/><path fill-rule="evenodd" clip-rule="evenodd" d="M220.506 27.13h5.639a6.064 6.064 0 016.059 6.07v3.895h-11.698V27.13z" fill="url(#p_2132fsxxf)" opacity=".9"/><path fill-rule="evenodd" clip-rule="evenodd" d="M208.217 42.432c-.11 1.876-1.178 3.547-2.855 4.471-1.047.577-2.237.866-3.638.885v.009h-1.158l-1.06.002-1.288-.002h-2.775V36.534h.975l.074-.002 1.455-.003c1.259-.002 2.518-.005 3.777.005 1.715.014 3.111.425 4.269 1.255a5.302 5.302 0 012.224 4.643zm4.041 13.047c-.395-.78-.328-1.132.326-1.712l.015-.014c3.906-3.462 5.715-7.765 5.375-12.79-.213-3.16-1.335-5.958-3.333-8.313-3.037-3.582-6.984-5.43-11.73-5.492-2.106-.028-4.372-.04-7.131-.04-1.767 0-3.535.005-5.302.01-1.639.005-3.279.009-4.918.01v42.306h9.883V57.58h5.26c.252-.001.504 0 .756-.003.543 0 .918.235 1.163.72a4013.96 4013.96 0 002.97 5.856c.901 1.773 1.801 3.546 2.699 5.32 2.663-.007 5.325-.007 7.988-.007h3.06l-7.081-13.987z" fill="#A06AFC"/><path fill-rule="evenodd" clip-rule="evenodd" d="M195.455 36.773h-4.246a5.654 5.654 0 00-5.649 5.658v27.177h9.895V36.772z" fill="url(#p_443dsf)" opacity=".9"/><path fill-rule="evenodd" clip-rule="evenodd" d="M201.333 57.727c.543 0 .918.235 1.163.72a4013.96 4013.96 0 002.97 5.856c.901 1.773 1.801 3.546 2.7 5.32a2912.5 2912.5 0 017.987-.007h3.06l-7.081-13.987c-.395-.78-.328-1.132.326-1.713l.016-.013.133-.121c-.767.668-5.001 4.005-12.959 3.948h.929c.252-.001.504 0 .756-.003" fill="url(#_dsfsd334)" opacity=".5"/><path fill-rule="evenodd" clip-rule="evenodd" d="M170.254 55.44a10.815 10.815 0 01-6.336 4.019c-.81.176-1.613.265-2.39.265-2.765 0-5.271-1.102-7.449-3.276-2.661-2.656-3.805-6.31-3.138-10.027a11.322 11.322 0 016.426-8.307c1.357-.62 2.81-.934 4.32-.934 3.164 0 6.167 1.385 8.238 3.8 1.785 2.08 2.778 4.565 2.798 6.997-.011 2.804-.865 5.382-2.469 7.464m9.113 4.293c2.975-4.916 3.912-10.16 2.786-15.586-.978-4.71-3.317-8.671-6.954-11.773-3.989-3.4-8.427-5.125-13.192-5.125-1.624 0-3.31.201-5.011.6-10.478 2.448-17.47 12.766-15.918 23.49.84 5.808 3.534 10.477 8.007 13.878 3.096 2.353 6.378 3.773 9.788 4.243.101.013.201.028.303.04l.176.018c.694.069 1.399.106 2.111.106.658 0 1.308-.035 1.951-.094 1.893-.194 3.835-.658 5.798-1.388a2.78 2.78 0 01.213-.07l.028-.009a21.327 21.327 0 008.815-6.689c.031-.057.066-.114.107-.171.289-.4.664-.927.992-1.47" fill="#A06AFC"/><path fill-rule="evenodd" clip-rule="evenodd" d="M182.153 44.148v-.001l-.028-.12c-.795-3.673-3.421-6.69-6.932-8.022a18.877 18.877 0 00-6.742-1.233 22.11 22.11 0 00-5.011.6 20.532 20.532 0 00-8.393 4.165c.056-.045.114-.085.171-.128.122-.093.243-.187.369-.276.068-.048.141-.092.211-.138.118-.08.235-.16.357-.235.104-.064.211-.121.316-.181.093-.054.184-.11.278-.16.171-.091.347-.175.524-.258l.094-.047c1.357-.62 2.81-.934 4.319-.934a10.85 10.85 0 018.24 3.8c1.226 1.43 2.079 3.052 2.499 4.715l.009.04a10.213 10.213 0 01.262 1.634c.015.203.026.406.027.608-.011 2.804-.865 5.382-2.47 7.464a10.923 10.923 0 01-3.217 2.823 11.022 11.022 0 01-3.119 1.195c-.147.032-.294.058-.442.084-.659.118-1.312.181-1.947.181-2.764 0-5.271-1.103-7.449-3.276a11.55 11.55 0 01-2.187-3.052 10.998 10.998 0 01-.63-1.564 10.992 10.992 0 01-.323-1.306 11.462 11.462 0 01.129-4.71l.039-.158c.045-.177.092-.352.145-.526l.021-.072c.06-.193.125-.383.195-.572l.057-.15c.06-.155.124-.31.191-.463l.047-.11c.081-.181.167-.358.257-.534l.073-.137c.075-.141.152-.28.233-.418l.075-.129c.101-.167.206-.33.315-.492l.084-.12c.09-.129.182-.256.277-.38.034-.045.067-.09.102-.133.119-.153.242-.303.368-.45l.085-.093a12.453 12.453 0 01.867-.878c-5.18 4.574-8.03 11.626-6.977 18.861l.016.103c.704 4.65 4.013 8.51 8.501 9.875.068.02.135.042.202.061l.281.078c.125.034.252.068.378.1l.219.052c.146.035.292.069.438.1l.157.032a20.453 20.453 0 00.59.11c.188.032.376.062.565.088.105.015.21.027.315.04l.168.018c.695.069 1.399.105 2.111.105.658 0 1.308-.034 1.951-.092.248-.026.497-.056.747-.091.136-.019.273-.042.409-.063a25.48 25.48 0 00.861-.154c.189-.038.38-.08.569-.122.095-.022.191-.041.286-.063.277-.067.555-.14.833-.218a23.576 23.576 0 00.926-.278l.279-.09c.295-.098.591-.2.887-.31.031-.012.064-.021.095-.03.039-.014.077-.027.119-.04l.028-.008a21.333 21.333 0 008.815-6.69c.031-.058.066-.114.107-.17v-.001c.289-.4.664-.927.992-1.47 2.231-3.687 3.316-7.559 3.244-11.553a21.707 21.707 0 00-.458-4.033" fill="url(#xcvxc3_linear)" opacity=".9"/><path fill-rule="evenodd" clip-rule="evenodd" d="M116.131 36.765l.734-.055c.077-.007.163-.015.26-.015.486 0 .97 0 1.455-.002 1.281-.003 2.563-.006 3.845.006 1.678.015 3.053.417 4.205 1.228a5.3 5.3 0 012.258 4.643c-.104 1.887-1.17 3.567-2.852 4.495-1.056.583-2.263.873-3.691.888-.64.006-1.326.01-2.16.01h-.003l-1.64-.003-1.431-.003c-.096 0-.18-.009-.253-.017l-.08-.008-.647-.055V36.765zm-.012 20.983h1.146c.497 0 .995.003 1.493.006.495.003.99.005 1.485.005.774 0 1.409-.006 1.997-.023.91-.024 2.101-.077 3.247-.265 3.381-.56 6.264-1.993 8.568-4.26 3.929-3.868 5.375-8.64 4.295-14.184-.641-3.29-2.314-6.06-4.974-8.233-2.779-2.27-6.056-3.44-9.743-3.473-2.232-.02-4.666-.03-7.659-.03-1.651 0-3.303.002-4.954.005l-4.784.006V69.6h9.883V57.748z" fill="#A06AFC"/><path fill-rule="evenodd" clip-rule="evenodd" d="M116.131 36.765h-4.247a5.654 5.654 0 00-5.648 5.658V69.6h9.895V36.765z" fill="url(#xcvxc4_linear)" opacity=".9"/><path fill-rule="evenodd" clip-rule="evenodd" d="M80.268 36.765l.734-.055c.076-.007.162-.015.26-.015.485 0 .97 0 1.454-.002 1.282-.003 2.564-.006 3.846.006 1.677.015 3.053.417 4.204 1.228a5.298 5.298 0 012.258 4.643c-.104 1.887-1.17 3.567-2.851 4.495-1.056.583-2.264.873-3.692.888-.64.006-1.326.01-2.16.01h-.002c-.547 0-1.094-.002-1.64-.003l-1.432-.003c-.096 0-.18-.009-.253-.017l-.08-.008-.646-.055V36.765zm-.012 20.983H81.4c.498 0 .996.003 1.493.006.495.003.99.005 1.485.005.774 0 1.41-.006 1.998-.023.91-.024 2.1-.077 3.246-.265 3.381-.56 6.264-1.993 8.568-4.26 3.929-3.868 5.375-8.64 4.295-14.184-.64-3.29-2.314-6.06-4.973-8.233-2.78-2.27-6.057-3.44-9.743-3.473-2.232-.02-4.666-.03-7.659-.03-1.652 0-3.303.002-4.955.005l-4.784.006V69.6h9.884V57.748z" fill="#A06AFC"/><path fill-rule="evenodd" clip-rule="evenodd" d="M80.267 36.765h-4.246a5.654 5.654 0 00-5.649 5.658V69.6h9.895V36.765z" fill="url(#xcvxc5_linear)" opacity=".9"/><path fill-rule="evenodd" clip-rule="evenodd" d="M42.33 33.423v-6.305h-9.95v25.73c0 1.388.127 2.634.39 3.809 1.725 7.722 8.388 13.115 16.203 13.115 2.093 0 4.155-.391 6.127-1.162 6.389-2.5 10.521-8.658 10.528-15.69.006-6.091.004-12.183.003-18.275l-.001-7.518h-9.952v4.155c0 7.098 0 14.195-.002 21.293 0 .461-.005.913-.063 1.367-.306 2.439-1.506 4.187-3.566 5.195-1.206.591-2.583.782-4.118.567-1.937-.27-3.445-1.202-4.483-2.77-.752-1.136-1.118-2.487-1.118-4.13.002-6.46.002-12.92.001-19.38" fill="#A06AFC"/><path fill-rule="evenodd" clip-rule="evenodd" d="M65.629 51.508V27.127h-9.95v4.155c0 7.098 0 14.196-.003 21.294 0 .46-.005.913-.062 1.366-.306 2.439-1.506 4.187-3.567 5.195-1.205.591-2.582.782-4.118.568-1.855-.26-3.316-1.127-4.348-2.577 1.364 2.627 4.285 5.025 9.307 5.15 7.75.194 13.009-5.378 12.74-10.507v-.263z" fill="url(#xcvxc6_linear)" opacity=".9"/><path fill-rule="evenodd" clip-rule="evenodd" d="M24.874 47.114c-1.921-1.468-4.22-2.47-7.236-3.151-.678-.154-1.375-.291-2.05-.425-.674-.133-1.37-.271-2.055-.425-.77-.173-1.763-.464-2.63-1.178-.583-.48-.9-1.086-.946-1.803-.073-1.164.488-2.061 1.67-2.665.781-.4 1.641-.595 2.63-.595.43 0 .884.036 1.39.112 1.453.215 2.854.744 4.284 1.617.227.14.452.285.673.428l5.785-7.404a27.12 27.12 0 00-3.547-2.236c-2.963-1.529-5.811-2.272-8.706-2.272-.613 0-1.236.035-1.85.103-3.27.364-6.063 1.636-8.303 3.78C.728 34.117-.541 37.98.209 42.483c.489 2.933 2.024 5.345 4.694 7.373 1.734 1.316 3.773 2.267 6.234 2.905.995.259 2.034.457 3.04.648.529.101 1.076.205 1.614.318.826.173 1.779.405 2.628.987.66.451 1.05 1.037 1.16 1.74.119.752 0 1.83-1.235 2.696-.78.546-1.725.826-2.889.854-1.66.04-3.31-.363-4.904-1.199-.507-.265-.997-.566-1.471-.857l-.124-.076-5.772 7.385c.194.146.384.285.575.42 3.42 2.414 6.807 3.732 10.354 4.031.516.043 1.029.066 1.524.066 2.507 0 4.8-.567 6.82-1.684 4.903-2.712 7.286-6.823 7.081-12.218-.135-3.55-1.704-6.496-4.664-8.758" fill="#A06AFC"/><path fill-rule="evenodd" clip-rule="evenodd" d="M24.874 47.114c-1.937-1.448-4.22-2.47-7.236-3.152-.678-.153-1.375-.29-2.05-.424-.673-.133-1.37-.27-2.056-.426-.769-.173-1.763-.463-2.63-1.177-.582-.48-.9-1.086-.945-1.803-.073-1.164.489-2.061 1.669-2.665.782-.4 1.642-.595 2.63-.595.43 0 .885.036 1.391.111.89.133 1.759.383 2.627.757-2.696-1.23-7.383-2.584-12.172-.289-4.87 2.335-5.562 9.05-1.279 12.343l.08.061c1.734 1.317 3.773 2.268 6.234 2.906.995.259 2.034.456 3.04.649.529.1 1.076.204 1.614.317.826.172 1.778.405 2.628.987.659.45 1.05 1.036 1.16 1.74.118.752 0 1.83-1.235 2.695-.78.547-1.725.827-2.889.855-1.416.034-2.824-.256-4.198-.86 2.727 1.296 7.498 2.915 12.23 1.397 4.95-1.588 6.727-7.778 3.288-11.68a12.525 12.525 0 00-1.901-1.747" fill="url(#xcvxc7_linear)" opacity=".9"/><path fill-rule="evenodd" clip-rule="evenodd" d="M29.538 55.872c-.095-2.5-.905-4.699-2.407-6.572 2.946 3.913 1.123 9.712-3.644 11.241-4.732 1.519-9.503-.1-12.23-1.397a11.266 11.266 0 01-.706-.339c-.507-.265-.998-.566-1.471-.857l-.124-.076-5.772 7.385c.194.146.384.285.575.42 3.42 2.414 6.807 3.732 10.353 4.03.517.044 1.03.067 1.525.067 2.507 0 4.8-.567 6.82-1.683 4.903-2.713 7.285-6.824 7.08-12.22" fill="url(#xcvxc8_linear)" opacity=".9"/><path fill-rule="evenodd" clip-rule="evenodd" d="M20.243 17.428a12.872 12.872 0 01-8.342 3.008c-5.982 0-10.455-4.178-10.455-10.082v-.056C1.446 4.616 5.836.16 11.79.16c3.375 0 5.763 1.059 7.793 2.841l-3.128 3.816c-1.372-1.17-2.744-1.839-4.638-1.839-2.771 0-4.911 2.368-4.911 5.348v.056c0 3.147 2.167 5.403 5.213 5.403 1.29 0 2.278-.279 3.074-.808V12.61h-3.787V8.655h8.836v8.773zm8.264-3.323v5.848h-5.372V.643H32.3c2.963 0 5.012.772 6.314 2.096 1.135 1.104 1.717 2.594 1.717 4.497v.055c0 2.952-1.579 4.91-3.988 5.931l4.625 6.731h-6.203l-3.905-5.848h-2.353zm3.386-4.29h-3.457V4.988h3.43c1.756 0 2.836.804 2.836 2.385v.057c0 1.466-1.026 2.385-2.809 2.385zm31.245.483c0 5.598-4.452 10.138-10.39 10.138-5.937 0-10.334-4.484-10.334-10.082v-.056C42.413 4.7 46.865.16 52.803.16c5.937 0 10.334 4.484 10.334 10.082v.056zm-10.348 5.31c-3.005 0-5.075-2.472-5.075-5.31v-.056c0-2.838 2.013-5.254 5.018-5.254 3.034 0 5.104 2.472 5.104 5.31v.056c0 2.838-2.013 5.254-5.047 5.254zm31.555-4.194c0 6.274-3.623 9.022-9.213 9.022-5.59 0-9.102-2.804-9.102-8.883V.643h5.534v10.799c0 2.803 1.433 4.136 3.624 4.136 2.19 0 3.623-1.277 3.623-3.997V.643h5.534v10.77zm8.271 8.54v-5.518h2.662c4.825 0 8.346-2.4 8.346-6.952V7.43c0-4.276-3.161-6.786-8.069-6.786h-8.318v19.31h5.38zm-.077-9.656h2.621c1.966 0 3.163-1.033 3.163-2.612v-.057c0-1.723-1.197-2.641-3.191-2.641h-2.593v5.31zm21.105 10.138c4.693 0 7.813-2.38 7.813-6.385v-.056c0-3.669-2.761-5.125-7.206-6.105-2.678-.616-3.34-1.009-3.34-1.905V5.93c0-.7.635-1.26 1.932-1.26 1.712 0 3.645.672 5.412 1.932l2.678-3.836C118.834 1.056 116.267.16 112.981.16c-4.638 0-7.482 2.633-7.482 6.273v.056c0 4.033 3.175 5.21 7.289 6.161 2.623.617 3.258 1.065 3.258 1.877v.056c0 .84-.773 1.344-2.209 1.344-2.236 0-4.362-.812-6.267-2.352l-2.982 3.612c2.374 2.157 5.632 3.249 9.056 3.249zm28.07-15.103v14.62h-5.33V5.333h-5.769V.643h16.869v4.69h-5.77zm17.069 15.103c5.937 0 10.39-4.54 10.39-10.138v-.056c0-5.598-4.398-10.082-10.335-10.082-5.937 0-10.39 4.54-10.39 10.138v.056c0 5.598 4.398 10.082 10.335 10.082zm-5.034-10.138c0 2.838 2.07 5.31 5.075 5.31 3.034 0 5.047-2.416 5.047-5.254v-.056c0-2.838-2.07-5.31-5.103-5.31-3.006 0-5.019 2.416-5.019 5.254v.056z" fill="#2D2C31"/><defs><linearGradient id="p_2132fsxxf" x1="230.114" y1="40.523" x2="237.757" y2="27.185" gradientUnits="userSpaceOnUse"><stop stop-color="#fff"/><stop offset="1" stop-color="#231F1F"/></linearGradient><linearGradient id="p_443dsf" x1="194.253" y1="54.855" x2="194.253" y2="30" gradientUnits="userSpaceOnUse"><stop stop-color="#fff"/><stop offset="1" stop-color="#231F1F"/></linearGradient><linearGradient id="_dsfsd334" x1="221.108" y1="67.157" x2="221.108" y2="48.246" gradientUnits="userSpaceOnUse"><stop stop-color="#fff"/><stop offset="1" stop-color="#231F1F"/></linearGradient><linearGradient id="xcvxc3_linear" x1="177.483" y1="47.802" x2="160.916" y2="30.769" gradientUnits="userSpaceOnUse"><stop stop-color="#fff"/><stop offset="1" stop-color="#231F1F"/></linearGradient><linearGradient id="xcvxc4_linear" x1="114.929" y1="54.848" x2="114.929" y2="29.992" gradientUnits="userSpaceOnUse"><stop stop-color="#fff"/><stop offset="1" stop-color="#231F1F"/></linearGradient><linearGradient id="xcvxc5_linear" x1="79.065" y1="54.848" x2="79.065" y2="29.992" gradientUnits="userSpaceOnUse"><stop stop-color="#fff"/><stop offset="1" stop-color="#231F1F"/></linearGradient><linearGradient id="xcvxc6_linear" x1="41.837" y1="37.562" x2="41.837" y2="78.277" gradientUnits="userSpaceOnUse"><stop stop-color="#fff"/><stop offset="1" stop-color="#231F1F"/></linearGradient><linearGradient id="xcvxc7_linear" x1="25.706" y1="50.762" x2="23.786" y2="31.784" gradientUnits="userSpaceOnUse"><stop stop-color="#fff"/><stop offset="1" stop-color="#231F1F"/></linearGradient><linearGradient id="xcvxc8_linear" x1="30.261" y1="65.883" x2="27.144" y2="47.004" gradientUnits="userSpaceOnUse"><stop stop-color="#fff"/><stop offset="1"/></linearGradient></defs></svg>