<svg xmlns="http://www.w3.org/2000/svg" viewBox="0 0 116.06 116.06"><g data-name="Warstwa 2"><g data-name="Warstwa 1"><path d="M0 0h116.06v116.06H0z"/><path d="M28.44 72.29l.23.67c-.03-.07-.12-.31-.23-.67zm9.41-15.22a10.27 10.27 0 014.51-7.7c3.83-2.8 8.61-1.22 8.61-1.22v-9.41a20 20 0 013.46.21v12.12s-4.77-1.58-8.6 1.22A10.27 10.27 0 0041.32 60a11 11 0 002 6.73c-.41-.22-.82-.46-1.24-.74a10.34 10.34 0 01-4.19-8.91zm36.33-35.74a16.64 16.64 0 01-4-8.19h3.32s-.66 5.6 4.15 11.1l.07.07a18.35 18.35 0 01-3.54-3zm15.94 8.53v11.86a41.06 41.06 0 01-7.35-1 28 28 0 01-7.17-2.94l-2.09-1.37v24.52a24.71 24.71 0 01-1.45 7.62 23.23 23.23 0 01-4 6.66 22.91 22.91 0 01-7.4 5.53 22 22 0 01-9.11 2 22.61 22.61 0 01-12.28-3.67 24.71 24.71 0 01-3.51-2.95A22.41 22.41 0 0048 79.82a21.8 21.8 0 009.11-2 22.35 22.35 0 0011.47-12.19A24.71 24.71 0 0070 58V33.51c.16.09 2.09 1.37 2.09 1.37a28 28 0 007.16 2.94 41.23 41.23 0 007.36 1v-9.3a11.31 11.31 0 003.48.34z" fill="#ee1d52"/><path d="M86.64 29.51v9.3a42.28 42.28 0 01-7.36-1 27.76 27.76 0 01-7.16-3L70 33.5V58a24.71 24.71 0 01-1.45 7.61 22.35 22.35 0 01-11.4 12.21 21.8 21.8 0 01-9.11 2 22.61 22.61 0 01-12.28-3.67 23 23 0 01-1.72-2 23.68 23.68 0 01-3.28-5.94 23.77 23.77 0 01-1.29-7.92 21.76 21.76 0 012.65-10 23.69 23.69 0 015.15-6.3 21.65 21.65 0 016.12-3.62A20.3 20.3 0 0151 38.72v9.42s-4.78-1.58-8.61 1.22A10.07 10.07 0 0042.06 66c.42.28.82.52 1.23.74a9.74 9.74 0 002.25 2.19c3.5 2.31 6.41 2.47 10.16 1a9.53 9.53 0 005.23-5.76 13.87 13.87 0 00.54-4.75V13.14h8.7a16.64 16.64 0 004 8.19 19.77 19.77 0 003.54 3A18.18 18.18 0 0082.56 28a18.62 18.62 0 004.08 1.48z" fill="#fff"/><path d="M27.26 65.34l.22.63c-.03-.08-.12-.29-.22-.63z" fill="#69c9d0"/><path d="M43.36 40.33A21.54 21.54 0 0037.24 44a23.58 23.58 0 00-5.15 6.31 21.67 21.67 0 00-2.65 10 24.25 24.25 0 001.29 7.92 23.69 23.69 0 003.28 6 23 23 0 001.72 2 24.58 24.58 0 01-5.21-4.87 23.38 23.38 0 01-3.26-5.92A23.6 23.6 0 0126 57.39a21.89 21.89 0 012.65-10A23.74 23.74 0 0133.77 41 21.78 21.78 0 0151 36v2.7a20.58 20.58 0 00-7.64 1.63z" fill="#69c9d0"/><path d="M70.19 13.14h-8.71v46.23a14.38 14.38 0 01-.48 4.75 9.66 9.66 0 01-5.24 5.76c-3.74 1.51-6.67 1.34-10.16-1a9.42 9.42 0 01-2.24-2.17c3 1.58 5.62 1.55 8.92.23a9.58 9.58 0 005.23-5.76 13.72 13.72 0 00.49-4.73V10.23h12a9.68 9.68 0 00.19 2.91zm16.45 13.8v2.57A18.62 18.62 0 0182.56 28a18.51 18.51 0 01-4.86-3.72 12.68 12.68 0 001.38.8 15.62 15.62 0 007.56 1.86z" fill="#69c9d0"/><path d="M70.64 101.77a3.17 3.17 0 01-.15-1 3.37 3.37 0 00.15 1zm7.18-1a3.17 3.17 0 01-.15 1 3.37 3.37 0 00.15-1z" fill="none"/><path d="M70.48 100.8a3.16 3.16 0 00.14 1v.07a3.68 3.68 0 003.51 2.59v3.71a8.37 8.37 0 01-5.08-1.1 7.39 7.39 0 01.32-12.75 8.92 8.92 0 014.77-.92v3.72a3.66 3.66 0 00-3.67 3.66z" fill="#69c9d0"/><path d="M77.85 100.8a3.17 3.17 0 01-.15 1v.07a3.68 3.68 0 01-3.51 2.59v3.71a8.31 8.31 0 005.06-1.1 7.27 7.27 0 003.51-6.28 7.35 7.35 0 00-3.81-6.47 8.94 8.94 0 00-4.78-.92v3.72a3.65 3.65 0 013.67 3.66z" fill="#ee1d52"/><path d="M17.34 90h13.59l-1.26 3.74h-3.56v14.32h-4.36V93.75h-4.41zm36 0v3.74h4.41v14.32h4.39V93.75h3.55L67 90zm-19.45 4.26a2.12 2.12 0 10-2.12-2.12 2.13 2.13 0 002.11 2.12zm-2.12 13.79h4.3v-12.3h-4.3zm19.73-13.9h-5l-4.32 4.33V90h-4.29v18h4.31v-4.7l1.33-1.22L47.7 108h4.6l-6-8.65zm41.17 5.26l5.26-5.26h-5l-4.33 4.33V90h-4.28v18h4.28v-4.7l1.4-1.17 4.18 5.92h4.59zm-11 1.33a7.49 7.49 0 11-7.49-7.38 7.45 7.45 0 017.46 7.38zm-3.82 0a3.67 3.67 0 10-3.67 3.67 3.67 3.67 0 003.67-3.67z" fill="#fff"/></g></g></svg>