<svg xmlns="http://www.w3.org/2000/svg" viewBox="0 0 12 14"><path d="M12 4.12v1.66a5.44 5.44 0 01-2.21-.46 5.64 5.64 0 01-1.25-.74v5.11a4.31 4.31 0 01-1.25 3A4.18 4.18 0 014.92 14a4.6 4.6 0 01-.64.05 4.19 4.19 0 01-2.62-.91 4.59 4.59 0 01-.41-.36 4.38 4.38 0 01-.19-5.92 4.24 4.24 0 013.22-1.53 4.6 4.6 0 01.64 0V7.7a2.2 2.2 0 00-.64-.1 2 2 0 00-2 2.1 2.07 2.07 0 001 1.74 2 2 0 00.92.29 1.87 1.87 0 00.75-.1 2.06 2.06 0 001.39-2V0h2.2a2.84 2.84 0 00.07.66 3.49 3.49 0 001.3 2.13 3.38 3.38 0 002.09.72v.62z"/></svg>