<svg xmlns="http://www.w3.org/2000/svg" viewBox="0 0 19.93 23"><path d="M8.43 0a2.31 2.31 0 00-2.3 2.3v1.54A11 11 0 004.15 5a.77.77 0 00-.31.7.76.76 0 00.45.62.74.74 0 00.76-.07 8.43 8.43 0 11-2.38 2.57.77.77 0 10-1.33-.77A10 10 0 1013.8 3.83V2.3A2.31 2.31 0 0011.5 0zm0 1.53h3.07a.75.75 0 01.77.77v1A10.27 10.27 0 0010 3.07a9.84 9.84 0 00-2.3.27v-1a.75.75 0 01.74-.81zM10 7.65a.79.79 0 00-.76.78V13a.78.78 0 00.23.54l3.07 3.07a.76.76 0 00.76.25.77.77 0 00.32-1.33l-2.84-2.85V8.43a.78.78 0 00-.23-.55.75.75 0 00-.55-.23z" fill-rule="evenodd"/></svg>