<svg width="154" height="176" viewBox="0 0 154 176" fill="none" xmlns="http://www.w3.org/2000/svg"><path fill="#2D2C31" d="M0 0h146.466v146.269H0z"/><path fill-rule="evenodd" clip-rule="evenodd" d="M5.717 5.71h148.1v147.899H35.729l-22.39 22.36v-22.36H5.718V5.709zm146.466 146.268V7.341H7.35v144.637h7.623v20.053l20.08-20.053h117.13z" fill="#2D2C31"/><path fill-rule="evenodd" clip-rule="evenodd" d="M7.623 132.131h35.391L7.623 167.475v-35.344z" fill="#2D2C31"/><path opacity=".7" fill-rule="evenodd" clip-rule="evenodd" d="M69.096 57.794c1.254 0 2.182-.522 2.783-1.566l.569 1.41H73.8V47.85h-4.116v2.897h.901v2.408c0 .509-.065.894-.196 1.155-.13.26-.359.391-.686.391-.326 0-.555-.13-.686-.391-.13-.261-.196-.646-.196-1.155v-8.143c0-.836.32-1.253.96-1.253.288 0 .487.11.598.333.112.221.167.535.167.94v1.507h3.293c0-1.332-.117-2.421-.353-3.27-.235-.848-.66-1.494-1.274-1.937-.614-.444-1.476-.666-2.587-.666-1.372 0-2.405.398-3.097 1.194-.693.796-1.039 1.97-1.039 3.524v7.242c0 1.736.297 3.031.892 3.886.594.855 1.5 1.282 2.715 1.282zm-53.184-.156V44.053h2v-3.23h-7.37v3.23h1.999v13.585h3.371zm5.738 0v-7.674c.484 0 .817.065 1 .196.183.13.274.43.274.9v6.578h3.294l.039-6.362c0-.692-.115-1.24-.343-1.645-.229-.404-.598-.659-1.108-.763.614-.209 1.046-.58 1.294-1.116.248-.535.372-1.279.372-2.231 0-1.044-.078-1.902-.235-2.575-.157-.672-.46-1.194-.911-1.566-.451-.371-1.088-.557-1.912-.557H18.24v16.815h3.41zm.02-10.59h.804c.47 0 .705-.51.705-1.527 0-.444-.02-.777-.058-.999-.04-.222-.112-.375-.216-.46-.105-.084-.255-.127-.451-.127h-.784v3.112zm12.265 10.59v-3.27h-3.528v-3.856h3.176v-3.17h-3.176v-3.27h3.313v-3.25h-6.743v16.816h6.958zm3.798-8.418v8.418H34.44V40.823h3.47l1.548 8.045v-8.045h3.254v16.815H39.42l-1.686-8.418zm10.384 8.418c1.36 0 2.333-.418 2.92-1.253.589-.835.876-2.082.863-3.74l-.039-7.868c-.013-1.305-.32-2.29-.921-2.956-.601-.666-1.503-.998-2.705-.998h-4.646v16.815h4.528zm-1.137-2.976h.588c.614 0 .922-.3.922-.9V45.09c0-.379-.03-.662-.089-.852-.058-.189-.166-.316-.323-.381-.157-.066-.399-.098-.725-.098h-.373v10.903zm8.757 2.976V40.823h-3.254v16.815h3.254zm4.033-8.418v8.418h-3.293V40.823h3.47l1.548 8.045v-8.045h3.254v16.815h-3.293L59.77 49.22zm25.84 7.34c-.706.823-1.738 1.234-3.097 1.234-1.36 0-2.392-.414-3.097-1.243-.706-.829-1.059-1.993-1.059-3.494v-8.006c0-1.449.353-2.542 1.059-3.279.705-.737 1.738-1.106 3.097-1.106s2.391.369 3.097 1.106c.706.737 1.058 1.83 1.058 3.279v8.006c0 1.514-.353 2.682-1.058 3.504zm-3.097-1.859c-.314 0-.53-.124-.647-.372-.118-.248-.176-.613-.176-1.096v-8.202c0-.848.28-1.272.842-1.272.301 0 .5.114.598.342.098.229.147.526.147.891v8.222c0 .47-.052.835-.156 1.096-.105.26-.308.391-.608.391zm8.188-5.48v8.417h-3.293V40.823h3.47l1.548 8.045v-8.045h3.254v16.815h-3.293l-1.686-8.418z" fill="#fff"/><path fill-rule="evenodd" clip-rule="evenodd" d="M19.832 96.013c2.797 0 4.803-.855 6.018-2.564 1.215-1.71 1.823-4.222 1.823-7.537 0-1.487-.183-2.773-.549-3.856-.366-1.083-.85-2.023-1.45-2.819-.602-.796-1.36-1.637-2.274-2.525l-3.92-3.758c-1.255-1.175-1.882-2.31-1.882-3.406 0-.496.13-.888.392-1.175.261-.287.653-.43 1.176-.43.444 0 .79.13 1.039.391.248.261.372.613.372 1.057l.04 2.31h6.86c0-3.42-.667-5.931-2-7.536-1.332-1.606-3.515-2.408-6.546-2.408-2.536 0-4.463.75-5.783 2.251-1.32 1.5-1.98 3.687-1.98 6.558 0 2.662 1.124 5.09 3.372 7.281l2.9 2.898c1.046 1.017 1.772 1.768 2.177 2.25.405.484.738 1.084 1 1.802.26.717.391 1.624.391 2.72 0 .836-.117 1.43-.352 1.782-.236.352-.654.528-1.255.528-1.072 0-1.607-.835-1.607-2.505v-4.19h-6.626v3.29c0 3.366.68 5.807 2.039 7.32 1.359 1.514 3.567 2.271 6.625 2.271zm16.887 0c2.718 0 4.783-.822 6.194-2.466 1.411-1.645 2.117-3.98 2.117-7.008V70.526c0-2.897-.706-5.082-2.117-6.557-1.411-1.475-3.476-2.212-6.194-2.212s-4.783.737-6.194 2.212c-1.412 1.474-2.117 3.66-2.117 6.557V86.54c0 3.001.705 5.33 2.117 6.988 1.411 1.657 3.476 2.486 6.194 2.486zm-1.294-6.93c.235.496.667.744 1.294.744.601 0 1.006-.26 1.215-.783.21-.522.314-1.252.314-2.192V70.409c0-.73-.098-1.325-.294-1.781-.196-.457-.595-.686-1.196-.686-1.124 0-1.686.849-1.686 2.545v16.404c0 .966.118 1.697.353 2.192zm18.925 6.93c5.672 0 8.507-2.819 8.507-8.456v-6.343h-6.782v6.069c0 1.696-.522 2.544-1.568 2.544-.523 0-.915-.202-1.176-.606-.261-.405-.392-1.051-.392-1.938V70.409c0-.81.111-1.422.333-1.84.222-.418.634-.627 1.235-.627.575 0 .98.183 1.215.549.236.365.353 1.03.353 1.996v4.972h6.704v-5.794c0-2.558-.758-4.515-2.274-5.872-1.516-1.358-3.515-2.036-5.998-2.036-2.849 0-4.94.848-6.272 2.545-1.333 1.696-2 4.215-2 7.555v15.504c0 2.688.739 4.802 2.215 6.342 1.477 1.54 3.444 2.31 5.9 2.31zM70.061 62.07V95.7h-6.508V62.07h6.508zm7.125 33.63l.392-5.442h4.077l.47 5.442h6.39l-3.214-33.63H73.893L70.64 95.7h6.547zm.902-10.806h3.058l-1.49-17.108h-.314l-1.254 17.108zM103.01 95.7v-5.716h-6.939V62.07h-6.743V95.7h13.682zm-85.1 14.372v24.234h-6.076v-33.63h10.271l2.823 20.515 2.822-20.515h10.35v33.63h-6.155v-24.234l-3.881 24.234h-6.037l-4.117-24.234zm35.861 24.234v-6.538h-7.056v-7.712h6.35v-6.343h-6.35v-6.538h6.625v-6.499H39.855v33.63h13.917zm15.907-2.505c-1.176 1.67-3.124 2.505-5.842 2.505h-9.055v-33.63h9.29c2.405 0 4.208.666 5.41 1.997 1.203 1.331 1.817 3.302 1.843 5.912l.079 15.738c.026 3.315-.55 5.807-1.725 7.478zm-6.94-3.446h-1.175v-21.806h.745c.653 0 1.137.065 1.45.196.314.13.53.385.647.763.118.378.176.946.176 1.703v17.343c0 1.201-.614 1.801-1.842 1.801zm16.339-27.679v33.63H72.57v-33.63h6.508zm7.125 33.63l.392-5.442h4.077l.47 5.442h6.39l-3.214-33.63H82.91l-3.254 33.63h6.547zm.901-10.805h3.058l-1.49-17.109h-.313l-1.255 17.109z" fill="#fff"/></svg>