<svg width="22" height="18" viewBox="0 0 22 18" fill="none" xmlns="http://www.w3.org/2000/svg"><path fill-rule="evenodd" clip-rule="evenodd" d="M19.407 2.846A4.552 4.552 0 0021.392.332a9.015 9.015 0 01-2.866 1.103A4.494 4.494 0 0015.232 0c-2.493 0-4.514 2.034-4.514 4.544 0 .356.04.703.117 1.036-3.752-.19-7.077-2-9.303-4.749A4.55 4.55 0 00.92 3.116a4.55 4.55 0 002.007 3.782A4.467 4.467 0 01.884 6.33v.057a4.539 4.539 0 003.62 4.456 4.494 4.494 0 01-2.038.078 4.522 4.522 0 004.216 3.156 9.017 9.017 0 01-5.605 1.945C.712 16.022.353 16 0 15.959A12.716 12.716 0 006.919 18c8.302 0 12.842-6.925 12.842-12.93 0-.196-.004-.392-.013-.587A9.188 9.188 0 0022 2.13c-.81.36-1.68.605-2.593.715z" fill="#444"/></svg>