<svg xmlns="http://www.w3.org/2000/svg" viewBox="0 0 15.02 14.79" width="15" height="15"><path d="M12.52 5.18l-2.7 2.71a1.87 1.87 0 01-1.25.56 2.7 2.7 0 01-.63-.07 1.68 1.68 0 01-.81-.49 1.94 1.94 0 01-.49-.81 1.74 1.74 0 00-.93.37A2.27 2.27 0 005 8.2a3.45 3.45 0 00.74 1.06 3.57 3.57 0 001.09.74 4.21 4.21 0 00.65.23 3.88 3.88 0 002.64-.23 4.11 4.11 0 00.88-.57c.07 0 .11-.12.18-.17l2.72-2.71a3.89 3.89 0 000-5.44 3.88 3.88 0 00-5.43 0L5.76 3.83A.58.58 0 005.6 4a4.28 4.28 0 012.55.14l1.67-1.66a1.94 1.94 0 012.72 0 1.9 1.9 0 01-.02 2.7z"/><path d="M2.48 9.59L5.2 6.87a1.86 1.86 0 011.26-.55 2.68 2.68 0 01.62.07 1.74 1.74 0 01.81.48 1.88 1.88 0 01.49.82 1.7 1.7 0 00.93-.38 2.17 2.17 0 00.7-.74A3.73 3.73 0 008.2 4.76a3.37 3.37 0 00-.65-.23 3.91 3.91 0 00-2.65.23 4.31 4.31 0 00-.9.58c-.07 0-.12.12-.19.16l-2.7 2.74a3.89 3.89 0 000 5.44 3.89 3.89 0 005.44 0L9.26 11a.77.77 0 00.17-.19 4.31 4.31 0 01-2.56-.14l-1.69 1.64a1.94 1.94 0 01-2.72 0 2 2 0 01.02-2.72z"/></svg>