<svg width="205" height="68" viewBox="0 0 205 68" fill="none" xmlns="http://www.w3.org/2000/svg"><path fill-rule="evenodd" clip-rule="evenodd" d="M41.215 39.369h6.81V3.22h-6.81V39.37z" fill="#2D2C31"/><path fill-rule="evenodd" clip-rule="evenodd" d="M149.629 8.982c-1.65 0-3.193.339-4.627 1.014a12.565 12.565 0 00-3.76 2.695c-1.073 1.12-1.921 2.432-2.548 3.93a12.017 12.017 0 00-.939 4.674c0 1.648.313 3.212.939 4.695a13.125 13.125 0 002.548 3.933 12.4 12.4 0 003.76 2.72c1.434.674 2.977 1.013 4.627 1.013 1.648 0 3.191-.339 4.625-1.013a12.404 12.404 0 003.761-2.72 13.122 13.122 0 002.547-3.932c.628-1.484.94-3.048.94-4.696 0-1.616-.312-3.173-.94-4.673a12.707 12.707 0 00-2.547-3.93 12.57 12.57 0 00-3.761-2.696c-1.434-.675-2.977-1.014-4.625-1.014m-.025 31.102c-2.578 0-5.008-.494-7.288-1.484-2.28-.989-4.272-2.332-5.975-4.03-1.702-1.697-3.049-3.683-4.041-5.957-.991-2.275-1.487-4.715-1.487-7.318 0-2.572.496-5.003 1.487-7.294.992-2.29 2.339-4.284 4.041-5.983 1.703-1.696 3.695-3.04 5.975-4.03 2.28-.988 4.71-1.483 7.288-1.483 2.61 0 5.056.495 7.337 1.483 2.281.99 4.272 2.334 5.974 4.03 1.702 1.699 3.05 3.692 4.042 5.983.991 2.291 1.487 4.722 1.487 7.294 0 2.603-.496 5.043-1.487 7.318-.992 2.274-2.34 4.26-4.042 5.958-1.702 1.697-3.693 3.04-5.974 4.029-2.281.99-4.727 1.484-7.337 1.484" fill="url(#paint0_linear)"/><path opacity=".6" fill-rule="evenodd" clip-rule="evenodd" d="M149.629 7.516c-1.868 0-3.614.383-5.237 1.147a14.207 14.207 0 00-4.256 3.049c-1.214 1.267-2.174 2.751-2.884 4.447a13.584 13.584 0 00-1.063 5.287c0 1.865.354 3.635 1.063 5.313.71 1.68 1.67 3.161 2.884 4.45a14.022 14.022 0 004.256 3.077c1.623.763 3.369 1.146 5.237 1.146 1.866 0 3.612-.383 5.235-1.146a14.039 14.039 0 004.257-3.077 14.862 14.862 0 002.883-4.45 13.49 13.49 0 001.064-5.313c0-1.828-.354-3.59-1.064-5.287-.709-1.696-1.67-3.18-2.883-4.447a14.224 14.224 0 00-4.257-3.05c-1.623-.763-3.369-1.146-5.235-1.146m-.029 35.073c-2.921 0-5.675-.56-8.259-1.682-2.584-1.12-4.842-2.643-6.772-4.566-1.929-1.924-3.455-4.176-4.579-6.753-1.124-2.578-1.686-5.343-1.686-8.293 0-2.915.562-5.67 1.686-8.267 1.124-2.596 2.65-4.855 4.579-6.78 1.93-1.923 4.188-3.446 6.772-4.568C143.925.56 146.679 0 149.6 0c2.959 0 5.731.56 8.316 1.68 2.585 1.122 4.842 2.645 6.771 4.568 1.929 1.925 3.456 4.184 4.58 6.78 1.124 2.597 1.686 5.352 1.686 8.267 0 2.95-.562 5.715-1.686 8.293-1.124 2.577-2.651 4.829-4.58 6.752-1.929 1.924-4.186 3.447-6.771 4.567-2.585 1.122-5.357 1.683-8.316 1.683" fill="url(#paint1_linear)"/><path fill-rule="evenodd" clip-rule="evenodd" d="M203.563 24.686c-.479-1.1-1.109-2.022-1.885-2.77a10.247 10.247 0 00-2.654-1.84 18.895 18.895 0 00-3.003-1.145 27.65 27.65 0 00-2.928-.667 43.75 43.75 0 01-2.457-.48c-.926-.22-1.886-.444-2.877-.667a19.424 19.424 0 01-2.73-.812c-.828-.317-1.506-.716-2.035-1.194-.53-.477-.794-1.066-.794-1.767 0-.7.223-1.297.67-1.79.447-.494 1.009-.9 1.688-1.218a9.003 9.003 0 012.158-.693c.666-.125 1.354-.225 1.916-.249v.013h13.526v-6.17h-12.627c-.162-.005-.312-.016-.483-.016-.103 0-.21.015-.314.016h-.102v.006a25.07 25.07 0 00-4.322.456c-1.638.319-3.127.867-4.467 1.647a9.58 9.58 0 00-3.299 3.2c-.861 1.352-1.291 3.048-1.291 5.084 0 1.401.239 2.62.72 3.653a8.58 8.58 0 001.91 2.675 11.07 11.07 0 002.679 1.863c.993.494 2.002.89 3.028 1.193 1.025.302 2.017.542 2.978.716.959.176 1.802.326 2.531.454 1.09.19 2.141.399 3.15.62 1.009.224 1.886.495 2.629.812.745.32 1.341.725 1.787 1.219.447.493.67 1.089.67 1.79 0 .542-.148 1.09-.445 1.647-.299.558-.745 1.05-1.341 1.481-.595.43-1.323.78-2.183 1.05-.861.272-1.822.375-2.946.375-.264 0-.656 0-.815.007h-13.399v6.17h13.339v.007c.292.007.64.007.942.007 2.051 0 3.921-.223 5.608-.669 1.687-.446 3.143-1.107 4.367-1.981a8.861 8.861 0 002.829-3.319c.661-1.338.992-2.912.992-4.727 0-1.559-.241-2.89-.72-3.987" fill="#2D2C31"/><path fill-rule="evenodd" clip-rule="evenodd" d="M147.657 15.748l6.606 4.923c.272.215.271.677-.001.89l-6.605 4.923s.051-10.736 0-10.736" fill="#FE7578"/><path fill-rule="evenodd" clip-rule="evenodd" d="M15.723 38.61c.764 1.488 2.9 1.488 3.666.001L35.122 2.863H27.21l-8.796 21.825c-.383.9-1.21.897-1.59-.003L8.027 2.863H0L15.723 38.61zM104.948 3.242v-.02h17.98v6.285h-16.109c-1.564.03-2.589.458-3.05 1.302-.479.874-.718 1.978-.718 3.313v14.557c0 1.335.239 2.247.718 3.122.461.842 1.486 1.27 3.05 1.3h16.109v6.268l-17.98-.022c-1.773-.041-3.248-.31-4.393-.825-1.246-.563-2.234-1.332-2.962-2.312-.728-.98-1.228-2.104-1.497-3.375-.27-1.27-.405-2.634-.405-4.093V13.847c0-1.459.134-2.822.405-4.092.27-1.27.769-2.397 1.497-3.375.728-.98 1.716-1.749 2.962-2.312 1.145-.516 2.62-.783 4.393-.826zm18.339 21.453h-17.203v-6.442h17.203v6.442zM88.589 13.616c-.911-2.288-2.261-4.239-4.051-5.852-3.348-3.028-7.625-4.543-12.826-4.543h-14.37v6.237h6.972v-.015h7.419c1.26 0 2.555.148 3.882.444a9.06 9.06 0 013.636 1.729c1.095.855 1.992 2.065 2.69 3.629.697 1.564 1.044 3.599 1.044 6.1 0 2.502-.347 4.526-1.045 6.074-.697 1.547-1.585 2.758-2.664 3.629a8.674 8.674 0 01-3.61 1.752c-1.329.298-2.64.445-3.933.445h-7.42V12.124h-6.97v27.245h14.369c2.583 0 4.962-.378 7.131-1.135 2.172-.758 4.07-1.878 5.695-3.359 1.79-1.611 3.14-3.563 4.05-5.85.912-2.288 1.368-4.867 1.368-7.73 0-2.83-.456-5.39-1.367-7.68" fill="#2D2C31"/><path fill-rule="evenodd" clip-rule="evenodd" d="M51.97 53.475v8.822h-2.684V49.026c0-.855 1.011-1.308 1.65-.74l7.858 8.973v-8.956h2.684v13.295c0 .85-1.003 1.305-1.644.743l-7.864-8.866zM21.544 50.524c-.637 0-1.234.13-1.789.392a4.848 4.848 0 00-2.44 2.566 4.65 4.65 0 00-.363 1.808c0 .639.122 1.245.364 1.819a5.07 5.07 0 00.986 1.522c.414.44.898.791 1.453 1.053a4.15 4.15 0 001.79.393c.637 0 1.233-.131 1.788-.393a4.785 4.785 0 001.454-1.053c.415-.44.743-.948.985-1.522.242-.575.364-1.18.364-1.819 0-.625-.122-1.228-.364-1.808a4.916 4.916 0 00-.985-1.523 4.853 4.853 0 00-1.454-1.043 4.14 4.14 0 00-1.789-.392m-.01 12.041a6.991 6.991 0 01-2.817-.574 7.407 7.407 0 01-2.31-1.56 7.388 7.388 0 01-1.563-2.307 7.012 7.012 0 01-.575-2.834c0-.995.191-1.936.575-2.823a7.366 7.366 0 011.563-2.317 7.414 7.414 0 012.31-1.56 6.999 6.999 0 012.818-.575c1.01 0 1.956.192 2.837.575a7.418 7.418 0 012.31 1.56 7.378 7.378 0 011.563 2.317c.383.887.575 1.828.575 2.823a7.012 7.012 0 01-.576 2.834 7.4 7.4 0 01-1.562 2.307 7.411 7.411 0 01-2.31 1.56 7.04 7.04 0 01-2.837.574M125.072 50.524a4.14 4.14 0 00-1.789.392 4.869 4.869 0 00-1.454 1.044 4.93 4.93 0 00-.985 1.522 4.655 4.655 0 00-.363 1.808c0 .639.121 1.245.363 1.819.242.574.571 1.082.985 1.522.415.44.9.791 1.454 1.053a4.148 4.148 0 001.789.393c.638 0 1.234-.131 1.789-.393a4.788 4.788 0 001.454-1.053c.414-.44.743-.948.985-1.522.243-.575.364-1.18.364-1.819 0-.625-.121-1.228-.364-1.808a4.93 4.93 0 00-.985-1.523 4.856 4.856 0 00-1.454-1.043 4.14 4.14 0 00-1.789-.392m-.009 12.041a6.992 6.992 0 01-2.818-.574 7.406 7.406 0 01-2.31-1.56 7.395 7.395 0 01-1.563-2.307 7.027 7.027 0 01-.575-2.834c0-.995.192-1.936.575-2.823a7.373 7.373 0 011.563-2.317 7.413 7.413 0 012.31-1.56 6.999 6.999 0 012.818-.575c1.009 0 1.955.192 2.837.575a7.413 7.413 0 012.31 1.56 7.373 7.373 0 011.563 2.317c.384.887.575 1.828.575 2.823a7.01 7.01 0 01-.575 2.834 7.395 7.395 0 01-1.563 2.307 7.406 7.406 0 01-2.31 1.56 7.04 7.04 0 01-2.837.574M117.636 50.657h-4.007v11.64h-2.684v-11.64h-4.026v-2.374h10.717v2.374zM36.367 62.546c-.907 0-1.732-.14-2.473-.421a5.424 5.424 0 01-1.898-1.187 5.231 5.231 0 01-1.217-1.857c-.288-.728-.432-1.538-.432-2.432v-8.346h2.684v8.333c0 .7.116 1.28.346 1.74.23.459.514.822.853 1.09.338.267.703.451 1.092.553.39.102.738.153 1.045.153.307 0 .656-.05 1.045-.152.39-.103.754-.287 1.093-.555.338-.267.623-.63.853-1.09.23-.459.345-1.038.345-1.739v-8.333h2.684v8.346c0 .894-.14 1.704-.422 2.432a5.134 5.134 0 01-1.207 1.857 5.432 5.432 0 01-1.898 1.187c-.742.28-1.572.421-2.493.421M189.394 56.717c.447-.44.785-.954 1.015-1.541a5.18 5.18 0 00.346-1.914c0-.69-.131-1.337-.394-1.944a5.017 5.017 0 00-1.064-1.58 5.028 5.028 0 00-1.581-1.062 4.875 4.875 0 00-1.946-.392h-6.25v14.014h2.684v-11.64h3.278c.422 0 .793.076 1.112.23.32.153.588.35.806.593a2.73 2.73 0 01.671 1.78c0 .32-.045.626-.135.92a2.306 2.306 0 01-.412.784c-.185.23-.425.412-.719.546-.294.134-.639.2-1.035.2h-2.161v2.413h.007c.292 5.18 6.512 4.174 6.512 4.174v-2.661s-2.888.37-3.451-1.624a5.945 5.945 0 001.02-.262c.683-.249 1.249-.594 1.697-1.034M6.057 57.247v5.05H8.85V57.25c-.441.08-.905.123-1.397.123-.491 0-.955-.044-1.397-.126M10.79 48.303v1.902c0 .7-.115 1.28-.345 1.74-.23.459-.515.822-.853 1.09-.34.267-.704.452-1.094.554-.39.102-.737.152-1.044.152-.307 0-.655-.05-1.045-.152a2.971 2.971 0 01-1.093-.555c-.338-.267-.623-.63-.853-1.09-.23-.458-.345-1.038-.345-1.74v-1.901H1.434v1.916c0 .893.144 1.703.431 2.43a5.237 5.237 0 001.217 1.858c.524.51 1.157.907 1.899 1.187.74.28 1.565.421 2.473.421.92 0 1.75-.14 2.492-.421a5.427 5.427 0 001.898-1.187c.524-.51.926-1.13 1.208-1.857.28-.728.422-1.538.422-2.431v-1.916H10.79zM148.536 56.606a3.325 3.325 0 00-.729-1.075c-.3-.29-.642-.528-1.025-.713a7.205 7.205 0 00-1.161-.445c-.389-.11-.766-.197-1.13-.26a17.17 17.17 0 01-.95-.184 81.895 81.895 0 00-1.111-.26 7.438 7.438 0 01-1.055-.315 2.504 2.504 0 01-.786-.463.89.89 0 01-.307-.686c0-.271.087-.503.259-.694.173-.192.39-.35.652-.473s.54-.213.834-.269c.257-.048.523-.087.74-.097v.006h5.226v-2.395h-4.879c-.062-.001-.12-.006-.186-.006-.04 0-.081.006-.121.006h-.04v.003a9.653 9.653 0 00-1.67.177 5.478 5.478 0 00-1.725.639 3.709 3.709 0 00-1.275 1.241c-.333.525-.499 1.183-.499 1.973 0 .544.093 1.017.279 1.418.184.401.431.747.738 1.037.306.29.651.532 1.035.723.383.192.773.346 1.169.463.396.118.78.21 1.15.278.371.068.697.127.978.176.422.074.828.154 1.218.241.39.086.728.192 1.016.315.287.123.517.281.69.473a.998.998 0 01.258.694c0 .21-.057.423-.172.64a1.706 1.706 0 01-.518.574 2.897 2.897 0 01-.843.407c-.332.106-.704.146-1.138.146-.102 0-.253 0-.315.003h-5.176v2.393h5.153v.003c.112.003.247.003.364.003.792 0 1.515-.086 2.166-.26.652-.172 1.214-.429 1.687-.769a3.43 3.43 0 001.093-1.287c.256-.52.384-1.13.384-1.834 0-.605-.093-1.121-.278-1.547M67.224 48.284v.008c-.69.016-1.264.12-1.709.32-.485.218-.87.516-1.153.896a3.31 3.31 0 00-.582 1.309 7.552 7.552 0 00-.158 1.587v5.776c0 .566.053 1.095.158 1.587.105.493.3.93.582 1.309.284.38.668.678 1.153.896.445.2 1.02.304 1.709.32l6.995.008v-2.43h-6.267c-.609-.011-1.008-.177-1.187-.504-.186-.339-.28-.693-.28-1.21V52.51c0-.517.094-.945.28-1.284.18-.328.578-.493 1.187-.505h6.267v-2.437h-6.995z" fill="#727272"/><mask id="a" maskUnits="userSpaceOnUse" x="1" y="47" width="203" height="16"><path fill-rule="evenodd" clip-rule="evenodd" d="M1.434 62.59h201.839V47.957H1.433v14.631z" fill="#fff"/></mask><g mask="url(#a)" fill-rule="evenodd" clip-rule="evenodd" fill="#727272"><path d="M67.563 56.592h6.656v-2.47h-6.656v2.47zM80.065 48.284v.008c-.69.016-1.263.12-1.709.32-.485.218-.869.516-1.152.896-.283.38-.477.816-.582 1.309a7.56 7.56 0 00-.158 1.587v5.776c0 .566.052 1.095.158 1.587.105.493.3.93.582 1.309.283.38.667.678 1.152.896.446.2 1.02.304 1.71.32l6.995.008v-2.43h-6.268c-.608-.011-1.007-.177-1.187-.504-.185-.339-.279-.693-.279-1.21V52.51c0-.517.094-.945.28-1.284.179-.328.578-.493 1.186-.505h6.268v-2.437h-6.996z"/><path d="M80.404 56.592h6.657v-2.47h-6.657v2.47zM196.277 48.284v.008c-.69.016-1.263.12-1.709.32a2.863 2.863 0 00-1.152.896c-.283.38-.478.816-.582 1.309a7.539 7.539 0 00-.158 1.587v5.776c0 .566.052 1.095.158 1.587a3.3 3.3 0 00.582 1.309c.283.38.667.678 1.152.896.446.2 1.019.304 1.709.32l6.996.008v-2.43h-6.268c-.608-.011-1.007-.177-1.186-.504-.187-.339-.28-.693-.28-1.21V52.51c0-.517.093-.945.28-1.284.179-.328.578-.493 1.186-.505h6.268v-2.437h-6.996z"/><path d="M196.615 56.592h6.657v-2.47h-6.657v2.47zM171.905 48.395a.795.795 0 00-1.419 0l-4.023 9.16c1.185-.497 2.962-.469 2.962-.469h.12l1.318-3.277c.148-.348.468-.348.617 0l1.733 4.322h-3.396s-2.823-.038-3.726.974c-.664.6-1.046 1.392-1.223 2.146-.086.363-.124.72-.124 1.045h2.689c0-.043-.004-.081-.004-.124 0-1.665 1.361-1.665 1.973-1.665h4.767l.722 1.79H178l-6.095-13.902zM101.408 52.314a6.003 6.003 0 00-1.56-2.27c-1.289-1.173-2.935-1.76-4.938-1.76h-5.533v2.418h2.684v-.006h2.857c.486 0 .984.058 1.495.172.511.115.978.338 1.4.67.422.332.767.801 1.035 1.408.269.606.403 1.394.403 2.364s-.134 1.755-.403 2.355c-.268.6-.61 1.069-1.025 1.407-.416.338-.88.564-1.39.679a6.848 6.848 0 01-1.515.172h-2.857v-8.188h-2.684v10.562h5.533c.995 0 1.91-.146 2.746-.44a6.278 6.278 0 002.192-1.301 6 6 0 001.56-2.27c.351-.886.527-1.885.527-2.995 0-1.098-.176-2.09-.527-2.977M160.322 48.303v6.028h-4.514s-2.553-.138-3.725.97c-.918.867-1.301 2.066-1.339 3.045l-.01.005v3.946h2.684v-3.802h.008c-.001-.042-.006-.08-.006-.125 0-1.667 1.362-1.665 1.975-1.665h4.927v5.592h2.684V48.303h-2.684zM153.418 53.608v-5.305h-2.684v6.989c.193-.634 1.275-1.591 2.684-1.684"/></g><defs><linearGradient id="paint0_linear" x1="130.813" y1="2.505" x2="130.813" y2="40.084" gradientUnits="userSpaceOnUse"><stop stop-color="#FB9622"/><stop offset="1" stop-color="#EC27A1"/></linearGradient><linearGradient id="paint1_linear" x1="128.304" y1="0" x2="128.304" y2="42.59" gradientUnits="userSpaceOnUse"><stop stop-color="#FB9622"/><stop offset="1" stop-color="#EC27A1"/></linearGradient></defs></svg>