<svg viewBox="0 0 35 26"><path fill="#FFF" d="M20.4 18.8c.5.3 1.2.2 1.5-.2 1.3-1.6 2-3.5 2-5.6 0-2.1-.7-4-2-5.6-.3-.4-1-.5-1.5-.2-.4.2-.5.7-.3 1.1 1.1 1.4 1.7 3 1.7 4.7 0 1.7-.6 3.4-1.7 4.7-.3.4-.1.9.3 1.1zM24.8 21.7c.5.3 1.2.2 1.5-.2 2-2.4 3.2-5.4 3.2-8.5 0-3.2-1.2-6.1-3.2-8.5-.3-.4-1-.5-1.5-.2-.4.3-.5.7-.2 1.1 1.8 2.2 2.9 4.8 2.9 7.6s-1.1 5.4-2.9 7.6c-.4.4-.3.9.2 1.1z"/><path fill="#FFF" d="M28.9 1.3c-.4.3-.5.7-.2 1.1 2.6 3 4.1 6.6 4.1 10.6 0 3.9-1.5 7.5-4.1 10.6-.3.4-.2.8.2 1.1.5.3 1.1.2 1.5-.2 2.8-3.3 4.4-7.2 4.4-11.5s-1.6-8.2-4.4-11.5c-.4-.4-1-.4-1.5-.2zM5 8.7H.2V17H5M7.1 17l10.2 7.5v-23L7.1 8.7"/></svg>