<svg width="28" height="28" viewBox="0 0 28 28" fill="none" xmlns="http://www.w3.org/2000/svg"><path fill-rule="evenodd" clip-rule="evenodd" d="M14.016 16.702a2.69 2.69 0 002.693-2.686 2.69 2.69 0 00-2.693-2.686 2.69 2.69 0 00-2.692 2.686 2.69 2.69 0 002.692 2.686zM17.117 11.265h1.892a.391.391 0 00.392-.39v-1.89a.391.391 0 00-.392-.39h-1.892a.392.392 0 00-.392.39v1.89c0 .215.175.39.392.39z" fill="#444"/><path fill-rule="evenodd" clip-rule="evenodd" d="M21 19.34c0 .916-.745 1.66-1.664 1.66H8.664A1.663 1.663 0 017 19.34V8.66C7 7.743 7.745 7 8.664 7h10.672C20.256 7 21 7.743 21 8.66v10.68zM14 0C6.268 0 0 6.268 0 14s6.268 14 14 14 14-6.268 14-14S21.732 0 14 0z" fill="#444"/><path fill-rule="evenodd" clip-rule="evenodd" d="M18.275 14.016a4.259 4.259 0 01-8.517 0c0-.389.052-.766.151-1.123H8.6v6.088c0 .216.175.39.391.39h10.052a.391.391 0 00.392-.39v-6.089h-1.31c.099.358.151.736.151 1.124z" fill="#444"/></svg>