<svg width="28" height="28" viewBox="0 0 28 28" fill="none" xmlns="http://www.w3.org/2000/svg"><path fill-rule="evenodd" clip-rule="evenodd" d="M21 20.987h-2.9v-4.54c0-1.082-.02-2.474-1.508-2.474-1.51 0-1.74 1.18-1.74 2.397v4.617h-2.898v-9.335h2.781v1.277h.04c.387-.734 1.334-1.508 2.745-1.508 2.938 0 3.48 1.932 3.48 4.446v5.12zM8.684 10.377a1.682 1.682 0 11-.003-3.364 1.682 1.682 0 01.003 3.364zm1.45 10.61H7.23v-9.335h2.904v9.335zM14 0C6.268 0 0 6.268 0 14s6.268 14 14 14 14-6.268 14-14S21.732 0 14 0z" fill="#444"/></svg>