<svg xmlns="http://www.w3.org/2000/svg" viewBox="0 0 28 28" width="28" height="28"><path d="M14 0A14 14 0 110 14 14 14 0 0114 0zm0 12.07h-.09a3 3 0 00-2.32 2.16 3.42 3.42 0 00.72 3.26l2.78 3.07.14.14a2.68 2.68 0 002.65.68 3 3 0 002-2.25 3.41 3.41 0 00-.75-3.08l-1.47-1.63-.07-.06a.49.49 0 00-.66.07.63.63 0 000 .81l1.48 1.63.11.13a2.23 2.23 0 01.37 1.83 2 2 0 01-1.3 1.43 1.74 1.74 0 01-1.77-.53L13 16.67l-.11-.13a2.23 2.23 0 01-.34-1.93 1.91 1.91 0 011.47-1.37.52.52 0 00.41-.37.63.63 0 00-.08-.58.51.51 0 00-.49-.21zm-1.21-4.35A2.68 2.68 0 0010.14 7a3 3 0 00-2 2.25 3.41 3.41 0 00.75 3.08L10.32 14l.06.06a.48.48 0 00.46.1.56.56 0 00.38-.41.64.64 0 00-.15-.57l-1.48-1.63-.11-.13a2.22 2.22 0 01-.37-1.83 2 2 0 011.3-1.43 1.7 1.7 0 011.77.53L15 11.76l.11.13a2.23 2.23 0 01.34 1.93A1.9 1.9 0 0114 15.19a.57.57 0 00-.48.63.56.56 0 00.48.54h.35a3 3 0 002.13-2.13 3.4 3.4 0 00-.72-3.25l-2.83-3.12z" fill="#444" fill-rule="evenodd"/></svg>