<svg width="28" height="28" viewBox="0 0 28 28" fill="none" xmlns="http://www.w3.org/2000/svg"><path fill-rule="evenodd" clip-rule="evenodd" d="M15.08 17.118c-.868 0-1.685-.47-1.965-1.003 0 0-.467 1.853-.565 2.211-.348 1.264-1.373 2.528-1.452 2.631-.056.073-.178.05-.191-.045-.022-.161-.284-1.756.024-3.057l1.035-4.382s-.257-.513-.257-1.272c0-1.192.69-2.082 1.55-2.082.732 0 1.085.55 1.085 1.208 0 .735-.468 1.835-.71 2.853-.202.853.428 1.549 1.27 1.549 1.522 0 2.549-1.956 2.549-4.275 0-1.763-1.187-3.082-3.346-3.082-2.439 0-3.96 1.82-3.96 3.852 0 .7.208 1.194.531 1.576.15.176.17.247.116.448-.04.15-.127.505-.165.646-.053.204-.217.277-.402.201-1.123-.458-1.647-1.69-1.647-3.072C8.58 9.74 10.507 7 14.327 7c3.071 0 5.092 2.22 5.092 4.607 0 3.154-1.755 5.51-4.34 5.51zM14 0C6.268 0 0 6.268 0 14s6.268 14 14 14 14-6.268 14-14S21.732 0 14 0z" fill="#444"/></svg>