<svg width="28" height="28" viewBox="0 0 28 28" fill="none" xmlns="http://www.w3.org/2000/svg"><path fill-rule="evenodd" clip-rule="evenodd" d="M19.567 11.145c.005.123.009.247.009.372 0 3.795-2.89 8.171-8.173 8.171A8.132 8.132 0 017 18.398a5.761 5.761 0 004.252-1.19 2.874 2.874 0 01-2.683-1.993 2.893 2.893 0 001.297-.05 2.873 2.873 0 01-2.303-2.816v-.037c.386.215.83.345 1.3.36a2.872 2.872 0 01-.888-3.835 8.155 8.155 0 005.92 3 2.873 2.873 0 014.894-2.62 5.748 5.748 0 001.824-.695 2.886 2.886 0 01-1.262 1.589A5.764 5.764 0 0021 9.658a5.848 5.848 0 01-1.433 1.487zM14 0C6.268 0 0 6.268 0 14s6.268 14 14 14 14-6.268 14-14S21.732 0 14 0z" fill="#444"/></svg>