<svg width="28" height="28" viewBox="0 0 28 28" fill="none" xmlns="http://www.w3.org/2000/svg"><path fill-rule="evenodd" clip-rule="evenodd" d="M21 14.528c0 1.134-.14 2.267-.14 2.267s-.136.964-.556 1.39c-.532.557-1.13.56-1.403.592-1.96.141-4.901.146-4.901.146s-3.64-.033-4.76-.14c-.312-.059-1.011-.041-1.543-.599-.42-.425-.557-1.39-.557-1.39S7 15.663 7 14.529v-1.062c0-1.133.14-2.265.14-2.265s.137-.965.557-1.39c.532-.558 1.128-.56 1.402-.593 1.96-.142 4.898-.142 4.898-.142h.006s2.939 0 4.898.142c.274.033.87.035 1.402.592.42.426.557 1.39.557 1.39s.14 1.133.14 2.266v1.063zM14 0C6.268 0 0 6.268 0 14s6.268 14 14 14 14-6.268 14-14S21.732 0 14 0z" fill="#444"/><path fill-rule="evenodd" clip-rule="evenodd" d="M12.555 15.816l3.782-1.96-3.783-1.974v3.934z" fill="#444"/></svg>