<svg xmlns="http://www.w3.org/2000/svg" viewBox="0 0 22.25 23">
    <path
        d="M21.39,23h-4a.89.89,0,0,1-.62-.23.87.87,0,0,1-.26-.61V8.53a.85.85,0,0,1,.88-.85h4a.85.85,0,0,1,.86.85V22.15a.86.86,0,0,1-.25.6A.88.88,0,0,1,21.39,23ZM20.54,9.37H18.28V21.3h2.26Z"
        fill-rule="evenodd" />
    <path
        d="M1.34,12.06A.86.86,0,0,1,2,11.81h4a.85.85,0,0,1,.86.85v9.47a.85.85,0,0,1-.86.86H2a.86.86,0,0,1-.61-.25.85.85,0,0,1-.24-.62V12.67A.81.81,0,0,1,1.34,12.06Zm1.47,9.22H5.06l0-7.75H2.81Z"
        fill-rule="evenodd" />
    <path
        d="M9.08,15.64a.85.85,0,0,1,.6-.24l4,0a.85.85,0,0,1,.85.86v5.91a.85.85,0,0,1-.85.85h-4a.85.85,0,0,1-.85-.85V16.24A.84.84,0,0,1,9.08,15.64Zm1.46,5.66H12.8V17.11H10.54Z"
        fill-rule="evenodd" />
    <path
        d="M20.54,4.35a.85.85,0,0,0,.85.75h.11a.86.86,0,0,0,.57-.33.85.85,0,0,0,.17-.63L21.81.76a.87.87,0,0,0-.32-.58A.86.86,0,0,0,20.85,0L17.53.43a.85.85,0,0,0-.74.93.85.85,0,0,0,.95.74L19,1.94,11,9.75,4.41,5.42a.86.86,0,0,0-1,.06L.31,8a.88.88,0,0,0-.3.81.83.83,0,0,0,.55.65.83.83,0,0,0,.84-.14L4,7.22l6.68,4.34a.88.88,0,0,0,1.07-.11L20.37,3Z" />
</svg>