<svg xmlns="http://www.w3.org/2000/svg" viewBox="0 0 13.8 14.07">
    <path d="M4.65,3.5v-3a.49.49,0,0,0-1,0v3a.49.49,0,0,0,1,0Z" fill="#fff" />
    <path d="M10.12,3.5v-3a.49.49,0,0,0-1,0v3a.49.49,0,0,0,1,0Z" fill="#fff" />
    <path
        d="M3.72,7a1.69,1.69,0,1,0,0,3.37A1.66,1.66,0,0,0,5.4,8.68,1.69,1.69,0,0,0,3.72,7Zm0,2.42A.73.73,0,0,1,3,8.67a.74.74,0,0,1,.72-.74.74.74,0,0,1,.71.74A.72.72,0,0,1,3.72,9.4Z"
        fill="#fff" />
    <path d="M4.43,11.08H3a.49.49,0,0,0,0,1H4.43a.49.49,0,1,0,0-1Z" fill="#fff" />
    <path d="M7.87,11.08H6.42a.49.49,0,1,0,0,1H7.87a.49.49,0,0,0,0-1Z" fill="#fff" />
    <path d="M7.87,8.2H6.42a.49.49,0,1,0,0,1H7.87a.49.49,0,0,0,0-1Z" fill="#fff" />
    <path d="M11.3,11.08H9.85a.49.49,0,0,0,0,1H11.3a.49.49,0,0,0,0-1Z" fill="#fff" />
    <path d="M11.3,8.2H9.85a.49.49,0,0,0,0,1H11.3a.49.49,0,0,0,0-1Z" fill="#fff" />
    <path
        d="M12,1.87h-.86a.48.48,0,1,0,0,1H12a.86.86,0,0,1,.85.85V5.3H1V3.68a.86.86,0,0,1,.85-.85h.86a.48.48,0,1,0,0-1H1.82A1.82,1.82,0,0,0,0,3.68v8.57a1.83,1.83,0,0,0,1.82,1.82H12a1.83,1.83,0,0,0,1.82-1.82V3.68A1.82,1.82,0,0,0,12,1.87ZM12,13.1H1.82A.85.85,0,0,1,1,12.25v-6H12.83v6A.85.85,0,0,1,12,13.1Z"
        fill="#fff" />
    <path d="M8.15,2.83a.48.48,0,1,0,0-1H5.65a.48.48,0,1,0,0,1Z" fill="#fff" />
    <path d="M11.3,8.2H9.85a.49.49,0,0,0,0,1H11.3a.49.49,0,0,0,0-1Z" fill="#fff" />
</svg>