<svg xmlns="http://www.w3.org/2000/svg" viewBox="0 0 83.25 90.29" width="84" height="91">
    <path
        d="M75.9,49.87a7.3,7.3,0,0,0-.52-9.58,7.18,7.18,0,0,0-3.13-1.77,7.43,7.43,0,0,0,.63-3,7.19,7.19,0,0,0-11.46-5.84,7.93,7.93,0,0,0-1.35-2.39,7.21,7.21,0,0,0-5.21-2.4,6.79,6.79,0,0,0-5.11,2,3.18,3.18,0,0,0-.72-.94,7.24,7.24,0,0,0-5.21-2.39A7,7,0,0,0,38.5,25.6L28.09,35.91A9.22,9.22,0,0,0,18.19,29,5.29,5.29,0,0,0,15,30.6a9.33,9.33,0,0,0-7.81-3,5.65,5.65,0,0,0-5,5.63l.1,15.1A46.57,46.57,0,0,1,.8,59.87V60h0A20.79,20.79,0,0,0,6.11,80.39a29.09,29.09,0,0,0,20.62,8.54,13.07,13.07,0,0,0,2-.1,29.93,29.93,0,0,0,9.07,1.46A28.73,28.73,0,0,0,58.4,81.75L78.5,61.54a7.25,7.25,0,0,0,2.09-5.11,7.06,7.06,0,0,0-2.09-5.1A7.91,7.91,0,0,0,75.9,49.87ZM41.53,28.62a3,3,0,0,1,2.18-.83,3,3,0,0,1,2.09.94,2.47,2.47,0,0,1,.52,1.45L29.13,47.79l-.52-6.36ZM9.13,77.48A16.61,16.61,0,0,1,4.86,61.33h0A49.09,49.09,0,0,0,6.53,48.41l-.11-15.1a1.25,1.25,0,0,1,1.15-1.25A4.91,4.91,0,0,1,13,36.33l.21,2.5.11,10.94a50.45,50.45,0,0,1-1.36,11.46c0,.1-.1.1-.1.2a20.8,20.8,0,0,0,5.31,20.42c.52.52,1.15,1,1.67,1.56A25.23,25.23,0,0,1,9.13,77.48ZM75.48,58.62,55.38,78.83a25,25,0,0,1-35.21,0,16.58,16.58,0,0,1-4.27-16v-.11a49.19,49.19,0,0,0,1.67-12.91h0V38.83h0V34.66a1.25,1.25,0,0,1,1.14-1.25,4.92,4.92,0,0,1,5.42,4.27l.73,10.53a4.13,4.13,0,0,0,7,2.5L52.46,30.08a2.36,2.36,0,0,1,2.19-.83,3,3,0,0,1,2.08.93,3.34,3.34,0,0,1-.31,4.28h0L41.11,49.87a2.14,2.14,0,0,0,0,3,2.12,2.12,0,0,0,1.56.63,2.27,2.27,0,0,0,1.56-.63L59.65,37.48h0l4.06-4.07a3,3,0,0,1,4.17,0,3,3,0,0,1,0,4.17L48.3,57.06a2.12,2.12,0,0,0,0,3,2.09,2.09,0,0,0,1.56.63,2.12,2.12,0,0,0,1.56-.63L62.36,49.14l5.83-5.83a2.95,2.95,0,1,1,4.17,4.17l-4,4h0l-2.92,2.82-10,10a2.18,2.18,0,0,0,3.13,3L71.42,54.46a3,3,0,0,1,4.17,0,2.91,2.91,0,0,1,.83,2.08A2.61,2.61,0,0,1,75.48,58.62ZM62.05,14.25,67.36,2.89a2.12,2.12,0,1,1,3.85,1.77L66,16.12a2.12,2.12,0,0,1-2,1.25,2.84,2.84,0,0,1-.94-.21A2.34,2.34,0,0,1,62.05,14.25ZM50.9,2.68A2.15,2.15,0,0,1,52.46.08a2.09,2.09,0,0,1,2.61,1.46L58.3,13.62a2.16,2.16,0,0,1-1.57,2.61c-.2,0-.41.1-.52.1a2.21,2.21,0,0,1-2.08-1.56ZM82.05,17.27,70.69,22.58a3.12,3.12,0,0,1-.94.21,2.13,2.13,0,0,1-2-1.25,2.09,2.09,0,0,1,1-2.81l11.35-5.32A2.09,2.09,0,0,1,83,14.46,2,2,0,0,1,82.05,17.27Z" />
</svg>