<svg xmlns="http://www.w3.org/2000/svg" viewBox="0 0 25.02 32"><title>csv-icon</title><g id="ea98395e-0310-455e-8d26-0187c1ed84e5" data-name="Warstwa 2"><g id="b1015404-094f-4251-9476-767db8bfc0b8" data-name="Warstwa 1"><g id="f04df55e-612e-4328-b048-dc51e315a140" data-name="Wireframes"><g id="ad6e1480-e1bb-4b74-96d9-ea05bbfdc426" data-name="Group-27"><g id="ec8c3fbd-c3de-4250-b49e-419f2fb3087c" data-name="Group-23"><g id="a799118b-d0be-4002-8bc4-813b68f5169c" data-name="action-items"><path id="b2e1b1bc-0e3b-4ddf-9f43-257738e1ec80" data-name="Path" d="M23.33,32H.67A.67.67,0,0,1,0,31.33V8.11a.66.66,0,0,1,.17-.44L6.84.22A.64.64,0,0,1,7.33,0h16A.67.67,0,0,1,24,.67V16a.67.67,0,1,1-1.33,0V1.33h-15l-6.3,7V30.67H22.67V28A.67.67,0,1,1,24,28v3.33A.67.67,0,0,1,23.33,32Z" fill="#fff"/><path d="M7.36,9H1.64A.63.63,0,0,1,1,8.38a.63.63,0,0,1,.64-.61H6.73V1.62A.63.63,0,0,1,7.36,1,.63.63,0,0,1,8,1.62V8.38A.63.63,0,0,1,7.36,9Z" fill="#fff"/><g id="ac533c05-0b6e-4a7c-ab43-bf1e622490e5" data-name="CSV" style="isolation:isolate"><text transform="translate(4.28 26)" font-size="10" fill="#fff" font-family="ArialMT, Arial" letter-spacing="0.01em" style="isolation:isolate">CSV</text></g></g></g></g></g></g></g></svg>