<?xml version="1.0" encoding="UTF-8"?>
<svg width="1098px" height="537px" viewBox="0 0 1098 537" version="1.1" xmlns="http://www.w3.org/2000/svg" xmlns:xlink="http://www.w3.org/1999/xlink">
    <!-- Generator: Sketch 56.3 (81716) - https://sketch.com -->
    <title>WHITE EPS Copy 10</title>
    <desc>Created with Sketch.</desc>
    <g id="WHITE-EPS-Copy-10" stroke="none" stroke-width="1" fill="none" fill-rule="evenodd">
        <g id="Group-3" transform="translate(73.000000, 62.000000)">
            <g id="Group-2" stroke="#000000" stroke-linecap="round" stroke-width="2.557">
                <path d="M420.280507,228.816 C420.280507,315.702 333.525507,412.442 246.638507,412.442 C159.752507,412.442 98.8765074,319.289 98.8765074,232.402 C98.8765074,145.517 149.710507,0 236.596507,0 C323.483507,0 420.280507,141.93 420.280507,228.816 Z" id="Stroke-5"></path>
                <path d="M421.397507,231.216 C421.397507,315.86 326.074507,405.295 241.039507,404.589 C152.499507,403.566 86.4895074,314.209 87.9755074,229.667 C89.5335074,141 148.329507,7.255 232.939507,8.209 C324.618507,9.243 421.397507,146.572 421.397507,231.216 Z" id="Stroke-6"></path>
                <path d="M422.515507,233.616 C422.515507,316.018 318.618507,398.384 235.441507,396.735 C145.242507,394.948 74.1865074,309.123 77.0745074,226.931 C80.2525074,136.476 146.951507,14.603 229.282507,16.418 C325.758507,18.546 422.515507,151.214 422.515507,233.616 Z" id="Stroke-7"></path>
                <path d="M423.633507,236.016 C423.633507,316.176 311.164507,391.298 229.841507,388.882 C137.984507,386.153 61.9615074,304.033 66.1725074,224.195 C71.0375074,131.946 145.575507,22.029 225.624507,24.627 C326.902507,27.914 423.633507,155.856 423.633507,236.016 Z" id="Stroke-8"></path>
                <path d="M424.750507,238.416 C424.750507,316.333 303.709507,384.178 224.243507,381.028 C130.726507,377.323 49.8115074,298.944 55.2705074,221.459 C61.8975074,127.415 144.198507,29.525 221.967507,32.836 C328.045507,37.353 424.750507,160.499 424.750507,238.416 Z" id="Stroke-9"></path>
                <path d="M425.868507,240.816 C425.868507,316.491 296.256507,377.023 218.644507,373.175 C123.469507,368.456 37.7305074,293.858 44.3695074,218.723 C52.8375074,122.888 142.819507,37.08 218.310507,41.045 C329.186507,46.869 425.868507,165.141 425.868507,240.816 Z" id="Stroke-10"></path>
                <path d="M426.986507,243.216 C426.986507,316.648 288.804507,369.838 213.045507,365.321 C116.215507,359.549 25.7165074,288.779 33.4685074,215.987 C43.8635074,118.37 141.436507,44.687 214.652507,49.254 C330.322507,56.47 426.986507,169.783 426.986507,243.216 Z" id="Stroke-11"></path>
                <path d="M428.104507,245.616 C428.104507,316.807 281.355507,362.623 207.446507,357.469 C108.964507,350.6 13.7625074,283.71 22.5665074,213.251 C34.9855074,113.867 140.049507,52.34 210.995507,57.463 C331.449507,66.162 428.104507,174.425 428.104507,245.616 Z" id="Stroke-12"></path>
                <path d="M429.222507,248.016 C429.222507,316.964 273.919507,355.259 201.847507,349.615 C101.732507,341.435 1.86650741,278.654 11.6655074,210.516 C26.2095074,109.384 138.656507,60.033 207.338507,65.672 C332.564507,75.955 429.222507,179.067 429.222507,248.016 Z" id="Stroke-13"></path>
                <path d="M430.339507,250.416 C430.339507,317.122 266.468507,348.111 196.248507,341.762 C94.4795074,332.559 -9.97749259,273.615 0.763507412,207.779 C17.5445074,104.929 137.256507,67.761 203.680507,73.881 C333.665507,85.858 430.339507,183.71 430.339507,250.416 Z" id="Stroke-14"></path>
            </g>
            <g id="Group" transform="translate(519.000000, 138.000000)" fill="#000000">
                <path d="M101.432,49.263 L87.062,49.263 C81.638,49.263 77.717,48.212 75.301,46.111 C72.883,44.009 71.674,40.586 71.674,35.841 L71.674,1 L81.096,1 L81.096,35.841 C81.096,37.74 81.525,39.05 82.384,39.773 C83.241,40.497 84.801,40.858 87.062,40.858 L101.432,40.858 L101.432,49.263" id="Fill-15"></path>
                <polygon id="Fill-16" points="136.07 49.263 145.492 49.263 145.492 1 136.07 1"></polygon>
                <path d="M219.515,20.454 L210.838,38.756 C209.572,41.196 208.002,42.417 206.127,42.417 C204.252,42.417 202.681,41.128 201.416,38.553 L192.604,20.454 L192.604,49.263 L183.181,49.263 L183.181,1 L192.468,1 L206.093,28.86 L219.651,1 L228.938,1 L228.938,49.263 L219.515,49.263 L219.515,20.454" id="Fill-17"></path>
                <path d="M302.552,49.263 L292.723,49.263 L290.011,40.925 L282.154,13.751 L271.167,49.263 L261.338,49.263 L276.793,5.066 C277.471,3.531 278.227,2.468 279.064,1.88 C279.9,1.293 280.928,1 282.148,1 C283.368,1 284.351,1.27 285.098,1.813 C285.843,2.354 286.509,3.44 287.097,5.066 L302.552,49.263" id="Fill-18"></path>
                <polyline id="Fill-19" points="367.695 9.404 354.747 9.404 354.747 49.263 345.324 49.263 345.324 9.404 332.446 9.404 332.446 1 367.695 1 367.695 9.404"></polyline>
                <path d="M433.922,49.263 L416.84,49.263 C411.417,49.263 407.61,48.326 405.418,46.45 C403.225,44.576 402.13,41.264 402.13,36.519 L402.13,1 L422.026,1 L422.026,9.404 L411.553,9.404 L411.553,20.724 L427.211,20.724 L426.533,29.13 L411.553,29.13 L411.553,35.841 C411.553,37.74 411.982,39.05 412.841,39.773 C413.698,40.497 415.258,40.858 417.519,40.858 L433.922,40.858 L433.922,49.263" id="Fill-20"></path>
                <polyline id="Fill-21" points="49.893 80.421 31.934 80.421 31.934 135.71 18.865 135.71 18.865 80.421 1 80.421 1 68.762 49.893 68.762 49.893 80.421"></polyline>
                <path d="M247.53,135.71 L233.897,135.71 L230.137,124.14 L219.276,86.807 L203.997,135.71 L190.364,135.71 L211.801,74.403 C212.742,72.273 213.791,70.8 214.95,69.983 C216.11,69.169 217.536,68.762 219.23,68.762 C220.923,68.762 222.286,69.138 223.32,69.89 C224.354,70.642 225.278,72.147 226.093,74.403 L247.53,135.71" id="Fill-22"></path>
                <path d="M328.201,109.76 L340.329,109.76 C340.329,118.28 338.198,124.83 333.937,129.41 C329.672,133.98 323.655,136.27 315.883,136.27 C298.77,136.27 290.216,126.21 290.216,106.09 L290.216,100.45 C290.216,84.589 294.602,74.655 303.379,70.642 C306.824,69.012 310.994,68.197 315.883,68.197 C323.03,68.197 328.842,70.157 333.325,74.073 C337.806,77.993 340.047,83.65 340.047,91.04 L327.825,91.04 C327.134,87.35 325.911,84.558 324.157,82.677 C322.402,80.797 319.645,79.856 315.883,79.856 C311.494,79.856 308.236,81.237 306.106,83.993 C304.6,85.938 303.722,89.26 303.472,93.96 C303.346,95.46 303.284,97.5 303.284,100.07 L303.284,105.9 C303.284,113.11 304.286,118.03 306.293,120.66 C308.362,123.3 311.574,124.61 315.931,124.61 C320.285,124.61 323.296,123.4 324.955,120.99 C326.617,118.58 327.697,114.83 328.201,109.76" id="Fill-23"></path>
                <path d="M433.131,135.71 L409.437,135.71 C401.916,135.71 396.635,134.41 393.595,131.81 C390.554,129.2 389.034,124.61 389.034,118.03 L389.034,68.762 L416.384,68.762 L416.384,80.421 L402.104,80.421 L402.104,96.12 L423.823,96.12 L422.884,107.78 L402.104,107.78 L402.104,117.09 C402.104,119.72 402.697,121.54 403.891,122.54 C405.08,123.55 407.241,124.05 410.378,124.05 L433.131,124.05 L433.131,135.71" id="Fill-24"></path>
                <path d="M97.66,135.71 L110.729,135.71 L110.729,110.88 L120.132,110.88 L133.201,135.71 L148.339,135.71 L133.39,108.72 C133.39,108.72 145.612,104.7 145.612,90.2 C145.612,75.701 134.679,68.762 125.13,68.762 C116.98,68.762 111.712,68.762 111.712,68.762 C111.712,68.762 103.968,68.605 100.758,72.593 C97.897,76.149 97.82,80.421 97.82,80.421 L123.479,80.421 C123.479,80.421 132.543,80.415 132.543,89.96 C132.543,99.51 124.114,99.93 124.114,99.93 L106.776,99.93 C106.776,99.93 102.554,100.26 100.2,103.08 C97.846,105.89 97.657,108.82 97.657,108.82 L97.66,135.71" id="Fill-25"></path>
                <path d="M27.816,30.554 L36.561,30.554 C36.561,36.701 35.024,41.423 31.95,44.721 C28.877,48.021 24.539,49.669 18.936,49.669 C6.599,49.669 0.429,42.417 0.429,27.911 L0.429,23.843 C0.429,12.411 3.593,5.247 9.92,2.354 C12.405,1.18 15.411,0.592 18.936,0.592 C24.088,0.592 28.279,2.005 31.51,4.829 C34.74,7.654 36.357,11.733 36.357,17.064 L27.545,17.064 C27.047,14.398 26.165,12.387 24.901,11.032 C23.635,9.676 21.648,8.998 18.936,8.998 C15.772,8.998 13.422,9.993 11.886,11.98 C10.802,13.381 10.168,15.776 9.989,19.166 C9.897,20.25 9.853,21.719 9.853,23.572 L9.853,27.774 C9.853,32.972 10.575,36.519 12.022,38.418 C13.513,40.315 15.829,41.264 18.97,41.264 C22.11,41.264 24.28,40.395 25.477,38.655 C26.675,36.916 27.453,34.214 27.816,30.554" id="Fill-4"></path>
            </g>
        </g>
    </g>
</svg>