<svg width="21" height="21" viewBox="0 0 21 21" fill="none" xmlns="http://www.w3.org/2000/svg">
<path fill-rule="evenodd" clip-rule="evenodd" d="M20.1252 0H0.875437C0.391781 0 0 0.391781 0 0.874781V20.1252C0 20.6082 0.391781 21 0.875437 21H11.1562V13.125H8.53125V9.84375H11.1562V7.21875C11.1562 4.50647 12.8737 3.17166 15.2933 3.17166C16.4522 3.17166 17.4484 3.25828 17.7384 3.29634V6.13134L16.0604 6.132C14.7446 6.132 14.4375 6.75741 14.4375 7.67484V9.84375H17.7188L17.0625 13.125H14.4375L14.49 21H20.1252C20.6082 21 21 20.6082 21 20.1252V0.874781C21 0.391781 20.6082 0 20.1252 0Z" fill="#444444"/>
</svg>
