<svg width="36" height="23" viewBox="0 0 36 23" fill="none" xmlns="http://www.w3.org/2000/svg">
    <path
        d="M27.9779 2.48389L30.0454 4.13098L34.4688 7.64775L27.9779 12.8314V8.91893H9.12172C7.04437 8.91893 5.28205 10.2422 5.09105 12.3664C4.9018 14.4709 6.44053 16.3034 8.55514 16.4916H8.57005C8.73186 16.5169 8.89432 16.5169 9.05711 16.4916L9.06208 16.5163H12.8886V19.0488H8.8931V19.0092C8.7008 19.0122 8.50845 19.0282 8.31658 19.0092C4.83811 18.6932 2.24487 15.6078 2.55634 12.1439C2.86643 8.6954 5.87981 6.38646 9.12172 6.38646H27.9779V2.48389Z"
        fill="black" />
    <path
        d="M19.56 16.32V15.72H15.864V21H16.504V18.624H18.888V18.024H16.504V16.32H19.56ZM21.3868 20.4V15.72H20.7468V21H24.4108V20.4H21.3868ZM26.1681 15.72H25.5281V21H26.1681V15.72ZM29.7593 15.72H27.8953V21H28.5353V18.936H29.7593C30.8233 18.936 31.5353 18.32 31.5353 17.328C31.5353 16.336 30.8233 15.72 29.7593 15.72ZM29.6633 18.336H28.5353V16.32H29.6633C30.4953 16.32 30.8633 16.672 30.8633 17.328C30.8633 17.984 30.4953 18.336 29.6633 18.336Z"
        fill="black" />
</svg>