<svg width="20" height="20" viewBox="0 0 20 20" fill="none" xmlns="http://www.w3.org/2000/svg">
<path fill-rule="evenodd" clip-rule="evenodd" d="M17.5 18.125H2.5C2.155 18.125 1.875 17.845 1.875 17.5V8.125H4.375C4.04937 8.59375 3.93937 9.46812 3.93937 10.0231C3.93937 13.37 6.66875 16.0931 10.0231 16.0931C13.3781 16.0931 16.1075 13.37 16.1075 10.0231C16.1075 9.46812 16.0288 8.60688 15.625 8.125H18.125V17.5C18.125 17.845 17.845 18.125 17.5 18.125M10.0228 6.18625C12.1472 6.18625 13.8691 7.90438 13.8691 10.0231C13.8691 12.1425 12.1472 13.8606 10.0228 13.8606C7.89909 13.8606 6.17721 12.1425 6.17721 10.0231C6.17721 7.90438 7.89909 6.18625 10.0228 6.18625M15 2.5H16.875C17.22 2.5 17.5 2.78 17.5 3.125V5C17.5 5.345 17.22 5.625 16.875 5.625H15C14.655 5.625 14.375 5.345 14.375 5V3.125C14.375 2.78 14.655 2.5 15 2.5M17.6225 0H2.3775C1.06437 0 0 1.06188 0 2.37188V17.6281C0 18.9381 1.06437 20 2.3775 20H17.6225C18.9356 20 20 18.9381 20 17.6281V2.37188C20 1.06188 18.9356 0 17.6225 0" fill="#444444"/>
</svg>
