<svg xmlns="http://www.w3.org/2000/svg" viewBox="0 0 14 14">
    <path
        d="M12.25,12.69H1.75a.44.44,0,0,1-.44-.44V5.69H3.06A2.65,2.65,0,0,0,2.76,7a4.26,4.26,0,0,0,8.52,0,2.25,2.25,0,0,0-.34-1.33h1.75v6.56a.44.44,0,0,1-.44.44M7,4.33A2.69,2.69,0,1,1,4.32,7,2.69,2.69,0,0,1,7,4.33M10.5,1.75h1.31a.44.44,0,0,1,.44.44V3.5a.44.44,0,0,1-.44.44H10.5a.44.44,0,0,1-.44-.44V2.19a.44.44,0,0,1,.44-.44M12.34,0H1.66A1.66,1.66,0,0,0,0,1.66V12.34A1.66,1.66,0,0,0,1.66,14H12.34A1.66,1.66,0,0,0,14,12.34V1.66A1.66,1.66,0,0,0,12.34,0"
        fill="#444" fill-rule="evenodd" />
</svg>