<svg width="41" height="41" viewBox="0 0 41 41" fill="none" xmlns="http://www.w3.org/2000/svg">
    <path fill-rule="evenodd" clip-rule="evenodd"
        d="M20.5239 24.4562C22.7008 24.4562 24.4664 22.6957 24.4664 20.5227C24.4664 18.351 22.7008 16.5906 20.5239 16.5906C18.3471 16.5906 16.5815 18.351 16.5815 20.5227C16.5815 22.6957 18.3471 24.4562 20.5239 24.4562Z" />
    <path fill-rule="evenodd" clip-rule="evenodd"
        d="M25.0636 16.4948H27.8349C28.1514 16.4948 28.4089 16.2385 28.4089 15.9233V13.1571C28.4089 12.8419 28.1514 12.5857 27.8349 12.5857H25.0636C24.7471 12.5857 24.4896 12.8419 24.4896 13.1571V15.9233C24.4896 16.2385 24.7471 16.4948 25.0636 16.4948Z" />
    <path fill-rule="evenodd" clip-rule="evenodd"
        d="M30.75 28.3182C30.75 29.6609 29.6597 30.75 28.3131 30.75H12.6869C11.3416 30.75 10.25 29.6609 10.25 28.3182V12.6805C10.25 11.3378 11.3416 10.25 12.6869 10.25H28.3131C29.6597 10.25 30.75 11.3378 30.75 12.6805V28.3182ZM20.5 0C9.17759 0 0 9.17759 0 20.5C0 31.8211 9.17759 41 20.5 41C31.8224 41 41 31.8211 41 20.5C41 9.17759 31.8224 0 20.5 0Z" />
    <path fill-rule="evenodd" clip-rule="evenodd"
        d="M26.7599 20.5233C26.7599 23.9532 23.963 26.745 20.5241 26.745C17.0852 26.745 14.2882 23.9532 14.2882 20.5233C14.2882 19.9544 14.3651 19.4022 14.5099 18.8782H12.5919V27.7931C12.5919 28.1096 12.8481 28.3658 13.1646 28.3658H27.8823C28.2 28.3658 28.4563 28.1096 28.4563 27.7931V18.8782H26.5383C26.683 19.4022 26.7599 19.9544 26.7599 20.5233Z" />
</svg>