<svg xmlns="http://www.w3.org/2000/svg" viewBox="0 0 31.49 32"><title>json-icon</title><g id="b4ae1f28-524f-4f6a-8c22-8354c1139877" data-name="Warstwa 2"><g id="bf01cf28-ab00-458a-9941-e6fb8f357693" data-name="Warstwa 1"><g id="aaca5a81-5536-4055-a6e4-c356c5dbfd7d" data-name="Wireframes"><g id="aad7549a-c886-4d62-b61d-de078def1c88" data-name="Group-27"><g id="bcd97ba8-b108-4258-bc7e-84594d03ad0f" data-name="Group-23"><g id="aec23369-3e01-41c0-9fcc-3703aae00dee" data-name="action-items"><g id="e193bf1f-925d-4577-bd7f-b13c3f9340f3" data-name="Path"><path d="M23.33,32H.67A.67.67,0,0,1,0,31.33V8.11a.66.66,0,0,1,.17-.44L6.84.22A.64.64,0,0,1,7.33,0h16A.67.67,0,0,1,24,.67V16a.67.67,0,1,1-1.33,0V1.33h-15l-6.3,7V30.67H22.67V28A.67.67,0,1,1,24,28v3.33A.67.67,0,0,1,23.33,32Z" fill="#fff"/></g><path d="M7.36,9H1.64A.63.63,0,0,1,1,8.38a.63.63,0,0,1,.64-.61H6.73V1.62A.63.63,0,0,1,7.36,1,.63.63,0,0,1,8,1.62V8.38A.63.63,0,0,1,7.36,9Z" fill="#fff"/><g id="fb4a0eb4-3c10-46f4-ab2b-aaf12eea9435" data-name="JSON" style="isolation:isolate"><g style="isolation:isolate"><path d="M5.75,24l.85-.12A1.87,1.87,0,0,0,6.91,25a.94.94,0,0,0,.76.31,1.12,1.12,0,0,0,.61-.17.83.83,0,0,0,.36-.44,3.17,3.17,0,0,0,.1-.9V18.84h.94v4.88a3.66,3.66,0,0,1-.21,1.39,1.57,1.57,0,0,1-.69.75,2.2,2.2,0,0,1-1.11.26,1.86,1.86,0,0,1-1.44-.54A2.22,2.22,0,0,1,5.75,24Z" fill="#fff"/><path d="M11,23.7l.89-.08a2,2,0,0,0,.3.88,1.55,1.55,0,0,0,.72.56,2.73,2.73,0,0,0,1.1.21,2.52,2.52,0,0,0,.95-.16,1.29,1.29,0,0,0,.62-.44,1,1,0,0,0,.2-.61.93.93,0,0,0-.19-.59,1.41,1.41,0,0,0-.65-.42,9.37,9.37,0,0,0-1.27-.35,6.44,6.44,0,0,1-1.38-.45,2,2,0,0,1-.77-.67,1.68,1.68,0,0,1-.25-.89,1.85,1.85,0,0,1,.31-1,2,2,0,0,1,.9-.72,3.43,3.43,0,0,1,1.31-.24,3.48,3.48,0,0,1,1.41.26,2,2,0,0,1,.93.75,2.1,2.1,0,0,1,.35,1.13l-.91.07a1.43,1.43,0,0,0-.49-1,1.94,1.94,0,0,0-1.25-.35,2,2,0,0,0-1.25.32.94.94,0,0,0-.39.76.8.8,0,0,0,.27.63,3.7,3.7,0,0,0,1.43.51,10.22,10.22,0,0,1,1.59.46,2.23,2.23,0,0,1,.92.73,1.77,1.77,0,0,1,.3,1,1.9,1.9,0,0,1-.33,1.07,2.16,2.16,0,0,1-.94.79,3.24,3.24,0,0,1-1.38.28,4.11,4.11,0,0,1-1.63-.28,2.27,2.27,0,0,1-1-.85A2.39,2.39,0,0,1,11,23.7Z" fill="#fff"/><path d="M17.73,22.51a3.91,3.91,0,0,1,1-2.79,3.26,3.26,0,0,1,2.47-1,3.4,3.4,0,0,1,1.79.48,3,3,0,0,1,1.21,1.32,4.57,4.57,0,0,1,0,3.87,3,3,0,0,1-1.25,1.3,3.56,3.56,0,0,1-1.73.44,3.34,3.34,0,0,1-1.81-.49,3.18,3.18,0,0,1-1.21-1.33A4.08,4.08,0,0,1,17.73,22.51Zm1,0a2.86,2.86,0,0,0,.7,2,2.43,2.43,0,0,0,3.5,0,3,3,0,0,0,.69-2.13,3.76,3.76,0,0,0-.29-1.53,2.27,2.27,0,0,0-.87-1,2.32,2.32,0,0,0-1.27-.36,2.42,2.42,0,0,0-1.73.69A3.06,3.06,0,0,0,18.71,22.53Z" fill="#fff"/><path d="M25.85,26V18.84h1l3.76,5.62V18.84h.91V26h-1l-3.76-5.62V26Z" fill="#fff"/></g></g></g></g></g></g></g></g></svg>