<svg xmlns="http://www.w3.org/2000/svg" viewBox="0 0 17.7 27.69"><title>link-icon</title><g id="e4c1a185-7cd4-4acc-9fa1-bdf4e6fb4419" data-name="Warstwa 2"><g id="f655def0-369d-405c-84b0-a196d2a437b4" data-name="Warstwa 1"><g id="a9959f70-ff32-49ce-ab90-f3bc0ba2498f" data-name="design---white"><g id="a45fc8c4-f1dc-418e-a4c6-88dcd6fd36d4" data-name="link"><g id="a3e563b7-dc61-49a2-80d9-08314d5d12a5" data-name="LINK" style="isolation:isolate"><text transform="translate(0.85 25.25)" font-size="7.5" fill="#585858" font-family="ArialMT, Arial" letter-spacing="0.01em" style="isolation:isolate">LINK</text></g><g id="f0383205-1a6f-47fb-85c8-af403bad90b7" data-name="Group"><path id="bc17baca-abdf-4cbc-8e22-68c73cd4e579" data-name="Path" d="M6,7.09l-3.4,3.39A2.4,2.4,0,0,0,5.91,14l3.5-3.5,1.14,1.14L7.15,15A4,4,0,0,1,1.37,9.47L4.88,6,6,7.08Z" fill="#585858" stroke="#fff" stroke-width="0.5"/><polygon id="b94315b1-0bd2-4efb-8462-f00a6107cfc5" data-name="Rectangle" points="5.45 9.92 9.98 5.39 11.11 6.52 6.58 11.05 5.45 9.92" fill="#585858" stroke="#fff" stroke-width="0.5"/><path d="M15.07,1.43A4,4,0,0,1,15.2,7l-3.53,3.52L10.55,9.35,13.94,6a2.4,2.4,0,0,0-3.29-3.49L7.15,6,6,4.82,9.41,1.43a4,4,0,0,1,5.66,0Z" fill="#585858" stroke="#fff" stroke-width="0.5"/></g></g></g></g></g></svg>