<svg width="21" height="21" viewBox="0 0 21 21" fill="none" xmlns="http://www.w3.org/2000/svg">
<path fill-rule="evenodd" clip-rule="evenodd" d="M17.895 17.894H14.7805V13.0207C14.7805 11.8584 14.7608 10.3635 13.1622 10.3635C11.5419 10.3635 11.2945 11.6301 11.2945 12.9373V17.894H8.1832V7.87237H11.1691V9.24262H11.2118C11.6272 8.45447 12.6431 7.62366 14.1584 7.62366C17.3123 7.62366 17.895 9.69872 17.895 12.3979V17.894ZM4.67176 6.50344C3.67098 6.50344 2.86445 5.69428 2.86445 4.69678C2.86445 3.69994 3.67098 2.89078 4.67176 2.89078C5.66795 2.89078 6.47711 3.69994 6.47711 4.69678C6.47711 5.69428 5.66795 6.50344 4.67176 6.50344V6.50344ZM6.22972 17.894H3.11187V7.87238H6.22972V17.894ZM20.1252 0H0.875437C0.391781 0 0 0.391781 0 0.874781V20.1246C0 20.6082 0.391781 21 0.875437 21H20.1252C20.6082 21 21 20.6082 21 20.1246V0.874781C21 0.391781 20.6082 0 20.1252 0V0Z" fill="#444444"/>
</svg>
