<svg xmlns="http://www.w3.org/2000/svg" viewBox="0 0 17.7 27.69">
    <text transform="translate(0.85 25.25)" font-size="7.5" fill="#585858" font-family="ArialMT, Arial"
        letter-spacing="0.01em" style="isolation:isolate">LINK</text>
    <path d="M6,7.09l-3.4,3.39A2.4,2.4,0,0,0,5.91,14l3.5-3.5,1.14,1.14L7.15,15A4,4,0,0,1,1.37,9.47L4.88,6,6,7.08Z"
        fill="#585858" stroke="#fff" stroke-width="0.5" />
    <polygon points="5.45 9.92 9.98 5.39 11.11 6.52 6.58 11.05 5.45 9.92" fill="#585858" stroke="#fff"
        stroke-width="0.5" />
    <path
        d="M15.07,1.43A4,4,0,0,1,15.2,7l-3.53,3.52L10.55,9.35,13.94,6a2.4,2.4,0,0,0-3.29-3.49L7.15,6,6,4.82,9.41,1.43a4,4,0,0,1,5.66,0Z"
        fill="#585858" stroke="#fff" stroke-width="0.5" />
</svg>