<svg version="1.1" xmlns="http://www.w3.org/2000/svg" xmlns:xlink="http://www.w3.org/1999/xlink" x="0px" y="0px"
	 viewBox="0 0 49.6 50.6" enable-background="new 0 0 49.6 50.6" xml:space="preserve">
	<path fill-rule="evenodd" clip-rule="evenodd" d="M18.8,19.3v-7.6h1.9v7.6h7.6v1.9h-7.6v7.6h-1.9v-7.6h-7.6v-1.9
		H18.8L18.8,19.3z M31,36.1c-3.2,2.3-7.1,3.6-11.3,3.6C9,39.7,0.3,31,0.3,20.3S9,0.8,19.7,0.8s19.5,8.7,19.5,19.5
		c0,4.2-1.3,8.1-3.6,11.3l12.8,12.8c1.3,1.3,1.2,3.3,0,4.5l-0.1,0.1c-1.2,1.2-3.3,1.2-4.5,0L31,36.1L31,36.1L31,36.1z M19.7,35.1
		c8.2,0,14.9-6.7,14.9-14.9S28,5.4,19.7,5.4S4.9,12,4.9,20.3S11.5,35.1,19.7,35.1L19.7,35.1z"/>
</svg>