<svg xmlns="http://www.w3.org/2000/svg" viewBox="0 0 26.38 32"><title>pdf-icon</title><g id="a3c1d100-660a-4332-856c-89932230365a" data-name="Warstwa 2"><g id="e337106e-15bf-408c-9641-d33c44a3dfa6" data-name="Warstwa 1"><g id="a0556b01-9e69-47a8-89cf-4b41db88ddab" data-name="Wireframes"><g id="bdf32651-df5c-4eb8-bab9-6e3d7c917e80" data-name="Group-27"><g id="ab89e4cd-0c43-42e7-88cd-a4474ef873fb" data-name="Group-23"><g id="aaeeb5fd-c0ef-4d7b-b34b-278e5df0b325" data-name="action-items"><path id="e4f48145-017c-450f-8920-79d870c3bd2d" data-name="Path" d="M23.33,32H.67A.67.67,0,0,1,0,31.33V8.11a.66.66,0,0,1,.17-.44L6.84.22A.64.64,0,0,1,7.33,0h16A.67.67,0,0,1,24,.67V16a.67.67,0,1,1-1.33,0V1.33h-15l-6.3,7V30.67H22.67V28A.67.67,0,1,1,24,28v3.33A.67.67,0,0,1,23.33,32Z" fill="#fff"/><path d="M7.36,9H1.64A.63.63,0,0,1,1,8.38a.63.63,0,0,1,.64-.61H6.73V1.62A.63.63,0,0,1,7.36,1,.63.63,0,0,1,8,1.62V8.38A.63.63,0,0,1,7.36,9Z" fill="#fff"/><g id="a8bb3416-67b0-4b16-8939-62292a8f0cb7" data-name="PDF" style="isolation:isolate"><text transform="translate(6.2 26)" font-size="10" fill="#fff" font-family="ArialMT, Arial" letter-spacing="0.01em" style="isolation:isolate">PDF</text></g></g></g></g></g></g></g></svg>