<svg width="14" height="20" viewBox="0 0 14 20" fill="none" xmlns="http://www.w3.org/2000/svg">
    <path fill-rule="evenodd" clip-rule="evenodd"
        d="M6.89991 19.8909C6.84233 19.9606 6.75748 20 6.66657 20C6.57567 20 6.49082 19.9606 6.43324 19.8879C6.1787 19.5818 0.193848 12.2727 0.193848 6.47273C0.193848 2.90303 3.09688 0 6.66657 0C10.2363 0 13.1393 2.90303 13.1393 6.47576C13.1393 12.2758 7.15445 19.5818 6.89991 19.8909ZM12.5332 6.47273C12.5332 3.23939 9.90294 0.606061 6.66657 0.606061C3.43021 0.606061 0.799908 3.23939 0.799908 6.47576C0.799908 11.4242 5.54839 17.7818 6.66657 19.2121C7.78476 17.7818 12.5332 11.4242 12.5332 6.47273Z"
        fill="white" />
    <path fill-rule="evenodd" clip-rule="evenodd"
        d="M6.66673 2.20303C8.77885 2.20303 10.497 3.92122 10.497 6.03334C10.497 8.14546 8.77885 9.86364 6.66673 9.86364C4.55461 9.86364 2.83643 8.14546 2.83643 6.03334C2.83643 3.92122 4.55461 2.20303 6.66673 2.20303ZM6.66673 2.80909C4.88794 2.80909 3.44249 4.25758 3.44249 6.03334C3.44249 7.80909 4.89097 9.25758 6.66673 9.25758C8.44552 9.25758 9.89097 7.81212 9.89097 6.03334C9.89097 4.25455 8.44249 2.80909 6.66673 2.80909Z"
        fill="white" />
</svg>