<svg width="22" height="22" viewBox="0 0 22 22" fill="none" xmlns="http://www.w3.org/2000/svg">
<path fill-rule="evenodd" clip-rule="evenodd" d="M11 0C4.92456 0 0 4.92456 0 11C0 15.6599 2.89919 19.6405 6.99119 21.2431C6.89494 20.3727 6.80831 19.0376 7.02969 18.0874C7.22906 17.2294 8.31944 12.6198 8.31944 12.6198C8.31944 12.6198 7.99013 11.9611 7.99013 10.9869C7.99013 9.45725 8.877 8.31531 9.98044 8.31531C10.9189 8.31531 11.3726 9.02 11.3726 9.86494C11.3726 10.8089 10.7717 12.2196 10.4617 13.5273C10.2025 14.6224 11.0103 15.5155 12.0904 15.5155C14.0456 15.5155 15.5485 13.4537 15.5485 10.4782C15.5485 7.84438 13.6558 6.00256 10.9532 6.00256C7.82375 6.00256 5.98675 8.35038 5.98675 10.7766C5.98675 11.7219 6.35044 12.7359 6.80487 13.2866C6.89494 13.3959 6.908 13.4908 6.88119 13.6022C6.798 13.9501 6.61237 14.6967 6.57594 14.85C6.52781 15.0508 6.41644 15.0941 6.20813 14.9971C4.83381 14.3571 3.97513 12.3489 3.97513 10.7353C3.97513 7.2655 6.49619 4.07894 11.2434 4.07894C15.059 4.07894 18.0249 6.798 18.0249 10.4321C18.0249 14.223 15.6344 17.2741 12.3166 17.2741C11.2021 17.2741 10.1544 16.6946 9.7955 16.0105C9.7955 16.0105 9.24413 18.1108 9.11006 18.6257C8.86188 19.5807 8.19156 20.7783 7.74263 21.5091C8.7725 21.8281 9.86631 22 11 22C17.0754 22 22 17.0747 22 11C22 4.92456 17.0754 0 11 0Z" fill="#444444"/>
</svg>
