<svg xmlns="http://www.w3.org/2000/svg" viewBox="0 0 14 14">
    <path
        d="M7,0A7,7,0,0,0,4.45,13.52a6.78,6.78,0,0,1,0-2L5.29,8a2.53,2.53,0,0,1-.21-1c0-1,.57-1.7,1.27-1.7a.88.88,0,0,1,.89,1,14.84,14.84,0,0,1-.58,2.33,1,1,0,0,0,1,1.26c1.25,0,2.2-1.31,2.2-3.2A2.76,2.76,0,0,0,7,3.82a3,3,0,0,0-3.16,3,2.75,2.75,0,0,0,.52,1.6.19.19,0,0,1,0,.2c0,.22-.17.69-.2.79s-.1.16-.23.09A3.13,3.13,0,0,1,2.53,6.83c0-2.21,1.6-4.23,4.62-4.23a4.11,4.11,0,0,1,4.32,4C11.47,9.05,10,11,7.84,11a1.9,1.9,0,0,1-1.61-.8s-.35,1.34-.43,1.66a8.23,8.23,0,0,1-.87,1.84A7,7,0,1,0,7,0"
        fill="#444" fill-rule="evenodd" />
</svg>