<svg width="311" height="77" viewBox="0 0 311 77" fill="none" xmlns="http://www.w3.org/2000/svg">
<path fill-rule="evenodd" clip-rule="evenodd" d="M246.208 44.9805H302.234L304.902 74.332H246.208V44.9805Z" fill="white"/>
<path fill-rule="evenodd" clip-rule="evenodd" d="M169.423 42.2431C170.197 42.2431 171.014 42.2183 171.872 42.1686C172.731 42.119 173.579 42.0148 174.418 41.8559C175.257 41.6971 176.058 41.4713 176.822 41.1784C177.587 40.8856 178.259 40.496 178.84 40.0096C179.42 39.5231 179.884 38.9275 180.232 38.2227C180.579 37.5179 180.753 36.6742 180.753 35.6914C180.753 34.9271 180.604 34.2471 180.306 33.6515C180.008 33.0559 179.601 32.5297 179.085 32.0731C178.569 31.6165 177.969 31.2169 177.284 30.8744C176.599 30.532 175.872 30.2317 175.103 29.9736C174.334 29.7155 173.54 29.4897 172.721 29.2961C171.902 29.1025 171.108 28.9238 170.339 28.76C169.57 28.5963 168.842 28.4374 168.158 28.2836C167.473 28.1297 166.872 27.9659 166.356 27.7922C165.84 27.6185 165.433 27.4199 165.135 27.1966C164.838 26.9732 164.689 26.7126 164.689 26.4148C164.689 26.3255 164.706 26.2262 164.741 26.117C164.776 26.0078 164.853 25.8987 164.972 25.7895C165.091 25.6803 165.262 25.5736 165.485 25.4693C165.709 25.3651 166.011 25.2733 166.393 25.1939C166.776 25.1144 167.247 25.0499 167.808 25.0003C168.369 24.9506 169.046 24.9258 169.84 24.9258C170.833 24.9258 171.8 24.9978 172.743 25.1417C173.686 25.2857 174.559 25.4644 175.363 25.6778C176.167 25.8912 176.887 26.117 177.522 26.3553C178.157 26.5935 178.668 26.807 179.056 26.9956V22.2605C178.41 22.052 177.708 21.8535 176.949 21.6649C176.19 21.4763 175.403 21.31 174.589 21.1661C173.775 21.0221 172.949 20.9104 172.11 20.831C171.272 20.7516 170.455 20.7119 169.661 20.7119C168.937 20.7119 168.173 20.7417 167.369 20.8013C166.565 20.8608 165.771 20.97 164.987 21.1288C164.202 21.2877 163.456 21.511 162.746 21.7989C162.036 22.0868 161.411 22.4615 160.87 22.9231C160.329 23.3847 159.9 23.9431 159.582 24.5982C159.265 25.2534 159.106 26.0327 159.106 26.936C159.106 27.7004 159.255 28.3729 159.552 28.9536C159.85 29.5343 160.257 30.0456 160.773 30.4873C161.289 30.929 161.89 31.3112 162.575 31.6338C163.26 31.9565 163.987 32.2394 164.756 32.4826C165.525 32.7258 166.317 32.9367 167.13 33.1154C167.944 33.2941 168.736 33.4604 169.505 33.6142C170.274 33.7681 171.001 33.922 171.686 34.0758C172.371 34.2297 172.971 34.3985 173.487 34.5821C174.004 34.7657 174.411 34.9792 174.708 35.2224C175.006 35.4656 175.155 35.751 175.155 36.0786C175.155 36.287 175.08 36.5054 174.932 36.7337C174.783 36.962 174.5 37.173 174.083 37.3666C173.666 37.5601 173.088 37.719 172.349 37.843C171.609 37.9671 170.654 38.0292 169.483 38.0292C167.498 38.0292 165.634 37.8157 163.892 37.3889C162.15 36.962 160.6 36.3714 159.24 35.617V40.5009C160.56 40.9973 162.081 41.4117 163.803 41.7443C165.525 42.0768 167.398 42.2431 169.423 42.2431ZM93.1768 41.6922L98.5066 27.9336L103.851 41.6922H109.985L118.203 21.2331H112.471L106.814 35.4383L101.588 21.2331H95.4397L90.095 35.1405L84.5567 21.2331H78.8101L87.043 41.6922H93.1768ZM125.525 41.6922V21.2331H120.002V41.6922H125.525ZM135.735 27.6358V41.6922H130.212V21.2331H136.211L150.027 35.3489V21.2331H155.521V41.6922H149.536L135.735 27.6358ZM196.111 31.7455V41.6922H194.25V21.2331H210.448V22.9752H196.111V30.0183H209.718V31.7455H196.111ZM225.109 42.0942C226.936 42.0942 228.638 41.8857 230.216 41.4688C231.794 41.0519 233.164 40.4091 234.325 39.5405C235.486 38.6719 236.399 37.5701 237.064 36.2349C237.729 34.8997 238.062 33.3139 238.062 31.4775C238.062 29.641 237.729 28.0552 237.064 26.7201C236.399 25.3849 235.486 24.2831 234.325 23.4145C233.164 22.5459 231.794 21.9031 230.216 21.4862C228.638 21.0693 226.936 20.8608 225.109 20.8608C223.889 20.8608 222.722 20.9526 221.611 21.1363C220.499 21.3199 219.459 21.6028 218.492 21.985C217.524 22.3672 216.646 22.8462 215.857 23.4219C215.068 23.9977 214.395 24.6801 213.839 25.4693C213.284 26.2585 212.852 27.1519 212.544 28.1495C212.236 29.1472 212.083 30.2565 212.083 31.4775C212.083 33.3139 212.415 34.8997 213.08 36.2349C213.745 37.5701 214.663 38.6719 215.834 39.5405C217.005 40.4091 218.385 41.0519 219.973 41.4688C221.561 41.8857 223.273 42.0942 225.109 42.0942ZM220.308 39.8532C221.693 40.2453 223.293 40.4414 225.109 40.4414C226.926 40.4414 228.521 40.2453 229.896 39.8532C231.27 39.4611 232.419 38.8854 233.342 38.126C234.265 37.3666 234.963 36.431 235.434 35.3192C235.906 34.2074 236.141 32.9268 236.141 31.4775C236.141 30.0282 235.906 28.7476 235.434 27.6358C234.963 26.524 234.265 25.5884 233.342 24.829C232.419 24.0696 231.27 23.4939 229.896 23.1018C228.521 22.7097 226.926 22.5136 225.109 22.5136C223.293 22.5136 221.693 22.7122 220.308 23.1092C218.924 23.5063 217.765 24.0845 216.832 24.8439C215.899 25.6033 215.194 26.5414 214.718 27.6582C214.241 28.7749 214.003 30.048 214.003 31.4775C214.003 32.9268 214.241 34.2074 214.718 35.3192C215.194 36.431 215.899 37.3666 216.832 38.126C217.765 38.8854 218.924 39.4611 220.308 39.8532ZM243.657 41.6922V32.9367H251.979C252.287 32.9367 252.584 32.9318 252.872 32.9218C253.16 32.9119 253.443 32.897 253.721 32.8772L260.316 41.6922H262.653L255.671 32.6687C257.458 32.3312 258.753 31.7033 259.557 30.7851C260.361 29.8669 260.763 28.6434 260.763 27.1147C260.763 26.1319 260.599 25.2733 260.271 24.5387C259.944 23.8041 259.425 23.1911 258.716 22.6998C258.006 22.2084 257.095 21.8411 255.984 21.5979C254.872 21.3547 253.537 21.2331 251.979 21.2331H241.796V41.6922H243.657ZM243.657 31.1946H249.939C251.577 31.1946 252.961 31.1474 254.093 31.0531C255.224 30.9588 256.143 30.7653 256.847 30.4724C257.552 30.1796 258.061 29.7676 258.373 29.2365C258.686 28.7054 258.842 27.9982 258.842 27.1147C258.842 26.2411 258.688 25.5338 258.381 24.9928C258.073 24.4518 257.572 24.0324 256.877 23.7346C256.182 23.4368 255.272 23.2358 254.145 23.1316C253.019 23.0273 251.636 22.9752 249.999 22.9752H243.657V31.1946Z" fill="#72CB46"/>
<path fill-rule="evenodd" clip-rule="evenodd" d="M91.3873 69.3766V50.615H100.692V48.9175H80.2363V50.615H89.5412V69.3766H91.3873ZM104.858 69.3766V59.4597H123.185V69.3766H125.046V48.9175H123.185V57.7325H104.858V48.9175H102.997V69.3766H104.858ZM147.493 67.6344V69.3766H130.224V48.9175H147.27V50.6596H132.248V57.7027H146.511V59.4299H132.248V67.6344H147.493ZM166.559 69.3766V62.9142H175.73C177.238 62.9142 178.519 62.7405 179.571 62.3931C180.623 62.0456 181.479 61.5617 182.139 60.9413C182.799 60.3209 183.278 59.5813 183.575 58.7227C183.873 57.864 184.022 56.9234 184.022 55.901C184.022 54.8785 183.873 53.9404 183.575 53.0867C183.278 52.233 182.799 51.496 182.139 50.8755C181.479 50.2551 180.623 49.7737 179.571 49.4312C178.519 49.0887 177.238 48.9175 175.73 48.9175H161.035V69.3766H166.559ZM166.559 58.5514H174.539C175.263 58.5514 175.874 58.5092 176.37 58.4248C176.866 58.3405 177.268 58.1965 177.576 57.993C177.883 57.7895 178.104 57.524 178.238 57.1964C178.372 56.8688 178.439 56.4668 178.439 55.9903C178.439 55.5138 178.372 55.1043 178.238 54.7619C178.104 54.4194 177.883 54.139 177.576 53.9206C177.268 53.7022 176.866 53.5409 176.37 53.4366C175.874 53.3324 175.263 53.2803 174.539 53.2803H166.559V58.5514ZM207.333 68.7164V64.8946H192.401V48.9175H186.878V69.3766H206.988L207.333 68.7164ZM207.333 68.7164V69.3766H213.152L215.072 65.5051H226.476L228.397 69.3766H234.56L223.856 48.9175H217.692L207.333 68.7164ZM224.526 61.5146H217.052L220.804 53.9801L224.526 61.5146ZM241.718 55.3203V69.3766H236.195V48.9175H242.195L256.011 63.0334V48.9175H261.504V69.3766H255.519L241.718 55.3203ZM287.108 69.3766V65.0138H271.863V61.0232H286.126V56.6604H271.863V53.2803H286.9V48.9175H266.191V69.3766H287.108ZM302.186 53.3696V69.3766H296.663V53.3696H287.984V48.9175H310.881V53.3696H302.186Z" fill="#6ADEE2"/>
<path d="M37.8132 76.9763C43.355 76.9763 48.6853 75.7996 53.6552 73.4791L52.9686 72.0117C48.2149 74.2309 43.1163 75.3562 37.8132 75.3562V76.9763Z" fill="#72CB46"/>
<path d="M56.4582 72.0233C57.1365 71.6337 57.8112 71.2177 58.4641 70.7862L57.5692 69.4351C56.9448 69.8476 56.299 70.2459 55.6497 70.6184L56.4582 72.0233Z" fill="#72CB46"/>
<path d="M57.3162 7.53147C56.6617 7.13156 55.9877 6.74834 55.313 6.3916L54.5544 7.8234C55.1994 8.16434 55.844 8.53136 56.4705 8.91345L57.3162 7.53147Z" fill="#72CB46"/>
<path d="M52.9176 5.23335C48.1626 3.14146 43.0806 2.08105 37.8132 2.08105V3.7011C42.8541 3.7011 47.716 4.71558 52.2643 6.71577L52.9176 5.23335Z" fill="#72CB46"/>
<path d="M2.00587 41.6576C1.96427 40.9508 1.94335 40.2357 1.94335 39.5317H0.321533C0.321533 40.2674 0.343671 41.0146 0.387298 41.7526L2.00587 41.6576Z" fill="#72CB46"/>
<path d="M0.507324 43.2805C1.0122 48.3301 2.51562 53.1443 4.97527 57.5889L6.39436 56.8049C4.042 52.5539 2.60434 47.9492 2.12128 43.1191L0.507324 43.2805Z" fill="#72CB46"/>
<path d="M37.895 14.57C38.2642 15.9801 36.9734 17.0885 36.7849 17.581C36.6387 17.962 36.8714 19.1962 37.5551 20.1889C38.6029 21.7091 39.0805 21.0076 40.0287 19.4457C41.8445 16.4609 46.1962 17.4375 45.0633 13.8106C43.7396 9.57094 46.9251 11.018 38.6954 11.018C38.7802 11.0266 37.1138 11.2152 34.9336 10.2097C34.0376 9.79678 33.4365 9.49707 32.985 9.49707C32.5414 9.49707 32.3891 9.78933 32.4513 10.0343C32.9326 11.9259 37.2993 12.2931 37.895 14.57Z" fill="#72CB46"/>
<path d="M6.61202 34.5704C7.69442 34.5704 8.62567 35.3776 8.98458 36.6268C9.29597 37.7548 8.6384 42.8698 13.5148 45.3494C13.9939 45.5905 14.1164 45.5289 14.1173 45.5298C14.4845 45.251 14.3174 43.3246 14.4183 42.2627C7.82392 44.4885 9.45977 35.5447 14.6394 35.5447C16.8074 35.5447 17.2435 37.2965 17.4347 37.6344C17.6264 37.4313 17.5214 36.8094 17.4823 36.5354C17.5335 36.2304 16.7524 34.6067 18.9129 33.3498C19.1917 33.1017 19.524 33.3245 21.0796 31.1137C22.8841 28.5476 24.3126 27.2685 29.4283 26.4814C30.2076 26.3609 31.3852 26.1798 31.5566 25.9456C31.5537 25.9456 31.5935 25.7284 31.2217 25.0829C28.8853 20.973 27.5859 19.8428 27.522 19.7581C27.0126 19.8853 26.4267 20.715 24.4584 19.5888C23.5186 19.0521 23.1067 18.8013 22.6937 20.9927C22.4614 22.2256 22.0547 23.498 20.7115 23.498C20.0685 23.498 19.4541 23.1075 19.146 22.5028C18.7109 21.6499 16.7364 21.6381 16.6864 19.7689C16.6221 17.3926 19.5205 18.4765 24.7436 13.8204C24.9478 13.6356 25.0467 13.5057 25.0939 13.4302C24.3573 12.8438 20.4908 12.5504 18.733 12.3291C11.0689 17.7026 6.03814 26.04 4.84399 35.2795C5.525 34.72 6.14672 34.5704 6.61202 34.5704Z" fill="#72CB46"/>
<path d="M24.6523 58.0207C28.4509 59.9471 26.003 60.5555 30.0115 67.0982C31.9384 70.2457 31.4753 70.118 32.6681 69.8748C32.6996 69.7854 32.6384 69.3793 32.6015 69.1369C32.1398 66.0825 34.2645 66.0905 34.6374 64.9164C34.8849 64.1404 34.0726 61.8431 37.3703 61.6895C38.5008 61.6366 38.6952 61.6053 38.3185 60.0449C37.516 56.7322 39.7903 55.617 40.388 55.0965C37.7482 54.0009 33.0841 54.5659 32.2984 51.0622C31.9976 49.715 31.2793 51.568 24.9154 47.3195C23.7978 46.5733 22.9154 45.9839 22.214 45.9839C20.8412 45.9839 20.6673 47.6193 20.643 48.9508C20.5159 55.9216 22.8093 57.0855 24.6523 58.0207Z" fill="#72CB46"/>
<path fill-rule="evenodd" clip-rule="evenodd" d="M4.56396 39.5324C4.56396 57.8421 19.4793 72.7379 37.8131 72.7379C44.308 72.7379 50.5525 70.8827 55.953 67.3619C55.0144 66.4327 54.6311 65.0221 55.0745 63.6985C55.547 62.2891 55.96 61.0775 56.3169 60.0306C58.3811 53.9755 58.5674 53.4291 57.5101 51.9627C56.4769 50.5282 55.5052 50.5412 54.519 50.5544C53.3864 50.5696 52.2349 50.585 50.9493 48.4085C47.4666 42.4145 48.0607 40.025 51.6122 35.8861C53.5135 33.6856 55.6079 31.5167 58.4699 31.2429C61.4577 30.9477 62.5893 32.5386 63.4135 33.6973C63.7579 34.1816 64.0487 34.5904 64.3989 34.7545C64.8126 34.947 65.5264 34.8596 66.2369 34.7725C66.6276 34.7247 67.0173 34.6769 67.3557 34.6759C67.5975 34.6751 67.6807 34.4641 67.7006 34.3992C67.8189 34.0112 67.08 33.7587 66.2211 33.4652C65.7132 33.2917 65.1634 33.1038 64.724 32.8651C64.059 32.501 63.4429 31.9005 62.7907 31.2648L62.7895 31.2636C60.3159 28.8541 59.673 29.2564 58.8813 29.7516C58.5152 29.9807 58.1173 30.2296 57.492 30.2296L57.3544 30.2241C56.3482 30.1505 55.2891 29.0979 54.8916 27.776C54.4419 26.2788 54.9193 24.8539 56.2013 23.8674C56.6977 23.4852 56.9959 22.9529 57.0191 22.4065C57.0448 21.8037 56.798 21.6053 56.6123 21.456C56.5556 21.4104 56.5046 21.3694 56.4688 21.3229C56.4419 21.1949 56.449 21.1051 56.4551 21.0284C56.4715 20.823 56.4804 20.7122 55.806 20.2185C52.6717 17.9229 54.6551 13.3191 58.205 13.3061C47.3013 4.81359 32.4831 4.1258 20.9974 10.8804C24.286 11.2456 26.3262 11.6136 26.7552 12.9299C26.9812 13.6243 26.686 14.3477 25.8777 15.0798C22.8812 17.7511 20.5677 18.7091 19.3289 19.2221C18.8129 19.4358 18.4834 19.5722 18.3687 19.7231C18.3862 19.9031 18.4466 19.9766 19.0321 20.2877C20.2258 20.9223 20.4742 21.396 20.6019 21.6395C20.6399 21.712 20.6673 21.7641 20.7057 21.794C20.8468 21.3867 20.9496 20.9517 21.0514 20.5209C21.3827 19.1188 21.7037 17.7604 23.3031 17.5413C24.1278 17.4327 24.7944 17.8227 25.326 18.1337C25.65 18.3233 25.9238 18.4835 26.1526 18.4835C26.2676 18.4639 26.4035 18.4047 26.559 18.3369C27.1864 18.0637 28.1325 17.6516 29.3033 19.1416C30.5513 20.7637 31.6903 22.4776 32.6941 24.2422C33.0584 24.8754 33.4973 25.8218 33.082 26.685C32.5995 27.6882 31.2154 27.9112 29.5568 28.1784C27.6093 28.4921 25.2833 28.8668 23.5946 30.6374C23.1889 31.0618 22.8381 31.5602 22.4671 32.088C21.0342 34.1245 20.1149 34.6322 19.6027 34.9151C19.134 35.1739 19.006 35.2446 19.1372 36.1257L19.1441 36.1739C19.2495 36.9162 19.3496 37.6214 18.9898 38.3384C18.3988 39.5168 16.5799 39.9743 15.7369 38.0038C15.5343 37.5321 15.3204 37.239 14.6389 37.239C11.719 37.239 10.5579 42.1933 13.4402 40.828C15.2242 40.031 16.3011 40.5403 16.0897 42.5854C16.0814 42.6676 16.0828 42.8224 16.0847 43.0274V43.0274C16.0981 44.5009 16.135 48.5655 12.7478 46.8609C8.13312 44.5141 7.74056 40.7253 7.49663 38.3711C7.36629 37.1131 7.27838 36.2647 6.61143 36.2647C6.02068 36.2647 5.443 37.0681 4.96954 37.7267C4.83916 37.908 4.71669 38.0783 4.60402 38.2179C4.60066 38.303 4.59709 38.3882 4.59352 38.4733C4.57874 38.8256 4.56396 39.1779 4.56396 39.5324ZM32.9841 7.80323C33.7523 7.80323 34.3729 8.09177 35.0734 8.41749C35.9811 8.83953 37.0231 9.32397 38.6941 9.32397C39.9218 9.32397 40.9869 9.24469 41.901 9.17664C44.8296 8.95864 46.2096 8.85591 46.4304 11.8445C46.4632 12.2862 46.5742 12.7469 46.6879 13.2183L46.6879 13.2183C47.1008 14.9314 47.5479 16.7862 44.3982 18.3849C44.1727 18.4993 43.9679 18.6027 43.7815 18.6969C42.4813 19.3536 42.0772 19.5577 41.7971 19.8722C41.6707 20.014 41.5695 20.1782 41.4228 20.4165C41.2722 20.6611 41.0735 20.9836 40.7503 21.4399C38.0219 25.2939 34.1779 19.6401 35.2002 16.9753C35.3673 16.5392 35.622 16.2006 35.8392 15.9119C36.3672 15.2103 36.6739 14.8027 34.9637 14.0032C28.4512 10.9571 30.7976 7.80323 32.9841 7.80323ZM25.8726 45.9213C23.8996 44.6225 22.4313 43.656 20.6219 44.7543C19.198 45.6183 18.9765 47.3447 18.9473 48.9199C18.8012 56.9514 21.86 58.5039 23.8843 59.5313L23.8846 59.5315C25.3962 60.2979 25.4996 60.7017 25.783 61.8079C26.0578 62.8811 26.502 64.6153 28.5652 67.9828C28.837 68.4269 29.0701 68.8359 29.2816 69.207C30.1808 70.7848 30.6904 71.6789 32.1311 71.6789C33.9529 71.6789 34.5452 70.641 34.2789 68.884C34.1313 67.9095 34.1306 67.8475 34.9844 67.0906C36.4476 65.7929 36.418 64.8618 36.3988 64.2561C36.3816 63.714 36.3726 63.4326 37.4498 63.3822H37.4498C38.1003 63.3516 38.9094 63.3135 39.5272 62.7258C40.4017 61.8942 40.2137 60.891 40.027 59.8949C39.8186 58.7833 39.6119 57.6808 40.8857 56.836C41.3122 56.5534 42.4447 55.8028 42.2426 54.7609C42.0087 53.5549 40.1416 53.1882 38.2348 52.8137C36.2647 52.4267 34.252 52.0314 33.9544 50.6934C33.7291 49.6863 33.3253 49.1055 31.7445 48.7288C29.225 48.1281 27.398 46.9254 25.8726 45.9213Z" fill="#6ADEE2"/>
<path d="M61.5277 16.2559C60.8631 15.9122 58.984 14.9985 58.2191 14.9985C57.0387 14.9985 56.0188 15.9758 55.9464 17.1774C56.0075 17.4885 55.55 17.9305 56.8089 18.8521C57.3024 19.2137 57.9584 19.6938 58.119 20.5698C59.0901 21.7615 58.9319 23.9044 57.2366 25.2089C55.5487 26.5083 56.9538 28.4675 57.4817 28.5349C59.4002 27.7976 60.2893 26.4611 63.9738 30.0507C64.5411 30.6037 65.0768 31.126 65.5373 31.378C66.745 32.0354 70.0943 32.3627 69.3231 34.8924C68.8351 36.4964 67.4505 36.3198 66.3783 36.4624C61.0528 37.165 62.9203 32.5229 58.6329 32.929C56.3931 33.1432 54.6421 34.9726 52.8981 36.9906C49.9152 40.4674 49.2187 42.0545 52.4132 47.5526C53.1084 48.7279 53.2994 48.8588 54.681 48.8588C54.5962 48.8386 57.2333 48.6786 58.8866 50.9724C60.6837 53.4651 59.864 54.7442 56.683 64.236C56.4151 65.0357 56.7203 65.8969 57.385 66.3614C66.0415 60.0505 71.055 49.9829 71.055 39.5322C71.055 31.0966 67.8665 22.7088 61.5277 16.2559Z" fill="#72CB46"/>
<rect x="10.6108" y="3.86377" width="1.62182" height="1.62005" fill="#72CB46"/>
<rect x="7.3667" y="3.86377" width="1.62182" height="1.62005" fill="#72CB46"/>
<rect x="4.12378" y="3.86377" width="1.62182" height="1.62005" fill="#72CB46"/>
<rect x="67.033" y="12.9697" width="1.62182" height="1.62005" fill="#72CB46"/>
<rect x="70.2771" y="12.9697" width="1.62183" height="1.62005" fill="#72CB46"/>
<rect x="73.52" y="12.9697" width="1.62181" height="1.62005" fill="#72CB46"/>
<rect x="67.8416" y="65.3325" width="1.62182" height="1.62006" fill="#72CB46"/>
<rect x="71.0857" y="65.3325" width="1.62183" height="1.62006" fill="#72CB46"/>
<rect x="64.5986" y="65.3325" width="1.62182" height="1.62006" fill="#72CB46"/>
<rect x="12.5715" y="73.2905" width="1.62182" height="1.62005" fill="#72CB46"/>
<rect x="19.0586" y="73.2905" width="1.62182" height="1.62005" fill="#72CB46"/>
<rect x="15.8157" y="73.2905" width="1.62182" height="1.62005" fill="#72CB46"/>
<path d="M3.35718 14.1892H4.87366V15.7044H6.49548V14.1892H8.01196V12.5691H6.49548V11.0542H4.87366V12.5691H3.35718V14.1892Z" fill="#72CB46"/>
<path d="M75.0678 55.5734H73.5509V54.0586H71.9291V55.5734H70.4126V57.1935H71.9291V58.7087H73.5509V57.1935H75.0678V55.5734Z" fill="#72CB46"/>
<path d="M25.2036 4.67363V3.1588H26.7201V1.53875H25.2036V0.0239258H23.5818V1.53875H22.0649V3.1588H23.5818V4.67363H25.2036Z" fill="#72CB46"/>
<path d="M65.7576 5.48351H67.2741V6.99834H68.8959V5.48351H70.4124V3.86346H68.8959V2.34863H67.2741V3.86346H65.7576V5.48351Z" fill="#72CB46"/>
<path d="M5.20703 66.3746H6.724V67.8899H8.34582V66.3746H9.8623V64.7546H8.34582V63.2397H6.724V64.7546H5.20703V66.3746Z" fill="#72CB46"/>
</svg>
