<svg viewBox="0 0 91 91" version="1.1" xmlns="http://www.w3.org/2000/svg" xmlns:xlink="http://www.w3.org/1999/xlink">
    <path d="M30.1609949,19.3527889 L46.3692775,21.7068444 L36.8034241,35.0013714 L34.1585822,28.7713337 C32.5457731,29.8856835 31.1016523,31.2317311 29.8781154,32.7686675 C28.1849843,34.8954811 26.9386215,37.3554269 26.218369,40.0434457 C25.5583221,42.5067742 25.376434,45.0257019 25.6613777,47.5012215 C25.9901502,50.3575156 26.9365036,53.1116351 28.4247375,55.5723898 C31.0801971,59.9631209 35.3028919,63.1831599 40.3605046,64.5383431 C44.1962337,65.5661236 48.1591206,65.4302242 51.8424684,64.2024348 C55.0731667,63.1255293 57.9883614,61.2388142 60.2899746,58.7302508 C62.4441938,56.3823343 64.0111642,53.5469461 64.8554021,50.3962075 C65.6849729,47.3002069 65.7580639,44.1187845 65.1037375,41.0569421 C64.2371744,37.0019635 62.1213815,33.2960952 59.0704061,30.4879621 L59.0704061,30.4879621 L62.4564958,26.8090496 C66.2691435,30.3182299 68.9103639,34.9443986 69.9933321,40.0120186 C70.8120035,43.8428937 70.7204968,47.8258925 69.6850312,51.6903027 C68.6312301,55.6231419 66.6693976,59.1730218 63.974211,62.1105469 C61.0978774,65.2455069 57.4586079,67.6008435 53.4236151,68.9458486 C48.8179841,70.4810675 43.8556356,70.6512415 39.0664094,69.3679723 C32.749292,67.6753057 27.4633213,63.64446 24.146336,58.1599138 C22.2878666,55.0869846 21.1054219,51.6457818 20.6941748,48.0729694 C20.3375752,44.9749205 20.5651755,41.8229346 21.3887399,38.7493505 C22.2875538,35.394931 23.8474962,32.3160736 25.9663179,29.654532 C27.7103051,27.4638358 29.8107712,25.5848503 32.1720853,24.0919292 L30.1609949,19.3527889 Z" id="Combined-Shape" fill="#FFFFFF" fill-rule="nonzero"></path>
</svg>