<svg xmlns="http://www.w3.org/2000/svg" viewBox="0 0 24.01 24">
    <path
        d="M23.46,18.81A1.88,1.88,0,0,1,24,20.14a1.91,1.91,0,0,1-.56,1.32l-2,2a1.86,1.86,0,0,1-2.64,0L15,19.59A1.86,1.86,0,0,1,15,17l.55-.56-1.22-1.22-2.08,2.1a2,2,0,0,1-2.85,0l-.86-.86L7.11,17.8A.64.64,0,0,1,6,17.51a.63.63,0,0,1,.17-.61L7.6,15.53l-.86-.86a2,2,0,0,1,0-2.85L8.83,9.73,7.61,8.5l-.55.55a1.86,1.86,0,0,1-2.64,0L.55,5.19A1.86,1.86,0,0,1,0,3.87,1.88,1.88,0,0,1,.55,2.54l2-2A1.86,1.86,0,0,1,5.2.55L9.05,4.41a1.86,1.86,0,0,1,0,2.64l-.55.56L9.74,8.83,13,5.58a2,2,0,0,1,2.61-.21L16.75,4.2a1.74,1.74,0,0,1,2.46,0l.6.6a1.74,1.74,0,0,1,0,2.46L18.64,8.43a2,2,0,0,1-.21,2.6l-2.16,2.16a.63.63,0,1,1-.89-.89l2.16-2.16a.77.77,0,0,0,0-1.07l-2.61-2.6a.75.75,0,0,0-1.06,0l-3.7,3.69L7.64,12.7a.74.74,0,0,0,0,1.06l2.6,2.6a.77.77,0,0,0,1.07,0l2.09-2.09-.91-.89a.63.63,0,0,1,.9-.89l1.34,1.35L16.4,15.5,17,15a1.86,1.86,0,0,1,2.64,0ZM18.32,5.09a.51.51,0,0,0-.69,0L16.48,6.25l1.28,1.28,1.15-1.15a.48.48,0,0,0,0-.68ZM2.89,5.73,5.74,2.88l1,1L3.87,6.71ZM1.44,3.43a.63.63,0,0,0-.17.43.58.58,0,0,0,.18.43L2,4.84,4.84,2l-.55-.55a.59.59,0,0,0-.85,0ZM6.17,8.15a.62.62,0,0,1-.86,0L4.76,7.6,7.61,4.76l.55.54a.6.6,0,0,1,0,.86Zm14,9.14L17.3,20.13l1,1,2.85-2.84Zm-4.28.55,2-2a.62.62,0,0,1,.86,0l.55.55L16.4,19.24l-.55-.54a.6.6,0,0,1,0-.86Zm4.72,4.72,2-2h0a.64.64,0,0,0,.18-.43.62.62,0,0,0-.18-.43L22,19.16,19.17,22l.55.55A.62.62,0,0,0,20.58,22.56Z"
        fill-rule="evenodd" />
    <path d="M6.6,19.79A2.38,2.38,0,0,1,4.22,17.4.64.64,0,0,0,3,17.4,3.66,3.66,0,0,0,6.6,21.05a.63.63,0,1,0,0-1.26Z" />
    <path
        d="M1.33,17.71a.64.64,0,0,0-.63-.64.64.64,0,0,0-.63.64A6.23,6.23,0,0,0,6.3,23.94a.63.63,0,1,0,0-1.26A5,5,0,0,1,1.33,17.71Z" />
</svg>