<svg width="281" height="93" viewBox="0 0 281 93" fill="none" xmlns="http://www.w3.org/2000/svg">
<path fill-rule="evenodd" clip-rule="evenodd" d="M0.743591 0.699951H123.051C130.557 0.699951 136.641 6.86947 136.641 14.48V24.8799C136.641 32.4904 130.557 38.66 123.051 38.66H14.3333C6.82793 38.66 0.743591 32.4904 0.743591 24.8799V0.699951ZM12.5518 3.3644L12.5508 3.29995H3.30769V24.88C3.30769 30.9928 8.14581 35.9597 14.151 36.0585L14.3333 36.06H123.051C129.141 36.06 134.077 31.0545 134.077 24.88V14.48C134.077 8.30541 129.141 3.29995 123.051 3.29995H14.3333C14.1795 3.29995 14.0261 3.30314 13.8731 3.30949L12.5518 3.3644Z" fill="#2D2C31"/>
<path fill-rule="evenodd" clip-rule="evenodd" d="M106.641 45.6801V22.8001C106.641 15.9076 112.151 10.3201 118.949 10.3201H268.692C275.49 10.3201 281 15.9076 281 22.8001V33.2001C281 40.0926 275.49 45.6801 268.692 45.6801H106.641Z" fill="#2D2C31"/>
<path fill-rule="evenodd" clip-rule="evenodd" d="M28.6157 29.54C27.1231 30.7161 25.2169 31.3041 22.8973 31.3041C21.0617 31.3041 19.2867 30.7928 17.5722 29.7701C16.725 29.2383 16.0291 28.4867 15.4845 27.5151C14.9398 26.5436 14.6675 25.434 14.6675 24.1864L18.4798 24.0023C18.4798 25.1068 18.9438 25.9658 19.8716 26.5794C20.7995 27.193 21.8282 27.4998 22.9578 27.4998C25.4792 27.4998 26.7398 26.5998 26.7398 24.8C26.7398 23.3273 25.8826 22.458 24.1681 22.1922L20.6583 21.824C18.9034 21.5581 17.5116 20.924 16.4829 19.9218C15.4542 18.9196 14.9398 17.4777 14.9398 15.596C14.9398 13.7143 15.6761 12.1598 17.1486 10.9326C18.621 9.7054 20.4818 9.0918 22.7309 9.0918C24.9799 9.0918 26.7903 9.6696 28.1619 10.8252C29.5335 11.9808 30.2193 13.4688 30.2193 15.2892L26.4675 15.4732C26.1246 13.6938 24.9446 12.8041 22.9275 12.8041C21.6971 12.8041 20.734 13.07 20.0381 13.6018C19.3422 14.1335 18.9942 14.7625 18.9942 15.4886C18.9942 16.2147 19.2463 16.7874 19.7506 17.2067C20.2549 17.6259 20.8802 17.8867 21.6265 17.989L25.0757 18.3572C28.9284 18.8889 30.8547 20.9956 30.8547 24.6772C30.8547 26.743 30.1084 28.364 28.6157 29.54ZM51.305 27.3157V31.12H43.6804C41.2599 31.12 39.5605 30.6956 38.5822 29.8468C37.6039 28.998 37.1148 27.4998 37.1148 25.3522V9.27588H51.305V13.0802H41.3204V18.2038H48.3096L48.0071 22.0081H41.3204V25.0454C41.3204 25.9044 41.512 26.4976 41.8953 26.8248C42.2785 27.1521 42.9744 27.3157 43.983 27.3157H51.305ZM72.5122 31.12V27.3157H65.1901C64.1816 27.3157 63.4857 27.1521 63.1025 26.8248C62.7192 26.4976 62.5276 25.9044 62.5276 25.0454V22.0081H69.2142L69.5168 18.2038H62.5276V13.0802H72.5122V9.27588H58.3219V25.3522C58.3219 27.4998 58.8111 28.998 59.7894 29.8468C60.7677 30.6956 62.4671 31.12 64.8876 31.12H72.5122ZM95.7162 30.6445C95.3128 31.1251 94.8388 31.3655 94.2942 31.3655C92.9024 31.3655 91.7627 30.5473 90.8752 28.9111L83.4321 17.0993V31.12H79.2265V9.27588H83.2808L92.1157 23.5728V9.27588H96.3213V28.9111C96.3213 29.586 96.1196 30.1638 95.7162 30.6445Z" fill="#2D2C31"/>
<path fill-rule="evenodd" clip-rule="evenodd" d="M181.146 39.1042C184.151 39.1042 186.335 38.2758 187.696 36.6191C189.058 34.9624 189.739 32.3034 189.739 28.6423V26.9856C189.739 23.6108 189.043 21.0848 187.651 19.4076C186.259 17.7304 184.086 16.8918 181.131 16.8918C178.176 16.8918 176.017 17.7202 174.656 19.3769C173.294 21.0336 172.614 23.5596 172.614 26.9549V28.5502C172.614 32.2728 173.284 34.9624 174.626 36.6191C175.967 38.2758 178.14 39.1042 181.146 39.1042ZM126.508 35.1464L125.328 38.9201H120.941L127.84 18.9167C128.142 18.2213 128.48 17.7407 128.853 17.4748C129.226 17.2089 129.685 17.0759 130.23 17.0759C130.774 17.0759 131.213 17.1986 131.546 17.4441C131.879 17.6895 132.176 18.1804 132.439 18.9167L139.337 38.9201H134.95L133.74 35.1464H126.508ZM127.567 31.5569H132.771L130.229 22.9051L127.567 31.5569ZM152.435 38.9201V30.8206H155.461L159.667 38.9201H164.538L159.727 30.1149C160.837 29.7059 161.769 28.9644 162.526 27.8906C163.282 26.8168 163.66 25.5436 163.66 24.071C163.66 22.0461 163.03 20.374 161.769 19.0548C160.509 17.7355 158.809 17.0759 156.671 17.0759H153.101C151.346 17.0759 150.096 17.4492 149.349 18.1957C148.603 18.9423 148.23 20.1337 148.23 21.77V38.9201H152.435ZM152.435 27.2617H156.399C157.286 27.2617 158.018 26.9498 158.592 26.3259C159.167 25.7021 159.455 24.9249 159.455 23.9943C159.455 23.0636 159.177 22.312 158.623 21.7393C158.068 21.1666 157.327 20.8802 156.399 20.8802H154.311C153.061 20.8802 152.435 21.5245 152.435 22.8131V27.2617ZM179.164 34.8857C179.719 35.1618 180.384 35.2998 181.161 35.2998C181.938 35.2998 182.598 35.1669 183.143 34.901C183.687 34.6351 184.111 34.3079 184.414 33.9192C184.716 33.5306 184.948 33.0193 185.109 32.3852C185.392 31.383 185.533 30.1047 185.533 28.5502V27.4151C185.533 25.4516 185.291 23.8869 184.807 22.721C184.242 21.3711 183.032 20.6962 181.176 20.6962C179.3 20.6962 178.08 21.3711 177.515 22.721C177.051 23.8255 176.819 25.3902 176.819 27.4151V28.5502C176.819 31.1887 177.182 32.9682 177.908 33.8886C178.191 34.2772 178.609 34.6095 179.164 34.8857ZM206.952 39.1042C209.271 39.1042 211.223 38.419 212.806 37.0486C214.39 35.6782 215.182 33.8068 215.182 31.4342V17.0759H211.006V31.2808C211.006 32.6307 210.633 33.638 209.887 34.3028C209.14 34.9675 208.162 35.2999 206.952 35.2999C205.742 35.2999 204.768 34.9675 204.032 34.3028C203.296 33.638 202.928 32.6307 202.928 31.2808V17.0759H198.722V31.4342C198.722 33.8068 199.514 35.6782 201.097 37.0486C202.681 38.419 204.632 39.1042 206.952 39.1042ZM241.684 38.4445C241.28 38.9252 240.806 39.1655 240.262 39.1655C238.87 39.1655 237.73 38.3474 236.843 36.7111L229.4 24.8993V38.9201H225.194V17.0759H229.248L238.083 31.3728V17.0759H242.289V36.7111C242.289 37.3861 242.087 37.9639 241.684 38.4445ZM260.651 38.9201C263.274 38.9201 265.271 38.2247 266.642 36.8338C267.469 35.9953 268.024 35.0646 268.306 34.042C268.589 33.0193 268.77 31.7614 268.851 30.2683L268.821 27.906C268.821 25.9629 268.75 24.4187 268.609 23.2733C268.407 21.6575 267.752 20.2871 266.642 19.1622C265.271 17.7713 263.374 17.0759 260.954 17.0759H252.573V33.1829C252.573 35.351 253.148 36.8492 254.298 37.6775C255.447 38.5059 257.565 38.9201 260.651 38.9201ZM257.596 34.6556C258.141 34.9624 259.114 35.1158 260.516 35.1158C261.918 35.1158 262.982 34.6658 263.708 33.7659C264.091 33.2954 264.339 32.646 264.449 31.8177C264.555 31.0288 264.61 29.8178 264.615 28.1848L264.616 27.9366C264.616 26.1777 264.56 24.9044 264.449 24.117C264.339 23.3295 264.091 22.7006 263.708 22.2302C262.982 21.3302 261.933 20.8802 260.561 20.8802H256.779V32.9682C256.779 33.7863 257.052 34.3488 257.596 34.6556Z" fill="white"/>
<path fill-rule="evenodd" clip-rule="evenodd" d="M33.7331 56.9952V47.6248H3.16901V56.9952H13.3993L13.3998 89.1H23.4485L23.448 56.9952H33.7331ZM46.3337 64.0594L46.3338 47.6248H36.285V89.1H46.3338L46.3337 73.3752H57.8234L57.8235 89.1H67.8722V47.6248H57.8235L57.8234 64.0594H46.3337ZM99.3144 47.6248V56.9952H81.545V63.5134H94.0912L93.3459 72.8838L81.545 72.8832L81.5451 76.9767L81.5467 77.1526C81.5675 78.2408 81.7885 78.8853 82.112 79.1616C82.4937 79.4875 83.4045 79.7111 84.8218 79.7285L85.0016 79.7296H99.3144V89.1L84.4581 89.0999L84.1678 89.0988C79.7379 89.0638 76.5349 88.2383 74.5565 86.5218C72.5281 84.7619 71.5399 81.8318 71.4978 77.8052L71.4964 77.5352V47.6248H99.3144ZM5.73311 50.2242H31.169V54.3952H20.8844L20.8839 86.5H15.9634L15.9639 54.3952H5.73311V50.2242ZM43.7704 50.2242H38.8499V86.5H43.7704L43.7705 70.7752H60.3885L60.3884 86.5H65.3089V50.2242H60.3884L60.3885 66.6594H43.7705L43.7704 50.2242ZM74.0612 50.2242H96.7509V54.3952H78.9818V66.1134H91.3124L90.9806 70.2832L78.9818 70.2838V76.9892L78.9837 77.1902L78.9892 77.3861C79.0523 79.068 79.5139 80.3415 80.4612 81.1503L80.5668 81.237L80.6808 81.3231C81.6498 82.0253 83.0836 82.3296 85.0024 82.3296L96.7509 82.329V86.5H84.4639L84.1836 86.4989L83.915 86.4957C80.1833 86.4361 77.6175 85.7551 76.2243 84.5463L76.1248 84.4572L76.0252 84.3619C74.7448 83.0986 74.0613 80.8457 74.0613 77.5352L74.0612 50.2242Z" fill="#2D2C31"/>
<path fill-rule="evenodd" clip-rule="evenodd" d="M181.646 88.3849C179.223 91.3333 175.337 92.8075 169.988 92.8075C164.639 92.8075 160.771 91.3333 158.384 88.3849C155.997 85.4365 154.803 80.6499 154.803 74.0251V71.1859C154.803 65.1435 156.015 60.6481 158.438 57.6997C160.861 54.7513 164.702 53.2771 169.961 53.2771C175.22 53.2771 179.088 54.7695 181.565 57.7543C184.042 60.7391 185.28 65.2345 185.28 71.2405V74.1889C185.28 80.7045 184.069 85.4365 181.646 88.3849ZM130.494 68.8927L123.441 92.4799H117.194L106.964 53.6047H114.771L120.694 78.1201L126.564 57.8635C127.21 54.8423 128.574 53.3317 130.656 53.3317C131.697 53.3317 132.487 53.723 133.025 54.5056C133.564 55.2882 134.048 56.4075 134.479 57.8635L140.294 78.1201L146.271 53.6047H154.079L143.794 92.4799H137.548L130.494 68.8927ZM170.014 86.0371C168.632 86.0371 167.448 85.7914 166.461 85.3C165.473 84.8086 164.729 84.2171 164.226 83.5255C162.934 81.8875 162.288 78.7207 162.288 74.0251V72.0049C162.288 68.4013 162.7 65.6167 163.526 63.6511C164.531 61.2487 166.703 60.0475 170.041 60.0475C173.344 60.0475 175.498 61.2487 176.503 63.6511C177.364 65.7259 177.795 68.5105 177.795 72.0049V74.0251C177.795 76.7915 177.544 79.0665 177.041 80.8501C176.754 81.9785 176.341 82.8885 175.803 83.5801C175.264 84.2717 174.511 84.8541 173.541 85.3273C172.572 85.8005 171.397 86.0371 170.014 86.0371ZM197.635 78.0655V92.4799H190.15V61.9585C190.15 59.0465 190.814 56.9262 192.143 55.5976C193.471 54.269 195.696 53.6047 198.819 53.6047H205.173C208.978 53.6047 212.003 54.7786 214.246 57.1264C216.49 59.4742 217.612 62.4499 217.612 66.0535C217.612 68.6743 216.939 70.9402 215.593 72.8512C214.246 74.7622 212.586 76.0817 210.612 76.8097L219.173 92.4799H210.504L203.019 78.0655H197.635ZM204.689 71.7319H197.636V63.8149C197.636 61.5217 198.748 60.3751 200.974 60.3751H204.689C206.341 60.3751 207.66 60.8847 208.647 61.9039C209.634 62.9231 210.128 64.2608 210.128 65.917C210.128 67.5732 209.616 68.9564 208.593 70.0666C207.57 71.1768 206.269 71.7319 204.689 71.7319ZM247.305 85.7095V92.4799H235.89C231.582 92.4799 228.468 91.6336 226.547 89.941C224.627 88.2484 223.667 85.4911 223.667 81.6691V53.6047H231.151V81.6691C231.151 83.1979 231.492 84.2535 232.174 84.8359C232.856 85.4183 234.095 85.7095 235.89 85.7095H247.305ZM265.961 92.4799C270.628 92.4799 274.181 91.2423 276.622 88.7671C278.094 87.2747 279.081 85.6185 279.584 83.7985C280.086 81.9785 280.41 79.7399 280.553 77.0827L280.499 72.8785C280.499 69.4205 280.374 66.6723 280.122 64.6339C279.763 61.7583 278.597 59.3195 276.622 57.3175C274.181 54.8423 270.807 53.6047 266.499 53.6047H251.584V82.2697C251.584 86.1281 252.607 88.7944 254.653 90.2686C256.699 91.7428 260.469 92.4799 265.961 92.4799ZM260.522 84.8905C261.491 85.4365 263.223 85.7095 265.718 85.7095C268.213 85.7095 270.107 84.9087 271.399 83.3071C272.081 82.4699 272.521 81.3142 272.718 79.84C272.909 78.4149 273.008 76.2161 273.014 73.2434L273.014 72.9331C273.014 69.8027 272.916 67.5368 272.718 66.1354C272.521 64.734 272.081 63.6147 271.399 62.7775C270.107 61.1759 268.24 60.3751 265.799 60.3751H259.068V81.8875C259.068 83.3435 259.553 84.3445 260.522 84.8905Z" fill="#2D2C31"/>
</svg>
