<svg width="23" height="23" viewBox="0 0 23 23" fill="none" xmlns="http://www.w3.org/2000/svg">
<path fill-rule="evenodd" clip-rule="evenodd" d="M18.1232 14.4561C16.956 14.4568 15.8516 14.9709 15.118 15.8551L8.61021 12.6858C8.78259 12.0404 8.77114 11.3614 8.57707 10.7218L15.2063 7.22966C16.4971 8.68476 18.7059 8.95919 20.3304 7.86628C21.9548 6.77337 22.4731 4.66409 21.5328 2.97323C20.5925 1.28237 18.4955 0.55293 16.6682 1.2811C14.8409 2.00926 13.8702 3.96119 14.4164 5.80913L7.78708 9.30128C6.72132 8.10573 5.00171 7.687 3.48372 8.2534C1.96572 8.8198 0.973452 10.2504 1.00054 11.8335C1.02763 13.4166 2.06829 14.8142 3.60482 15.331C5.14136 15.8478 6.84568 15.3735 7.86994 14.144L14.3777 17.3133C13.9742 18.8734 14.6326 20.5109 16.0164 21.3892C17.4003 22.2675 19.2042 22.1927 20.5064 21.203C21.8087 20.2134 22.3218 18.5273 21.7837 17.0063C21.2456 15.4853 19.775 14.465 18.1232 14.4669V14.4561ZM18.1232 2.61831C19.3436 2.61831 20.333 3.58193 20.333 4.77063C20.333 5.95933 19.3436 6.92296 18.1232 6.92296C16.9028 6.92296 15.9135 5.95933 15.9135 4.77063C15.9135 3.58193 16.9028 2.61831 18.1232 2.61831ZM4.86467 13.918C3.64425 13.918 2.65491 12.9544 2.65491 11.7657C2.65491 10.577 3.64425 9.61336 4.86467 9.61336C6.08509 9.61336 7.07443 10.577 7.07443 11.7657C7.07443 12.9544 6.08509 13.918 4.86467 13.918ZM18.1232 20.375C16.9028 20.375 15.9135 19.4114 15.9135 18.2227C15.9135 17.034 16.9028 16.0703 18.1232 16.0703C19.3436 16.0703 20.333 17.034 20.333 18.2227C20.333 19.4114 19.3436 20.375 18.1232 20.375Z" fill="white"/>
<path d="M18.1232 14.4561H18.6232V13.9558L18.1229 13.9561L18.1232 14.4561ZM15.118 15.8551L14.899 16.3046L15.252 16.4765L15.5027 16.1744L15.118 15.8551ZM8.61021 12.6858L8.12714 12.5568L8.02081 12.9549L8.39129 13.1353L8.61021 12.6858ZM8.57707 10.7218L8.34403 10.2794L7.97871 10.4719L8.09861 10.867L8.57707 10.7218ZM15.2063 7.22966L15.5804 6.89787L15.3202 6.60455L14.9733 6.78729L15.2063 7.22966ZM14.4164 5.80913L14.6494 6.2515L15.012 6.06048L14.8959 5.66742L14.4164 5.80913ZM7.78708 9.30128L7.41384 9.63399L7.67409 9.92593L8.02011 9.74365L7.78708 9.30128ZM7.86994 14.144L8.08886 13.6945L7.73659 13.5229L7.48579 13.824L7.86994 14.144ZM14.3777 17.3133L14.8618 17.4385L14.9641 17.0428L14.5966 16.8638L14.3777 17.3133ZM18.1232 14.4669H17.6232V14.9674L18.1238 14.9669L18.1232 14.4669ZM18.1229 13.9561C16.8098 13.9569 15.5635 14.5351 14.7332 15.5358L15.5027 16.1744C16.1397 15.4067 17.1023 14.9567 18.1235 14.9561L18.1229 13.9561ZM15.3369 15.4056L8.82913 12.2363L8.39129 13.1353L14.899 16.3046L15.3369 15.4056ZM9.09328 12.8148C9.28972 12.0793 9.27664 11.3053 9.05552 10.5766L8.09861 10.867C8.26563 11.4174 8.27547 12.0014 8.12714 12.5568L9.09328 12.8148ZM8.8101 11.1642L15.4394 7.67204L14.9733 6.78729L8.34403 10.2794L8.8101 11.1642ZM14.8323 7.56146C16.2909 9.20581 18.7794 9.51242 20.6095 8.28113L20.0512 7.45143C18.6325 8.40596 16.7033 8.16371 15.5804 6.89787L14.8323 7.56146ZM20.6095 8.28113C22.4453 7.04599 23.0387 4.65239 21.9698 2.73022L21.0958 3.21624C21.9075 4.67579 21.4643 6.50075 20.0512 7.45143L20.6095 8.28113ZM21.9698 2.73022C20.9042 0.814023 18.5379 -0.00221586 16.4831 0.816617L16.8533 1.74557C18.453 1.10808 20.2808 1.75072 21.0958 3.21624L21.9698 2.73022ZM16.4831 0.816617C14.4237 1.63728 13.3151 3.84705 13.9369 5.95084L14.8959 5.66742C14.4253 4.07534 15.2581 2.38124 16.8533 1.74557L16.4831 0.816617ZM14.1833 5.36675L7.55404 8.8589L8.02011 9.74365L14.6494 6.2515L14.1833 5.36675ZM8.16031 8.96856C6.95523 7.61672 5.01711 7.14758 3.30893 7.78494L3.65851 8.72185C4.98631 8.22642 6.48742 8.59474 7.41384 9.63399L8.16031 8.96856ZM3.30893 7.78494C1.5987 8.42307 0.469787 10.0405 0.500614 11.842L1.50047 11.8249C1.47712 10.4603 2.33274 9.21652 3.65851 8.72185L3.30893 7.78494ZM0.500614 11.842C0.531439 13.6434 1.71484 15.2228 3.44542 15.8049L3.76422 14.8571C2.42175 14.4055 1.52382 13.1897 1.50047 11.8249L0.500614 11.842ZM3.44542 15.8049C5.17412 16.3863 7.09548 15.8548 8.2541 14.464L7.48579 13.824C6.59589 14.8922 5.10859 15.3092 3.76422 14.8571L3.44542 15.8049ZM7.65102 14.5935L14.1588 17.7628L14.5966 16.8638L8.08886 13.6945L7.65102 14.5935ZM13.8936 17.1881C13.4345 18.9631 14.1858 20.8195 15.7485 21.8113L16.2844 20.967C15.0793 20.2022 14.5138 18.7836 14.8618 17.4385L13.8936 17.1881ZM15.7485 21.8113C17.3084 22.8013 19.3398 22.7176 20.809 21.6011L20.2039 20.8049C19.0685 21.6678 17.4923 21.7336 16.2844 20.967L15.7485 21.8113ZM20.809 21.6011C22.281 20.4824 22.8671 18.5694 22.2551 16.8395L21.3123 17.1731C21.7766 18.4853 21.3363 19.9443 20.2039 20.8049L20.809 21.6011ZM22.2551 16.8395C21.644 15.1122 19.9797 13.9648 18.1227 13.9669L18.1238 14.9669C19.5703 14.9653 20.8472 15.8583 21.3123 17.1731L22.2551 16.8395ZM18.6232 14.4669V14.4561H17.6232V14.4669H18.6232ZM18.1232 3.11831C19.08 3.11831 19.833 3.87041 19.833 4.77063H20.833C20.833 3.29346 19.6073 2.11831 18.1232 2.11831V3.11831ZM19.833 4.77063C19.833 5.67085 19.08 6.42296 18.1232 6.42296V7.42296C19.6073 7.42296 20.833 6.2478 20.833 4.77063H19.833ZM18.1232 6.42296C17.1665 6.42296 16.4135 5.67085 16.4135 4.77063H15.4135C15.4135 6.2478 16.6392 7.42296 18.1232 7.42296V6.42296ZM16.4135 4.77063C16.4135 3.87041 17.1665 3.11831 18.1232 3.11831V2.11831C16.6392 2.11831 15.4135 3.29346 15.4135 4.77063H16.4135ZM4.86467 13.418C3.9079 13.418 3.15491 12.6659 3.15491 11.7657H2.15491C2.15491 13.2429 3.38061 14.418 4.86467 14.418V13.418ZM3.15491 11.7657C3.15491 10.8655 3.9079 10.1134 4.86467 10.1134V9.11336C3.38061 9.11336 2.15491 10.2885 2.15491 11.7657H3.15491ZM4.86467 10.1134C5.82144 10.1134 6.57443 10.8655 6.57443 11.7657H7.57443C7.57443 10.2885 6.34873 9.11336 4.86467 9.11336V10.1134ZM6.57443 11.7657C6.57443 12.6659 5.82144 13.418 4.86467 13.418V14.418C6.34873 14.418 7.57443 13.2429 7.57443 11.7657H6.57443ZM18.1232 19.875C17.1665 19.875 16.4135 19.1229 16.4135 18.2227H15.4135C15.4135 19.6998 16.6392 20.875 18.1232 20.875V19.875ZM16.4135 18.2227C16.4135 17.3224 17.1665 16.5703 18.1232 16.5703V15.5703C16.6392 15.5703 15.4135 16.7455 15.4135 18.2227H16.4135ZM18.1232 16.5703C19.08 16.5703 19.833 17.3224 19.833 18.2227H20.833C20.833 16.7455 19.6073 15.5703 18.1232 15.5703V16.5703ZM19.833 18.2227C19.833 19.1229 19.08 19.875 18.1232 19.875V20.875C19.6073 20.875 20.833 19.6998 20.833 18.2227H19.833Z" fill="white"/>
</svg>
