<svg xmlns="http://www.w3.org/2000/svg" viewBox="0 0 25.51 25.43">
    <path
        d="M6.13,11.25a2.7,2.7,0,1,1,2.7-2.7A2.7,2.7,0,0,1,6.13,11.25Zm0-4.4a1.7,1.7,0,1,0,1.7,1.7A1.7,1.7,0,0,0,6.13,6.85Z"
        fill="#585858" />
    <path
        d="M16.93,5.4a2.7,2.7,0,1,1,2.7-2.7A2.7,2.7,0,0,1,16.93,5.4Zm0-4.4a1.7,1.7,0,1,0,1.7,1.7A1.7,1.7,0,0,0,16.93,1Z"
        fill="#585858" />
    <path
        d="M16.93,16.65a2.7,2.7,0,1,1,2.7-2.7A2.7,2.7,0,0,1,16.93,16.65Zm0-4.4a1.7,1.7,0,1,0,1.7,1.7A1.7,1.7,0,0,0,16.93,12.25Z"
        fill="#585858" />
    <rect x="7.73" y="5.1" width="7.63" height="1" transform="translate(-1.27 6.15) rotate(-28.34)" fill="#585858" />
    <rect x="11.05" y="7.63" width="1" height="7.63" transform="translate(-4.01 16.18) rotate(-61.68)" fill="#585858" />
    <path
        d="M1.94,25.43a2.64,2.64,0,0,1-1-.19,1.7,1.7,0,0,1-.69-.54A1.39,1.39,0,0,1,0,23.87H1.12a.81.81,0,0,0,.23.51.85.85,0,0,0,.57.18.87.87,0,0,0,.58-.17.57.57,0,0,0,.21-.46.56.56,0,0,0-.14-.39,1.06,1.06,0,0,0-.37-.23,4.37,4.37,0,0,0-.58-.19,5.82,5.82,0,0,1-.83-.3,1.45,1.45,0,0,1-.55-.44A1.28,1.28,0,0,1,0,21.59a1.38,1.38,0,0,1,.24-.81,1.43,1.43,0,0,1,.65-.53,2.42,2.42,0,0,1,1-.19,2.07,2.07,0,0,1,1.31.4,1.48,1.48,0,0,1,.57,1.1H2.58a.62.62,0,0,0-.23-.45.85.85,0,0,0-.57-.18.76.76,0,0,0-.49.16.59.59,0,0,0-.18.46.48.48,0,0,0,.13.35,1.25,1.25,0,0,0,.35.23c.14.05.33.12.58.19a6.52,6.52,0,0,1,.84.3,1.48,1.48,0,0,1,.55.45,1.22,1.22,0,0,1,.24.79,1.53,1.53,0,0,1-.22.78,1.64,1.64,0,0,1-.64.58A2.2,2.2,0,0,1,1.94,25.43Zm5,0a2.72,2.72,0,0,1-1.35-.35,2.6,2.6,0,0,1-1-.95,2.69,2.69,0,0,1-.36-1.39,2.62,2.62,0,0,1,.36-1.37,2.55,2.55,0,0,1,1-1,2.72,2.72,0,0,1,1.35-.35,2.66,2.66,0,0,1,1.35.35,2.55,2.55,0,0,1,1,1,2.62,2.62,0,0,1,.36,1.37,2.69,2.69,0,0,1-.36,1.39,2.6,2.6,0,0,1-1,.95A2.72,2.72,0,0,1,6.92,25.43Zm0-.94a1.6,1.6,0,0,0,.83-.21,1.56,1.56,0,0,0,.57-.62,2,2,0,0,0,.2-.92,2,2,0,0,0-.2-.91,1.47,1.47,0,0,0-.57-.61A1.6,1.6,0,0,0,6.92,21a1.69,1.69,0,0,0-.84.21,1.38,1.38,0,0,0-.56.61,1.88,1.88,0,0,0-.2.91,1.92,1.92,0,0,0,.2.92,1.47,1.47,0,0,0,.56.62A1.69,1.69,0,0,0,6.92,24.49Zm3-1.74a2.72,2.72,0,0,1,.35-1.38,2.41,2.41,0,0,1,1-.95,2.7,2.7,0,0,1,1.36-.35,2.65,2.65,0,0,1,1.53.45A2.4,2.4,0,0,1,15,21.77H13.82a1.29,1.29,0,0,0-.51-.57,1.54,1.54,0,0,0-.75-.18,1.59,1.59,0,0,0-.82.21,1.46,1.46,0,0,0-.55.6,2.19,2.19,0,0,0,0,1.83,1.48,1.48,0,0,0,.55.61,1.59,1.59,0,0,0,.82.21,1.44,1.44,0,0,0,.75-.19,1.29,1.29,0,0,0,.51-.57H15A2.39,2.39,0,0,1,14.1,25a2.88,2.88,0,0,1-2.89.1,2.55,2.55,0,0,1-1-.95A2.77,2.77,0,0,1,9.91,22.75Zm6.85-2.61v5.23H15.71V20.14Zm4,4.24H18.71l-.35,1h-1.1l1.88-5.24h1.22l1.89,5.24H21.14Zm-.28-.84-.76-2.19L19,23.54Zm3.28,1h1.72v.83H22.74V20.14h1.05Z"
        fill="#585858" />
</svg>