<svg xmlns="http://www.w3.org/2000/svg" viewBox="0 0 12 14">
    <path
        d="M12,4.12V5.78a5.44,5.44,0,0,1-2.21-.46,5.64,5.64,0,0,1-1.25-.74V9.69a4.31,4.31,0,0,1-1.25,3A4.18,4.18,0,0,1,4.92,14a4.6,4.6,0,0,1-.64.05,4.19,4.19,0,0,1-2.62-.91,4.59,4.59,0,0,1-.41-.36,4.38,4.38,0,0,1-.19-5.92A4.24,4.24,0,0,1,4.28,5.33a4.6,4.6,0,0,1,.64,0V7.7a2.2,2.2,0,0,0-.64-.1,2,2,0,0,0-2,2.1,2.07,2.07,0,0,0,1,1.74,2,2,0,0,0,.92.29,1.87,1.87,0,0,0,.75-.1,2.06,2.06,0,0,0,1.39-2V0H8.54a2.84,2.84,0,0,0,.07.66,3.49,3.49,0,0,0,1.3,2.13A3.38,3.38,0,0,0,12,3.51h0v.62Z" />
</svg>