<svg xmlns="http://www.w3.org/2000/svg" viewBox="0 0 116.06 116.06"><title>tiktok-icon</title><g id="f93c24cd-0d6d-433e-b99e-5505819ab3a8" data-name="Warstwa 2"><g id="bcbe2b1c-9955-4589-8c90-a0a0443a903a" data-name="Warstwa 1"><path d="M0,0H116.06V116.06H0Z"/><path d="M28.44,72.29l.23.67C28.64,72.89,28.55,72.65,28.44,72.29Zm9.41-15.22a10.27,10.27,0,0,1,4.51-7.7c3.83-2.8,8.61-1.22,8.61-1.22V38.74a20,20,0,0,1,3.46.21V51.07s-4.77-1.58-8.6,1.22A10.27,10.27,0,0,0,41.32,60a11,11,0,0,0,2,6.73c-.41-.22-.82-.46-1.24-.74a10.34,10.34,0,0,1-4.19-8.91ZM74.18,21.33a16.64,16.64,0,0,1-4-8.19H73.5s-.66,5.6,4.15,11.1l.07.07a18.35,18.35,0,0,1-3.54-3Zm15.94,8.53V41.72a41.06,41.06,0,0,1-7.35-1,28,28,0,0,1-7.17-2.94l-2.09-1.37V60.93a24.71,24.71,0,0,1-1.45,7.62,23.23,23.23,0,0,1-4,6.66,22.91,22.91,0,0,1-7.4,5.53,22,22,0,0,1-9.11,2,22.61,22.61,0,0,1-12.28-3.67,24.71,24.71,0,0,1-3.51-2.95l0,0A22.41,22.41,0,0,0,48,79.82a21.8,21.8,0,0,0,9.11-2A22.35,22.35,0,0,0,68.58,65.63,24.71,24.71,0,0,0,70,58V33.51c.16.09,2.09,1.37,2.09,1.37a28,28,0,0,0,7.16,2.94,41.23,41.23,0,0,0,7.36,1v-9.3a11.31,11.31,0,0,0,3.48.34Z" fill="#ee1d52"/><path d="M86.64,29.51v9.3a42.28,42.28,0,0,1-7.36-1,27.76,27.76,0,0,1-7.16-3L70,33.5V58a24.71,24.71,0,0,1-1.45,7.61A22.35,22.35,0,0,1,57.15,77.82a21.8,21.8,0,0,1-9.11,2,22.61,22.61,0,0,1-12.28-3.67l0,0a23,23,0,0,1-1.72-2,23.68,23.68,0,0,1-3.28-5.94v0a23.77,23.77,0,0,1-1.29-7.92,21.76,21.76,0,0,1,2.65-10,23.69,23.69,0,0,1,5.15-6.3,21.65,21.65,0,0,1,6.12-3.62A20.3,20.3,0,0,1,51,38.72v9.42s-4.78-1.58-8.61,1.22A10.07,10.07,0,0,0,42.06,66c.42.28.82.52,1.23.74a9.74,9.74,0,0,0,2.25,2.19c3.5,2.31,6.41,2.47,10.16,1a9.53,9.53,0,0,0,5.23-5.76,13.87,13.87,0,0,0,.54-4.75V13.14h8.7a16.64,16.64,0,0,0,4,8.19,19.77,19.77,0,0,0,3.54,3A18.18,18.18,0,0,0,82.56,28a18.62,18.62,0,0,0,4.08,1.48Z" fill="#fff"/><path d="M27.26,65.34l.22.63C27.45,65.89,27.36,65.68,27.26,65.34Z" fill="#69c9d0"/><path d="M43.36,40.33A21.54,21.54,0,0,0,37.24,44a23.58,23.58,0,0,0-5.15,6.31,21.67,21.67,0,0,0-2.65,10,24.25,24.25,0,0,0,1.29,7.92h0a23.69,23.69,0,0,0,3.28,6,23,23,0,0,0,1.72,2,24.58,24.58,0,0,1-5.21-4.87,23.38,23.38,0,0,1-3.26-5.92v0A23.6,23.6,0,0,1,26,57.39a21.89,21.89,0,0,1,2.65-10A23.74,23.74,0,0,1,33.77,41,21.78,21.78,0,0,1,51,36v2.7A20.58,20.58,0,0,0,43.36,40.33Z" fill="#69c9d0"/><path d="M70.19,13.14H61.48V59.37A14.38,14.38,0,0,1,61,64.12a9.66,9.66,0,0,1-5.24,5.76c-3.74,1.51-6.67,1.34-10.16-1a9.42,9.42,0,0,1-2.24-2.17c3,1.58,5.62,1.55,8.92.23a9.58,9.58,0,0,0,5.23-5.76A13.72,13.72,0,0,0,58,56.45V10.23H70A9.68,9.68,0,0,0,70.19,13.14Zm16.45,13.8v2.57A18.62,18.62,0,0,1,82.56,28a18.51,18.51,0,0,1-4.86-3.72,12.68,12.68,0,0,0,1.38.8A15.62,15.62,0,0,0,86.64,26.94Z" fill="#69c9d0"/><path d="M70.64,101.77a3.17,3.17,0,0,1-.15-1v0A3.37,3.37,0,0,0,70.64,101.77Zm7.18-1v0a3.17,3.17,0,0,1-.15,1,3.37,3.37,0,0,0,.15-1Z" fill="none"/><path d="M70.48,100.8a3.16,3.16,0,0,0,.14,1s0,0,0,.07a3.68,3.68,0,0,0,3.51,2.59v3.71a8.37,8.37,0,0,1-5.08-1.1,7.39,7.39,0,0,1,.32-12.75,8.92,8.92,0,0,1,4.77-.92v3.72a3.66,3.66,0,0,0-3.67,3.66h0Z" fill="#69c9d0"/><path d="M77.85,100.8a3.17,3.17,0,0,1-.15,1s0,0,0,.07a3.68,3.68,0,0,1-3.51,2.59v3.71a8.31,8.31,0,0,0,5.06-1.1,7.27,7.27,0,0,0,3.51-6.28,7.35,7.35,0,0,0-3.81-6.47,8.94,8.94,0,0,0-4.78-.92v3.72a3.65,3.65,0,0,1,3.67,3.66h0v0Z" fill="#ee1d52"/><path d="M17.34,90H30.93l-1.26,3.74H26.11v14.32H21.75V93.75H17.34Zm36,0v3.74h4.41v14.32h4.39V93.75h3.55L67,90ZM33.89,94.26a2.12,2.12,0,1,0-2.12-2.12h0a2.13,2.13,0,0,0,2.11,2.12Zm-2.12,13.79h4.3V95.75h-4.3ZM51.5,94.15h-5l-4.32,4.33V90H37.89v18h4.31v-4.7l1.33-1.22L47.7,108h4.6l-6-8.65Zm41.17,5.26,5.26-5.26h-5l-4.33,4.33V90H84.32l0,18H88.6v-4.7L90,102.13l4.18,5.92h4.59Zm-11,1.33a7.49,7.49,0,1,1-7.49-7.38A7.45,7.45,0,0,1,81.64,100.74Zm-3.82,0a3.67,3.67,0,1,0-3.67,3.67,3.67,3.67,0,0,0,3.67-3.67Z" fill="#fff"/></g></g></svg>