<svg xmlns="http://www.w3.org/2000/svg" viewBox="0 0 19.93 23">
    <path
        d="M8.43,0a2.31,2.31,0,0,0-2.3,2.3V3.84A11,11,0,0,0,4.15,5a.77.77,0,0,0-.31.7.76.76,0,0,0,.45.62.74.74,0,0,0,.76-.07A8.43,8.43,0,1,1,2.67,8.82a.77.77,0,1,0-1.33-.77A10,10,0,1,0,13.8,3.83V2.3A2.31,2.31,0,0,0,11.5,0Zm0,1.53H11.5a.75.75,0,0,1,.77.77v1A10.27,10.27,0,0,0,10,3.07a9.84,9.84,0,0,0-2.3.27v-1A.75.75,0,0,1,8.44,1.53ZM10,7.65a.79.79,0,0,0-.76.78V13a.78.78,0,0,0,.23.54l3.07,3.07a.76.76,0,0,0,.76.25.77.77,0,0,0,.32-1.33l-2.84-2.85V8.43a.78.78,0,0,0-.23-.55A.75.75,0,0,0,10,7.65Z"
        fill-rule="evenodd" />
</svg>