<svg width="154" height="176" viewBox="0 0 154 176" fill="none" xmlns="http://www.w3.org/2000/svg">
<rect width="146.466" height="146.269" fill="#2D2C31"/>
<path fill-rule="evenodd" clip-rule="evenodd" d="M5.71704 5.70947H153.817V153.609H35.729L13.3398 175.969V153.609H5.71704V5.70947ZM152.183 151.978V7.34072H7.35049V151.978H14.9733V172.031L35.0531 151.978H152.183Z" fill="#2D2C31"/>
<path fill-rule="evenodd" clip-rule="evenodd" d="M7.6228 132.131H43.0143L7.6228 167.475V132.131Z" fill="#2D2C31"/>
<path opacity="0.7" fill-rule="evenodd" clip-rule="evenodd" d="M69.0956 57.7941C70.3501 57.7941 71.2779 57.2721 71.879 56.2281L72.4475 57.6375H73.8V47.85H69.6837V50.7471H70.5853V53.1549C70.5853 53.6638 70.52 54.0488 70.3893 54.3098C70.2586 54.5708 70.03 54.7013 69.7033 54.7013C69.3766 54.7013 69.1479 54.5708 69.0172 54.3098C68.8865 54.0488 68.8212 53.6638 68.8212 53.1549V45.0117C68.8212 44.1765 69.1414 43.7589 69.7817 43.7589C70.0692 43.7589 70.2684 43.8698 70.3795 44.0916C70.4906 44.3135 70.5461 44.6267 70.5461 45.0312V46.5385H73.8392C73.8392 45.2074 73.7215 44.1177 73.4863 43.2695C73.2511 42.4212 72.8264 41.7753 72.2122 41.3316C71.5981 40.8879 70.7356 40.666 69.6249 40.666C68.2528 40.666 67.2204 41.064 66.5278 41.8601C65.8353 42.6561 65.489 43.8306 65.489 45.3836V52.6263C65.489 54.362 65.7862 55.6572 66.3808 56.512C66.9754 57.3668 67.8803 57.7941 69.0956 57.7941ZM15.912 57.6375V44.0525H17.9114V40.8226H10.5413V44.0525H12.5406V57.6375H15.912ZM21.6504 57.6375V49.9641C22.1339 49.9641 22.4671 50.0294 22.6501 50.1599C22.833 50.2904 22.9245 50.5905 22.9245 51.0603V57.6375H26.2175L26.2567 51.2757C26.2567 50.584 26.1424 50.0359 25.9137 49.6314C25.685 49.2268 25.3159 48.9723 24.8062 48.8679C25.4204 48.6591 25.8516 48.2872 26.0999 47.7522C26.3482 47.2171 26.4724 46.4733 26.4724 45.5206C26.4724 44.4766 26.394 43.6186 26.2371 42.9465C26.0803 42.2744 25.7765 41.7524 25.3257 41.3805C24.8748 41.0086 24.2378 40.8226 23.4145 40.8226H18.2398V57.6375H21.6504ZM21.67 47.0475H22.4736C22.9441 47.0475 23.1793 46.5385 23.1793 45.5206C23.1793 45.0769 23.1597 44.7441 23.1205 44.5223C23.0813 44.3004 23.0094 44.1471 22.9049 44.0623C22.8003 43.9775 22.6501 43.935 22.454 43.935H21.67V47.0475ZM33.9355 57.6375V54.3685H30.4073V50.5122H33.5827V47.3411H30.4073V44.0721H33.7199V40.8226H26.977V57.6375H33.9355ZM37.7333 49.2203V57.6375H34.4403V40.8226H37.9097L39.4582 48.8679V40.8226H42.7121V57.6375H39.419L37.7333 49.2203ZM48.1172 57.6375C49.4762 57.6375 50.4497 57.2199 51.0378 56.3847C51.6258 55.5495 51.9133 54.3033 51.9002 52.6459L51.861 44.7768C51.848 43.4718 51.5409 42.4865 50.9398 41.8209C50.3387 41.1554 49.437 40.8226 48.2348 40.8226H43.5892V57.6375H48.1172ZM46.9803 54.6621H47.5683C48.1825 54.6621 48.4896 54.362 48.4896 53.7617V45.09C48.4896 44.7115 48.4602 44.4277 48.4014 44.2384C48.3426 44.0492 48.2348 43.922 48.078 43.8567C47.9211 43.7915 47.6794 43.7589 47.3527 43.7589H46.9803V54.6621ZM55.7372 57.6375V40.8226H52.4834V57.6375H55.7372ZM59.7703 49.2203V57.6375H56.4772V40.8226H59.9467L61.4952 48.8679V40.8226H64.749V57.6375H61.456L59.7703 49.2203ZM85.6098 56.5609C84.9042 57.3831 83.8718 57.7941 82.5128 57.7941C81.1537 57.7941 80.1214 57.3798 79.4158 56.5511C78.7101 55.7225 78.3573 54.5577 78.3573 53.057V45.0508C78.3573 43.6023 78.7101 42.5093 79.4158 41.772C80.1214 41.0347 81.1537 40.666 82.5128 40.666C83.8718 40.666 84.9042 41.0347 85.6098 41.772C86.3155 42.5093 86.6683 43.6023 86.6683 45.0508V53.057C86.6683 54.5708 86.3155 55.7388 85.6098 56.5609ZM82.5128 54.7013C82.1992 54.7013 81.9836 54.5773 81.866 54.3294C81.7484 54.0814 81.6896 53.716 81.6896 53.2332V45.0312C81.6896 44.183 81.9705 43.7589 82.5324 43.7589C82.833 43.7589 83.0323 43.873 83.1303 44.1014C83.2283 44.3298 83.2773 44.6267 83.2773 44.9921V53.2136C83.2773 53.6834 83.225 54.0488 83.1205 54.3098C83.0159 54.5708 82.8134 54.7013 82.5128 54.7013ZM90.7012 49.2203V57.6375H87.4082V40.8226H90.8777L92.4262 48.8679V40.8226H95.68V57.6375H92.387L90.7012 49.2203Z" fill="white"/>
<path fill-rule="evenodd" clip-rule="evenodd" d="M19.8323 96.0131C22.6288 96.0131 24.6346 95.1583 25.8499 93.4487C27.0652 91.7392 27.6729 89.2271 27.6729 85.9124C27.6729 84.4247 27.4899 83.1393 27.124 82.0561C26.7581 80.973 26.2746 80.0334 25.6735 79.2373C25.0724 78.4413 24.3145 77.5995 23.3997 76.7121L19.4795 72.9537C18.225 71.7792 17.5977 70.6439 17.5977 69.5477C17.5977 69.0518 17.7284 68.6603 17.9898 68.3732C18.2511 68.0861 18.6431 67.9425 19.1658 67.9425C19.6101 67.9425 19.9564 68.073 20.2047 68.334C20.453 68.595 20.5771 68.9474 20.5771 69.3911L20.6163 71.7009H27.4768C27.4768 68.2818 26.8104 65.7697 25.4775 64.1646C24.1446 62.5594 21.9623 61.7568 18.9306 61.7568C16.3955 61.7568 14.468 62.5072 13.1482 64.008C11.8284 65.5087 11.1685 67.6946 11.1685 70.5656C11.1685 73.2278 12.2923 75.6551 14.5399 77.8475L17.4409 80.7446C18.4863 81.7625 19.2116 82.5129 19.6167 82.9957C20.0218 83.4786 20.355 84.0789 20.6163 84.7966C20.8777 85.5144 21.0084 86.4213 21.0084 87.5175C21.0084 88.3527 20.8908 88.9465 20.6555 89.2989C20.4203 89.6512 20.0022 89.8274 19.4011 89.8274C18.3295 89.8274 17.7937 88.9922 17.7937 87.3218V83.1327H11.1685V86.4213C11.1685 89.7882 11.848 92.2286 13.207 93.7424C14.566 95.2562 16.7745 96.0131 19.8323 96.0131ZM36.7189 96.0131C39.4369 96.0131 41.5016 95.1909 42.9129 93.5466C44.3242 91.9023 45.0299 89.5664 45.0299 86.5388V70.5264C45.0299 67.6293 44.3242 65.4435 42.9129 63.9688C41.5016 62.4942 39.4369 61.7568 36.7189 61.7568C34.0008 61.7568 31.9361 62.4942 30.5248 63.9688C29.1135 65.4435 28.4079 67.6293 28.4079 70.5264V86.5388C28.4079 89.5403 29.1135 91.8697 30.5248 93.5271C31.9361 95.1844 34.0008 96.0131 36.7189 96.0131ZM35.4252 89.0835C35.6604 89.5794 36.0916 89.8274 36.7189 89.8274C37.32 89.8274 37.7251 89.5664 37.9342 89.0444C38.1432 88.5224 38.2478 87.7916 38.2478 86.852V70.409C38.2478 69.6782 38.1498 69.0844 37.9538 68.6276C37.7577 68.1709 37.3592 67.9425 36.7581 67.9425C35.6343 67.9425 35.0723 68.7908 35.0723 70.4873V86.8911C35.0723 87.8568 35.19 88.5876 35.4252 89.0835ZM54.3504 96.0131C60.0217 96.0131 62.8574 93.1943 62.8574 87.5567V81.2144H56.0753V87.2826C56.0753 88.9791 55.5526 89.8274 54.5072 89.8274C53.9845 89.8274 53.5924 89.6251 53.3311 89.2206C53.0697 88.816 52.9391 88.17 52.9391 87.2826V70.409C52.9391 69.5999 53.0501 68.9865 53.2723 68.5689C53.4944 68.1513 53.9061 67.9425 54.5072 67.9425C55.0822 67.9425 55.4872 68.1252 55.7225 68.4906C55.9577 68.856 56.0753 69.5216 56.0753 70.4873V75.4593H62.779V69.6651C62.779 67.1073 62.0211 65.1498 60.5052 63.7926C58.9894 62.4354 56.99 61.7568 54.5072 61.7568C51.6584 61.7568 49.5676 62.6051 48.2347 64.3016C46.9018 65.9981 46.2354 68.5167 46.2354 71.8575V87.3609C46.2354 90.0492 46.9737 92.1633 48.4503 93.7032C49.927 95.2431 51.8937 96.0131 54.3504 96.0131ZM70.061 62.07V95.6999H63.5533V62.07H70.061ZM77.1861 95.6999L77.5781 90.258H81.6552L82.1257 95.6999H88.5157L85.3011 62.07H73.8931L70.6392 95.6999H77.1861ZM78.0877 84.8945H81.1455L79.6558 67.7859H79.3422L78.0877 84.8945ZM103.011 95.6999V89.984H96.072V62.07H89.3291V95.6999H103.011ZM17.9113 110.072V134.306H11.8349V100.676H22.106L24.9286 121.191L27.7512 100.676H38.1008V134.306H31.9459V110.072L28.0648 134.306H22.0276L17.9113 110.072ZM53.7721 134.306V127.768H46.7156V120.056H53.0665V113.713H46.7156V107.175H53.3409V100.676H39.8551V134.306H53.7721ZM69.6787 131.801C68.5026 133.471 66.5555 134.306 63.8374 134.306H54.7816V100.676H64.0727C66.4771 100.676 68.2804 101.342 69.4826 102.673C70.6849 104.004 71.299 105.975 71.3252 108.585L71.4036 124.323C71.4297 127.638 70.8547 130.13 69.6787 131.801ZM62.7398 128.355H61.5638V106.549H62.3086C62.962 106.549 63.4455 106.614 63.7591 106.745C64.0727 106.875 64.2884 107.13 64.406 107.508C64.5236 107.886 64.5824 108.454 64.5824 109.211V126.554C64.5824 127.755 63.9682 128.355 62.7398 128.355ZM79.0776 100.676V134.306H72.5699V100.676H79.0776ZM86.2027 134.306L86.5948 128.864H90.6719L91.1423 134.306H97.5324L94.3177 100.676H82.9097L79.6559 134.306H86.2027ZM87.1043 123.501H90.1621L88.6724 106.392H88.3588L87.1043 123.501Z" fill="white"/>
</svg>
