<svg width="41" height="41" viewBox="0 0 41 41" fill="none" xmlns="http://www.w3.org/2000/svg">
    <path fill-rule="evenodd" clip-rule="evenodd"
        d="M28.6513 16.3193C28.659 16.4999 28.6641 16.6806 28.6641 16.8638C28.6641 22.4206 24.4334 28.8294 16.6973 28.8294C14.3218 28.8294 12.1117 28.1337 10.25 26.9408C10.5793 26.9793 10.9137 26.9985 11.2532 26.9985C13.2238 26.9985 15.0367 26.3271 16.4769 25.1983C14.6357 25.165 13.0828 23.9491 12.5473 22.2784C12.8048 22.3271 13.0675 22.3527 13.3391 22.3527C13.7222 22.3527 14.0938 22.3014 14.4474 22.2053C12.5229 21.8197 11.0738 20.1195 11.0738 18.0823C11.0738 18.0643 11.0738 18.0464 11.0738 18.0285C11.6402 18.3437 12.2898 18.5333 12.9791 18.5551C11.8503 17.8004 11.1072 16.5128 11.1072 15.0547C11.1072 14.2834 11.3147 13.5608 11.6773 12.9393C13.7517 15.4839 16.851 17.1585 20.3462 17.334C20.2745 17.0265 20.2373 16.7049 20.2373 16.3757C20.2373 14.0527 22.1208 12.1693 24.4424 12.1693C25.6532 12.1693 26.7461 12.6805 27.5123 13.498C28.4707 13.3096 29.3714 12.9598 30.1837 12.4781C29.8698 13.4595 29.2023 14.2834 28.3348 14.8048C29.1856 14.7023 29.9953 14.4768 30.75 14.1424C30.1863 14.9855 29.4726 15.7261 28.6513 16.3193ZM20.5 0C9.17759 0 0 9.17759 0 20.5C0 31.8211 9.17759 41 20.5 41C31.8224 41 41 31.8211 41 20.5C41 9.17759 31.8224 0 20.5 0Z" />
</svg>