<svg width="22" height="18" viewBox="0 0 22 18" fill="none" xmlns="http://www.w3.org/2000/svg">
<path fill-rule="evenodd" clip-rule="evenodd" d="M19.4074 2.84622C20.3397 2.28348 21.0554 1.39335 21.3923 0.332244C20.5205 0.852759 19.5539 1.23069 18.5261 1.43488C17.7024 0.551663 16.5296 0 15.2316 0C12.7387 0 10.7181 2.0343 10.7181 4.54413C10.7181 4.8999 10.758 5.24668 10.835 5.57962C7.08331 5.38996 3.75787 3.58062 1.53175 0.831302C1.14331 1.50271 0.920563 2.28348 0.920563 3.11617C0.920563 4.69225 1.71737 6.08352 2.92806 6.89821C2.18831 6.87468 1.49256 6.67049 0.884125 6.32994C0.883438 6.34932 0.883438 6.36801 0.883438 6.38739C0.883438 8.58919 2.43925 10.4255 4.5045 10.8429C4.12569 10.9467 3.72694 11.0021 3.31512 11.0021C3.02431 11.0021 2.74175 10.9737 2.46606 10.9211C3.04013 12.7263 4.70731 14.0401 6.6825 14.0768C5.13769 15.2957 3.19137 16.0218 1.07662 16.0218C0.71225 16.0218 0.353375 16.0003 0 15.9588C1.99719 17.2476 4.36975 18 6.919 18C15.2213 18 19.7608 11.0755 19.7608 5.07087C19.7608 4.8736 19.7567 4.67772 19.7477 4.48252C20.6298 3.84226 21.395 3.04211 22 2.13051C21.1908 2.49183 20.3204 2.73617 19.4074 2.84622Z" fill="#444444"/>
</svg>
