<svg xmlns="http://www.w3.org/2000/svg" viewBox="0 0 14 11">
    <path
        d="M14,1.3a6,6,0,0,1-1.65.44A2.78,2.78,0,0,0,13.61.2a6,6,0,0,1-1.82.68A2.91,2.91,0,0,0,9.69,0,2.83,2.83,0,0,0,6.82,2.78a2.65,2.65,0,0,0,.08.63A8.29,8.29,0,0,1,1,.51a2.75,2.75,0,0,0,.89,3.71,3,3,0,0,1-1.3-.35v0A2.81,2.81,0,0,0,2.87,6.63a3.16,3.16,0,0,1-.76.09,2.36,2.36,0,0,1-.54,0A2.85,2.85,0,0,0,4.25,8.6,5.84,5.84,0,0,1,.69,9.79a5.12,5.12,0,0,1-.69,0A8.31,8.31,0,0,0,4.4,11a8,8,0,0,0,8.18-7.9c0-.12,0-.24,0-.36A5.59,5.59,0,0,0,14,1.3"
        fill="#444" fill-rule="evenodd" />
</svg>