<svg xmlns="http://www.w3.org/2000/svg" viewBox="0 0 15.02 14.79" width="15px" height="15px">
    <path d="M12.52,5.18,9.82,7.89a1.87,1.87,0,0,1-1.25.56,2.7,2.7,0,0,1-.63-.07,1.68,1.68,0,0,1-.81-.49,1.94,1.94,0,0,1-.49-.81,1.74,1.74,0,0,0-.93.37A2.27,2.27,0,0,0,5,8.2a3.45,3.45,0,0,0,.74,1.06A3.57,3.57,0,0,0,6.83,10a4.21,4.21,0,0,0,.65.23A3.88,3.88,0,0,0,10.12,10,4.11,4.11,0,0,0,11,9.43c.07,0,.11-.12.18-.17l2.72-2.71a3.89,3.89,0,0,0,0-5.44,3.88,3.88,0,0,0-5.43,0L5.76,3.83A.58.58,0,0,0,5.6,4a4.28,4.28,0,0,1,2.55.14L9.82,2.48a1.94,1.94,0,0,1,2.72,0A1.9,1.9,0,0,1,12.52,5.18Z"/><path d="M2.48,9.59,5.2,6.87a1.86,1.86,0,0,1,1.26-.55,2.68,2.68,0,0,1,.62.07,1.74,1.74,0,0,1,.81.48,1.88,1.88,0,0,1,.49.82,1.7,1.7,0,0,0,.93-.38,2.17,2.17,0,0,0,.7-.74A3.73,3.73,0,0,0,8.2,4.76a3.37,3.37,0,0,0-.65-.23,3.91,3.91,0,0,0-2.65.23A4.31,4.31,0,0,0,4,5.34c-.07,0-.12.12-.19.16L1.11,8.24a3.89,3.89,0,0,0,0,5.44,3.89,3.89,0,0,0,5.44,0L9.26,11a.77.77,0,0,0,.17-.19,4.31,4.31,0,0,1-2.56-.14L5.18,12.31a1.94,1.94,0,0,1-2.72,0A2,2,0,0,1,2.48,9.59Z"/>
</svg>