<svg width="205" height="68" viewBox="0 0 205 68" fill="none" xmlns="http://www.w3.org/2000/svg">
<path fill-rule="evenodd" clip-rule="evenodd" d="M41.2151 39.3686H48.0245V3.22119H41.2151V39.3686Z" fill="#2D2C31"/>
<path fill-rule="evenodd" clip-rule="evenodd" d="M149.629 8.98234C147.979 8.98234 146.436 9.32085 145.002 9.99588C143.568 10.6719 142.314 11.57 141.242 12.6911C140.169 13.8112 139.321 15.1228 138.694 16.6219C138.068 18.122 137.755 19.6793 137.755 21.2948C137.755 22.9429 138.068 24.5072 138.694 25.9905C139.321 27.4748 140.169 28.7844 141.242 29.9232C142.314 31.0592 143.568 31.9661 145.002 32.6431C146.436 33.3172 147.979 33.6557 149.629 33.6557C151.277 33.6557 152.82 33.3172 154.254 32.6431C155.689 31.9661 156.942 31.0592 158.015 29.9232C159.087 28.7844 159.936 27.4748 160.562 25.9905C161.19 24.5072 161.502 22.9429 161.502 21.2948C161.502 19.6793 161.19 18.122 160.562 16.6219C159.936 15.1228 159.087 13.8112 158.015 12.6911C156.942 11.57 155.689 10.6719 154.254 9.99588C152.82 9.32085 151.277 8.98234 149.629 8.98234M149.604 40.0843C147.026 40.0843 144.596 39.5899 142.316 38.6C140.036 37.6112 138.044 36.268 136.341 34.5705C134.639 32.8731 133.292 30.8865 132.3 28.6127C131.309 26.3379 130.813 23.8983 130.813 21.2948C130.813 18.723 131.309 16.2923 132.3 14.0007C133.292 11.7101 134.639 9.7166 136.341 8.01816C138.044 6.32169 140.036 4.97754 142.316 3.98769C144.596 2.9998 147.026 2.50537 149.604 2.50537C152.214 2.50537 154.66 2.9998 156.941 3.98769C159.222 4.97754 161.213 6.32169 162.915 8.01816C164.617 9.7166 165.965 11.7101 166.957 14.0007C167.948 16.2923 168.444 18.723 168.444 21.2948C168.444 23.8983 167.948 26.3379 166.957 28.6127C165.965 30.8865 164.617 32.8731 162.915 34.5705C161.213 36.268 159.222 37.6112 156.941 38.6C154.66 39.5899 152.214 40.0843 149.604 40.0843" fill="url(#paint0_linear)"/>
<path opacity="0.6" fill-rule="evenodd" clip-rule="evenodd" d="M149.629 7.51579C147.761 7.51579 146.015 7.89878 144.392 8.66252C142.768 9.42739 141.349 10.4435 140.136 11.7119C138.922 12.9792 137.962 14.4632 137.252 16.1593C136.543 17.8565 136.189 19.6185 136.189 21.4463C136.189 23.311 136.543 25.0808 137.252 26.759C137.962 28.4384 138.922 29.9201 140.136 31.2086C141.349 32.4938 142.768 33.52 144.392 34.286C146.015 35.0486 147.761 35.4316 149.629 35.4316C151.495 35.4316 153.241 35.0486 154.864 34.286C156.488 33.52 157.907 32.4938 159.121 31.2086C160.334 29.9201 161.295 28.4384 162.004 26.759C162.714 25.0808 163.068 23.311 163.068 21.4463C163.068 19.6185 162.714 17.8565 162.004 16.1593C161.295 14.4632 160.334 12.9792 159.121 11.7119C157.907 10.4435 156.488 9.42739 154.864 8.66252C153.241 7.89878 151.495 7.51579 149.629 7.51579M149.6 42.5895C146.679 42.5895 143.925 42.0291 141.341 40.9073C138.757 39.7866 136.499 38.2643 134.569 36.3405C132.64 34.4167 131.114 32.1652 129.99 29.5883C128.866 27.0102 128.304 24.2453 128.304 21.2947C128.304 18.38 128.866 15.6252 129.99 13.0281C131.114 10.4321 132.64 8.17273 134.569 6.24783C136.499 4.32516 138.757 2.80179 141.341 1.67996C143.925 0.560358 146.679 0 149.6 0C152.559 0 155.331 0.560358 157.916 1.67996C160.501 2.80179 162.758 4.32516 164.687 6.24783C166.616 8.17273 168.143 10.4321 169.267 13.0281C170.391 15.6252 170.953 18.38 170.953 21.2947C170.953 24.2453 170.391 27.0102 169.267 29.5883C168.143 32.1652 166.616 34.4167 164.687 36.3405C162.758 38.2643 160.501 39.7866 157.916 40.9073C155.331 42.0291 152.559 42.5895 149.6 42.5895" fill="url(#paint1_linear)"/>
<path fill-rule="evenodd" clip-rule="evenodd" d="M203.563 24.6861C203.084 23.5862 202.454 22.6636 201.678 21.9162C200.9 21.1688 200.015 20.5554 199.024 20.0758C198.03 19.5993 197.029 19.2172 196.021 18.9307C195.011 18.6451 194.035 18.4226 193.093 18.264C192.15 18.1035 191.331 17.945 190.636 17.7845C189.71 17.5639 188.75 17.3404 187.759 17.1169C186.766 16.8944 185.855 16.6236 185.029 16.3055C184.201 15.9875 183.523 15.5887 182.994 15.1111C182.464 14.6345 182.2 14.0447 182.2 13.3436C182.2 12.6445 182.423 12.0468 182.87 11.5545C183.317 11.0602 183.879 10.6545 184.558 10.3364C185.236 10.0184 185.956 9.78699 186.716 9.64323C187.382 9.51818 188.07 9.41774 188.632 9.39411V9.40691H202.158V3.23695H189.531C189.369 3.23202 189.219 3.22119 189.048 3.22119C188.945 3.22119 188.838 3.23596 188.734 3.23695H188.632V3.24285C187.237 3.26846 185.8 3.41025 184.31 3.69876C182.672 4.01779 181.183 4.56626 179.843 5.34612C178.504 6.12598 177.403 7.19238 176.544 8.54532C175.683 9.89826 175.253 11.5939 175.253 13.6302C175.253 15.0314 175.492 16.2504 175.973 17.2833C176.452 18.3182 177.089 19.2103 177.883 19.9577C178.677 20.706 179.57 21.3274 180.562 21.8207C181.555 22.315 182.564 22.7118 183.59 23.0141C184.615 23.3164 185.607 23.5557 186.568 23.73C187.527 23.9062 188.37 24.0559 189.099 24.1839C190.189 24.3749 191.24 24.5827 192.249 24.8043C193.258 25.0278 194.135 25.2986 194.878 25.6156C195.623 25.9356 196.219 26.3413 196.665 26.8346C197.112 27.328 197.335 27.9237 197.335 28.6248C197.335 29.1673 197.187 29.7148 196.89 30.2721C196.591 30.8295 196.145 31.3228 195.549 31.7531C194.954 32.1824 194.226 32.5339 193.366 32.8028C192.505 33.0745 191.544 33.1779 190.42 33.1779C190.156 33.1779 189.764 33.1779 189.605 33.1848H176.206V39.3548H189.545V39.3617C189.837 39.3686 190.185 39.3686 190.487 39.3686C192.538 39.3686 194.408 39.146 196.095 38.7C197.782 38.2539 199.238 37.5932 200.462 36.7188C201.686 35.8434 202.628 34.7376 203.291 33.4005C203.952 32.0623 204.283 30.4878 204.283 28.673C204.283 27.1143 204.042 25.783 203.563 24.6861" fill="#2D2C31"/>
<path fill-rule="evenodd" clip-rule="evenodd" d="M147.657 15.7476L154.263 20.6708C154.535 20.8856 154.534 21.3483 154.262 21.5611L147.657 26.4844C147.657 26.4844 147.708 15.7476 147.657 15.7476" fill="#FE7578"/>
<path fill-rule="evenodd" clip-rule="evenodd" d="M15.7235 38.6101C16.4874 40.0984 18.6231 40.0984 19.389 38.611L35.1224 2.86328H27.2093L18.4129 24.6884C18.03 25.5883 17.2029 25.5853 16.823 24.6845L8.02659 2.86328H0L15.7235 38.6101Z" fill="#2D2C31"/>
<path fill-rule="evenodd" clip-rule="evenodd" d="M104.948 3.24188V3.22119H122.928V9.50705H106.819C105.255 9.53759 104.23 9.96526 103.769 10.8088C103.29 11.6828 103.051 12.7865 103.051 14.1217V17.7006V27.8591V28.679C103.051 30.0142 103.29 30.9257 103.769 31.8007C104.23 32.6432 105.255 33.0719 106.819 33.1014H122.928V39.3686L104.948 39.3469C103.175 39.3055 101.7 39.0375 100.555 38.5221C99.3092 37.9594 98.3207 37.1898 97.5929 36.2104C96.865 35.2309 96.3654 34.1065 96.0959 32.8354C95.8254 31.5652 95.6907 30.2014 95.6907 28.742V27.8591V17.7006V13.8467C95.6907 12.3884 95.8254 11.0255 96.0959 9.75537C96.3654 8.4842 96.865 7.35789 97.5929 6.38038C98.3207 5.39991 99.3092 4.6313 100.555 4.06765C101.7 3.55229 103.175 3.28524 104.948 3.24188ZM123.287 24.6949H106.084V18.2528H123.287V24.6949Z" fill="#2D2C31"/>
<path fill-rule="evenodd" clip-rule="evenodd" d="M88.5889 13.6158C87.6776 11.3281 86.3279 9.3775 84.538 7.76401C81.1898 4.73612 76.9133 3.22119 71.7116 3.22119H57.3428V9.45832H64.3135V9.44255H71.7325C72.9937 9.44255 74.2876 9.59138 75.6154 9.88708C76.9432 10.1847 78.1556 10.7604 79.2508 11.6159C80.346 12.4714 81.2425 13.6808 81.9402 15.245C82.6378 16.8092 82.9847 18.8436 82.9847 21.3442C82.9847 23.8467 82.6378 25.8712 81.9402 27.4187C81.2425 28.9661 80.355 30.1765 79.2757 31.0478C78.1974 31.9211 76.9928 32.5036 75.6661 32.8003C74.3373 33.0979 73.0265 33.2448 71.7325 33.2448H64.3135V12.1235H57.3428V39.3686H71.7116C74.2946 39.3686 76.6738 38.9911 78.8434 38.2341C81.0149 37.4761 82.9131 36.3564 84.538 34.875C86.3279 33.2635 87.6776 31.3119 88.5889 29.0243C89.5002 26.7366 89.9564 24.1582 89.9564 21.2959C89.9564 18.4641 89.5002 15.9044 88.5889 13.6158" fill="#2D2C31"/>
<path fill-rule="evenodd" clip-rule="evenodd" d="M51.9696 53.4748V62.2973H49.2856V49.0255C49.2856 48.1715 50.297 47.7184 50.9357 48.2868L58.7945 57.2592V48.3029H61.4785V61.5976C61.4785 62.4483 60.475 62.9025 59.8345 62.3413L51.9696 53.4748Z" fill="#727272"/>
<path fill-rule="evenodd" clip-rule="evenodd" d="M21.5442 50.5236C20.9066 50.5236 20.3103 50.6542 19.7551 50.9159C19.2003 51.1775 18.7158 51.5254 18.3015 51.9595C17.8865 52.3933 17.5582 52.9011 17.3159 53.4816C17.0736 54.0621 16.9525 54.6648 16.9525 55.2904C16.9525 55.9289 17.0736 56.5345 17.3159 57.1089C17.5582 57.6833 17.8865 58.1908 18.3015 58.631C18.7158 59.0712 19.2003 59.4223 19.7551 59.6843C20.3103 59.9455 20.9066 60.0765 21.5442 60.0765C22.1818 60.0765 22.7778 59.9455 23.3329 59.6843C23.8877 59.4223 24.3723 59.0712 24.7869 58.631C25.2016 58.1908 25.5299 57.6833 25.7718 57.1089C26.0144 56.5345 26.1359 55.9289 26.1359 55.2904C26.1359 54.6648 26.0144 54.0621 25.7718 53.4816C25.5299 52.9011 25.2016 52.3933 24.7869 51.9595C24.3723 51.5254 23.8877 51.1775 23.3329 50.9159C22.7778 50.6542 22.1818 50.5236 21.5442 50.5236M21.5347 62.5653C20.538 62.5653 19.5983 62.3742 18.7167 61.9909C17.8347 61.608 17.0645 61.0883 16.4065 60.4309C15.7481 59.7738 15.2274 59.0047 14.8443 58.1239C14.4604 57.2431 14.269 56.299 14.269 55.2904C14.269 54.2951 14.4604 53.3539 14.8443 52.4666C15.2274 51.5794 15.7481 50.8078 16.4065 50.15C17.0645 49.4929 17.8347 48.9729 18.7167 48.5899C19.5983 48.207 20.538 48.0151 21.5347 48.0151C22.5443 48.0151 23.4905 48.207 24.3721 48.5899C25.2541 48.9729 26.0239 49.4929 26.6823 50.15C27.3403 50.8078 27.8611 51.5794 28.2445 52.4666C28.6284 53.3539 28.8197 54.2951 28.8197 55.2904C28.8197 56.299 28.6284 57.2431 28.2445 58.1239C27.8611 59.0047 27.3403 59.7738 26.6823 60.4309C26.0239 61.0883 25.2541 61.608 24.3721 61.9909C23.4905 62.3742 22.5443 62.5653 21.5347 62.5653" fill="#727272"/>
<path fill-rule="evenodd" clip-rule="evenodd" d="M125.072 50.5236C124.434 50.5236 123.838 50.6542 123.283 50.9159C122.729 51.1775 122.244 51.5254 121.829 51.9595C121.415 52.3933 121.086 52.9011 120.844 53.4816C120.602 54.0621 120.481 54.6648 120.481 55.2904C120.481 55.9289 120.602 56.5345 120.844 57.1089C121.086 57.6833 121.415 58.1908 121.829 58.631C122.244 59.0712 122.729 59.4223 123.283 59.6843C123.838 59.9455 124.434 60.0765 125.072 60.0765C125.71 60.0765 126.306 59.9455 126.861 59.6843C127.416 59.4223 127.9 59.0712 128.315 58.631C128.729 58.1908 129.058 57.6833 129.3 57.1089C129.543 56.5345 129.664 55.9289 129.664 55.2904C129.664 54.6648 129.543 54.0621 129.3 53.4816C129.058 52.9011 128.729 52.3933 128.315 51.9595C127.9 51.5254 127.416 51.1775 126.861 50.9159C126.306 50.6542 125.71 50.5236 125.072 50.5236M125.063 62.5653C124.066 62.5653 123.127 62.3742 122.245 61.9909C121.363 61.608 120.593 61.0883 119.935 60.4309C119.276 59.7738 118.756 59.0047 118.372 58.1239C117.989 57.2431 117.797 56.299 117.797 55.2904C117.797 54.2951 117.989 53.3539 118.372 52.4666C118.756 51.5794 119.276 50.8078 119.935 50.15C120.593 49.4929 121.363 48.9729 122.245 48.5899C123.127 48.207 124.066 48.0151 125.063 48.0151C126.072 48.0151 127.018 48.207 127.9 48.5899C128.782 48.9729 129.552 49.4929 130.21 50.15C130.868 50.8078 131.39 51.5794 131.773 52.4666C132.157 53.3539 132.348 54.2951 132.348 55.2904C132.348 56.299 132.157 57.2431 131.773 58.1239C131.39 59.0047 130.868 59.7738 130.21 60.4309C129.552 61.0883 128.782 61.608 127.9 61.9909C127.018 62.3742 126.072 62.5653 125.063 62.5653" fill="#727272"/>
<path fill-rule="evenodd" clip-rule="evenodd" d="M117.636 50.6575H113.629V62.2973H110.945V50.6575H106.919V48.2832H117.636V50.6575Z" fill="#727272"/>
<path fill-rule="evenodd" clip-rule="evenodd" d="M36.3673 62.5462C35.4595 62.5462 34.6352 62.4052 33.8944 62.1246C33.1529 61.8447 32.5203 61.4486 31.9964 60.9378C31.472 60.4278 31.0663 59.8087 30.7789 59.0807C30.4911 58.3531 30.3474 57.5432 30.3474 56.6492V48.3027H33.0314V56.636C33.0314 57.3367 33.1465 57.9165 33.3765 58.3757C33.6066 58.8345 33.8908 59.1978 34.2299 59.4651C34.5682 59.7328 34.9327 59.9175 35.3222 60.0195C35.7122 60.1215 36.0605 60.172 36.3673 60.172C36.6741 60.172 37.0225 60.1215 37.4124 60.0195C37.802 59.9175 38.1664 59.7328 38.5048 59.4651C38.8434 59.1978 39.128 58.8345 39.3581 58.3757C39.5882 57.9165 39.7032 57.3367 39.7032 56.636V48.3027H42.3872V56.6492C42.3872 57.5432 42.2464 58.3531 41.9654 59.0807C41.6841 59.8087 41.2816 60.4278 40.7576 60.9378C40.2333 61.4486 39.6007 61.8447 38.8596 62.1246C38.1184 62.4052 37.2877 62.5462 36.3673 62.5462" fill="#727272"/>
<path fill-rule="evenodd" clip-rule="evenodd" d="M189.394 56.7171C189.841 56.2766 190.179 55.763 190.409 55.1757C190.64 54.5891 190.755 53.9506 190.755 53.2617C190.755 52.572 190.624 51.9246 190.361 51.3179C190.1 50.7124 189.744 50.1855 189.297 49.7389C188.85 49.2919 188.323 48.9379 187.716 48.6759C187.108 48.4147 186.46 48.2837 185.77 48.2837H179.52V62.2978H182.204V58.1244H182.204V55.7114H182.204V50.6576H185.482C185.904 50.6576 186.275 50.7342 186.594 50.8877C186.914 51.0409 187.182 51.2385 187.4 51.4808C187.617 51.7234 187.783 52.0008 187.898 52.3136C188.013 52.6264 188.071 52.9424 188.071 53.2617C188.071 53.5802 188.026 53.8872 187.936 54.1804C187.847 54.4738 187.709 54.7355 187.524 54.9652C187.339 55.1946 187.099 55.3768 186.805 55.5107C186.511 55.6449 186.166 55.7114 185.77 55.7114H183.609V58.1244H183.616C183.908 63.3042 190.128 62.2978 190.128 62.2978V59.6368C190.128 59.6368 187.24 60.0073 186.677 58.0134C187.038 57.9515 187.38 57.866 187.697 57.7511C188.38 57.502 188.946 57.157 189.394 56.7171" fill="#727272"/>
<path fill-rule="evenodd" clip-rule="evenodd" d="M6.05664 57.2466V62.2968H8.85102V57.2498C8.40984 57.33 7.94572 57.3733 7.45365 57.3733C6.96301 57.3733 6.4989 57.3285 6.05664 57.2466" fill="#727272"/>
<path fill-rule="evenodd" clip-rule="evenodd" d="M10.7897 48.3027V50.2049C10.7897 50.9057 10.6746 51.4859 10.4445 51.9447C10.2148 52.4035 9.92987 52.7671 9.59155 53.0341C9.25215 53.3015 8.88803 53.4865 8.49845 53.5888C8.10888 53.6905 7.76053 53.7413 7.45374 53.7413C7.14696 53.7413 6.79896 53.6905 6.40867 53.5888C6.0191 53.4865 5.65462 53.3015 5.31594 53.0341C4.97761 52.7671 4.69305 52.4035 4.46332 51.9447C4.23288 51.4859 4.11783 50.9057 4.11783 50.2049V48.3027H1.43384V50.2189C1.43384 51.1122 1.57755 51.9221 1.86534 52.6497C2.15277 53.3777 2.55847 53.9968 3.08244 54.5068C3.60641 55.0176 4.23933 55.4137 4.98084 55.6936C5.72164 55.9746 6.54629 56.1152 7.45374 56.1152C8.37373 56.1152 9.20448 55.9746 9.946 55.6936C10.6872 55.4137 11.3197 55.0176 11.8437 54.5068C12.3676 53.9968 12.7701 53.3777 13.0518 52.6497C13.3328 51.9221 13.4736 51.1122 13.4736 50.2189V48.3027H10.7897Z" fill="#727272"/>
<path fill-rule="evenodd" clip-rule="evenodd" d="M148.536 56.6059C148.35 56.1793 148.107 55.8214 147.807 55.5308C147.507 55.2413 147.165 55.0029 146.782 54.8175C146.398 54.6321 146.011 54.484 145.621 54.373C145.232 54.2621 144.855 54.1758 144.491 54.1139C144.126 54.052 143.81 53.9901 143.541 53.9285C143.183 53.8423 142.813 53.7556 142.43 53.669C142.046 53.5828 141.694 53.4776 141.375 53.3541C141.056 53.2306 140.793 53.076 140.589 52.891C140.385 52.7059 140.282 52.4772 140.282 52.2052C140.282 51.9336 140.369 51.702 140.541 51.5106C140.714 51.3191 140.931 51.1613 141.193 51.0381C141.455 50.9147 141.733 50.8252 142.027 50.769C142.284 50.7207 142.55 50.6817 142.767 50.6724V50.6781H147.993V48.2834H143.114C143.052 48.2816 142.994 48.2773 142.928 48.2773C142.888 48.2773 142.847 48.2831 142.807 48.2834H142.767V48.2856C142.228 48.2956 141.673 48.3507 141.097 48.4627C140.465 48.5866 139.889 48.7995 139.372 49.1019C138.854 49.4047 138.429 49.8184 138.097 50.3431C137.764 50.8685 137.598 51.5263 137.598 52.3162C137.598 52.8598 137.691 53.3326 137.877 53.7338C138.061 54.1354 138.308 54.4811 138.615 54.7713C138.921 55.0616 139.266 55.3025 139.65 55.4943C140.033 55.6858 140.423 55.8397 140.819 55.9574C141.215 56.0748 141.599 56.1671 141.969 56.2351C142.34 56.3031 142.666 56.3615 142.947 56.4112C143.369 56.4849 143.775 56.5655 144.165 56.6521C144.555 56.7383 144.893 56.8436 145.181 56.9667C145.468 57.0905 145.698 57.248 145.871 57.4395C146.044 57.6309 146.129 57.8625 146.129 58.1341C146.129 58.3442 146.072 58.5572 145.957 58.7733C145.842 58.9895 145.669 59.1806 145.439 59.3477C145.21 59.5149 144.928 59.6509 144.596 59.7554C144.264 59.8606 143.892 59.9007 143.458 59.9007C143.356 59.9007 143.205 59.9007 143.143 59.9036H137.967V62.2975H143.12L143.12 62.3C143.232 62.3029 143.367 62.3029 143.484 62.3029C144.276 62.3029 144.999 62.2166 145.65 62.0434C146.302 61.8705 146.864 61.6143 147.337 61.2743C147.81 60.935 148.174 60.5055 148.43 59.9869C148.686 59.4676 148.814 58.8567 148.814 58.1527C148.814 57.5479 148.721 57.0315 148.536 56.6059" fill="#727272"/>
<path fill-rule="evenodd" clip-rule="evenodd" d="M67.2238 48.2837V48.2916C66.5342 48.308 65.9605 48.4118 65.515 48.6119C65.0297 48.8298 64.6455 49.1283 64.3624 49.5084C64.0796 49.8878 63.885 50.324 63.7804 50.8169C63.6746 51.3097 63.6223 51.8383 63.6223 52.4041V53.8983V57.8373V58.1798C63.6223 58.7457 63.6746 59.2746 63.7804 59.7671C63.885 60.2599 64.0796 60.6962 64.3624 61.0756C64.6455 61.4556 65.0297 61.7541 65.515 61.9721C65.9605 62.1722 66.5342 62.2759 67.2238 62.2924L74.2192 62.3003V59.8702H67.9517C67.3431 59.8587 66.9442 59.693 66.7647 59.3659C66.579 59.027 66.4859 58.673 66.4859 58.1555V57.8373V53.8983V52.5101C66.4859 51.9926 66.579 51.5649 66.7647 51.2256C66.9442 50.8985 67.3431 50.7328 67.9517 50.7213H74.2192V48.2837H67.2238Z" fill="#727272"/>
<mask id="mask0" mask-type="alpha" maskUnits="userSpaceOnUse" x="1" y="47" width="203" height="16">
<path fill-rule="evenodd" clip-rule="evenodd" d="M1.43359 62.5891H203.273V47.958H1.43359V62.5891Z" fill="white"/>
</mask>
<g mask="url(#mask0)">
<path fill-rule="evenodd" clip-rule="evenodd" d="M67.5627 56.592H74.2192V54.1226H67.5627V56.592Z" fill="#727272"/>
<path fill-rule="evenodd" clip-rule="evenodd" d="M80.0652 48.2837V48.2916C79.3757 48.308 78.8019 48.4118 78.3564 48.6119C77.8712 48.8298 77.487 49.1283 77.2038 49.5084C76.9211 49.8878 76.7265 50.324 76.6218 50.8169C76.5161 51.3097 76.4641 51.8383 76.4641 52.4041V53.8983V57.8373V58.1798C76.4641 58.7457 76.5161 59.2746 76.6218 59.7671C76.7265 60.2599 76.9211 60.6962 77.2038 61.0756C77.487 61.4556 77.8712 61.7541 78.3564 61.9721C78.8019 62.1722 79.3757 62.2759 80.0652 62.2924L87.0607 62.3003V59.8702H80.7931C80.1846 59.8587 79.7857 59.693 79.6061 59.3659C79.4205 59.027 79.3273 58.673 79.3273 58.1555V57.8373V53.8983V52.5101C79.3273 51.9926 79.4205 51.5649 79.6061 51.2256C79.7857 50.8985 80.1846 50.7328 80.7931 50.7213H87.0607V48.2837H80.0652Z" fill="#727272"/>
<path fill-rule="evenodd" clip-rule="evenodd" d="M80.4043 56.592H87.0607V54.1226H80.4043V56.592Z" fill="#727272"/>
<path fill-rule="evenodd" clip-rule="evenodd" d="M196.277 48.2837V48.2916C195.587 48.308 195.014 48.4118 194.568 48.6119C194.083 48.8298 193.699 49.1283 193.416 49.5084C193.133 49.8878 192.938 50.324 192.834 50.8169C192.728 51.3097 192.676 51.8383 192.676 52.4041V53.8983V57.8373V58.1798C192.676 58.7457 192.728 59.2746 192.834 59.7671C192.938 60.2599 193.133 60.6962 193.416 61.0756C193.699 61.4556 194.083 61.7541 194.568 61.9721C195.014 62.1722 195.587 62.2759 196.277 62.2924L203.273 62.3003V59.8702H197.005C196.397 59.8587 195.998 59.693 195.819 59.3659C195.632 59.027 195.539 58.673 195.539 58.1555V57.8373V53.8983V52.5101C195.539 51.9926 195.632 51.5649 195.819 51.2256C195.998 50.8985 196.397 50.7328 197.005 50.7213H203.273V48.2837H196.277Z" fill="#727272"/>
<path fill-rule="evenodd" clip-rule="evenodd" d="M196.615 56.592H203.272V54.1226H196.615V56.592Z" fill="#727272"/>
<path fill-rule="evenodd" clip-rule="evenodd" d="M171.905 48.3945C171.609 47.8125 170.782 47.8125 170.486 48.3945L166.463 57.5541C167.648 57.058 169.425 57.0863 169.425 57.0863H169.545L170.863 53.8091C171.011 53.4608 171.331 53.4608 171.48 53.8091L173.213 58.1313H171.465H169.817C169.817 58.1313 166.994 58.0931 166.091 59.1045C165.427 59.7054 165.045 60.4974 164.868 61.2511C164.782 61.614 164.744 61.9716 164.744 62.2962H167.433C167.433 62.2532 167.429 62.2149 167.429 62.172C167.429 60.5071 168.79 60.5071 169.402 60.5071H174.169L174.891 62.2962H178L171.905 48.3945Z" fill="#727272"/>
<path fill-rule="evenodd" clip-rule="evenodd" d="M101.408 52.3136C101.057 51.4264 100.537 50.6705 99.8482 50.0449C98.5591 48.871 96.913 48.2837 94.9099 48.2837H89.3774V50.7016H92.0614V50.6955H94.9182C95.4038 50.6955 95.902 50.7535 96.4134 50.868C96.9245 50.9829 97.3914 51.2063 97.8129 51.5384C98.2347 51.8702 98.5799 52.339 98.8479 52.9456C99.1167 53.5519 99.2508 54.34 99.2508 55.3095C99.2508 56.2798 99.1167 57.0646 98.8479 57.6648C98.5799 58.2647 98.2376 58.7335 97.8226 59.0717C97.4069 59.4103 96.9435 59.6361 96.4324 59.751C95.9213 59.8666 95.4163 59.9235 94.9182 59.9235H92.0614V51.7352H89.3774V62.2974H94.9099C95.9048 62.2974 96.8205 62.151 97.6563 61.8576C98.4921 61.5637 99.2228 61.13 99.8482 60.5555C100.537 59.9303 101.057 59.1741 101.408 58.2868C101.759 57.4 101.935 56.4007 101.935 55.2909C101.935 54.1932 101.759 53.2008 101.408 52.3136" fill="#727272"/>
<path fill-rule="evenodd" clip-rule="evenodd" d="M160.322 48.3027V54.3308H156.761H155.808C155.808 54.3308 153.255 54.1926 152.083 55.3006C151.165 56.1682 150.782 57.3671 150.744 58.3463C150.741 58.3478 150.737 58.3496 150.734 58.351V62.2971H153.418V58.4952H153.426C153.425 58.4526 153.42 58.4143 153.42 58.3703C153.42 56.7029 154.782 56.7047 155.395 56.7047H160.322V62.2971H163.006V48.3027H160.322Z" fill="#727272"/>
<path fill-rule="evenodd" clip-rule="evenodd" d="M153.418 53.6083V48.3032H150.734V55.2918C150.927 54.6584 152.009 53.701 153.418 53.6083" fill="#727272"/>
</g>
<defs>
<linearGradient id="paint0_linear" x1="130.813" y1="2.50537" x2="130.813" y2="40.0843" gradientUnits="userSpaceOnUse">
<stop stop-color="#FB9622"/>
<stop offset="1" stop-color="#EC27A1"/>
</linearGradient>
<linearGradient id="paint1_linear" x1="128.304" y1="0" x2="128.304" y2="42.5895" gradientUnits="userSpaceOnUse">
<stop stop-color="#FB9622"/>
<stop offset="1" stop-color="#EC27A1"/>
</linearGradient>
</defs>
</svg>
