<svg viewBox="0 0 35 26">
	<path fill="#FFFFFF" d="M20.4,18.8c0.5,0.3,1.2,0.2,1.5-0.2c1.3-1.6,2-3.5,2-5.6c0-2.1-0.7-4-2-5.6c-0.3-0.4-1-0.5-1.5-0.2l0,0
		c-0.4,0.2-0.5,0.7-0.3,1.1c1.1,1.4,1.7,3,1.7,4.7c0,1.7-0.6,3.4-1.7,4.7C19.8,18.1,20,18.6,20.4,18.8L20.4,18.8z"/>
	<path fill="#FFFFFF" d="M24.8,21.7c0.5,0.3,1.2,0.2,1.5-0.2c2-2.4,3.2-5.4,3.2-8.5c0-3.2-1.2-6.1-3.2-8.5c-0.3-0.4-1-0.5-1.5-0.2
		l0,0c-0.4,0.3-0.5,0.7-0.2,1.1c1.8,2.2,2.9,4.8,2.9,7.6c0,2.8-1.1,5.4-2.9,7.6C24.2,21,24.3,21.5,24.8,21.7L24.8,21.7z"/>
	<path fill="#FFFFFF" d="M28.9,1.3c-0.4,0.3-0.5,0.7-0.2,1.1c2.6,3,4.1,6.6,4.1,10.6c0,3.9-1.5,7.5-4.1,10.6
		c-0.3,0.4-0.2,0.8,0.2,1.1l0,0c0.5,0.3,1.1,0.2,1.5-0.2c2.8-3.3,4.4-7.2,4.4-11.5s-1.6-8.2-4.4-11.5C30,1.1,29.4,1.1,28.9,1.3
		L28.9,1.3z"/>
	<polyline fill="#FFFFFF" points="5,8.7 0.2,8.7 0.2,17 5,17 	"/>
	<polyline fill="#FFFFFF" points="7.1,17 17.3,24.5 17.3,1.5 7.1,8.7 	"/>
</svg>
