<svg xmlns="http://www.w3.org/2000/svg" viewBox="0 0 14 11">
    <path
        d="M5.55,7.53V3.13L9.34,5.34Zm8.31-5.16A3.67,3.67,0,0,0,13.3.82,1.87,1.87,0,0,0,11.9.16C9.94,0,7,0,7,0H7S4.06,0,2.1.16A1.87,1.87,0,0,0,.7.82,3.67,3.67,0,0,0,.14,2.37S0,3.64,0,4.9V6.09C0,7.36.14,8.62.14,8.62A3.63,3.63,0,0,0,.7,10.17a2.17,2.17,0,0,0,1.54.67C3.36,11,7,11,7,11s2.94,0,4.9-.16a1.89,1.89,0,0,0,1.4-.67,3.63,3.63,0,0,0,.56-1.55S14,7.36,14,6.09V4.9c0-1.26-.14-2.53-.14-2.53Z"
        fill="#444" fill-rule="evenodd" />
</svg>